<svg xmlns="http://www.w3.org/2000/svg" xmlns:xlink="http://www.w3.org/1999/xlink" viewBox="0 0 856 456">
  <defs>
    <style>
      .cls-1 {
        opacity: 0.7;
      }

      .cls-2, .cls-3 {
        fill: #fff;
      }

      .cls-3 {
        font-size: 14px;
        font-family: Roboto-Regular, Roboto;
      }

      .cls-4 {
        letter-spacing: -0.02em;
      }

      .cls-5 {
        letter-spacing: -0.01em;
      }

      .cls-6 {
        letter-spacing: -0.01em;
      }

      .cls-7 {
        letter-spacing: -0.01em;
      }

      .cls-8 {
        letter-spacing: 0.02em;
      }
    </style>
  </defs>
  <title>apolo15_w</title>
  <g id="Capa_3" data-name="Capa 3">
    <image class="cls-1" width="2040" height="1807" transform="translate(176 63.57) scale(0.24)" xlink:href="rover.webp"/>
  </g>
  <g id="Capa_4" data-name="Capa 4">
    <circle class="cls-2" cx="216.5" cy="220.5" r="4.5"/>
    <circle class="cls-2" cx="325.5" cy="204.5" r="4.5"/>
    <circle class="cls-2" cx="355.5" cy="170.5" r="4.5"/>
    <circle class="cls-2" cx="401.5" cy="193.5" r="4.5"/>
    <circle class="cls-2" cx="386.5" cy="258.5" r="4.5"/>
    <circle class="cls-2" cx="289.5" cy="286.5" r="4.5"/>
    <circle class="cls-2" cx="436.5" cy="339.5" r="4.5"/>
    <circle class="cls-2" cx="546.5" cy="339.5" r="4.5"/>
    <circle class="cls-2" cx="544.5" cy="260.07" r="4.5"/>
    <path class="cls-2" d="M695,272.84a71.62,71.62,0,0,0-31.83,7.72c-9.52,4.79-17.34,11.75-24.2,19.86s-13,16.86-21.26,23.72A67.71,67.71,0,0,1,590.27,338c-13.83,3.35-28.26,2.09-42.27.7-1.44-.14-1.43,2.11,0,2.25,12.51,1.25,25.23,2.33,37.71.27a69.61,69.61,0,0,0,29.17-12.09c8.41-6,14.91-13.85,21.35-21.87,6.82-8.49,14-16.58,23.46-22.24a69.47,69.47,0,0,1,35.31-10,1.13,1.13,0,0,0,0-2.25Z"/>
    <path class="cls-2" d="M697,222.89q-35.28,0-70.49,2.43c-11.39.79-22.81,1.6-34.12,3.14C582,229.87,571.49,232,562,236.54c-7.91,3.79-16.85,10.12-18,19.52-.17,1.44,2.08,1.42,2.25,0,1-8.08,9.13-13.66,15.78-17,9.16-4.65,19.49-6.77,29.58-8.21,10.91-1.56,21.95-2.33,32.94-3.11q17-1.2,34.07-1.84,19.18-.72,38.39-.73a1.13,1.13,0,0,0,0-2.25Z"/>
    <path class="cls-2" d="M388.25,258.72c11.48-12,25.26-21.64,39.95-29.36a242.76,242.76,0,0,1,49.49-19,382,382,0,0,1,57.64-10.56c20.34-2.29,40.78-3.42,61.23-4.23,20.87-.82,41.75-1.43,62.62-2.12l7.82-.26c1.44,0,1.45-2.29,0-2.25-21.13.7-42.27,1.35-63.4,2.12-20.64.75-41.29,1.73-61.84,3.8a411.85,411.85,0,0,0-58.92,9.83,257.17,257.17,0,0,0-50.29,18c-15.13,7.37-29.51,16.62-41.7,28.29-1.43,1.36-2.82,2.77-4.19,4.2-1,1.05.59,2.64,1.59,1.59Z"/>
    <path class="cls-2" d="M449.52,80.91c-15.82,1.16-29.07,12.34-36.5,25.83-8.9,16.14-11,35.3-12.35,53.38a308.91,308.91,0,0,0-.61,34.29c.06,1.45,2.31,1.45,2.25,0a282.34,282.34,0,0,1,3.26-57.28c2.75-16.26,8.31-32.76,21.09-43.9,6.39-5.56,14.34-9.45,22.86-10.07,1.44-.1,1.45-2.35,0-2.25Z"/>
    <path class="cls-2" d="M419.41,47.67A77.73,77.73,0,0,0,375,74.78,75.73,75.73,0,0,0,362,98.46c-3.56,10.58-5,21.75-6.07,32.82a384,384,0,0,0-1.82,39.83,1.13,1.13,0,0,0,2.25,0q-.1-17.24,1.33-34.43c.92-11.06,2.09-22.22,5.05-32.94a75.55,75.55,0,0,1,30.53-42.6A74.16,74.16,0,0,1,420,49.84c1.42-.28.82-2.45-.6-2.17Z"/>
    <path class="cls-2" d="M389.88,14c-11.92.82-22.74,6.89-31,15.33C349.71,38.72,344,50.8,340.31,63.25,336.2,77,334,91.33,331.82,105.47q-3.45,22.69-5.33,45.61-2.08,25.66-2.15,51.45a1.13,1.13,0,0,0,2.25,0,653,653,0,0,1,6.4-89.67c2-14.1,4.17-28.32,7.62-42.15,3.14-12.61,7.77-25.27,16-35.48s19.93-18.06,33.23-19c1.44-.1,1.45-2.35,0-2.25Z"/>
    <path class="cls-2" d="M165.78,311.59c13.76-1.29,24.11-11.86,31.57-22.65a115.53,115.53,0,0,0,20.3-66.18,1.13,1.13,0,0,0-2.25,0,113.24,113.24,0,0,1-17.73,61.63,75.91,75.91,0,0,1-12.74,15.66c-5.35,4.84-11.86,8.61-19.15,9.29-1.43.13-1.45,2.38,0,2.25Z"/>
    <path class="cls-2" d="M172.79,343.76a216.68,216.68,0,0,0,80.27-21.15,122.51,122.51,0,0,0,21.5-12.68c7-5.35,12.9-11.95,16.26-20.15.55-1.34-1.63-1.92-2.17-.6-6,14.79-20.83,23.59-34.48,30.39a214.62,214.62,0,0,1-51.1,17.76,213.05,213.05,0,0,1-30.28,4.18c-1.44.09-1.45,2.34,0,2.25Z"/>
    <path class="cls-2" d="M180.3,393.62c18.47.13,36.95.27,55.43.15s37-.48,55.4-1.34,36.68-2.21,54.93-4.29c16.85-1.93,34.32-3.87,49.74-11.42,14.32-7,25.85-18.42,36.64-29.9l4-4.29c1-1.06-.6-2.66-1.59-1.6-10.68,11.48-21.59,23.21-35.25,31.19-14.76,8.63-31.84,11.14-48.55,13.18-18.07,2.2-36.22,3.66-54.4,4.61s-36.58,1.4-54.88,1.57-36.46.07-54.68-.06l-6.8-.05a1.13,1.13,0,0,0,0,2.25Z"/>
  </g>
  <g id="Capa_2" data-name="Capa 2">
    <text class="cls-3" transform="translate(395.24 18.69)">Cama<tspan class="cls-4" x="36.61" y="0">r</tspan><tspan x="41.08" y="0">a de tel</tspan><tspan class="cls-5" x="86.32" y="0">e</tspan><tspan x="93.65" y="0">visión</tspan></text>
    <text class="cls-3" transform="translate(9.24 315.69)">Antena de alta ganancia</text>
    <text class="cls-3" transform="translate(425.24 51.69)">Antena de baja ganancia</text>
    <text class="cls-3" transform="translate(455.24 85.69)">Cáma<tspan class="cls-4" x="36.61" y="0">r</tspan><tspan x="41.08" y="0">a de 16mm</tspan></text>
    <text class="cls-3" transform="translate(671.24 196.69)">Consola de da<tspan class="cls-6" x="88.79" y="0">t</tspan><tspan x="93.23" y="0">os</tspan></text>
    <text class="cls-3" transform="translate(701.24 229.69)">Bolsas pa<tspan class="cls-4" x="61.09" y="0">r</tspan><tspan x="65.55" y="0">a </tspan><tspan class="cls-7" x="0" y="16.8">r</tspan><tspan x="4.61" y="16.8">ecolectar muest</tspan><tspan class="cls-4" x="105.07" y="16.8">r</tspan><tspan x="109.53" y="16.8">as</tspan></text>
    <text class="cls-3" transform="translate(9.47 347.69)">Unidad de t<tspan class="cls-4" x="70.42" y="0">r</tspan><tspan x="74.89" y="0">ansmisión de </tspan><tspan x="0" y="16.8">comunicaciones lunar</tspan></text>
    <text class="cls-3" transform="translate(43.47 396.69)">Compa<tspan class="cls-8" x="44.84" y="0">r</tspan><tspan x="49.92" y="0">timien</tspan><tspan class="cls-6" x="88.7" y="0">t</tspan><tspan x="93.13" y="0">o pa</tspan><tspan class="cls-4" x="120.05" y="0">r</tspan><tspan x="124.52" y="0">a </tspan><tspan x="0" y="16.8">gua</tspan><tspan class="cls-7" x="23.19" y="16.8">r</tspan><tspan x="27.79" y="16.8">dar bolsas</tspan></text>
    <text class="cls-3" transform="translate(701.47 278.69)">Compa<tspan class="cls-8" x="44.84" y="0">r</tspan><tspan x="49.92" y="0">timien</tspan><tspan class="cls-6" x="88.7" y="0">t</tspan><tspan x="93.13" y="0">o pa</tspan><tspan class="cls-4" x="120.05" y="0">r</tspan><tspan x="124.52" y="0">a el </tspan><tspan x="0" y="16.8">equipo científico y de </tspan><tspan x="0" y="33.6">la tripulación</tspan></text>
  </g>
</svg>
