<svg id="Capa_1" data-name="Capa 1" xmlns="http://www.w3.org/2000/svg" xmlns:xlink="http://www.w3.org/1999/xlink" viewBox="0 0 871.39 444.79">
  <defs>
    <style>
      .cls-1, .cls-2 {
        isolation: isolate;
      }

      .cls-2 {
        font-size: 14px;
        fill: #fff;
        font-family: Roboto-Regular, Roboto;
      }

      .cls-3 {
        letter-spacing: -0.02em;
      }

      .cls-4 {
        letter-spacing: -0.01em;
      }

      .cls-5 {
        letter-spacing: -0.01em;
      }

      .cls-6 {
        letter-spacing: -0.01em;
      }

      .cls-7 {
        letter-spacing: 0.02em;
      }

      .cls-10, .cls-11, .cls-12, .cls-13, .cls-14, .cls-15, .cls-16, .cls-8 {
        fill: none;
        stroke: #ff8327;
        stroke-miterlimit: 10;
      }

      .cls-8 {
        stroke-width: 3.16px;
      }

      .cls-9 {
        fill: #ff8327;
      }

      .cls-10 {
        stroke-width: 1.78px;
      }

      .cls-11 {
        stroke-width: 1.85px;
      }

      .cls-12 {
        stroke-width: 2.64px;
      }

      .cls-13 {
        stroke-width: 2.48px;
      }

      .cls-14 {
        stroke-width: 2px;
      }

      .cls-15 {
        stroke-width: 1.5px;
      }

      .cls-16 {
        stroke-width: 2.22px;
      }
    </style>
  </defs>
  <title>apolo15_2</title>
  <image class="cls-1" width="2040" height="1807" transform="translate(185.63 10.2) scale(0.25)" xlink:href="apolo15_2.PNG"/>
  <text class="cls-2" transform="translate(15.44 32.21)">Antena de alta ganancia</text>
  <text class="cls-2" transform="translate(294.49 28.27)">Cama<tspan class="cls-3" x="36.61" y="0">r</tspan><tspan x="41.08" y="0">a de tel</tspan><tspan class="cls-4" x="86.32" y="0">e</tspan><tspan x="93.65" y="0">visión</tspan></text>
  <text class="cls-2" transform="translate(469.54 54.25)">Antena de Baja ganancia</text>
  <text class="cls-2" transform="translate(503.54 102.25)">Cama<tspan class="cls-3" x="36.61" y="0">r</tspan><tspan x="41.08" y="0">a </tspan></text>
  <text class="cls-2" transform="translate(503.54 119.05)">de 16mm</text>
  <text class="cls-2" transform="translate(607.59 129.25)">Bolsas pa<tspan class="cls-3" x="61.09" y="0">r</tspan><tspan x="65.55" y="0">a </tspan></text>
  <text class="cls-2" transform="translate(607.59 146.05)"><tspan class="cls-5">r</tspan><tspan x="4.61" y="0">ecolectar muest</tspan><tspan class="cls-3" x="105.07" y="0">r</tspan><tspan x="109.53" y="0">as</tspan></text>
  <text class="cls-2" transform="translate(50.43 210.13)">Consola de da<tspan class="cls-6" x="88.79" y="0">t</tspan><tspan x="93.23" y="0">os</tspan></text>
  <text class="cls-2" transform="translate(6.43 289.13)">Unidad de t<tspan class="cls-3" x="70.42" y="0">r</tspan><tspan x="74.89" y="0">ansmisión </tspan></text>
  <text class="cls-2" transform="translate(6.43 305.93)">de comuniciones lunar</text>
  <text class="cls-2" transform="translate(356.43 417.13)">Compa<tspan class="cls-7" x="44.84" y="0">r</tspan><tspan x="49.92" y="0">timen</tspan><tspan class="cls-6" x="85.3" y="0">t</tspan><tspan x="89.74" y="0">o pa</tspan><tspan class="cls-3" x="116.66" y="0">r</tspan><tspan x="121.12" y="0">a </tspan></text>
  <text class="cls-2" transform="translate(356.43 433.93)">gua<tspan class="cls-5" x="23.19" y="0">r</tspan><tspan x="27.79" y="0">dar bolsas</tspan></text>
  <text class="cls-2" transform="translate(688.8 348.45)">Compa<tspan class="cls-7" x="44.84" y="0">r</tspan><tspan x="49.92" y="0">timen</tspan><tspan class="cls-6" x="85.3" y="0">t</tspan><tspan x="89.74" y="0">o pa</tspan><tspan class="cls-3" x="116.66" y="0">r</tspan><tspan x="121.12" y="0">a equipo</tspan></text>
  <text class="cls-2" transform="translate(688.8 365.25)">científico y de la tripulación</text>
  <g>
    <line class="cls-8" x1="247.75" y1="77.29" x2="192.33" y2="30.6"/>
    <path class="cls-9" d="M193.53,27.1a3.66,3.66,0,0,0-4.6,2.6,3.74,3.74,0,0,0,2.6,4.6,3.74,3.74,0,0,0,2-7.2Z"/>
    <line class="cls-10" x1="337.43" y1="149.61" x2="352.13" y2="42.2"/>
    <path class="cls-9" d="M355.73,43.2a3.75,3.75,0,1,0-4.5,2.8A3.76,3.76,0,0,0,355.73,43.2Z"/>
    <line class="cls-11" x1="384.68" y1="125.5" x2="457.13" y2="59.9"/>
    <path class="cls-9" d="M459.33,63a3.9,3.9,0,0,0,.7-5.3,3.79,3.79,0,0,0-5.3-.7,3.9,3.9,0,0,0-.7,5.3h0A3.9,3.9,0,0,0,459.33,63Z"/>
    <line class="cls-12" x1="443.5" y1="152.5" x2="496.13" y2="109.9"/>
    <path class="cls-9" d="M498.33,113a3.77,3.77,0,1,0-5.3-.6A3.88,3.88,0,0,0,498.33,113Z"/>
    <line class="cls-13" x1="572.71" y1="210.36" x2="640.63" y2="156.9"/>
    <path class="cls-9" d="M643.43,159.4a3.76,3.76,0,1,0-5.3.4A3.69,3.69,0,0,0,643.43,159.4Z"/>
    <line class="cls-14" x1="404.93" y1="207.7" x2="189.53" y2="207.7"/>
    <path class="cls-9" d="M189.73,203.9a3.75,3.75,0,1,0,3.7,3.8h0A3.78,3.78,0,0,0,189.73,203.9Z"/>
    <line class="cls-14" x1="277.93" y1="239.7" x2="148.43" y2="272.8"/>
    <path class="cls-9" d="M147.63,269.1a3.77,3.77,0,1,0,4.6,2.7,3.8,3.8,0,0,0-4.6-2.7Z"/>
    <line class="cls-15" x1="454.11" y1="297.14" x2="444.63" y2="392.2"/>
    <path class="cls-9" d="M441,391.2a3.91,3.91,0,0,0,2.9,4.5,3.79,3.79,0,0,0,1.6-7.4h0A3.8,3.8,0,0,0,441,391.2Z"/>
    <line class="cls-16" x1="602.61" y1="276.89" x2="675.73" y2="342"/>
    <path class="cls-9" d="M673.83,345.3a3.78,3.78,0,1,0-1.6-5.1h0A3.91,3.91,0,0,0,673.83,345.3Z"/>
  </g>
</svg>
