<svg xmlns="http://www.w3.org/2000/svg" xmlns:xlink="http://www.w3.org/1999/xlink" viewBox="0 0 496 642">
  <defs>
    <style>
      .cls-1 {
        opacity: 0.7;
      }

      .cls-2, .cls-3 {
        fill: #fff;
      }

      .cls-3 {
        font-size: 14px;
        font-family: Roboto-Regular, Roboto;
      }

      .cls-4 {
        letter-spacing: -0.02em;
      }

      .cls-5 {
        letter-spacing: -0.01em;
      }

      .cls-6 {
        letter-spacing: -0.01em;
      }

      .cls-7 {
        letter-spacing: -0.01em;
      }

      .cls-8 {
        letter-spacing: 0.02em;
      }
    </style>
  </defs>
  <title>apolo15_m</title>
  <g id="Capa_3" data-name="Capa 3">
    <image class="cls-1" width="2040" height="1807" transform="translate(-3 92) scale(0.24)" xlink:href="rover.webp"/>
  </g>
  <g id="Capa_4" data-name="Capa 4">
    <path class="cls-2" d="M183.87,43.46C162.24,53.77,150.75,76.68,145.67,99c-3,13.1-4.32,26.56-5.55,39.92q-2,21.45-2.54,43-.63,24,.47,48c.07,1.44,2.32,1.45,2.25,0a665.17,665.17,0,0,1,1.47-84.12c1.1-13.49,2.34-27.07,4.86-40.38,2.29-12.1,5.84-24.1,12.08-34.8s15-19.93,26.29-25.29c1.31-.62.17-2.56-1.13-1.94Z"/>
    <path class="cls-2" d="M213,78c-14.42,7-21.73,23.48-26.52,37.84-5.6,16.76-7.83,34.45-8.7,52-.49,10-.54,20.06-.49,30.1a1.13,1.13,0,0,0,2.25,0c-.09-17.39.09-34.87,2.45-52.13,2.26-16.52,6.45-33.39,14.69-48,4.15-7.37,9.71-14.15,17.46-17.89,1.3-.63.16-2.57-1.14-1.94Z"/>
    <path class="cls-2" d="M241.31,111.53c-11.14,8.62-15.17,22.92-16.34,36.37-.7,8-.64,16.17-.79,24.25l-.43,24.31-.5,27.79a1.13,1.13,0,0,0,2.25,0q.44-24.06.86-48.13c.14-7.81.14-15.64.54-23.44.37-7.35,1.25-14.73,3.7-21.7a38.3,38.3,0,0,1,12.3-17.86c1.14-.89-.46-2.47-1.59-1.59Z"/>
    <path class="cls-2" d="M206.46,286.47c10.19-2.52,20.43-5.15,30-9.53a59.79,59.79,0,0,0,23.89-19c6.32-8.67,10.4-18.68,15-28.31,4.79-10,10.39-19.76,18-27.87,8.27-8.76,19.13-15.55,31.25-17.07,1.42-.18,1.44-2.43,0-2.25-22.35,2.8-38.08,20.77-48,39.64-5.06,9.58-8.92,19.77-14.49,29.08a60.9,60.9,0,0,1-9.83,12.69,56.79,56.79,0,0,1-12.68,9.06c-10.52,5.63-22.24,8.58-33.76,11.43a1.13,1.13,0,0,0,.6,2.17Z"/>
    <path class="cls-2" d="M356.06,216.18a18.64,18.64,0,0,0-12.14,7.68c-3.4,4.58-4.74,10.29-4.72,15.93a55.23,55.23,0,0,0,3.32,17.42,73.78,73.78,0,0,0,19.55,30.15c1.06,1,2.65-.6,1.59-1.59a71.8,71.8,0,0,1-17.84-26.07c-3.87-9.81-7-22.46-1.53-32.27,2.6-4.68,7-8.32,12.37-9.08,1.43-.2.82-2.37-.6-2.17Z"/>
    <path class="cls-2" d="M195.53,548c11.39,2.25,22.33-4.43,28.84-13.41,7.49-10.31,10.47-23.43,13.7-35.54a569.81,569.81,0,0,0,15.55-82q2.69-23.43,3.43-47c.05-1.45-2.2-1.45-2.25,0a567.44,567.44,0,0,1-8.39,81q-3.53,19.91-8.45,39.52-2.44,9.69-5.23,19.31a96.7,96.7,0,0,1-6.32,17c-2.95,5.81-6.95,11.1-12.42,14.74-5.23,3.49-11.59,5.43-17.87,4.19-1.41-.28-2,1.89-.59,2.17Z"/>
    <path class="cls-2" d="M240,597.35c15.56.58,30.93-3.59,44.59-10.94a113.28,113.28,0,0,0,35.7-30.59c10.52-13.6,18.17-29.23,23.74-45.45,5.79-16.84,9.38-34.36,11.91-52a413.14,413.14,0,0,0,4.22-59.11c0-2.46,0-4.92-.07-7.38a1.13,1.13,0,0,0-2.25,0,412.81,412.81,0,0,1-3.07,58.39c-2.19,17.65-5.4,35.25-10.58,52.27-5,16.27-11.83,32-21.47,46.1A114.14,114.14,0,0,1,289,581.25c-13,8.06-27.86,13.31-43.2,13.86-1.94.07-3.87.06-5.81,0-1.45-.05-1.45,2.2,0,2.25Z"/>
    <path class="cls-2" d="M153.17,8.43c-17.62,10-30.7,26.45-39.48,44.47-10.32,21.18-14.93,44.52-18.84,67.58q-3.57,21.06-6.65,42.21c-.2,1.42,2,2,2.17.6q2.7-18.53,5.77-37c2-11.71,4-23.41,6.72-35,5-21,12.69-41.88,26.28-59a88,88,0,0,1,25.16-22,1.12,1.12,0,0,0-1.13-1.94Z"/>
    <path class="cls-2" d="M109,315.91c15.74,13.34,24.69,32.43,29.95,52a237,237,0,0,1,5.89,30.69q2.53,19.26,3.6,38.66,1.26,22.13.65,44.3c0,1.44,2.21,1.44,2.25,0a531.71,531.71,0,0,0-3.88-80.08c-2.57-20.61-6.61-41.54-16.06-60.22a86.2,86.2,0,0,0-20.8-27c-1.1-.93-2.7.66-1.6,1.6Z"/>
    <circle class="cls-2" cx="89.5" cy="161.5" r="4.5"/>
    <circle class="cls-2" cx="139.5" cy="229.5" r="4.5"/>
    <circle class="cls-2" cx="178.5" cy="198.5" r="4.5"/>
    <circle class="cls-2" cx="224.5" cy="221.5" r="4.5"/>
    <circle class="cls-2" cx="206.5" cy="285.5" r="4.5"/>
    <circle class="cls-2" cx="109.5" cy="314.5" r="4.5"/>
    <circle class="cls-2" cx="256.5" cy="367.5" r="4.5"/>
    <circle class="cls-2" cx="358.5" cy="389.5" r="4.5"/>
    <circle class="cls-2" cx="365.5" cy="288.5" r="4.5"/>
  </g>
  <g id="Capa_2" data-name="Capa 2">
    <text class="cls-3" transform="translate(189.24 47.12)">Cama<tspan class="cls-4" x="36.61" y="0">r</tspan><tspan x="41.08" y="0">a de tel</tspan><tspan class="cls-5" x="86.32" y="0">e</tspan><tspan x="93.65" y="0">visión</tspan></text>
    <text class="cls-3" transform="translate(159.24 14.12)">Antena de alta ganancia</text>
    <text class="cls-3" transform="translate(219.24 80.12)">Antena de baja ganancia</text>
    <text class="cls-3" transform="translate(249.24 114.12)">Cáma<tspan class="cls-4" x="36.61" y="0">r</tspan><tspan x="41.08" y="0">a de 16mm</tspan></text>
    <text class="cls-3" transform="translate(330.24 187.12)">Consola de da<tspan class="cls-6" x="88.79" y="0">t</tspan><tspan x="93.23" y="0">os</tspan></text>
    <text class="cls-3" transform="translate(360.24 220.12)">Bolsas pa<tspan class="cls-4" x="61.09" y="0">r</tspan><tspan x="65.55" y="0">a </tspan><tspan class="cls-7" x="0" y="16.8">r</tspan><tspan x="4.61" y="16.8">ecolectar muest</tspan><tspan class="cls-4" x="105.07" y="16.8">r</tspan><tspan x="109.53" y="16.8">as</tspan></text>
    <text class="cls-3" transform="translate(24.47 504.12)">Unidad de t<tspan class="cls-4" x="70.42" y="0">r</tspan><tspan x="74.89" y="0">ansmisión de </tspan><tspan x="0" y="16.8">comunicaciones lunar</tspan></text>
    <text class="cls-3" transform="translate(58.47 553.12)">Compa<tspan class="cls-8" x="44.84" y="0">r</tspan><tspan x="49.92" y="0">timien</tspan><tspan class="cls-6" x="88.7" y="0">t</tspan><tspan x="93.13" y="0">o pa</tspan><tspan class="cls-4" x="120.05" y="0">r</tspan><tspan x="124.52" y="0">a </tspan><tspan x="0" y="16.8">gua</tspan><tspan class="cls-7" x="23.19" y="16.8">r</tspan><tspan x="27.79" y="16.8">dar bolsas</tspan></text>
    <text class="cls-3" transform="translate(88.47 602.12)">Compa<tspan class="cls-8" x="44.84" y="0">r</tspan><tspan x="49.92" y="0">timien</tspan><tspan class="cls-6" x="88.7" y="0">t</tspan><tspan x="93.13" y="0">o pa</tspan><tspan class="cls-4" x="120.05" y="0">r</tspan><tspan x="124.52" y="0">a el </tspan><tspan x="0" y="16.8">equipo científico y de </tspan><tspan x="0" y="33.6">la tripulación</tspan></text>
  </g>
</svg>
