<?xml version="1.0" encoding="utf-8"?>
<!-- Generator: Adobe Illustrator 26.0.1, SVG Export Plug-In . SVG Version: 6.00 Build 0)  -->
<svg version="1.1" id="Capa_1" xmlns="http://www.w3.org/2000/svg" xmlns:xlink="http://www.w3.org/1999/xlink" x="0px" y="0px"
	 viewBox="0 0 1920 1109" style="enable-background:new 0 0 1920 1109;" xml:space="preserve">
<style type="text/css">
	.st0{fill:#6B6B6B;}
	.st1{font-family:'Roboto-Regular';}
	.st2{font-size:14.5517px;}
	.st3{fill:#22B573;}
	.st4{fill:#C1272D;}
	.st5{fill:#FFAC00;}
	.st6{fill:none;stroke:#6B6B6B;stroke-linejoin:round;stroke-miterlimit:10;stroke-dasharray:5;}
	
		.st7{opacity:0.4;fill:none;stroke:#6B6B6B;stroke-width:35;stroke-linecap:round;stroke-linejoin:round;stroke-miterlimit:10;enable-background:new    ;}
	
		.st8{opacity:0.6;fill:none;stroke:#FF7C00;stroke-width:5;stroke-linecap:round;stroke-linejoin:round;stroke-miterlimit:10;enable-background:new    ;}
	.st9{fill:none;}
	.st10{fill:#FF7C00;}
	.st11{fill:#FFFFFF;}
	.st12{font-family:'Roboto-Bold';}
	.st13{font-size:24px;}
	.st14{font-size:16px;}
	.st15{font-family:'Arial-BoldMT';}
	.st16{font-family:'ArialMT';}
	.st17{font-size:14px;}
</style>
<g id="Fondo">
	<g>
		<rect x="0" y="0" width="1920" height="1109"/>
	</g>
</g>
<g id="Layer_2">
	<text transform="matrix(1 0 0 1 1489.8633 108.3097)" class="st0 st1 st2">Éxito</text>
	<text transform="matrix(1 0 0 1 1752.9458 108.3097)" class="st0 st1 st2">Fracaso</text>
	<text transform="matrix(1 0 0 1 1588.4468 108.4689)" class="st0 st1 st2">Fracaso parcial</text>
	<path class="st3" d="M1467.8,95.3c-2,0-3.9,0.8-5.3,2.2c-1.4,1.4-2.2,3.3-2.2,5.3s0.8,3.9,2.2,5.3c1.4,1.4,3.3,2.2,5.3,2.2
		s3.9-0.8,5.3-2.2c1.4-1.4,2.2-3.3,2.2-5.3s-0.8-3.9-2.2-5.3C1471.7,96.1,1469.8,95.3,1467.8,95.3L1467.8,95.3z M1470.8,101.2
		l-3.9,3.9c-0.1,0.1-0.3,0.2-0.4,0.2h0c-0.2,0-0.3-0.1-0.4-0.2l-1.4-1.7c-0.2-0.2-0.2-0.6,0.1-0.8s0.6-0.2,0.8,0.1l1,1.2l3.4-3.4
		l0,0c0.2-0.2,0.6-0.2,0.8,0S1471.1,101,1470.8,101.2L1470.8,101.2z"/>
	<g>
		<path class="st4" d="M1736.2,97.5c-1.4-1.4-3.3-2.2-5.3-2.2l0,0c-2,0-3.9,0.8-5.3,2.2c-1.4,1.4-2.2,3.3-2.2,5.3
			c0,2,0.8,3.9,2.2,5.3c1.4,1.4,3.3,2.2,5.3,2.2s3.9-0.8,5.3-2.2c1.4-1.4,2.2-3.3,2.2-5.3C1738.4,100.8,1737.6,98.9,1736.2,97.5z
			 M1733.9,105.1c0.2,0.2,0.2,0.6,0,0.8c-0.1,0.1-0.2,0.2-0.4,0.2s-0.3-0.1-0.4-0.2l-2.3-2.3l-2.3,2.3c-0.1,0.1-0.2,0.2-0.4,0.2
			s-0.3-0.1-0.4-0.2c-0.2-0.2-0.2-0.6,0-0.8l2.3-2.3l-2.3-2.3c-0.2-0.2-0.2-0.6,0-0.8s0.6-0.2,0.8,0l2.3,2.3l2.3-2.3
			c0.2-0.2,0.6-0.2,0.8,0s0.2,0.6,0,0.8l-2.3,2.3L1733.9,105.1z"/>
	</g>
	<g>
		<path class="st5" d="M1574.3,95.3c-4.2,0-7.6,3.4-7.6,7.6c0,4.2,3.4,7.6,7.6,7.6s7.6-3.4,7.6-7.6
			C1581.8,98.6,1578.4,95.3,1574.3,95.3z M1577.1,103.4h-5.8c-0.3,0-0.6-0.2-0.6-0.6c0-0.3,0.2-0.6,0.6-0.6h5.8
			c0.3,0,0.6,0.2,0.6,0.6C1577.7,103.1,1577.4,103.4,1577.1,103.4z"/>
	</g>
	<rect x="1438.5" y="80.7" class="st6" width="390.1" height="49.5"/>
	<path class="st7" d="M135,276.5h1361c85.1,0,154,69,154,154l0,0c0,85.1-69,154-154,154H409c-80.6,0-146,65.4-146,146l0,0
		c0,80.6,65.4,146,146,146h1583"/>
	<path class="st8" d="M135,276.5h1361c85.1,0,154,69,154,154l0,0c0,85.1-69,154-154,154H409c-80.6,0-146,65.4-146,146l0,0
		c0,80.6,65.4,146,146,146h1620.4"/>
	<g>
		<polygon class="st9" points="-247,152.7 -247,152.8 -243.5,151.8 -243.5,151.8 		"/>
		<path class="st9" d="M-243.2,151.7L-243.2,151.7L-243.2,151.7z"/>
		<polygon class="st10" points="-172.3,147 -172.3,154.4 -155.8,152.3 -155.8,147 		"/>
		<polygon class="st10" points="-218.3,153.8 -218.3,157.4 -211.6,155.3 -211.6,152.2 		"/>
		<rect x="-205.5" y="138" class="st10" width="17.5" height="17.1"/>
		<rect x="-242.5" y="133.5" class="st10" width="15.4" height="4.3"/>
		<polygon class="st10" points="-226.2,155.6 -226.2,159.9 -219.2,157.7 -219.2,154 		"/>
		<rect x="-154.9" y="140.9" class="st10" width="9.9" height="11.2"/>
		<polygon class="st10" points="-173.3,154.6 -173.3,138.6 -177.4,138.1 -177.4,155.1 		"/>
		<polygon class="st10" points="-219.2,139.2 -219.2,135.5 -226.2,133.3 -226.2,137.2 		"/>
		<rect x="-183.1" y="138" class="st10" width="4.8" height="17.1"/>
		<polygon class="st10" points="-247,128.2 -247,132.5 -230.4,132.5 		"/>
		<polygon class="st10" points="-211.6,151.2 -211.6,137.9 -218.3,135.8 -218.3,152.8 		"/>
		<rect x="-242.5" y="156.6" class="st10" width="15.4" height="3.1"/>
		<polygon class="st10" points="-227.1,148.4 -242.5,152.5 -242.5,155.7 -227.1,155.7 		"/>
		<rect x="-187.1" y="138" class="st10" width="3" height="17.1"/>
		<polygon class="st10" points="-155.8,146 -155.8,140.9 -172.3,138.7 -172.3,146 		"/>
		<polygon class="st10" points="-243.5,151.7 -243.2,151.7 -243.2,151.7 -243.2,151.7 -243.1,151.7 -227.1,147.4 -227.1,146.7 
			-247,141.3 -247,152.7 -243.5,151.8 		"/>
		<polygon class="st10" points="-230.4,160.7 -246.9,160.7 -246.9,159.7 -243.5,159.7 -243.5,156.6 -243.5,155.7 -243.5,154.6 
			-247,154.6 -247,165 		"/>
		<path class="st10" d="M-247.9,154.6h-5.8v0.6c2.4,0.7,4.7,1.8,5.8,2.3V154.6z"/>
		<path class="st10" d="M-115.4,147.8l1.8-0.7c0.2-0.1,0.3-0.3,0.3-0.5l0,0c0-0.2-0.1-0.4-0.3-0.5l-1.7-0.6l-15.2,0v2.3
			L-115.4,147.8z"/>
		<polygon class="st10" points="-241.6,171.4 -236.6,163.2 -245.2,165.5 -245.2,171.4 		"/>
		<path class="st10" d="M-253.7,151.4v0.4h5.7l0-2.6C-249,149.7-251.3,150.7-253.7,151.4z"/>
		<polygon class="st10" points="-241.6,121.6 -245.2,121.6 -245.2,127.7 -236.4,130 		"/>
		<path class="st10" d="M-258.3,155.3v9.4h0.2c3.3,0,8.2-2.1,10.1-3v-3.2C-248.9,158-254.7,155.3-258.3,155.3z"/>
		<path class="st10" d="M-247.9,132.3c-1.9-0.9-6.6-3-10.1-3h-0.2v9.7c3.6-0.1,9.4-2.8,10.4-3.2L-247.9,132.3z"/>
		<polygon class="st10" points="-219.2,140.2 -226.2,138.2 -226.2,154.6 -219.2,153 		"/>
		<rect x="-210.6" y="138" class="st10" width="4.1" height="17.1"/>
		<path class="st10" d="M-243.5,137.8v-4.3h-3.5v5.8h-1v-2.4c-1,0.5-3.4,1.5-5.8,2.3v0.1h10.2v-0.5V137.8z"/>
		<polygon class="st10" points="-140,149.4 -140,149.1 -140,143.9 -140,143.6 -140,143.6 -144,141 -144,152 		"/>
		<line class="st9" x1="-144.5" y1="152.3" x2="-144.5" y2="152.3"/>
		<polygon class="st10" points="-130.9,148.5 -130.9,148.5 -131.4,148.5 -131.4,144.7 -139,144.7 -139,148.5 		"/>
		<polygon class="st10" points="-227.1,138.8 -242.5,138.8 -242.5,141.5 -227.1,145.7 		"/>
		<path class="st10" d="M-247.9,144.9c-1.9-0.9-6.6-3-10.1-3h-0.2v9.4c3.6-0.1,9.2-2.7,10.3-3.2L-247.9,144.9z"/>
		<line class="st9" x1="-144" y1="140.9" x2="-144.9" y2="140.9"/>
		<line class="st9" x1="-144.9" y1="152.1" x2="-144.5" y2="152.1"/>
		<path d="M-243.2,142.2L-243.2,142.2L-243.2,142.2z"/>
		<polygon points="-243.2,142.2 -243.5,142.2 -243.5,142.2 		"/>
		<polygon points="-243.2,151.7 -243.5,151.8 -243.5,151.8 -243.2,151.7 		"/>
		<polygon points="-243.2,151.7 -243.2,151.7 -243.1,151.7 		"/>
		<polygon points="-243.5,151.8 -243.2,151.7 -243.5,151.7 		"/>
	</g>
	<rect x="146.6" y="308.2" class="st9" width="275" height="95.7"/>
	<rect x="107.1" y="197.7" class="st9" width="234.9" height="49.8"/>
	<text transform="matrix(1 0 0 1 180.6058 218.2843)" class="st11 st12 st13">Apolo 1</text>
	<text transform="matrix(1 0 0 1 178.7558 242.2843)" class="st0 st1 st14">27 de enero de 1967</text>
	<g>
		<path class="st4" d="M164.3,204.1c-1.9-1.9-4.6-3-7.3-3.1l0,0c-2.8,0-5.4,1.1-7.3,3c-1.9,1.9-3,4.6-3,7.3s1.1,5.4,3,7.3
			c1.9,1.9,4.6,3,7.3,3s5.4-1.1,7.4-3c1.9-1.9,3-4.6,3-7.3C167.3,208.6,166.2,206,164.3,204.1z M161.2,214.6c0.3,0.3,0.3,0.8,0,1.1
			c-0.1,0.1-0.3,0.2-0.5,0.2s-0.4-0.1-0.5-0.2l-3.2-3.2l-3.2,3.2c-0.1,0.1-0.3,0.2-0.5,0.2s-0.4-0.1-0.5-0.2c-0.3-0.3-0.3-0.8,0-1.1
			l3.2-3.2l-3.2-3.2c-0.3-0.3-0.3-0.8,0-1.1s0.8-0.3,1.1,0l3.2,3.2l3.2-3.2c0.3-0.3,0.8-0.3,1.1,0s0.3,0.8,0,1.1l-3.2,3.2
			L161.2,214.6z"/>
	</g>
	<g>
		<polygon class="st10" points="-218,249 -207.8,246.1 -184.8,246.1 -184.8,233.4 -207.8,233.4 -218,230.5 -218.8,230.5 -218.8,249 
					"/>
		<polygon class="st10" points="-182.5,246.1 -168.9,242.8 -161.5,242.8 -158.1,240.7 -148.3,240.7 -148.3,238.8 -158.1,238.8 
			-161.5,236.7 -168.9,236.7 -182.5,233.4 -184.8,233.4 -184.8,246.1 		"/>
		<polygon class="st10" points="-269.3,256.6 -259.5,249 -259.5,249 -218.8,249 -218.8,230.5 -259.5,230.5 -269.3,222.9 
			-272.9,222.9 -272.9,231.3 -278.5,228.1 -281.5,228.1 -281.5,251.4 -278.5,251.4 -272.9,248.2 -272.9,256.6 		"/>
	</g>
	<rect x="-357.5" y="321.6" class="st10" width="40.4" height="33"/>
	<rect x="-305" y="321.6" class="st5" width="40.4" height="33"/>
	<rect x="-255" y="321.6" width="40.4" height="33"/>
	<rect x="-202.5" y="321.6" class="st0" width="40.4" height="33"/>
	<rect x="-150.6" y="321.6" class="st11" width="40.4" height="33"/>
	<rect x="617.5" y="196.9" class="st9" width="340.5" height="49.8"/>
	<text transform="matrix(1 0 0 1 612.5035 217.4756)" class="st11 st12 st13">Apolo 4</text>
	<text transform="matrix(1 0 0 1 612.5035 241.4756)" class="st0 st1 st14">9 de noviembre de 1967</text>
	<path class="st3" d="M589.7,198.5c-2.8,0-5.4,1.1-7.3,3c-2,1.9-3,4.6-3,7.3s1.1,5.4,3,7.3c2,1.9,4.6,3,7.3,3s5.4-1.1,7.3-3
		c2-1.9,3-4.6,3-7.3s-1.1-5.4-3-7.3C595.1,199.6,592.4,198.5,589.7,198.5L589.7,198.5z M593.9,206.6l-5.3,5.4
		c-0.2,0.1-0.4,0.2-0.6,0.2h0c-0.2,0-0.4-0.1-0.6-0.3l-2-2.3c-0.3-0.3-0.2-0.8,0.1-1.1c0.3-0.3,0.8-0.2,1.1,0.1l1.4,1.6l4.7-4.7l0,0
		c0.3-0.3,0.8-0.3,1.2,0C594.2,205.8,594.2,206.3,593.9,206.6L593.9,206.6z"/>
	<rect x="1142.3" y="196.9" class="st9" width="340.5" height="49.8"/>
	<text transform="matrix(1 0 0 1 1051.2784 217.4756)" class="st11 st15 st13">Apolo 5</text>
	<text transform="matrix(1 0 0 1 1051.2784 241.4756)" class="st0 st16 st14">22 de enero de 1968</text>
	<path class="st3" d="M1027.4,200.3c-2.8,0-5.4,1.1-7.3,3c-1.9,1.9-3,4.6-3,7.3s1.1,5.4,3,7.3c1.9,1.9,4.6,3,7.3,3s5.4-1.1,7.3-3
		s3-4.6,3-7.3s-1.1-5.4-3-7.3C1032.8,201.4,1030.2,200.3,1027.4,200.3L1027.4,200.3z M1031.7,208.4l-5.3,5.4
		c-0.2,0.1-0.4,0.2-0.6,0.2h0c-0.2,0-0.4-0.1-0.6-0.3l-2-2.3c-0.3-0.3-0.2-0.8,0.1-1.1c0.3-0.3,0.8-0.2,1.1,0.1l1.4,1.6l4.7-4.7l0,0
		c0.3-0.3,0.8-0.3,1.2,0C1032,207.6,1032,208.1,1031.7,208.4L1031.7,208.4z"/>
	<rect x="1108.1" y="309.8" class="st9" width="281.6" height="84.4"/>
	<rect x="1143.2" y="510" class="st9" width="340.5" height="49.8"/>
	<text transform="matrix(1 0 0 1 1049.2064 530.6371)" class="st11 st12 st13">Apolo 6</text>
	<text transform="matrix(1 0 0 1 1049.2064 554.6371)" class="st0 st1 st14">4 de abril de 1968</text>
	<g>
		<path class="st5" d="M1025.4,513.4c-5.7,0-10.4,4.7-10.4,10.4s4.7,10.4,10.4,10.4s10.4-4.7,10.4-10.4S1031.1,513.4,1025.4,513.4z
			 M1029.3,524.5h-7.9c-0.4,0-0.8-0.3-0.8-0.8s0.3-0.8,0.8-0.8h7.9c0.4,0,0.8,0.3,0.8,0.8S1029.7,524.5,1029.3,524.5z"/>
	</g>
	<g>
		<rect x="1014.3" y="620.5" class="st9" width="305.5" height="127.6"/>
	</g>
	<rect x="616.7" y="511.6" class="st9" width="340.5" height="49.8"/>
	<text transform="matrix(1 0 0 1 612.7029 532.1916)" class="st11 st12 st13">Apolo 7</text>
	<text transform="matrix(1 0 0 1 612.7029 556.1916)" class="st0 st1 st14">11 de octubre de 1968</text>
	<path class="st3" d="M589.9,514.9c-2.8,0-5.4,1.1-7.3,3c-2,2-3,4.6-3,7.3s1.1,5.4,3,7.3c2,2,4.6,3,7.3,3s5.4-1.1,7.3-3
		c2-2,3-4.6,3-7.3s-1.1-5.4-3-7.3C595.3,516,592.6,514.9,589.9,514.9L589.9,514.9z M594.1,523.1l-5.3,5.3c-0.2,0.2-0.4,0.2-0.6,0.2
		h0c-0.2,0-0.4-0.1-0.6-0.3l-2-2.3c-0.3-0.3-0.2-0.8,0.1-1.1c0.3-0.3,0.8-0.2,1.1,0.1l1.4,1.6l4.7-4.7l0,0c0.3-0.3,0.8-0.3,1.2,0
		S594.4,522.8,594.1,523.1L594.1,523.1z"/>
	<rect x="612.3" y="802.9" class="st9" width="340.5" height="49.8"/>
	<text transform="matrix(1 0 0 1 612.3539 823.4551)" class="st11 st12 st13">Apolo 8</text>
	<text transform="matrix(1 0 0 1 612.3539 847.4551)" class="st0 st1 st14">21 de diciembre de 1968</text>
	<path class="st3" d="M589.5,806.2c-2.8,0-5.4,1.1-7.3,3c-2,2-3,4.6-3,7.3s1.1,5.4,3,7.3c2,2,4.6,3,7.3,3s5.4-1.1,7.3-3
		c2-2,3-4.6,3-7.3s-1.1-5.4-3-7.3C594.9,807.3,592.3,806.2,589.5,806.2L589.5,806.2z M593.8,814.3l-5.3,5.3
		c-0.2,0.2-0.4,0.2-0.6,0.2h0c-0.2,0-0.4-0.1-0.6-0.3l-2-2.3c-0.3-0.3-0.2-0.8,0.1-1.1c0.3-0.3,0.8-0.2,1.1,0.1l1.4,1.6l4.7-4.7l0,0
		c0.3-0.3,0.8-0.3,1.2,0C594.1,813.5,594.1,814,593.8,814.3L593.8,814.3z"/>
	<rect x="1142.6" y="802.9" class="st9" width="340.5" height="49.8"/>
	<text transform="matrix(1 0 0 1 1049.568 823.4557)" class="st11 st12 st13">Apolo 9</text>
	<text transform="matrix(1 0 0 1 1049.568 847.4557)" class="st0 st1 st14">3 de marzo de 1969</text>
	<path class="st3" d="M1025.7,806.2c-2.8,0-5.4,1.1-7.3,3c-1.9,2-3,4.6-3,7.3s1.1,5.4,3,7.3c1.9,2,4.6,3,7.3,3s5.4-1.1,7.3-3
		c1.9-2,3-4.6,3-7.3s-1.1-5.4-3-7.3C1031.1,807.3,1028.5,806.2,1025.7,806.2L1025.7,806.2z M1029.9,814.3l-5.3,5.3
		c-0.2,0.2-0.4,0.2-0.6,0.2h0c-0.2,0-0.4-0.1-0.6-0.3l-2-2.3c-0.3-0.3-0.2-0.8,0.1-1.1s0.8-0.2,1.1,0.1l1.4,1.6l4.7-4.7l0,0
		c0.3-0.3,0.8-0.3,1.2,0C1030.3,813.5,1030.3,814,1029.9,814.3L1029.9,814.3z"/>
	<rect x="1543.3" y="803.9" class="st9" width="340.5" height="49.8"/>
	<text transform="matrix(1 0 0 1 1482.2734 824.4554)" class="st11 st12 st13">Apolo 10</text>
	<text transform="matrix(1 0 0 1 1482.2734 848.4554)" class="st0 st1 st14">18 de mayo de 1969</text>
	<path class="st3" d="M1459.5,805.2c-2.8,0-5.4,1.1-7.3,3c-1.9,2-3,4.6-3,7.3s1.1,5.4,3,7.3c1.9,2,4.6,3,7.3,3s5.4-1.1,7.3-3
		c1.9-2,3-4.6,3-7.3s-1.1-5.4-3-7.3C1464.8,806.3,1462.2,805.2,1459.5,805.2L1459.5,805.2z M1463.7,813.3l-5.3,5.3
		c-0.2,0.2-0.4,0.2-0.6,0.2h0c-0.2,0-0.4-0.1-0.6-0.3l-2-2.3c-0.3-0.3-0.2-0.8,0.1-1.1s0.8-0.2,1.1,0.1l1.4,1.6l4.7-4.7l0,0
		c0.3-0.3,0.8-0.3,1.2,0C1464,812.5,1464,813,1463.7,813.3L1463.7,813.3z"/>
	<g>
		<polygon class="st10" points="171.8,292 188.8,287.2 227.2,287.2 227.2,265.8 188.8,265.8 171.8,261 170.6,261 170.6,292 		"/>
		<polygon class="st10" points="231.1,287.2 253.9,281.5 266.2,281.5 271.8,278 288.3,278 288.3,275 271.8,275 266.2,271.5 
			253.9,271.5 231.1,265.8 227.2,265.8 227.2,287.2 		"/>
		<polygon class="st10" points="86.1,304.7 102.6,292 102.6,292 170.6,292 170.6,261 102.6,261 86.1,248.3 80.1,248.3 80.1,262.4 
			70.8,257.1 65.8,257.1 65.8,295.9 70.8,295.9 80.1,290.6 80.1,304.7 		"/>
	</g>
</g>
<rect x="144.6" y="319.7" class="st9" width="232.4" height="90.5"/>
<text transform="matrix(1 0 0 1 144.5538 330.3302)"><tspan x="0" y="0" class="st11 st1 st17">Durante una prueba en la plataforma </tspan><tspan x="0" y="16.8" class="st11 st1 st17">de lanzamiento un incendio terminó </tspan><tspan x="0" y="33.6" class="st11 st1 st17">con la vida de tres astronautas.</tspan></text>
<rect x="579.2" y="318.8" class="st9" width="232.4" height="90.5"/>
<text transform="matrix(1 0 0 1 579.2332 329.4891)"><tspan x="0" y="0" class="st11 st1 st17">Esta prueba debía ser el primer </tspan><tspan x="0" y="16.8" class="st11 st1 st17">lanzamiento tripulado. Sin embargo, </tspan><tspan x="0" y="33.6" class="st11 st1 st17">tras el accidente del Apolo 1, se </tspan><tspan x="0" y="50.4" class="st11 st1 st17">decidió realizar esta misión sin </tspan><tspan x="0" y="67.2" class="st11 st1 st17">tripulación abordo.</tspan></text>
<rect x="1013.9" y="318.4" class="st9" width="232.4" height="90.5"/>
<text transform="matrix(1 0 0 1 1013.9124 329.105)"><tspan x="0" y="0" class="st11 st1 st17">Fue la segunda misión no tripulada </tspan><tspan x="0" y="16.8" class="st11 st1 st17">del Programa Apolo. Tenía como </tspan><tspan x="0" y="33.6" class="st11 st1 st17">objetivo penetrar en la atmósfera </tspan><tspan x="0" y="50.4" class="st11 st1 st17">terrestre con éxito.</tspan></text>
<rect x="578.3" y="626.7" class="st9" width="232.4" height="90.5"/>
<text transform="matrix(1 0 0 1 578.2592 637.3593)"><tspan x="0" y="0" class="st11 st1 st17">Primera misión oficial tripulada del </tspan><tspan x="0" y="16.8" class="st11 st1 st17">Programa Apolo. Se hicieron los </tspan><tspan x="0" y="33.6" class="st11 st1 st17">primeros usos de los trajes Apolo y </tspan><tspan x="0" y="50.4" class="st11 st1 st17">fue la primera transmisión de </tspan><tspan x="0" y="67.2" class="st11 st1 st17">televisión en directo.</tspan></text>
<rect x="1013.9" y="626.6" class="st9" width="232.4" height="98.5"/>
<text transform="matrix(1 0 0 1 1013.912 637.2159)"><tspan x="0" y="0" class="st11 st1 st17">Última misión no tripulada. Un </tspan><tspan x="0" y="16.8" class="st11 st1 st17">fenómeno conocido como “efecto </tspan><tspan x="0" y="33.6" class="st11 st1 st17">pogo” daño dos motores Rocketdyne </tspan><tspan x="0" y="50.4" class="st11 st1 st17">J-2. Esto provoco que durante la </tspan><tspan x="0" y="67.2" class="st11 st1 st17">tercera etpa no se pudiera alcanzar </tspan><tspan x="0" y="84" class="st11 st1 st17">la velocidad translunar correcta. </tspan></text>
<rect x="577.9" y="917.3" class="st9" width="232.4" height="90.5"/>
<text transform="matrix(1 0 0 1 577.8787 927.9861)"><tspan x="0" y="0" class="st11 st1 st17">Primera misión tripulada en salir de </tspan><tspan x="0" y="16.8" class="st11 st1 st17">la órbita terrestre y orbitar la Luna. </tspan><tspan x="0" y="33.6" class="st11 st1 st17">Los tres astronautas se convirtieron </tspan><tspan x="0" y="50.4" class="st11 st1 st17">en los primeros en ver la Tierra de </tspan><tspan x="0" y="67.2" class="st11 st1 st17">manera completa.</tspan></text>
<rect x="1013.3" y="917.3" class="st9" width="232.4" height="90.5"/>
<text transform="matrix(1 0 0 1 1013.2722 927.9933)"><tspan x="0" y="0" class="st11 st1 st17">Primera prueba de acoplamiento al </tspan><tspan x="0" y="16.8" class="st11 st1 st17">módulo lunar. Es el módulo que se </tspan><tspan x="0" y="33.6" class="st11 st1 st17">utilizó para explorar la superficie de </tspan><tspan x="0" y="50.4" class="st11 st1 st17">la Luna.</tspan></text>
<rect x="1447.5" y="917.8" class="st9" width="232.4" height="90.5"/>
<text transform="matrix(1 0 0 1 1447.4954 928.4151)"><tspan x="0" y="0" class="st11 st1 st17">Ensayo general para el alunizaje. </tspan><tspan x="0" y="16.8" class="st11 st1 st17">Llegaron a descender a 15.6 km de </tspan><tspan x="0" y="33.6" class="st11 st1 st17">la superficie lunar, se toman </tspan><tspan x="0" y="50.4" class="st11 st1 st17">fotografías de posibles lugares de </tspan><tspan x="0" y="67.2" class="st11 st1 st17">alunizaje.</tspan></text>
</svg>
