<?xml version="1.0" encoding="utf-8"?>
<!-- Generator: Adobe Illustrator 26.0.1, SVG Export Plug-In . SVG Version: 6.00 Build 0)  -->
<svg version="1.1" id="Capa_1" xmlns="http://www.w3.org/2000/svg" xmlns:xlink="http://www.w3.org/1999/xlink" x="0px" y="0px"
	 viewBox="0 0 750 2668" style="enable-background:new 0 0 750 2668;" xml:space="preserve">
<style type="text/css">
	.st0{fill:#22B573;}
	.st1{fill:#C1272D;}
	.st2{fill:#FFAC00;}
	.st3{fill:none;stroke:#6B6B6B;stroke-linejoin:round;stroke-miterlimit:10;stroke-dasharray:5;}
	
		.st4{opacity:0.4;fill:none;stroke:#6B6B6B;stroke-width:35;stroke-linecap:round;stroke-linejoin:round;stroke-miterlimit:10;enable-background:new    ;}
	
		.st5{opacity:0.6;fill:none;stroke:#FFFFFF;stroke-width:5;stroke-linecap:round;stroke-linejoin:round;stroke-miterlimit:10;enable-background:new    ;}
	.st6{fill:none;}
	.st7{fill:#FF7C00;}
	.st8{fill:#6B6B6B;}
	.st9{fill:#FFFFFF;}
	.st10{font-family:'Roboto-Bold';}
	.st11{font-size:24px;}
	.st12{font-family:'Roboto-Regular';}
	.st13{font-size:16px;}
	.st14{font-size:14px;}
	.st15{font-family:'Arial-BoldMT';}
	.st16{font-family:'ArialMT';}
</style>
<rect width="750" height="2668"/>
<g id="Layer_2">
	<text transform="matrix(1 0 0 1 -1114.136 -470.3569)" class="st8 st12" style="font-size:14.5517px;">Éxito</text>
	<text transform="matrix(1 0 0 1 -851.0535 -470.3569)" class="st8 st12" style="font-size:14.5517px;">Fracaso</text>
	<text transform="matrix(1 0 0 1 -1015.5525 -470.1978)" class="st8 st12" style="font-size:14.5517px;">Fracaso parcial</text>
	<path class="st0" d="M-1136.2-483.4c-2,0-3.9,0.8-5.3,2.2c-1.4,1.4-2.2,3.3-2.2,5.3s0.8,3.9,2.2,5.3c1.4,1.4,3.3,2.2,5.3,2.2
		s3.9-0.8,5.3-2.2c1.4-1.4,2.2-3.3,2.2-5.3s-0.8-3.9-2.2-5.3C-1132.3-482.6-1134.2-483.4-1136.2-483.4L-1136.2-483.4z
		 M-1133.2-477.5l-3.9,3.9c-0.1,0.1-0.3,0.2-0.4,0.2h0c-0.2,0-0.3-0.1-0.4-0.2l-1.4-1.7c-0.2-0.2-0.2-0.6,0.1-0.8
		c0.2-0.2,0.6-0.2,0.8,0l1,1.2l3.4-3.4l0,0c0.2-0.2,0.6-0.2,0.8,0C-1133-478.1-1132.9-477.7-1133.2-477.5L-1133.2-477.5z"/>
	<g>
		<path class="st1" d="M-867.8-481.2c-1.4-1.4-3.3-2.2-5.3-2.2l0,0c-2,0-3.9,0.8-5.3,2.2c-1.4,1.4-2.2,3.3-2.2,5.3s0.8,3.9,2.2,5.3
			c1.4,1.4,3.3,2.2,5.3,2.2s3.9-0.8,5.3-2.2c1.4-1.4,2.2-3.3,2.2-5.3C-865.6-477.9-866.4-479.8-867.8-481.2z M-870.1-473.5
			c0.2,0.2,0.2,0.6,0,0.8c-0.1,0.1-0.2,0.2-0.4,0.2s-0.3-0.1-0.4-0.2l-2.3-2.3l-2.3,2.3c-0.1,0.1-0.2,0.2-0.4,0.2s-0.3-0.1-0.4-0.2
			c-0.2-0.2-0.2-0.6,0-0.8l2.3-2.3l-2.3-2.3c-0.2-0.2-0.2-0.6,0-0.8s0.6-0.2,0.8,0l2.3,2.3l2.3-2.3c0.2-0.2,0.6-0.2,0.8,0
			s0.2,0.6,0,0.8l-2.3,2.3L-870.1-473.5z"/>
	</g>
	<g>
		<path class="st2" d="M-1029.7-483.4c-4.2,0-7.6,3.4-7.6,7.6c0,4.2,3.4,7.6,7.6,7.6s7.6-3.4,7.6-7.6
			C-1022.2-480-1025.6-483.4-1029.7-483.4z M-1026.9-475.3h-5.8c-0.3,0-0.6-0.2-0.6-0.5c0-0.3,0.2-0.6,0.6-0.6h5.8
			c0.3,0,0.6,0.2,0.6,0.6C-1026.3-475.5-1026.6-475.3-1026.9-475.3z"/>
	</g>
	<rect x="-1165.5" y="-498" class="st3" width="390.1" height="49.5"/>
	<path class="st4" d="M-2469-302.2h1361c85.1,0,154,69,154,154l0,0c0,85.1-69,154-154,154h-1087c-80.6,0-146,65.4-146,146l0,0
		c0,80.6,65.4,146,146,146h1583"/>
	<path class="st5" d="M-2469-302.2h1361c85.1,0,154,69,154,154l0,0c0,85.1-69,154-154,154h-1087c-80.6,0-146,65.4-146,146l0,0
		c0,80.6,65.4,146,146,146h1620.4"/>
	<g>
		<polygon class="st6" points="-2851,-425.9 -2851,-425.9 -2847.5,-426.9 -2847.5,-426.9 		"/>
		<path class="st6" d="M-2847.2-427L-2847.2-427L-2847.2-427z"/>
		<polygon class="st7" points="-2776.3,-431.7 -2776.3,-424.2 -2759.8,-426.4 -2759.8,-431.7 		"/>
		<polygon class="st7" points="-2822.3,-424.9 -2822.3,-421.3 -2815.5,-423.4 -2815.5,-426.4 		"/>
		<rect x="-2809.5" y="-440.6" class="st7" width="17.5" height="17.1"/>
		<rect x="-2846.5" y="-445.2" class="st7" width="15.4" height="4.3"/>
		<polygon class="st7" points="-2830.2,-423.1 -2830.2,-418.8 -2823.2,-421 -2823.2,-424.7 		"/>
		<rect x="-2758.9" y="-437.8" class="st7" width="9.9" height="11.2"/>
		<polygon class="st7" points="-2777.3,-424.1 -2777.3,-440 -2781.4,-440.6 -2781.4,-423.6 		"/>
		<polygon class="st7" points="-2823.2,-439.4 -2823.2,-443.2 -2830.2,-445.4 -2830.2,-441.4 		"/>
		<rect x="-2787.1" y="-440.6" class="st7" width="4.8" height="17.1"/>
		<polygon class="st7" points="-2851,-450.5 -2851,-446.2 -2834.4,-446.2 		"/>
		<polygon class="st7" points="-2815.5,-427.4 -2815.5,-440.8 -2822.3,-442.9 -2822.3,-425.9 		"/>
		<rect x="-2846.5" y="-422" class="st7" width="15.4" height="3.1"/>
		<polygon class="st7" points="-2831.1,-430.3 -2846.5,-426.1 -2846.5,-423 -2831.1,-423 		"/>
		<rect x="-2791.1" y="-440.6" class="st7" width="3" height="17.1"/>
		<polygon class="st7" points="-2759.8,-432.6 -2759.8,-437.8 -2776.3,-439.9 -2776.3,-432.6 		"/>
		<polygon class="st7" points="-2847.5,-427 -2847.2,-427 -2847.2,-427 -2847.2,-427 -2847.1,-427 -2831.1,-431.3 -2831.1,-432 
			-2851,-437.4 -2851,-425.9 -2847.5,-426.9 		"/>
		<polygon class="st7" points="-2834.4,-418 -2850.9,-418 -2850.9,-419 -2847.5,-419 -2847.5,-422 -2847.5,-423 -2847.5,-424.1 
			-2851,-424.1 -2851,-413.7 		"/>
		<path class="st7" d="M-2851.9-424.1h-5.8v0.6c2.4,0.7,4.7,1.8,5.8,2.3V-424.1z"/>
		<path class="st7" d="M-2719.4-430.9l1.8-0.7c0.2-0.1,0.3-0.3,0.3-0.5l0,0c0-0.2-0.1-0.4-0.3-0.5l-1.7-0.6l-15.2,0v2.3
			L-2719.4-430.9z"/>
		<polygon class="st7" points="-2845.6,-407.2 -2840.6,-415.4 -2849.2,-413.2 -2849.2,-407.2 		"/>
		<path class="st7" d="M-2857.7-427.2v0.4h5.7l0-2.6C-2853-429-2855.3-428-2857.7-427.2z"/>
		<polygon class="st7" points="-2845.6,-457.1 -2849.2,-457.1 -2849.2,-451 -2840.4,-448.7 		"/>
		<path class="st7" d="M-2862.3-423.4v9.4h0.2c3.3,0,8.2-2.1,10.1-3v-3.2C-2852.9-420.6-2858.7-423.3-2862.3-423.4z"/>
		<path class="st7" d="M-2851.9-446.4c-1.9-0.9-6.6-3-10.1-3h-0.2v9.7c3.6-0.1,9.4-2.8,10.4-3.2V-446.4z"/>
		<polygon class="st7" points="-2823.2,-438.4 -2830.2,-440.4 -2830.2,-424.1 -2823.2,-425.7 		"/>
		<rect x="-2814.6" y="-440.6" class="st7" width="4.1" height="17.1"/>
		<path class="st7" d="M-2847.5-440.9v-4.3h-3.5v5.8h-1v-2.4c-1,0.5-3.4,1.5-5.8,2.3v0.1h10.2v-0.5V-440.9z"/>
		<polygon class="st7" points="-2744,-429.2 -2744,-429.5 -2744,-434.8 -2744,-435.1 -2744,-435.1 -2748,-437.7 -2748,-426.6 		"/>
		<line class="st6" x1="-2748.5" y1="-426.3" x2="-2748.5" y2="-426.3"/>
		<polygon class="st7" points="-2734.9,-430.2 -2734.9,-430.2 -2735.4,-430.2 -2735.4,-434 -2743,-434 -2743,-430.1 		"/>
		<polygon class="st7" points="-2831.1,-439.9 -2846.5,-439.9 -2846.5,-437.2 -2831.1,-433 		"/>
		<path class="st7" d="M-2851.9-433.8c-1.9-0.9-6.6-3-10.1-3h-0.2v9.4c3.6,0,9.2-2.7,10.3-3.2L-2851.9-433.8z"/>
		<line class="st6" x1="-2748" y1="-437.8" x2="-2748.9" y2="-437.8"/>
		<line class="st6" x1="-2748.9" y1="-426.5" x2="-2748.5" y2="-426.5"/>
		<path d="M-2847.2-436.4L-2847.2-436.4L-2847.2-436.4z"/>
		<polygon points="-2847.2,-436.4 -2847.5,-436.5 -2847.5,-436.4 		"/>
		<polygon points="-2847.2,-427 -2847.5,-426.9 -2847.5,-426.9 -2847.2,-426.9 		"/>
		<polygon points="-2847.2,-427 -2847.2,-426.9 -2847.1,-427 		"/>
		<polygon points="-2847.5,-426.9 -2847.2,-427 -2847.5,-427 		"/>
	</g>
	<rect x="-2457.4" y="-270.4" class="st6" width="275" height="95.7"/>
	<rect x="-2496.9" y="-381" class="st6" width="234.9" height="49.8"/>
	<text transform="matrix(1 0 0 1 -2423.3936 -360.3823)" class="st9 st10 st11">Apolo 1</text>
	<text transform="matrix(1 0 0 1 -2425.2434 -336.3823)" class="st8 st12 st13">27 de enero de 1967</text>
	<g>
		<path class="st1" d="M-2439.7-374.6c-1.9-1.9-4.6-3-7.3-3l0,0c-2.8,0-5.4,1.1-7.3,3c-2,2-3,4.6-3,7.3s1.1,5.4,3,7.3
			c1.9,2,4.6,3,7.3,3s5.4-1.1,7.4-3c1.9-1.9,3-4.6,3-7.3C-2436.7-370-2437.8-372.7-2439.7-374.6z M-2442.8-364.1
			c0.3,0.3,0.3,0.8,0,1.1c-0.1,0.1-0.3,0.2-0.5,0.2c-0.2,0-0.4-0.1-0.5-0.2l-3.2-3.2l-3.2,3.2c-0.1,0.1-0.3,0.2-0.5,0.2
			s-0.4-0.1-0.5-0.2c-0.3-0.3-0.3-0.8,0-1.1l3.2-3.2l-3.2-3.2c-0.3-0.3-0.3-0.8,0-1.1c0.3-0.3,0.8-0.3,1.1,0l3.2,3.2l3.2-3.2
			c0.3-0.3,0.8-0.3,1.1,0c0.3,0.3,0.3,0.8,0,1.1l-3.2,3.2L-2442.8-364.1z"/>
	</g>
	<g>
		<polygon class="st7" points="-2822,-329.6 -2811.8,-332.5 -2788.8,-332.5 -2788.8,-345.3 -2811.8,-345.3 -2822,-348.2 
			-2822.7,-348.2 -2822.7,-329.6 		"/>
		<polygon class="st7" points="-2786.5,-332.5 -2772.9,-335.9 -2765.5,-335.9 -2762.1,-338 -2752.3,-338 -2752.3,-339.8 
			-2762.1,-339.8 -2765.5,-341.9 -2772.9,-341.9 -2786.5,-345.3 -2788.8,-345.3 -2788.8,-332.5 		"/>
		<polygon class="st7" points="-2873.3,-322 -2863.5,-329.6 -2863.5,-329.6 -2822.7,-329.6 -2822.7,-348.2 -2863.5,-348.2 
			-2873.3,-355.8 -2876.9,-355.8 -2876.9,-347.4 -2882.5,-350.5 -2885.5,-350.5 -2885.5,-327.3 -2882.5,-327.3 -2876.9,-330.5 
			-2876.9,-322 		"/>
	</g>
	<rect x="-2961.5" y="-257.1" class="st7" width="40.4" height="33"/>
	<rect x="-2909" y="-257.1" class="st2" width="40.4" height="33"/>
	<rect x="-2859" y="-257.1" width="40.4" height="33"/>
	<rect x="-2806.5" y="-257.1" class="st8" width="40.4" height="33"/>
	<rect x="-2754.6" y="-257.1" class="st9" width="40.4" height="33"/>
	<rect x="-1986.5" y="-381.8" class="st6" width="340.5" height="49.8"/>
	<text transform="matrix(1 0 0 1 -1991.4957 -361.191)" class="st9 st10 st11">Apolo 4</text>
	<text transform="matrix(1 0 0 1 -1991.4957 -337.191)" class="st8 st12 st13">9 de noviembre de 1967</text>
	<path class="st0" d="M-2014.3-380.2c-2.8,0-5.4,1.1-7.3,3c-1.9,2-3,4.6-3,7.3s1.1,5.4,3,7.3c2,2,4.6,3,7.3,3s5.4-1.1,7.3-3
		c1.9-1.9,3-4.6,3-7.3s-1.1-5.4-3-7.3C-2008.9-379.1-2011.6-380.2-2014.3-380.2L-2014.3-380.2z M-2010.1-372l-5.3,5.4
		c-0.2,0.1-0.4,0.2-0.6,0.2h0c-0.2,0-0.4-0.1-0.6-0.3l-2-2.3c-0.3-0.3-0.2-0.8,0.1-1.1c0.3-0.3,0.8-0.2,1.1,0.1l1.4,1.6l4.7-4.7l0,0
		c0.3-0.3,0.8-0.3,1.2,0C-2009.8-372.8-2009.8-372.3-2010.1-372L-2010.1-372z"/>
	<rect x="-1461.7" y="-381.8" class="st6" width="340.5" height="49.8"/>
	<text transform="matrix(1 0 0 1 -1552.7208 -361.191)" class="st9 st15 st11">Apolo 5</text>
	<text transform="matrix(1 0 0 1 -1552.7208 -337.191)" class="st8 st16 st13">22 de enero de 1968</text>
	<path class="st0" d="M-1576.6-378.4c-2.8,0-5.4,1.1-7.3,3c-1.9,1.9-3,4.6-3,7.3s1.1,5.4,3,7.3c1.9,1.9,4.6,3,7.3,3s5.4-1.1,7.3-3
		c1.9-2,3-4.6,3-7.3s-1.1-5.4-3-7.3C-1571.2-377.3-1573.8-378.4-1576.6-378.4L-1576.6-378.4z M-1572.3-370.2l-5.3,5.4
		c-0.2,0.1-0.4,0.2-0.6,0.2h0c-0.2,0-0.4-0.1-0.6-0.3l-2-2.3c-0.3-0.3-0.2-0.8,0.1-1.1c0.3-0.3,0.8-0.2,1.1,0.1l1.4,1.6l4.7-4.7l0,0
		c0.3-0.3,0.8-0.3,1.2,0C-1572-371-1572-370.5-1572.3-370.2L-1572.3-370.2z"/>
	<rect x="-1495.9" y="-268.8" class="st6" width="281.6" height="84.4"/>
	<rect x="-1460.8" y="-68.6" class="st6" width="340.5" height="49.8"/>
	<text transform="matrix(1 0 0 1 -1554.7928 -48.0296)" class="st9 st10 st11">Apolo 6</text>
	<text transform="matrix(1 0 0 1 -1554.7928 -24.0296)" class="st8 st12 st13">4 de abril de 1968</text>
	<g>
		<path class="st2" d="M-1578.6-65.3c-5.7,0-10.4,4.7-10.4,10.4s4.7,10.4,10.4,10.4s10.4-4.7,10.4-10.4S-1572.9-65.3-1578.6-65.3z
			 M-1574.7-54.2h-7.9c-0.4,0-0.8-0.3-0.8-0.8s0.3-0.8,0.8-0.8h7.9c0.4,0,0.8,0.3,0.8,0.8S-1574.3-54.2-1574.7-54.2z"/>
	</g>
	<g>
		<rect x="-1589.7" y="41.8" class="st6" width="305.5" height="127.6"/>
	</g>
	<rect x="-1987.3" y="-67.1" class="st6" width="340.5" height="49.8"/>
	<text transform="matrix(1 0 0 1 -1991.2964 -46.4751)" class="st9 st10 st11">Apolo 7</text>
	<text transform="matrix(1 0 0 1 -1991.2964 -22.4751)" class="st8 st12 st13">11 de octubre de 1968</text>
	<path class="st0" d="M-2014.1-63.8c-2.8,0-5.4,1.1-7.3,3c-2,2-3,4.6-3,7.3s1.1,5.4,3,7.3c1.9,2,4.6,3,7.3,3s5.4-1.1,7.3-3
		c2-2,3-4.6,3-7.3s-1.1-5.4-3-7.3C-2008.7-62.7-2011.4-63.7-2014.1-63.8L-2014.1-63.8z M-2009.9-55.6l-5.3,5.3
		c-0.2,0.2-0.4,0.2-0.6,0.2h0c-0.2,0-0.4-0.1-0.6-0.3l-2-2.3c-0.3-0.3-0.2-0.8,0.1-1.1s0.8-0.2,1.1,0.1l1.4,1.6l4.7-4.7l0,0
		c0.3-0.3,0.8-0.3,1.2,0C-2009.6-56.4-2009.6-55.9-2009.9-55.6L-2009.9-55.6z"/>
	<rect x="-1991.6" y="224.2" class="st6" width="340.5" height="49.8"/>
	<text transform="matrix(1 0 0 1 -1991.6454 244.7884)" class="st9 st10 st11">Apolo 8</text>
	<text transform="matrix(1 0 0 1 -1991.6454 268.7884)" class="st8 st12 st13">21 de diciembre de 1968</text>
	<path class="st0" d="M-2014.5,227.5c-2.8,0-5.4,1.1-7.3,3c-1.9,2-3,4.6-3,7.3s1.1,5.4,3,7.3c2,2,4.6,3,7.3,3s5.4-1.1,7.3-3
		c1.9-2,3-4.6,3-7.3s-1.1-5.4-3-7.3C-2009.1,228.6-2011.7,227.5-2014.5,227.5L-2014.5,227.5z M-2010.2,235.7l-5.3,5.3
		c-0.2,0.2-0.4,0.2-0.6,0.2h0c-0.2,0-0.4-0.1-0.6-0.3l-2-2.3c-0.3-0.3-0.2-0.8,0.1-1.1s0.8-0.2,1.1,0.1l1.4,1.6l4.7-4.7l0,0
		c0.3-0.3,0.8-0.3,1.2,0S-2009.9,235.3-2010.2,235.7L-2010.2,235.7z"/>
	<rect x="-1461.4" y="224.2" class="st6" width="340.5" height="49.8"/>
	<text transform="matrix(1 0 0 1 -1554.4313 244.789)" class="st9 st10 st11">Apolo 9</text>
	<text transform="matrix(1 0 0 1 -1554.4313 268.789)" class="st8 st12 st13">3 de marzo de 1969</text>
	<path class="st0" d="M-1578.3,227.5c-2.8,0-5.4,1.1-7.3,3c-1.9,2-3,4.6-3,7.3s1.1,5.4,3,7.3c1.9,2,4.6,3,7.3,3s5.4-1.1,7.3-3
		c1.9-2,3-4.6,3-7.3s-1.1-5.4-3-7.3C-1572.9,228.6-1575.5,227.5-1578.3,227.5L-1578.3,227.5z M-1574,235.7l-5.3,5.3
		c-0.2,0.2-0.4,0.2-0.6,0.2h0c-0.2,0-0.4-0.1-0.6-0.3l-2-2.3c-0.3-0.3-0.2-0.8,0.1-1.1s0.8-0.2,1.1,0.1l1.4,1.6l4.7-4.7l0,0
		c0.3-0.3,0.8-0.3,1.2,0C-1573.7,234.8-1573.7,235.3-1574,235.7L-1574,235.7z"/>
	<rect x="-1060.7" y="225.2" class="st6" width="340.5" height="49.8"/>
	<text transform="matrix(1 0 0 1 -1121.7258 245.7887)" class="st9 st10 st11">Apolo 10</text>
	<text transform="matrix(1 0 0 1 -1121.7258 269.7887)" class="st8 st12 st13">18 de mayo de 1969</text>
	<path class="st0" d="M-1144.5,226.5c-2.8,0-5.4,1.1-7.3,3c-1.9,2-3,4.6-3,7.3s1.1,5.4,3,7.3c1.9,2,4.6,3,7.3,3s5.4-1.1,7.3-3
		c1.9-2,3-4.6,3-7.3s-1.1-5.4-3-7.3C-1139.1,227.6-1141.8,226.5-1144.5,226.5L-1144.5,226.5z M-1140.3,234.7l-5.3,5.3
		c-0.2,0.2-0.4,0.2-0.6,0.2h0c-0.2,0-0.4-0.1-0.6-0.3l-2-2.3c-0.3-0.3-0.2-0.8,0.1-1.1s0.8-0.2,1.1,0.1l1.4,1.6l4.7-4.7l0,0
		c0.3-0.3,0.8-0.3,1.2,0C-1140,233.8-1140,234.3-1140.3,234.7L-1140.3,234.7z"/>
	<g>
		<polygon class="st7" points="-2432.2,-286.7 -2415.2,-291.5 -2376.8,-291.5 -2376.8,-312.9 -2415.2,-312.9 -2432.2,-317.7 
			-2433.4,-317.7 -2433.4,-286.7 		"/>
		<polygon class="st7" points="-2372.9,-291.5 -2350.1,-297.1 -2337.8,-297.1 -2332.2,-300.7 -2315.7,-300.7 -2315.7,-303.7 
			-2332.2,-303.7 -2337.8,-307.2 -2350.1,-307.2 -2372.9,-312.9 -2376.8,-312.9 -2376.8,-291.5 		"/>
		<polygon class="st7" points="-2517.9,-274 -2501.4,-286.7 -2501.4,-286.7 -2433.4,-286.7 -2433.4,-317.7 -2501.4,-317.7 
			-2517.9,-330.4 -2523.9,-330.4 -2523.9,-316.3 -2533.2,-321.6 -2538.2,-321.6 -2538.2,-282.8 -2533.2,-282.8 -2523.9,-288.1 
			-2523.9,-274 		"/>
	</g>
</g>
<line class="st5" x1="1885.8" y1="166.8" x2="1885.8" y2="2574.2"/>
<line class="st4" x1="1885.8" y1="166.8" x2="1885.8" y2="2585.5"/>
<g>
	<polygon class="st7" points="1869.3,195.1 1874.4,213.2 1874.4,254 1897.1,254 1897.1,213.2 1902.3,195.1 1902.3,193.8 
		1869.3,193.8 	"/>
	<polygon class="st7" points="1874.4,258.1 1880.4,282.3 1880.4,295.4 1884.2,301.4 1884.2,318.9 1887.4,318.9 1887.4,301.4 
		1891.1,295.4 1891.1,282.3 1897.1,258.1 1897.1,254 1874.4,254 	"/>
	<polygon class="st7" points="1855.8,104.1 1869.3,121.6 1869.3,121.6 1869.3,193.8 1902.3,193.8 1902.3,121.6 1915.7,104.1 
		1915.7,97.7 1900.8,97.7 1906.4,87.8 1906.4,82.5 1865.1,82.5 1865.1,87.8 1870.8,97.7 1855.8,97.7 	"/>
</g>
<g>
	<g>
		<g>
			<path class="st9" d="M1901.2,451.5c-4.1-4.1-9.6-6.4-15.4-6.4l0,0c-5.8,0-11.4,2.3-15.4,6.4c-4.1,4.1-6.4,9.6-6.4,15.4
				c0,5.8,2.3,11.4,6.4,15.4c4.1,4.1,9.6,6.4,15.4,6.4s11.4-2.3,15.4-6.4c4.1-4.1,6.4-9.6,6.4-15.4
				C1907.6,461.1,1905.3,455.6,1901.2,451.5z"/>
		</g>
	</g>
	<g>
		<path class="st1" d="M1901.2,451.5c-4.1-4.1-9.6-6.4-15.4-6.4l0,0c-5.8,0-11.4,2.3-15.4,6.4c-4.1,4.1-6.4,9.6-6.4,15.4
			c0,5.8,2.3,11.4,6.4,15.4c4.1,4.1,9.6,6.4,15.4,6.4s11.4-2.3,15.4-6.4c4.1-4.1,6.4-9.6,6.4-15.4
			C1907.6,461.1,1905.3,455.6,1901.2,451.5z M1894.7,473.6c0.6,0.6,0.6,1.6,0,2.2c-0.3,0.3-0.7,0.5-1.1,0.5c-0.4,0-0.8-0.1-1.1-0.5
			l-6.7-6.7l-6.7,6.7c-0.3,0.3-0.7,0.5-1.1,0.5c-0.4,0-0.8-0.1-1.1-0.5c-0.6-0.6-0.6-1.6,0-2.2l6.7-6.7l-6.7-6.7
			c-0.6-0.6-0.6-1.6,0-2.2c0.6-0.6,1.6-0.6,2.2,0l6.7,6.7l6.7-6.7c0.6-0.6,1.6-0.6,2.2,0c0.6,0.6,0.6,1.6,0,2.2l-6.7,6.7
			L1894.7,473.6z"/>
	</g>
</g>
<g>
	<g>
		<g>
			<path class="st9" d="M1901.2,701.3c-4.1-4.1-9.6-6.4-15.4-6.4l0,0c-5.8,0-11.4,2.3-15.4,6.4c-4.1,4.1-6.4,9.6-6.4,15.4
				c0,5.8,2.3,11.4,6.4,15.4c4.1,4.1,9.6,6.4,15.4,6.4s11.4-2.3,15.4-6.4c4.1-4.1,6.4-9.6,6.4-15.4
				C1907.6,711,1905.3,705.4,1901.2,701.3z"/>
		</g>
	</g>
	<path class="st0" d="M1885.8,694.9c-5.8,0-11.4,2.3-15.4,6.4c-4.1,4.1-6.4,9.6-6.4,15.4s2.3,11.4,6.4,15.4
		c4.1,4.1,9.6,6.4,15.4,6.4s11.4-2.3,15.4-6.4s6.4-9.6,6.4-15.4s-2.3-11.3-6.4-15.4C1897.1,697.2,1891.5,694.9,1885.8,694.9
		L1885.8,694.9z M1894.6,712l-11.2,11.2c-0.3,0.3-0.8,0.5-1.2,0.5h-0.1c-0.5,0-0.9-0.2-1.2-0.6l-4.1-4.8c-0.6-0.7-0.5-1.8,0.2-2.4
		s1.7-0.5,2.4,0.1l2.9,3.4l9.9-9.9l0,0c0.7-0.7,1.7-0.7,2.4,0C1895.3,710.3,1895.3,711.4,1894.6,712L1894.6,712z"/>
</g>
<g>
	<g>
		<g>
			<path class="st9" d="M1901.2,950.8c-4.1-4.1-9.6-6.4-15.4-6.4l0,0c-5.8,0-11.4,2.3-15.4,6.4c-4.1,4.1-6.4,9.6-6.4,15.4
				c0,5.8,2.3,11.4,6.4,15.4c4.1,4.1,9.6,6.4,15.4,6.4s11.4-2.3,15.4-6.4c4.1-4.1,6.4-9.6,6.4-15.4
				C1907.6,960.5,1905.3,954.9,1901.2,950.8z"/>
		</g>
	</g>
	<path class="st0" d="M1885.8,944.4c-5.8,0-11.4,2.3-15.4,6.4c-4.1,4.1-6.4,9.6-6.4,15.4c0,5.8,2.3,11.4,6.4,15.4
		c4.1,4.1,9.6,6.4,15.4,6.4s11.4-2.3,15.4-6.4s6.4-9.6,6.4-15.4c0-5.8-2.3-11.3-6.4-15.4C1897.1,946.7,1891.5,944.4,1885.8,944.4
		L1885.8,944.4z M1894.6,961.6l-11.2,11.2c-0.3,0.3-0.8,0.5-1.2,0.5h-0.1c-0.5,0-0.9-0.2-1.2-0.6l-4.1-4.8c-0.6-0.7-0.5-1.8,0.2-2.4
		s1.7-0.5,2.4,0.1l2.9,3.4l9.9-9.9l0,0c0.7-0.7,1.7-0.7,2.4,0C1895.3,959.8,1895.3,960.9,1894.6,961.6L1894.6,961.6z"/>
</g>
<text transform="matrix(1 0 0 1 2007.9739 472.2835)" class="st9 st10 st11">Apolo 1</text>
<text transform="matrix(1 0 0 1 1976.7134 496.2834)" class="st8 st12 st13">27 de enero de 1967</text>
<rect x="1950.2" y="513.4" class="st6" width="198.4" height="80.4"/>
<text transform="matrix(1 0 0 1 1970.491 524.0276)"><tspan x="0" y="0" class="st9 st12 st14">Durante una prueba en la </tspan><tspan x="-15.2" y="16.8" class="st9 st12 st14">plataforma de lanzamiento un </tspan><tspan x="-18.8" y="33.6" class="st9 st12 st14">incendio terminó con la vida de </tspan><tspan x="25.2" y="50.4" class="st9 st12 st14">tres astronautas.</tspan></text>
<text transform="matrix(1 0 0 1 1679.9482 729.1173)" class="st9 st10 st11">Apolo 4</text>
<text transform="matrix(1 0 0 1 1635.6143 753.1173)" class="st8 st12 st13">9 de noviembre de 1967</text>
<rect x="1621.8" y="767.5" class="st6" width="199.3" height="90.5"/>
<text transform="matrix(1 0 0 1 1624.2166 778.1749)"><tspan x="0" y="0" class="st9 st12 st14">Esta prueba debía ser el primer </tspan><tspan x="14.9" y="16.8" class="st9 st12 st14">lanzamiento tripulado. Sin </tspan><tspan x="3.1" y="33.6" class="st9 st12 st14">embargo, tras el accidente del </tspan><tspan x="-1.9" y="50.4" class="st9 st12 st14">Apolo 1, se decidió realizar esta </tspan><tspan x="3.7" y="67.2" class="st9 st12 st14">misión sin tripulación abordo.</tspan></text>
<text transform="matrix(1 0 0 1 2004.9011 970.1052)" class="st9 st15 st11">Apolo 5</text>
<text transform="matrix(1 0 0 1 1975.0554 994.1052)" class="st8 st16 st13">22 de enero de 1968</text>
<rect x="1948.5" y="1009" class="st6" width="200.7" height="90.5"/>
<text transform="matrix(1 0 0 1 1968.5159 1019.67)"><tspan x="0" y="0" class="st9 st12 st14">Fue la segunda misión no </tspan><tspan x="-13.3" y="16.8" class="st9 st12 st14">tripulada del Programa Apolo. </tspan><tspan x="-11.5" y="33.6" class="st9 st12 st14">Tenía como objetivo penetrar </tspan><tspan x="-10.4" y="50.4" class="st9 st12 st14">en la atmósfera terrestre con </tspan><tspan x="63.2" y="67.2" class="st9 st12 st14">éxito.</tspan></text>
<g>
	<g>
		<g>
			<path class="st9" d="M1901.2,1198.6c-4.1-4.1-9.6-6.4-15.4-6.4l0,0c-5.8,0-11.4,2.3-15.4,6.4c-4.1,4.1-6.4,9.6-6.4,15.4
				s2.3,11.4,6.4,15.4c4.1,4.1,9.6,6.4,15.4,6.4s11.4-2.3,15.4-6.4c4.1-4.1,6.4-9.6,6.4-15.4
				C1907.6,1208.2,1905.3,1202.7,1901.2,1198.6z"/>
		</g>
	</g>
	<path class="st2" d="M1885.8,1192.1c-12.1,0-21.8,9.8-21.8,21.8s9.8,21.8,21.8,21.8c12.1,0,21.8-9.8,21.8-21.8
		S1897.8,1192.1,1885.8,1192.1z M1894.1,1215.5h-16.6c-0.9,0-1.6-0.7-1.6-1.6c0-0.9,0.7-1.6,1.6-1.6h16.6c0.9,0,1.6,0.7,1.6,1.6
		C1895.7,1214.8,1895,1215.5,1894.1,1215.5z"/>
</g>
<g>
	<g>
		<g>
			<path class="st9" d="M1901.2,1447c-4.1-4.1-9.6-6.4-15.4-6.4l0,0c-5.8,0-11.4,2.3-15.4,6.4c-4.1,4.1-6.4,9.6-6.4,15.4
				c0,5.8,2.3,11.4,6.4,15.4c4.1,4.1,9.6,6.4,15.4,6.4s11.4-2.3,15.4-6.4c4.1-4.1,6.4-9.6,6.4-15.4
				C1907.6,1456.7,1905.3,1451.1,1901.2,1447z"/>
		</g>
	</g>
	<path class="st0" d="M1885.8,1440.6c-5.8,0-11.4,2.3-15.4,6.4c-4.1,4.1-6.4,9.6-6.4,15.4c0,5.8,2.3,11.4,6.4,15.4
		c4.1,4.1,9.6,6.4,15.4,6.4s11.4-2.3,15.4-6.4s6.4-9.6,6.4-15.4c0-5.8-2.3-11.3-6.4-15.4C1897.1,1442.9,1891.5,1440.6,1885.8,1440.6
		L1885.8,1440.6z M1894.6,1457.8l-11.2,11.2c-0.3,0.3-0.8,0.5-1.2,0.5h-0.1c-0.5,0-0.9-0.2-1.2-0.6l-4.1-4.8
		c-0.6-0.7-0.5-1.8,0.2-2.4c0.7-0.6,1.7-0.5,2.4,0.1l2.9,3.4l9.9-9.9l0,0c0.7-0.7,1.7-0.7,2.4,0
		C1895.3,1456,1895.3,1457.1,1894.6,1457.8L1894.6,1457.8z"/>
</g>
<g>
	<g>
		<g>
			<path class="st9" d="M1901.2,1696.6c-4.1-4.1-9.6-6.4-15.4-6.4l0,0c-5.8,0-11.4,2.3-15.4,6.4c-4.1,4.1-6.4,9.6-6.4,15.4
				c0,5.8,2.3,11.4,6.4,15.4c4.1,4.1,9.6,6.4,15.4,6.4s11.4-2.3,15.4-6.4c4.1-4.1,6.4-9.6,6.4-15.4
				C1907.6,1706.2,1905.3,1700.7,1901.2,1696.6z"/>
		</g>
	</g>
	<path class="st0" d="M1885.8,1690.1c-5.8,0-11.4,2.3-15.4,6.4c-4.1,4.1-6.4,9.6-6.4,15.4c0,5.8,2.3,11.4,6.4,15.4
		c4.1,4.1,9.6,6.4,15.4,6.4s11.4-2.3,15.4-6.4s6.4-9.6,6.4-15.4c0-5.8-2.3-11.3-6.4-15.4C1897.1,1692.5,1891.5,1690.1,1885.8,1690.1
		L1885.8,1690.1z M1894.6,1707.3l-11.2,11.2c-0.3,0.3-0.8,0.5-1.2,0.5h-0.1c-0.5,0-0.9-0.2-1.2-0.6l-4.1-4.8
		c-0.6-0.7-0.5-1.8,0.2-2.4c0.7-0.6,1.7-0.5,2.4,0.1l2.9,3.4l9.9-9.9l0,0c0.7-0.7,1.7-0.7,2.4,0
		C1895.3,1705.5,1895.3,1706.6,1894.6,1707.3L1894.6,1707.3z"/>
</g>
<g>
	<g>
		<g>
			<path class="st9" d="M1901.2,1943.4c-4.1-4.1-9.6-6.4-15.4-6.4l0,0c-5.8,0-11.4,2.3-15.4,6.4c-4.1,4.1-6.4,9.6-6.4,15.4
				c0,5.8,2.3,11.4,6.4,15.4c4.1,4.1,9.6,6.4,15.4,6.4s11.4-2.3,15.4-6.4c4.1-4.1,6.4-9.6,6.4-15.4
				C1907.6,1953,1905.3,1947.5,1901.2,1943.4z"/>
		</g>
	</g>
	<path class="st0" d="M1885.8,1937c-5.8,0-11.4,2.3-15.4,6.4c-4.1,4.1-6.4,9.6-6.4,15.4c0,5.8,2.3,11.4,6.4,15.4
		c4.1,4.1,9.6,6.4,15.4,6.4s11.4-2.3,15.4-6.4s6.4-9.6,6.4-15.4c0-5.8-2.3-11.3-6.4-15.4C1897.1,1939.3,1891.5,1937,1885.8,1937
		L1885.8,1937z M1894.6,1954.1l-11.2,11.2c-0.3,0.3-0.8,0.5-1.2,0.5h-0.1c-0.5,0-0.9-0.2-1.2-0.6l-4.1-4.8c-0.6-0.7-0.5-1.8,0.2-2.4
		c0.7-0.6,1.7-0.5,2.4,0.1l2.9,3.4l9.9-9.9l0,0c0.7-0.7,1.7-0.7,2.4,0C1895.3,1952.4,1895.3,1953.5,1894.6,1954.1L1894.6,1954.1z"/>
</g>
<g>
	<g>
		<g>
			<path class="st9" d="M1901.2,2190.2c-4.1-4.1-9.6-6.4-15.4-6.4l0,0c-5.8,0-11.4,2.3-15.4,6.4c-4.1,4.1-6.4,9.6-6.4,15.4
				c0,5.8,2.3,11.4,6.4,15.4c4.1,4.1,9.6,6.4,15.4,6.4s11.4-2.3,15.4-6.4c4.1-4.1,6.4-9.6,6.4-15.4
				C1907.6,2199.9,1905.3,2194.3,1901.2,2190.2z"/>
		</g>
	</g>
	<path class="st0" d="M1885.8,2183.8c-5.8,0-11.4,2.3-15.4,6.4c-4.1,4.1-6.4,9.6-6.4,15.4c0,5.8,2.3,11.4,6.4,15.4
		c4.1,4.1,9.6,6.4,15.4,6.4s11.4-2.3,15.4-6.4c4.1-4.1,6.4-9.6,6.4-15.4c0-5.8-2.3-11.3-6.4-15.4
		C1897.1,2186.1,1891.5,2183.8,1885.8,2183.8L1885.8,2183.8z M1894.6,2200.9l-11.2,11.2c-0.3,0.3-0.8,0.5-1.2,0.5h-0.1
		c-0.5,0-0.9-0.2-1.2-0.6l-4.1-4.8c-0.6-0.7-0.5-1.8,0.2-2.4c0.7-0.6,1.7-0.5,2.4,0.1l2.9,3.4l9.9-9.9l0,0c0.7-0.7,1.7-0.7,2.4,0
		C1895.3,2199.2,1895.3,2200.3,1894.6,2200.9L1894.6,2200.9z"/>
</g>
<text transform="matrix(1 0 0 1 1679.9316 1218.7056)" class="st9 st10 st11">Apolo 6</text>
<text transform="matrix(1 0 0 1 1657.668 1242.7056)" class="st8 st12 st13">4 de abril de 1968</text>
<rect x="1621.1" y="1258.4" class="st6" width="200.6" height="128.9"/>
<text transform="matrix(1 0 0 1 1626.0593 1269.0256)"><tspan x="0" y="0" class="st9 st12 st14">Última misión no tripulada. Un </tspan><tspan x="13.5" y="16.8" class="st9 st12 st14">fenómeno conocido como </tspan><tspan x="21.8" y="33.6" class="st9 st12 st14">“efecto pogo” daño dos </tspan><tspan x="0.4" y="50.4" class="st9 st12 st14">motores Rocketdyne J-2. Esto </tspan><tspan x="-0.8" y="67.2" class="st9 st12 st14">provoco que durante la tercera </tspan><tspan x="1.3" y="84" class="st9 st12 st14">etpa no se pudiera alcanzar la </tspan><tspan x="1.4" y="100.8" class="st9 st12 st14">velocidad translunar correcta. </tspan></text>
<text transform="matrix(1 0 0 1 2006.4377 1464.5499)" class="st9 st10 st11">Apolo 7</text>
<text transform="matrix(1 0 0 1 1967.9355 1488.55)" class="st8 st12 st13">11 de octubre de 1968</text>
<rect x="1947.8" y="1504.1" class="st6" width="200.2" height="108.9"/>
<text transform="matrix(1 0 0 1 1949.7798 1514.717)"><tspan x="0" y="0" class="st9 st12 st14">Primera misión oficial tripulada </tspan><tspan x="24.4" y="16.8" class="st9 st12 st14">del Programa Apolo. Se </tspan><tspan x="5.5" y="33.6" class="st9 st12 st14">hicieron los primeros usos de </tspan><tspan x="-1" y="50.4" class="st9 st12 st14">los trajes Apolo y fue la primera </tspan><tspan x="9.9" y="67.2" class="st9 st12 st14">transmisión de televisión en </tspan><tspan x="74.4" y="84" class="st9 st12 st14">directo.</tspan></text>
<text transform="matrix(1 0 0 1 1678.9067 1718.3525)" class="st9 st10 st11">Apolo 8</text>
<text transform="matrix(1 0 0 1 1632.436 1742.3525)" class="st8 st12 st13">21 de diciembre de 1968</text>
<rect x="1620.3" y="1756.2" class="st6" width="200.2" height="105.3"/>
<text transform="matrix(1 0 0 1 1633.5212 1766.8829)"><tspan x="0" y="0" class="st9 st12 st14">Primera misión tripulada en </tspan><tspan x="2.8" y="16.8" class="st9 st12 st14">salir de la órbita terrestre y </tspan><tspan x="12.3" y="33.6" class="st9 st12 st14">orbitar la Luna. Los tres </tspan><tspan x="-8.9" y="50.4" class="st9 st12 st14">astronautas se convirtieron en </tspan><tspan x="-10" y="67.2" class="st9 st12 st14">los primeros en ver la Tierra de </tspan><tspan x="29.9" y="84" class="st9 st12 st14">manera completa.</tspan></text>
<text transform="matrix(1 0 0 1 2007.2151 1957.5266)" class="st9 st10 st11">Apolo 9</text>
<text transform="matrix(1 0 0 1 1977.967 1981.5266)" class="st8 st12 st13">3 de marzo de 1969</text>
<rect x="1948.3" y="1996.4" class="st6" width="200.7" height="90.5"/>
<text transform="matrix(1 0 0 1 1990.9023 2007.0636)"><tspan x="0" y="0" class="st9 st12 st14">Primera prueba de </tspan><tspan x="-37.7" y="16.8" class="st9 st12 st14">acoplamiento al módulo lunar. </tspan><tspan x="-41.6" y="33.6" class="st9 st12 st14">Es el módulo que se utilizó para </tspan><tspan x="-24.4" y="50.4" class="st9 st12 st14">explorar la superficie de la </tspan><tspan x="40.2" y="67.2" class="st9 st12 st14">Luna.</tspan></text>
<text transform="matrix(1 0 0 1 1673.3655 2210.6997)" class="st9 st10 st11">Apolo 10</text>
<text transform="matrix(1 0 0 1 1649.2991 2234.6997)" class="st8 st12 st13">18 de mayo de 1969</text>
<rect x="1621.4" y="2250" class="st6" width="200.7" height="90.5"/>
<text transform="matrix(1 0 0 1 1650.7344 2260.6592)"><tspan x="0" y="0" class="st9 st12 st14">Ensayo general para el </tspan><tspan x="-28.4" y="16.8" class="st9 st12 st14">alunizaje. Llegaron a descender </tspan><tspan x="-28.1" y="33.6" class="st9 st12 st14">a 15.6 km de la superficie lunar, </tspan><tspan x="-4" y="50.4" class="st9 st12 st14">se toman fotografías de </tspan><tspan x="-21.7" y="67.2" class="st9 st12 st14">posibles lugares de alunizaje.</tspan></text>
<line class="st5" x1="159.7" y1="167" x2="159.7" y2="2574.4"/>
<line class="st4" x1="159.7" y1="167" x2="159.7" y2="2585.8"/>
<g>
	<polygon class="st7" points="143.2,195.3 148.3,213.4 148.3,254.3 171,254.3 171,213.4 176.2,195.3 176.2,194.1 143.2,194.1 	"/>
	<polygon class="st7" points="148.3,258.4 154.3,282.6 154.3,295.6 158.1,301.6 158.1,319.1 161.3,319.1 161.3,301.6 165,295.6 
		165,282.6 171,258.4 171,254.3 148.3,254.3 	"/>
	<polygon class="st7" points="129.7,104.3 143.2,121.8 143.2,121.8 143.2,194.1 176.2,194.1 176.2,121.8 189.7,104.3 189.7,98 
		174.7,98 180.3,88 180.3,82.7 139.1,82.7 139.1,88 144.7,98 129.7,98 	"/>
</g>
<g>
	<g>
		<g>
			<path class="st9" d="M175.1,451.7c-4.1-4.1-9.6-6.4-15.4-6.4l0,0c-5.8,0-11.4,2.3-15.4,6.4c-4.1,4.1-6.4,9.6-6.4,15.4
				s2.3,11.4,6.4,15.4c4.1,4.1,9.6,6.4,15.4,6.4s11.4-2.3,15.4-6.4c4.1-4.1,6.4-9.6,6.4-15.4C181.5,461.4,179.2,455.8,175.1,451.7z"
				/>
		</g>
	</g>
	<g>
		<path class="st1" d="M175.1,451.7c-4.1-4.1-9.6-6.4-15.4-6.4l0,0c-5.8,0-11.4,2.3-15.4,6.4c-4.1,4.1-6.4,9.6-6.4,15.4
			s2.3,11.4,6.4,15.4c4.1,4.1,9.6,6.4,15.4,6.4s11.4-2.3,15.4-6.4c4.1-4.1,6.4-9.6,6.4-15.4C181.5,461.4,179.2,455.8,175.1,451.7z
			 M168.6,473.8c0.6,0.6,0.6,1.6,0,2.2c-0.3,0.3-0.7,0.5-1.1,0.5c-0.4,0-0.8-0.1-1.1-0.5l-6.7-6.7l-6.7,6.7
			c-0.3,0.3-0.7,0.5-1.1,0.5c-0.4,0-0.8-0.1-1.1-0.5c-0.6-0.6-0.6-1.6,0-2.2l6.7-6.7l-6.7-6.7c-0.6-0.6-0.6-1.6,0-2.2
			c0.6-0.6,1.6-0.6,2.2,0l6.7,6.7l6.7-6.7c0.6-0.6,1.6-0.6,2.2,0c0.6,0.6,0.6,1.6,0,2.2l-6.7,6.7L168.6,473.8z"/>
	</g>
</g>
<g>
	<g>
		<g>
			<path class="st9" d="M175.1,701.6c-4.1-4.1-9.6-6.4-15.4-6.4l0,0c-5.8,0-11.4,2.3-15.4,6.4c-4.1,4.1-6.4,9.6-6.4,15.4
				c0,5.8,2.3,11.4,6.4,15.4c4.1,4.1,9.6,6.4,15.4,6.4s11.4-2.3,15.4-6.4c4.1-4.1,6.4-9.6,6.4-15.4
				C181.5,711.2,179.2,705.7,175.1,701.6z"/>
		</g>
	</g>
	<path class="st0" d="M159.7,695.1c-5.8,0-11.4,2.3-15.4,6.4c-4.1,4.1-6.4,9.6-6.4,15.4s2.3,11.4,6.4,15.4c4.1,4.1,9.6,6.4,15.4,6.4
		s11.4-2.3,15.4-6.4c4.1-4.1,6.4-9.6,6.4-15.4s-2.3-11.3-6.4-15.4C171,697.5,165.5,695.1,159.7,695.1L159.7,695.1z M168.6,712.3
		l-11.2,11.2c-0.3,0.3-0.8,0.5-1.2,0.5H156c-0.5,0-0.9-0.2-1.2-0.6l-4.1-4.8c-0.6-0.7-0.5-1.8,0.2-2.4c0.7-0.6,1.7-0.5,2.4,0.1
		l2.9,3.4l9.9-9.9l0,0c0.7-0.7,1.7-0.7,2.4,0C169.2,710.5,169.2,711.6,168.6,712.3L168.6,712.3z"/>
</g>
<g>
	<g>
		<g>
			<path class="st9" d="M175.1,951.1c-4.1-4.1-9.6-6.4-15.4-6.4l0,0c-5.8,0-11.4,2.3-15.4,6.4c-4.1,4.1-6.4,9.6-6.4,15.4
				c0,5.8,2.3,11.4,6.4,15.4c4.1,4.1,9.6,6.4,15.4,6.4s11.4-2.3,15.4-6.4c4.1-4.1,6.4-9.6,6.4-15.4
				C181.5,960.7,179.2,955.2,175.1,951.1z"/>
		</g>
	</g>
	<path class="st0" d="M159.7,944.7c-5.8,0-11.4,2.3-15.4,6.4c-4.1,4.1-6.4,9.6-6.4,15.4c0,5.8,2.3,11.4,6.4,15.4
		c4.1,4.1,9.6,6.4,15.4,6.4s11.4-2.3,15.4-6.4c4.1-4.1,6.4-9.6,6.4-15.4c0-5.8-2.3-11.3-6.4-15.4C171,947,165.5,944.7,159.7,944.7
		L159.7,944.7z M168.6,961.8L157.3,973c-0.3,0.3-0.8,0.5-1.2,0.5H156c-0.5,0-0.9-0.2-1.2-0.6l-4.1-4.8c-0.6-0.7-0.5-1.8,0.2-2.4
		c0.7-0.6,1.7-0.5,2.4,0.1l2.9,3.4l9.9-9.9l0,0c0.7-0.7,1.7-0.7,2.4,0C169.2,960,169.2,961.1,168.6,961.8L168.6,961.8z"/>
</g>
<g>
	<g>
		<g>
			<path class="st9" d="M175.1,1198.8c-4.1-4.1-9.6-6.4-15.4-6.4l0,0c-5.8,0-11.4,2.3-15.4,6.4c-4.1,4.1-6.4,9.6-6.4,15.4
				c0,5.8,2.3,11.4,6.4,15.4c4.1,4.1,9.6,6.4,15.4,6.4s11.4-2.3,15.4-6.4c4.1-4.1,6.4-9.6,6.4-15.4
				C181.5,1208.4,179.2,1202.9,175.1,1198.8z"/>
		</g>
	</g>
	<path class="st2" d="M159.7,1192.4c-12.1,0-21.8,9.8-21.8,21.8c0,12.1,9.8,21.8,21.8,21.8c12.1,0,21.8-9.8,21.8-21.8
		C181.5,1202.1,171.8,1192.4,159.7,1192.4z M168,1215.8h-16.6c-0.9,0-1.6-0.7-1.6-1.6c0-0.9,0.7-1.6,1.6-1.6H168
		c0.9,0,1.6,0.7,1.6,1.6C169.6,1215,168.9,1215.8,168,1215.8z"/>
</g>
<g>
	<g>
		<g>
			<path class="st9" d="M175.1,1447.3c-4.1-4.1-9.6-6.4-15.4-6.4l0,0c-5.8,0-11.4,2.3-15.4,6.4c-4.1,4.1-6.4,9.6-6.4,15.4
				s2.3,11.4,6.4,15.4c4.1,4.1,9.6,6.4,15.4,6.4s11.4-2.3,15.4-6.4c4.1-4.1,6.4-9.6,6.4-15.4
				C181.5,1456.9,179.2,1451.4,175.1,1447.3z"/>
		</g>
	</g>
	<path class="st0" d="M159.7,1440.9c-5.8,0-11.4,2.3-15.4,6.4c-4.1,4.1-6.4,9.6-6.4,15.4s2.3,11.4,6.4,15.4
		c4.1,4.1,9.6,6.4,15.4,6.4s11.4-2.3,15.4-6.4c4.1-4.1,6.4-9.6,6.4-15.4s-2.3-11.3-6.4-15.4C171,1443.2,165.5,1440.9,159.7,1440.9
		L159.7,1440.9z M168.6,1458l-11.2,11.2c-0.3,0.3-0.8,0.5-1.2,0.5H156c-0.5,0-0.9-0.2-1.2-0.6l-4.1-4.8c-0.6-0.7-0.5-1.8,0.2-2.4
		c0.7-0.6,1.7-0.5,2.4,0.1l2.9,3.4l9.9-9.9l0,0c0.7-0.7,1.7-0.7,2.4,0C169.2,1456.2,169.2,1457.3,168.6,1458L168.6,1458z"/>
</g>
<g>
	<g>
		<g>
			<path class="st9" d="M175.1,1696.8c-4.1-4.1-9.6-6.4-15.4-6.4l0,0c-5.8,0-11.4,2.3-15.4,6.4c-4.1,4.1-6.4,9.6-6.4,15.4
				s2.3,11.4,6.4,15.4c4.1,4.1,9.6,6.4,15.4,6.4s11.4-2.3,15.4-6.4c4.1-4.1,6.4-9.6,6.4-15.4
				C181.5,1706.4,179.2,1700.9,175.1,1696.8z"/>
		</g>
	</g>
	<path class="st0" d="M159.7,1690.4c-5.8,0-11.4,2.3-15.4,6.4c-4.1,4.1-6.4,9.6-6.4,15.4s2.3,11.4,6.4,15.4
		c4.1,4.1,9.6,6.4,15.4,6.4s11.4-2.3,15.4-6.4c4.1-4.1,6.4-9.6,6.4-15.4s-2.3-11.3-6.4-15.4C171,1692.7,165.5,1690.4,159.7,1690.4
		L159.7,1690.4z M168.6,1707.5l-11.2,11.2c-0.3,0.3-0.8,0.5-1.2,0.5H156c-0.5,0-0.9-0.2-1.2-0.6l-4.1-4.8c-0.6-0.7-0.5-1.8,0.2-2.4
		c0.7-0.6,1.7-0.5,2.4,0.1l2.9,3.4l9.9-9.9l0,0c0.7-0.7,1.7-0.7,2.4,0C169.2,1705.8,169.2,1706.9,168.6,1707.5L168.6,1707.5z"/>
</g>
<g>
	<g>
		<g>
			<path class="st9" d="M175.1,1943.6c-4.1-4.1-9.6-6.4-15.4-6.4l0,0c-5.8,0-11.4,2.3-15.4,6.4c-4.1,4.1-6.4,9.6-6.4,15.4
				s2.3,11.4,6.4,15.4c4.1,4.1,9.6,6.4,15.4,6.4s11.4-2.3,15.4-6.4c4.1-4.1,6.4-9.6,6.4-15.4
				C181.5,1953.3,179.2,1947.7,175.1,1943.6z"/>
		</g>
	</g>
	<path class="st0" d="M159.7,1937.2c-5.8,0-11.4,2.3-15.4,6.4c-4.1,4.1-6.4,9.6-6.4,15.4s2.3,11.4,6.4,15.4
		c4.1,4.1,9.6,6.4,15.4,6.4s11.4-2.3,15.4-6.4c4.1-4.1,6.4-9.6,6.4-15.4s-2.3-11.3-6.4-15.4C171,1939.5,165.5,1937.2,159.7,1937.2
		L159.7,1937.2z M168.6,1954.3l-11.2,11.2c-0.3,0.3-0.8,0.5-1.2,0.5H156c-0.5,0-0.9-0.2-1.2-0.6l-4.1-4.8c-0.6-0.7-0.5-1.8,0.2-2.4
		c0.7-0.6,1.7-0.5,2.4,0.1l2.9,3.4l9.9-9.9l0,0c0.7-0.7,1.7-0.7,2.4,0C169.2,1952.6,169.2,1953.7,168.6,1954.3L168.6,1954.3z"/>
</g>
<g>
	<g>
		<g>
			<path class="st9" d="M175.1,2190.5c-4.1-4.1-9.6-6.4-15.4-6.4l0,0c-5.8,0-11.4,2.3-15.4,6.4c-4.1,4.1-6.4,9.6-6.4,15.4
				s2.3,11.4,6.4,15.4c4.1,4.1,9.6,6.4,15.4,6.4s11.4-2.3,15.4-6.4c4.1-4.1,6.4-9.6,6.4-15.4
				C181.5,2200.1,179.2,2194.6,175.1,2190.5z"/>
		</g>
	</g>
	<path class="st0" d="M159.7,2184.1c-5.8,0-11.4,2.3-15.4,6.4c-4.1,4.1-6.4,9.6-6.4,15.4s2.3,11.4,6.4,15.4
		c4.1,4.1,9.6,6.4,15.4,6.4s11.4-2.3,15.4-6.4c4.1-4.1,6.4-9.6,6.4-15.4s-2.3-11.3-6.4-15.4C171,2186.4,165.5,2184.1,159.7,2184.1
		L159.7,2184.1z M168.6,2201.2l-11.2,11.2c-0.3,0.3-0.8,0.5-1.2,0.5H156c-0.5,0-0.9-0.2-1.2-0.6l-4.1-4.8c-0.6-0.7-0.5-1.8,0.2-2.4
		c0.7-0.6,1.7-0.5,2.4,0.1l2.9,3.4l9.9-9.9l0,0c0.7-0.7,1.7-0.7,2.4,0C169.2,2199.4,169.2,2200.5,168.6,2201.2L168.6,2201.2z"/>
</g>
<text transform="matrix(1 0 0 1 222.7023 474.7058)" class="st9 st10 st11">Apolo 1</text>
<text transform="matrix(1 0 0 1 222.7016 498.7058)" class="st8 st12 st13">27 de enero de 1967</text>
<rect x="222.7" y="515.8" class="st6" width="198.4" height="80.4"/>
<text transform="matrix(1 0 0 1 222.7024 526.45)"><tspan x="0" y="0" class="st9 st12 st14">Durante una prueba en la </tspan><tspan x="0" y="16.8" class="st9 st12 st14">plataforma de lanzamiento un </tspan><tspan x="0" y="33.6" class="st9 st12 st14">incendio terminó con la vida de </tspan><tspan x="0" y="50.4" class="st9 st12 st14">tres astronautas.</tspan></text>
<text transform="matrix(1 0 0 1 222.5957 727.5935)" class="st9 st10 st11">Apolo 4</text>
<text transform="matrix(1 0 0 1 222.5957 751.5935)" class="st8 st12 st13">9 de noviembre de 1967</text>
<rect x="222.6" y="766" class="st6" width="199.3" height="90.5"/>
<text transform="matrix(1 0 0 1 222.5959 776.6512)"><tspan x="0" y="0" class="st9 st12 st14">Esta prueba debía ser el primer </tspan><tspan x="0" y="16.8" class="st9 st12 st14">lanzamiento tripulado. Sin </tspan><tspan x="0" y="33.6" class="st9 st12 st14">embargo, tras el accidente del </tspan><tspan x="0" y="50.4" class="st9 st12 st14">Apolo 1, se decidió realizar esta </tspan><tspan x="0" y="67.2" class="st9 st12 st14">misión sin tripulación abordo.</tspan></text>
<text transform="matrix(1 0 0 1 222.9179 971.5404)" class="st9 st15 st11">Apolo 5</text>
<text transform="matrix(1 0 0 1 222.9179 995.5404)" class="st8 st16 st13">22 de enero de 1968</text>
<rect x="222.9" y="1010.4" class="st6" width="200.7" height="90.5"/>
<text transform="matrix(1 0 0 1 222.918 1021.1052)"><tspan x="0" y="0" class="st9 st12 st14">Fue la segunda misión no </tspan><tspan x="0" y="16.8" class="st9 st12 st14">tripulada del Programa Apolo. </tspan><tspan x="0" y="33.6" class="st9 st12 st14">Tenía como objetivo penetrar </tspan><tspan x="0" y="50.4" class="st9 st12 st14">en la atmósfera terrestre con </tspan><tspan x="0" y="67.2" class="st9 st12 st14">éxito.</tspan></text>
<text transform="matrix(1 0 0 1 223.0096 1216.1335)" class="st9 st10 st11">Apolo 6</text>
<text transform="matrix(1 0 0 1 223.0096 1240.1335)" class="st8 st12 st13">4 de abril de 1968</text>
<rect x="223" y="1255.8" class="st6" width="200.6" height="128.9"/>
<text transform="matrix(1 0 0 1 223.0094 1266.4536)"><tspan x="0" y="0" class="st9 st12 st14">Última misión no tripulada. Un </tspan><tspan x="0" y="16.8" class="st9 st12 st14">fenómeno conocido como </tspan><tspan x="0" y="33.6" class="st9 st12 st14">“efecto pogo” daño dos </tspan><tspan x="0" y="50.4" class="st9 st12 st14">motores Rocketdyne J-2. Esto </tspan><tspan x="0" y="67.2" class="st9 st12 st14">provoco que durante la tercera </tspan><tspan x="0" y="84" class="st9 st12 st14">etpa no se pudiera alcanzar la </tspan><tspan x="0" y="100.8" class="st9 st12 st14">velocidad translunar correcta. </tspan></text>
<text transform="matrix(1 0 0 1 222.2697 1466.4329)" class="st9 st10 st11">Apolo 7</text>
<text transform="matrix(1 0 0 1 222.2694 1490.4329)" class="st8 st12 st13">11 de octubre de 1968</text>
<rect x="222.3" y="1505.9" class="st6" width="200.2" height="108.9"/>
<text transform="matrix(1 0 0 1 222.27 1516.6)"><tspan x="0" y="0" class="st9 st12 st14">Primera misión oficial tripulada </tspan><tspan x="0" y="16.8" class="st9 st12 st14">del Programa Apolo. Se </tspan><tspan x="0" y="33.6" class="st9 st12 st14">hicieron los primeros usos de </tspan><tspan x="0" y="50.4" class="st9 st12 st14">los trajes Apolo y fue la primera </tspan><tspan x="0" y="67.2" class="st9 st12 st14">transmisión de televisión en </tspan><tspan x="0" y="84" class="st9 st12 st14">directo.</tspan></text>
<text transform="matrix(1 0 0 1 222.8775 1722.8099)" class="st9 st10 st11">Apolo 8</text>
<text transform="matrix(1 0 0 1 222.8775 1746.8099)" class="st8 st12 st13">21 de diciembre de 1968</text>
<rect x="222.9" y="1760.7" class="st6" width="200.2" height="105.3"/>
<text transform="matrix(1 0 0 1 222.8774 1771.3406)"><tspan x="0" y="0" class="st9 st12 st14">Primera misión tripulada en </tspan><tspan x="0" y="16.8" class="st9 st12 st14">salir de la órbita terrestre y </tspan><tspan x="0" y="33.6" class="st9 st12 st14">orbitar la Luna. Los tres </tspan><tspan x="0" y="50.4" class="st9 st12 st14">astronautas se convirtieron en </tspan><tspan x="0" y="67.2" class="st9 st12 st14">los primeros en ver la Tierra de </tspan><tspan x="0" y="84" class="st9 st12 st14">manera completa.</tspan></text>
<text transform="matrix(1 0 0 1 223.6098 1968.3145)" class="st9 st10 st11">Apolo 9</text>
<text transform="matrix(1 0 0 1 223.6098 1992.3145)" class="st8 st12 st13">3 de marzo de 1969</text>
<rect x="223.6" y="2007.2" class="st6" width="200.7" height="90.5"/>
<text transform="matrix(1 0 0 1 223.6096 2017.8517)"><tspan x="0" y="0" class="st9 st12 st14">Primera prueba de </tspan><tspan x="0" y="16.8" class="st9 st12 st14">acoplamiento al módulo lunar. </tspan><tspan x="0" y="33.6" class="st9 st12 st14">Es el módulo que se utilizó para </tspan><tspan x="0" y="50.4" class="st9 st12 st14">explorar la superficie de la </tspan><tspan x="0" y="67.2" class="st9 st12 st14">Luna.</tspan></text>
<text transform="matrix(1 0 0 1 223.6337 2206.9111)" class="st9 st10 st11">Apolo 10</text>
<text transform="matrix(1 0 0 1 223.6337 2230.9111)" class="st8 st12 st13">18 de mayo de 1969</text>
<rect x="223.6" y="2246.2" class="st6" width="200.7" height="90.5"/>
<text transform="matrix(1 0 0 1 223.6337 2256.8706)"><tspan x="0" y="0" class="st9 st12 st14">Ensayo general para el </tspan><tspan x="0" y="16.8" class="st9 st12 st14">alunizaje. Llegaron a descender </tspan><tspan x="0" y="33.6" class="st9 st12 st14">a 15.6 km de la superficie lunar, </tspan><tspan x="0" y="50.4" class="st9 st12 st14">se toman fotografías de </tspan><tspan x="0" y="67.2" class="st9 st12 st14">posibles lugares de alunizaje.</tspan></text>
</svg>
