<svg xmlns="http://www.w3.org/2000/svg" xmlns:xlink="http://www.w3.org/1999/xlink" viewBox="0 0 560 230">
  <defs>
    <style>
      .cls-1 {
        font-size: 20px;
        fill: #fff;
        font-family: Roboto-Bold, Roboto;
        font-weight: 700;
      }

      .cls-2 {
        letter-spacing: -0.01em;
      }

      .cls-3 {
        font-size: 14px;
        fill: #ff8327;
        font-family: Roboto-Medium, Roboto;
        font-weight: 500;
      }

      .cls-4 {
        letter-spacing: -0.01em;
      }

      .cls-5 {
        letter-spacing: -0.02em;
      }

      .cls-6 {
        letter-spacing: 0.01em;
      }

      .cls-7 {
        letter-spacing: -0.02em;
      }

      .cls-8 {
        font-size: 12px;
        font-family: Roboto-Regular, Roboto;
        font-weight: 400;
      }

      .cls-9 {
        letter-spacing: -0.01em;
      }

      .cls-10 {
        letter-spacing: 0.02em;
      }

      .cls-11 {
        letter-spacing: -0.01em;
      }

      .cls-12 {
        letter-spacing: -0.02em;
      }

      .cls-13 {
        letter-spacing: -0.01em;
      }

      .cls-14 {
        letter-spacing: -0.01em;
      }

      .cls-15 {
        letter-spacing: -0.01em;
      }

      .cls-16 {
        letter-spacing: -0.01em;
      }

      .cls-17 {
        letter-spacing: -0.02em;
      }

      .cls-18 {
        fill: #6b6b6b;
      }
    </style>
  </defs>
  <title>P3</title>
  <g id="Capa_2" data-name="Capa 2">
    <rect width="560" height="230"/>
  </g>
  <g id="Capa_1" data-name="Capa 1">
    <text class="cls-1" transform="translate(254.94 66.88)">Alan Shepa<tspan class="cls-2" x="101.94" y="0">r</tspan><tspan x="109.05" y="0">d</tspan><tspan class="cls-3"><tspan x="0" y="16.8">Pilo</tspan><tspan class="cls-4" x="24.07" y="16.8">t</tspan><tspan x="28.52" y="16.8">o P</tspan><tspan class="cls-5" x="48.92" y="16.8">r</tspan><tspan x="53.6" y="16.8">og</tspan><tspan class="cls-4" x="69.51" y="16.8">r</tspan><tspan x="74.22" y="16.8">ama Me</tspan><tspan class="cls-2" x="124.81" y="16.8">r</tspan><tspan x="129.6" y="16.8">cu</tspan><tspan class="cls-6" x="144.71" y="16.8">r</tspan><tspan x="149.75" y="16.8">y </tspan><tspan x="0" y="33.6">Comandante </tspan><tspan class="cls-7" x="83.57" y="33.6">A</tspan><tspan x="92.56" y="33.6">polo 14</tspan></tspan><tspan class="cls-8"><tspan class="cls-9" x="0" y="64.8">F</tspan><tspan x="6.5" y="64.8">ue el primer no</tspan><tspan class="cls-10" x="85.76" y="64.8">r</tspan><tspan x="90.12" y="64.8">te americano en el espacio en </tspan><tspan x="0" y="79.2">m</tspan><tspan class="cls-11" x="10.52" y="79.2">ay</tspan><tspan x="22.55" y="79.2">o de 1961. E</tspan><tspan class="cls-12" x="88.36" y="79.2">r</tspan><tspan x="92.19" y="79.2">a p</tspan><tspan class="cls-2" x="108.42" y="79.2">r</tspan><tspan class="cls-13" x="112.37" y="79.2">e</tspan><tspan x="118.65" y="79.2">vis</tspan><tspan class="cls-14" x="133.56" y="79.2">t</tspan><tspan x="137.36" y="79.2">o que comanda</tspan><tspan class="cls-12" x="220.03" y="79.2">r</tspan><tspan x="223.85" y="79.2">a la </tspan><tspan x="0" y="93.6">prime</tspan><tspan class="cls-12" x="30.58" y="93.6">r</tspan><tspan x="34.41" y="93.6">a misión del p</tspan><tspan class="cls-14" x="108.61" y="93.6">r</tspan><tspan class="cls-11" x="112.55" y="93.6">o</tspan><tspan class="cls-13" x="119.31" y="93.6">y</tspan><tspan x="124.91" y="93.6">ec</tspan><tspan class="cls-14" x="137.55" y="93.6">t</tspan><tspan x="141.35" y="93.6">o Gemini pe</tspan><tspan class="cls-14" x="204.72" y="93.6">r</tspan><tspan x="208.66" y="93.6">o empe</tspan><tspan class="cls-15" x="248.44" y="93.6">z</tspan><tspan x="254.3" y="93.6">ó a </tspan><tspan x="0" y="108">tener episodios de ma</tspan><tspan class="cls-2" x="118.14" y="108">r</tspan><tspan x="122.09" y="108">eos y náuseas ext</tspan><tspan class="cls-2" x="217.32" y="108">r</tspan><tspan x="221.27" y="108">emas y </tspan><tspan x="0" y="122.4">fue diagnosticado con la en</tspan><tspan class="cls-16" x="147.03" y="122.4">f</tspan><tspan x="151.05" y="122.4">ermedad de Méniè</tspan><tspan class="cls-2" x="250.2" y="122.4">r</tspan><tspan x="254.15" y="122.4">e. </tspan><tspan class="cls-17" x="0" y="136.8">V</tspan><tspan x="7.37" y="136.8">olvió pa</tspan><tspan class="cls-12" x="48.92" y="136.8">r</tspan><tspan x="52.75" y="136.8">a el Apolo 14 luego de ope</tspan><tspan class="cls-12" x="193.52" y="136.8">r</tspan><tspan x="197.35" y="136.8">arse.</tspan></tspan></text>
    <path class="cls-18" d="M559.25.75v228.5H.75V.75h558.5M560,0H0V230H560V0Z"/>
    <image width="220" height="230" xlink:href="P3.PNG"/>
  </g>
</svg>
