<svg id="Capa_1" data-name="Capa 1" xmlns="http://www.w3.org/2000/svg" viewBox="0 0 437 934">
  <defs>
    <style>
      .cls-1, .cls-2 {
        fill: #6b6b6b;
      }

      .cls-2, .cls-4 {
        font-size: 14px;
        font-family: Roboto-Regular, Roboto;
      }

      .cls-3, .cls-4 {
        fill: #fff;
      }

      .cls-5 {
        fill: #ff8327;
      }

      .cls-6 {
        fill: none;
        stroke: #ff8327;
        stroke-miterlimit: 10;
      }

      .cls-7 {
        letter-spacing: -0.01em;
      }

      .cls-8 {
        letter-spacing: -0.01em;
      }

      .cls-9 {
        letter-spacing: -0.01em;
      }

      .cls-10 {
        letter-spacing: -0.02em;
      }

      .cls-11 {
        letter-spacing: -0.01em;
      }
    </style>
  </defs>
  <title>tp_m</title>
  <g>
    <path class="cls-1" d="M88.81,186.79,36.37,202.31l2.46,7.7,50-14.14c0-3.53,0-6.77,0-9.08Z"/>
    <path class="cls-1" d="M39.37,198.88A21.47,21.47,0,0,1,41,165.33l-1.83-1.9a24.09,24.09,0,0,0-2.72,36.31Z"/>
    <path class="cls-1" d="M66.39,184a3.34,3.34,0,1,0-3.34-3.34A3.33,3.33,0,0,0,66.39,184Z"/>
    <path class="cls-1" d="M88.81,184.25v-1A30.56,30.56,0,0,0,39,159.65l-.05,0L58,179.5v13.86Zm-22.42-8.73a5.15,5.15,0,0,1,2.8.83l3.42-3.41,1.29,1.29-3.37,3.37a5.17,5.17,0,1,1-4.14-2.08Z"/>
    <path class="cls-1" d="M70.1,207.76c7.67,0,14.7,4.53,18.74,11.81h0s0-11.2,0-21.16L39.51,212.34c-1.7,2.59-3,5.19-4.6,7.23H51.36c4.11-7.39,11.11-11.81,18.74-11.81Z"/>
    <path class="cls-1" d="M70.1,210.27c-6.29,0-12.11,3.45-15.83,9.3H85.92C82.25,213.81,76.41,210.27,70.1,210.27Z"/>
  </g>
  <text class="cls-2" transform="translate(32.78 237.64)">Apolo 1</text>
  <g>
    <path d="M98.84,189.26c1,0-7-23-7-23l-5,6.79-2,9.21,1,9,5,7,9-3Z"/>
    <path class="cls-1" d="M142.81,186.79,90.37,202.31l2.46,7.7,50-14.14c0-3.53,0-6.77,0-9.08Z"/>
    <path class="cls-1" d="M93.37,198.88A21.47,21.47,0,0,1,95,165.33l-1.83-1.9a24.09,24.09,0,0,0-2.72,36.31Z"/>
    <path class="cls-1" d="M120.39,184a3.34,3.34,0,1,0-3.34-3.34A3.33,3.33,0,0,0,120.39,184Z"/>
    <path class="cls-1" d="M142.81,184.25v-1A30.56,30.56,0,0,0,93,159.65l0,0L112,179.5v13.86Zm-22.42-8.73a5.15,5.15,0,0,1,2.8.83l3.42-3.41,1.29,1.29-3.37,3.37a5.17,5.17,0,1,1-4.14-2.08Z"/>
    <path class="cls-1" d="M124.1,207.76c7.67,0,14.7,4.53,18.74,11.81h0s0-11.2,0-21.16L93.51,212.34c-1.7,2.59-3,5.19-4.6,7.23h16.45c4.11-7.39,11.11-11.81,18.74-11.81Z"/>
    <path class="cls-1" d="M124.1,210.27c-6.29,0-12.11,3.45-15.83,9.3h31.65C136.25,213.81,130.41,210.27,124.1,210.27Z"/>
  </g>
  <g>
    <path d="M152.84,189.26c1,0-7-23-7-23l-5,6.79-2,9.21,1,9,5,7,9-3Z"/>
    <g>
      <path class="cls-1" d="M196.81,186.79l-52.44,15.52,2.46,7.7,50-14.14c0-3.53,0-6.77,0-9.08Z"/>
      <path class="cls-1" d="M147.37,198.88A21.47,21.47,0,0,1,149,165.33l-1.83-1.9a24.09,24.09,0,0,0-2.72,36.31Z"/>
      <path class="cls-1" d="M174.39,184a3.34,3.34,0,1,0-3.34-3.34A3.33,3.33,0,0,0,174.39,184Z"/>
      <path class="cls-1" d="M196.81,184.25v-1A30.56,30.56,0,0,0,147,159.65l-.05,0L166,179.5v13.86Zm-22.42-8.73a5.15,5.15,0,0,1,2.8.83l3.42-3.41,1.29,1.29-3.37,3.37a5.17,5.17,0,1,1-4.14-2.08Z"/>
      <path class="cls-1" d="M178.1,207.76c7.67,0,14.7,4.53,18.74,11.81h0s0-11.2,0-21.16l-49.32,13.93c-1.7,2.59-3,5.19-4.6,7.23h16.45c4.11-7.39,11.11-11.81,18.74-11.81Z"/>
      <path class="cls-1" d="M178.1,210.27c-6.29,0-12.11,3.45-15.83,9.3h31.65C190.25,213.81,184.41,210.27,178.1,210.27Z"/>
    </g>
  </g>
  <g>
    <path class="cls-3" d="M264.44,180.48l-8.77-9.11a11.06,11.06,0,0,0-2.81,5c-.25,1.08-.53,3.91-.53,3.91l-3.41,6.81a.91.91,0,0,0-.08.41,1,1,0,0,0,1,1h2.45v3.62c0,2.75,1.09,4.14,2.69,4.73l9.42-2.79v-13.6Zm-8,2.21a1.52,1.52,0,1,1,1.52-1.52A1.53,1.53,0,0,1,256.45,182.69Z"/>
    <path class="cls-3" d="M297.66,186.79l-52.45,15.52,2.46,7.7,50-14.14c0-3.53,0-6.77,0-9.08Z"/>
    <path class="cls-3" d="M248.21,198.88a21.48,21.48,0,0,1,1.65-33.55l-1.83-1.9a24.09,24.09,0,0,0-2.72,36.31Z"/>
    <path class="cls-3" d="M275.24,184a3.34,3.34,0,1,0-3.34-3.34A3.34,3.34,0,0,0,275.24,184Z"/>
    <path class="cls-3" d="M297.66,184.25v-1a30.57,30.57,0,0,0-49.8-23.58l0,0,19.06,19.81v13.86Zm-22.42-8.73a5.17,5.17,0,0,1,2.8.83l3.41-3.41,1.3,1.29-3.38,3.37a5.11,5.11,0,0,1,1,3.09,5.17,5.17,0,1,1-5.17-5.17Z"/>
    <path class="cls-3" d="M278.94,207.76c7.68,0,14.71,4.53,18.74,11.81h0s0-11.2,0-21.16l-49.31,13.93c-1.71,2.59-3,5.19-4.6,7.23H260.2c4.11-7.39,11.11-11.81,18.74-11.81Z"/>
    <path class="cls-3" d="M278.94,210.27c-6.28,0-12.1,3.45-15.82,9.3h31.65C291.1,213.81,285.26,210.27,278.94,210.27Z"/>
  </g>
  <text class="cls-4" transform="translate(242.63 237.64)">Apolo 7</text>
  <g>
    <path d="M307.69,189.26c1,0-7-23-7-23l-5,6.79-2,9.21,1,9,5,7,9-3Z"/>
    <g>
      <path class="cls-3" d="M318.44,180.48l-8.77-9.11a11.06,11.06,0,0,0-2.81,5c-.25,1.08-.53,3.91-.53,3.91l-3.41,6.81a.91.91,0,0,0-.08.41,1,1,0,0,0,1,1h2.45v3.62c0,2.75,1.09,4.14,2.69,4.73l9.42-2.79v-13.6Zm-8,2.21a1.52,1.52,0,1,1,1.52-1.52A1.53,1.53,0,0,1,310.45,182.69Z"/>
      <path class="cls-3" d="M351.66,186.79l-52.45,15.52,2.46,7.7,50-14.14c0-3.53,0-6.77,0-9.08Z"/>
      <path class="cls-3" d="M302.21,198.88a21.48,21.48,0,0,1,1.65-33.55l-1.83-1.9a24.09,24.09,0,0,0-2.72,36.31Z"/>
      <path class="cls-3" d="M329.24,184a3.34,3.34,0,1,0-3.34-3.34A3.34,3.34,0,0,0,329.24,184Z"/>
      <path class="cls-3" d="M351.66,184.25v-1a30.57,30.57,0,0,0-49.8-23.58l0,0,19.06,19.81v13.86Zm-22.42-8.73a5.17,5.17,0,0,1,2.8.83l3.41-3.41,1.3,1.29-3.38,3.37a5.11,5.11,0,0,1,1,3.09,5.17,5.17,0,1,1-5.17-5.17Z"/>
      <path class="cls-3" d="M332.94,207.76c7.68,0,14.71,4.53,18.74,11.81h0s0-11.2,0-21.16l-49.31,13.93c-1.71,2.59-3,5.19-4.6,7.23H314.2c4.11-7.39,11.11-11.81,18.74-11.81Z"/>
      <path class="cls-3" d="M332.94,210.27c-6.28,0-12.1,3.45-15.82,9.3h31.65C345.1,213.81,339.26,210.27,332.94,210.27Z"/>
    </g>
  </g>
  <g>
    <path d="M361.69,189.26c1,0-7-23-7-23l-5,6.79-2,9.21,1,9,5,7,9-3Z"/>
    <g>
      <path class="cls-3" d="M372.44,180.48l-8.77-9.11a11.06,11.06,0,0,0-2.81,5c-.25,1.08-.53,3.91-.53,3.91l-3.41,6.81a.91.91,0,0,0-.08.41,1,1,0,0,0,1,1h2.45v3.62c0,2.75,1.09,4.14,2.69,4.73l9.42-2.79v-13.6Zm-8,2.21a1.52,1.52,0,1,1,1.52-1.52A1.53,1.53,0,0,1,364.45,182.69Z"/>
      <path class="cls-3" d="M405.66,186.79l-52.45,15.52,2.46,7.7,50-14.14c0-3.53,0-6.77,0-9.08Z"/>
      <path class="cls-3" d="M356.21,198.88a21.48,21.48,0,0,1,1.65-33.55l-1.83-1.9a24.09,24.09,0,0,0-2.72,36.31Z"/>
      <path class="cls-3" d="M383.24,184a3.34,3.34,0,1,0-3.34-3.34A3.34,3.34,0,0,0,383.24,184Z"/>
      <path class="cls-3" d="M405.66,184.25v-1a30.57,30.57,0,0,0-49.8-23.58l0,0,19.06,19.81v13.86Zm-22.42-8.73a5.17,5.17,0,0,1,2.8.83l3.41-3.41,1.3,1.29-3.38,3.37a5.11,5.11,0,0,1,1,3.09,5.17,5.17,0,1,1-5.17-5.17Z"/>
      <path class="cls-3" d="M386.94,207.76c7.68,0,14.71,4.53,18.74,11.81h0s0-11.2,0-21.16l-49.31,13.93c-1.71,2.59-3,5.19-4.6,7.23H368.2c4.11-7.39,11.11-11.81,18.74-11.81Z"/>
      <path class="cls-3" d="M386.94,210.27c-6.28,0-12.1,3.45-15.82,9.3h31.65C399.1,213.81,393.26,210.27,386.94,210.27Z"/>
    </g>
  </g>
  <g>
    <path class="cls-3" d="M264.44,317.48l-8.77-9.11a11.06,11.06,0,0,0-2.81,5c-.25,1.08-.53,3.91-.53,3.91l-3.41,6.81a.91.91,0,0,0-.08.41,1,1,0,0,0,1,1h2.45v3.62c0,2.75,1.09,4.14,2.69,4.73l9.42-2.79v-13.6Zm-8,2.21a1.52,1.52,0,1,1,1.52-1.52A1.53,1.53,0,0,1,256.45,319.69Z"/>
    <path class="cls-3" d="M297.66,323.79l-52.45,15.52,2.46,7.7,50-14.14c0-3.53,0-6.77,0-9.08Z"/>
    <path class="cls-3" d="M248.21,335.88a21.48,21.48,0,0,1,1.65-33.55l-1.83-1.9a24.09,24.09,0,0,0-2.72,36.31Z"/>
    <path class="cls-3" d="M275.24,321a3.34,3.34,0,1,0-3.34-3.34A3.34,3.34,0,0,0,275.24,321Z"/>
    <path class="cls-3" d="M297.66,321.25v-1a30.57,30.57,0,0,0-49.8-23.58l0,0,19.06,19.81v13.86Zm-22.42-8.73a5.17,5.17,0,0,1,2.8.83l3.41-3.41,1.3,1.29-3.38,3.37a5.11,5.11,0,0,1,1,3.09,5.17,5.17,0,1,1-5.17-5.17Z"/>
    <path class="cls-3" d="M278.94,344.76c7.68,0,14.71,4.53,18.74,11.81h0s0-11.2,0-21.16l-49.31,13.93c-1.71,2.59-3,5.19-4.6,7.23H260.2c4.11-7.39,11.11-11.81,18.74-11.81Z"/>
    <path class="cls-3" d="M278.94,347.27c-6.28,0-12.1,3.45-15.82,9.3h31.65C291.1,350.81,285.26,347.27,278.94,347.27Z"/>
  </g>
  <text class="cls-4" transform="translate(241.63 374.64)">Apolo 9</text>
  <g>
    <path d="M307.69,325.26c1,0-7-23-7-23l-5,6.79-2,9.21,1,9,5,7,9-3Z"/>
    <g>
      <path class="cls-5" d="M318.44,317.48l-8.77-9.11a11.06,11.06,0,0,0-2.81,5c-.25,1.08-.53,3.91-.53,3.91l-3.41,6.81a.91.91,0,0,0-.08.41,1,1,0,0,0,1,1h2.45v3.62c0,2.75,1.09,4.14,2.69,4.73l9.42-2.79v-13.6Zm-8,2.21a1.52,1.52,0,1,1,1.52-1.52A1.53,1.53,0,0,1,310.45,319.69Z"/>
      <path class="cls-5" d="M351.66,323.79l-52.45,15.52,2.46,7.7,50-14.14c0-3.53,0-6.77,0-9.08Z"/>
      <path class="cls-5" d="M302.21,335.88a21.48,21.48,0,0,1,1.65-33.55l-1.83-1.9a24.09,24.09,0,0,0-2.72,36.31Z"/>
      <path class="cls-5" d="M329.24,321a3.34,3.34,0,1,0-3.34-3.34A3.34,3.34,0,0,0,329.24,321Z"/>
      <path class="cls-5" d="M351.66,321.25v-1a30.57,30.57,0,0,0-49.8-23.58l0,0,19.06,19.81v13.86Zm-22.42-8.73a5.17,5.17,0,0,1,2.8.83l3.41-3.41,1.3,1.29-3.38,3.37a5.11,5.11,0,0,1,1,3.09,5.17,5.17,0,1,1-5.17-5.17Z"/>
      <path class="cls-5" d="M332.94,344.76c7.68,0,14.71,4.53,18.74,11.81h0s0-11.2,0-21.16l-49.31,13.93c-1.71,2.59-3,5.19-4.6,7.23H314.2c4.11-7.39,11.11-11.81,18.74-11.81Z"/>
      <path class="cls-5" d="M332.94,347.27c-6.28,0-12.1,3.45-15.82,9.3h31.65C345.1,350.81,339.26,347.27,332.94,347.27Z"/>
    </g>
  </g>
  <g>
    <path d="M361.69,325.26c1,0-7-23-7-23l-5,6.79-2,9.21,1,9,5,7,9-3Z"/>
    <g>
      <path class="cls-3" d="M372.44,317.48l-8.77-9.11a11.06,11.06,0,0,0-2.81,5c-.25,1.08-.53,3.91-.53,3.91l-3.41,6.81a.91.91,0,0,0-.08.41,1,1,0,0,0,1,1h2.45v3.62c0,2.75,1.09,4.14,2.69,4.73l9.42-2.79v-13.6Zm-8,2.21a1.52,1.52,0,1,1,1.52-1.52A1.53,1.53,0,0,1,364.45,319.69Z"/>
      <path class="cls-3" d="M405.66,323.79l-52.45,15.52,2.46,7.7,50-14.14c0-3.53,0-6.77,0-9.08Z"/>
      <path class="cls-3" d="M356.21,335.88a21.48,21.48,0,0,1,1.65-33.55l-1.83-1.9a24.09,24.09,0,0,0-2.72,36.31Z"/>
      <path class="cls-3" d="M383.24,321a3.34,3.34,0,1,0-3.34-3.34A3.34,3.34,0,0,0,383.24,321Z"/>
      <path class="cls-3" d="M405.66,321.25v-1a30.57,30.57,0,0,0-49.8-23.58l0,0,19.06,19.81v13.86Zm-22.42-8.73a5.17,5.17,0,0,1,2.8.83l3.41-3.41,1.3,1.29-3.38,3.37a5.11,5.11,0,0,1,1,3.09,5.17,5.17,0,1,1-5.17-5.17Z"/>
      <path class="cls-3" d="M386.94,344.76c7.68,0,14.71,4.53,18.74,11.81h0s0-11.2,0-21.16l-49.31,13.93c-1.71,2.59-3,5.19-4.6,7.23H368.2c4.11-7.39,11.11-11.81,18.74-11.81Z"/>
      <path class="cls-3" d="M386.94,347.27c-6.28,0-12.1,3.45-15.82,9.3h31.65C399.1,350.81,393.26,347.27,386.94,347.27Z"/>
    </g>
  </g>
  <g>
    <path class="cls-3" d="M55.6,317.48l-8.78-9.11a10.94,10.94,0,0,0-2.8,5c-.25,1.08-.54,3.91-.54,3.91l-3.41,6.81a1.07,1.07,0,0,0-.08.41,1,1,0,0,0,1,1h2.45v3.62c0,2.75,1.09,4.14,2.69,4.73l9.42-2.79v-13.6Zm-8,2.21a1.52,1.52,0,1,1,1.52-1.52A1.52,1.52,0,0,1,47.6,319.69Z"/>
    <path class="cls-3" d="M88.81,323.79,36.37,339.31l2.46,7.7,50-14.14c0-3.53,0-6.77,0-9.08Z"/>
    <path class="cls-3" d="M39.37,335.88A21.47,21.47,0,0,1,41,302.33l-1.83-1.9a24.09,24.09,0,0,0-2.72,36.31Z"/>
    <path class="cls-3" d="M66.39,321a3.34,3.34,0,1,0-3.34-3.34A3.33,3.33,0,0,0,66.39,321Z"/>
    <path class="cls-3" d="M88.81,321.25v-1A30.56,30.56,0,0,0,39,296.65l-.05,0L58,316.5v13.86Zm-22.42-8.73a5.15,5.15,0,0,1,2.8.83l3.42-3.41,1.29,1.29-3.37,3.37a5.17,5.17,0,1,1-4.14-2.08Z"/>
    <path class="cls-3" d="M70.1,344.76c7.67,0,14.7,4.53,18.74,11.81h0s0-11.2,0-21.16L39.51,349.34c-1.7,2.59-3,5.19-4.6,7.23H51.36c4.11-7.39,11.11-11.81,18.74-11.81Z"/>
    <path class="cls-3" d="M70.1,347.27c-6.29,0-12.11,3.45-15.83,9.3H85.92C82.25,350.81,76.41,347.27,70.1,347.27Z"/>
  </g>
  <text class="cls-4" transform="translate(32.78 374.64)">Apolo 8</text>
  <g>
    <path d="M98.84,326.26c1,0-7-23-7-23l-5,6.79-2,9.21,1,9,5,7,9-3Z"/>
    <g>
      <path class="cls-5" d="M109.6,317.48l-8.78-9.11a10.94,10.94,0,0,0-2.8,5c-.25,1.08-.54,3.91-.54,3.91l-3.41,6.81a1.07,1.07,0,0,0-.08.41,1,1,0,0,0,1,1h2.45v3.62c0,2.75,1.09,4.14,2.69,4.73l9.42-2.79v-13.6Zm-8,2.21a1.52,1.52,0,1,1,1.52-1.52A1.52,1.52,0,0,1,101.6,319.69Z"/>
      <path class="cls-5" d="M142.81,323.79,90.37,339.31l2.46,7.7,50-14.14c0-3.53,0-6.77,0-9.08Z"/>
      <path class="cls-5" d="M93.37,335.88A21.47,21.47,0,0,1,95,302.33l-1.83-1.9a24.09,24.09,0,0,0-2.72,36.31Z"/>
      <path class="cls-5" d="M120.39,321a3.34,3.34,0,1,0-3.34-3.34A3.33,3.33,0,0,0,120.39,321Z"/>
      <path class="cls-5" d="M142.81,321.25v-1A30.56,30.56,0,0,0,93,296.65l0,0L112,316.5v13.86Zm-22.42-8.73a5.15,5.15,0,0,1,2.8.83l3.42-3.41,1.29,1.29-3.37,3.37a5.17,5.17,0,1,1-4.14-2.08Z"/>
      <path class="cls-5" d="M124.1,344.76c7.67,0,14.7,4.53,18.74,11.81h0s0-11.2,0-21.16L93.51,349.34c-1.7,2.59-3,5.19-4.6,7.23h16.45c4.11-7.39,11.11-11.81,18.74-11.81Z"/>
      <path class="cls-5" d="M124.1,347.27c-6.29,0-12.11,3.45-15.83,9.3h31.65C136.25,350.81,130.41,347.27,124.1,347.27Z"/>
    </g>
  </g>
  <g>
    <path d="M152.84,326.26c1,0-7-23-7-23l-5,6.79-2,9.21,1,9,5,7,9-3Z"/>
    <g>
      <path class="cls-3" d="M163.6,317.48l-8.78-9.11a10.94,10.94,0,0,0-2.8,5c-.25,1.08-.54,3.91-.54,3.91l-3.41,6.81a1.07,1.07,0,0,0-.08.41,1,1,0,0,0,1,1h2.45v3.62c0,2.75,1.09,4.14,2.69,4.73l9.42-2.79v-13.6Zm-8,2.21a1.52,1.52,0,1,1,1.52-1.52A1.52,1.52,0,0,1,155.6,319.69Z"/>
      <path class="cls-3" d="M196.81,323.79l-52.44,15.52,2.46,7.7,50-14.14c0-3.53,0-6.77,0-9.08Z"/>
      <path class="cls-3" d="M147.37,335.88A21.47,21.47,0,0,1,149,302.33l-1.83-1.9a24.09,24.09,0,0,0-2.72,36.31Z"/>
      <path class="cls-3" d="M174.39,321a3.34,3.34,0,1,0-3.34-3.34A3.33,3.33,0,0,0,174.39,321Z"/>
      <path class="cls-3" d="M196.81,321.25v-1A30.56,30.56,0,0,0,147,296.65l-.05,0L166,316.5v13.86Zm-22.42-8.73a5.15,5.15,0,0,1,2.8.83l3.42-3.41,1.29,1.29-3.37,3.37a5.17,5.17,0,1,1-4.14-2.08Z"/>
      <path class="cls-3" d="M178.1,344.76c7.67,0,14.7,4.53,18.74,11.81h0s0-11.2,0-21.16l-49.32,13.93c-1.7,2.59-3,5.19-4.6,7.23h16.45c4.11-7.39,11.11-11.81,18.74-11.81Z"/>
      <path class="cls-3" d="M178.1,347.27c-6.29,0-12.11,3.45-15.83,9.3h31.65C190.25,350.81,184.41,347.27,178.1,347.27Z"/>
    </g>
  </g>
  <g>
    <path class="cls-3" d="M55.6,454.48l-8.78-9.11a10.94,10.94,0,0,0-2.8,5c-.25,1.08-.54,3.91-.54,3.91l-3.41,6.81a1.07,1.07,0,0,0-.08.41,1,1,0,0,0,1,1h2.45v3.62c0,2.75,1.09,4.14,2.69,4.73l9.42-2.79v-13.6Zm-8,2.21a1.52,1.52,0,1,1,1.52-1.52A1.52,1.52,0,0,1,47.6,456.69Z"/>
    <path class="cls-3" d="M88.81,460.79,36.37,476.31l2.46,7.7,50-14.14c0-3.53,0-6.77,0-9.08Z"/>
    <path class="cls-3" d="M39.37,472.88A21.47,21.47,0,0,1,41,439.33l-1.83-1.9a24.09,24.09,0,0,0-2.72,36.31Z"/>
    <path class="cls-3" d="M66.39,458a3.34,3.34,0,1,0-3.34-3.34A3.33,3.33,0,0,0,66.39,458Z"/>
    <path class="cls-3" d="M88.81,458.25v-1A30.56,30.56,0,0,0,39,433.65l-.05,0L58,453.5v13.86Zm-22.42-8.73a5.15,5.15,0,0,1,2.8.83l3.42-3.41,1.29,1.29-3.37,3.37a5.17,5.17,0,1,1-4.14-2.08Z"/>
    <path class="cls-3" d="M70.1,481.76c7.67,0,14.7,4.53,18.74,11.81h0s0-11.2,0-21.16L39.51,486.34c-1.7,2.59-3,5.19-4.6,7.23H51.36c4.11-7.39,11.11-11.81,18.74-11.81Z"/>
    <path class="cls-3" d="M70.1,484.27c-6.29,0-12.11,3.45-15.83,9.3H85.92C82.25,487.81,76.41,484.27,70.1,484.27Z"/>
  </g>
  <text class="cls-4" transform="translate(33.97 511.64)">Apolo 10</text>
  <g>
    <path d="M98.84,462.26c1,0-7-23-7-23l-5,6.79-2,9.21,1,9,5,7,9-3Z"/>
    <g>
      <path class="cls-5" d="M109.6,454.48l-8.78-9.11a10.94,10.94,0,0,0-2.8,5c-.25,1.08-.54,3.91-.54,3.91l-3.41,6.81a1.07,1.07,0,0,0-.08.41,1,1,0,0,0,1,1h2.45v3.62c0,2.75,1.09,4.14,2.69,4.73l9.42-2.79v-13.6Zm-8,2.21a1.52,1.52,0,1,1,1.52-1.52A1.52,1.52,0,0,1,101.6,456.69Z"/>
      <path class="cls-5" d="M142.81,460.79,90.37,476.31l2.46,7.7,50-14.14c0-3.53,0-6.77,0-9.08Z"/>
      <path class="cls-5" d="M93.37,472.88A21.47,21.47,0,0,1,95,439.33l-1.83-1.9a24.09,24.09,0,0,0-2.72,36.31Z"/>
      <path class="cls-5" d="M120.39,458a3.34,3.34,0,1,0-3.34-3.34A3.33,3.33,0,0,0,120.39,458Z"/>
      <path class="cls-5" d="M142.81,458.25v-1A30.56,30.56,0,0,0,93,433.65l0,0L112,453.5v13.86Zm-22.42-8.73a5.15,5.15,0,0,1,2.8.83l3.42-3.41,1.29,1.29-3.37,3.37a5.17,5.17,0,1,1-4.14-2.08Z"/>
      <path class="cls-5" d="M124.1,481.76c7.67,0,14.7,4.53,18.74,11.81h0s0-11.2,0-21.16L93.51,486.34c-1.7,2.59-3,5.19-4.6,7.23h16.45c4.11-7.39,11.11-11.81,18.74-11.81Z"/>
      <path class="cls-5" d="M124.1,484.27c-6.29,0-12.11,3.45-15.83,9.3h31.65C136.25,487.81,130.41,484.27,124.1,484.27Z"/>
    </g>
  </g>
  <g>
    <path d="M152.84,462.26c1,0-7-23-7-23l-5,6.79-2,9.21,1,9,5,7,9-3Z"/>
    <g>
      <path class="cls-5" d="M163.6,454.48l-8.78-9.11a10.94,10.94,0,0,0-2.8,5c-.25,1.08-.54,3.91-.54,3.91l-3.41,6.81a1.07,1.07,0,0,0-.08.41,1,1,0,0,0,1,1h2.45v3.62c0,2.75,1.09,4.14,2.69,4.73l9.42-2.79v-13.6Zm-8,2.21a1.52,1.52,0,1,1,1.52-1.52A1.52,1.52,0,0,1,155.6,456.69Z"/>
      <path class="cls-5" d="M196.81,460.79l-52.44,15.52,2.46,7.7,50-14.14c0-3.53,0-6.77,0-9.08Z"/>
      <path class="cls-5" d="M147.37,472.88A21.47,21.47,0,0,1,149,439.33l-1.83-1.9a24.09,24.09,0,0,0-2.72,36.31Z"/>
      <path class="cls-5" d="M174.39,458a3.34,3.34,0,1,0-3.34-3.34A3.33,3.33,0,0,0,174.39,458Z"/>
      <path class="cls-5" d="M196.81,458.25v-1A30.56,30.56,0,0,0,147,433.65l-.05,0L166,453.5v13.86Zm-22.42-8.73a5.15,5.15,0,0,1,2.8.83l3.42-3.41,1.29,1.29-3.37,3.37a5.17,5.17,0,1,1-4.14-2.08Z"/>
      <path class="cls-5" d="M178.1,481.76c7.67,0,14.7,4.53,18.74,11.81h0s0-11.2,0-21.16l-49.32,13.93c-1.7,2.59-3,5.19-4.6,7.23h16.45c4.11-7.39,11.11-11.81,18.74-11.81Z"/>
      <path class="cls-5" d="M178.1,484.27c-6.29,0-12.11,3.45-15.83,9.3h31.65C190.25,487.81,184.41,484.27,178.1,484.27Z"/>
    </g>
  </g>
  <g>
    <path class="cls-3" d="M264.44,454.48l-8.77-9.11a11.06,11.06,0,0,0-2.81,5c-.25,1.08-.53,3.91-.53,3.91l-3.41,6.81a.91.91,0,0,0-.08.41,1,1,0,0,0,1,1h2.45v3.62c0,2.75,1.09,4.14,2.69,4.73l9.42-2.79v-13.6Zm-8,2.21a1.52,1.52,0,1,1,1.52-1.52A1.53,1.53,0,0,1,256.45,456.69Z"/>
    <path class="cls-3" d="M297.66,460.79l-52.45,15.52,2.46,7.7,50-14.14c0-3.53,0-6.77,0-9.08Z"/>
    <path class="cls-3" d="M248.21,472.88a21.48,21.48,0,0,1,1.65-33.55l-1.83-1.9a24.09,24.09,0,0,0-2.72,36.31Z"/>
    <path class="cls-3" d="M275.24,458a3.34,3.34,0,1,0-3.34-3.34A3.34,3.34,0,0,0,275.24,458Z"/>
    <path class="cls-3" d="M297.66,458.25v-1a30.57,30.57,0,0,0-49.8-23.58l0,0,19.06,19.81v13.86Zm-22.42-8.73a5.17,5.17,0,0,1,2.8.83l3.41-3.41,1.3,1.29-3.38,3.37a5.11,5.11,0,0,1,1,3.09,5.17,5.17,0,1,1-5.17-5.17Z"/>
    <path class="cls-3" d="M278.94,481.76c7.68,0,14.71,4.53,18.74,11.81h0s0-11.2,0-21.16l-49.31,13.93c-1.71,2.59-3,5.19-4.6,7.23H260.2c4.11-7.39,11.11-11.81,18.74-11.81Z"/>
    <path class="cls-3" d="M278.94,484.27c-6.28,0-12.1,3.45-15.82,9.3h31.65C291.1,487.81,285.26,484.27,278.94,484.27Z"/>
  </g>
  <text class="cls-4" transform="translate(241.63 511.64)">Apolo 11</text>
  <g>
    <path d="M307.69,463.26c1,0-7-23-7-23l-5,6.79-2,9.21,1,9,5,7,9-3Z"/>
    <g>
      <path class="cls-3" d="M318.44,454.48l-8.77-9.11a11.06,11.06,0,0,0-2.81,5c-.25,1.08-.53,3.91-.53,3.91l-3.41,6.81a.91.91,0,0,0-.08.41,1,1,0,0,0,1,1h2.45v3.62c0,2.75,1.09,4.14,2.69,4.73l9.42-2.79v-13.6Zm-8,2.21a1.52,1.52,0,1,1,1.52-1.52A1.53,1.53,0,0,1,310.45,456.69Z"/>
      <path class="cls-3" d="M351.66,460.79l-52.45,15.52,2.46,7.7,50-14.14c0-3.53,0-6.77,0-9.08Z"/>
      <path class="cls-3" d="M302.21,472.88a21.48,21.48,0,0,1,1.65-33.55l-1.83-1.9a24.09,24.09,0,0,0-2.72,36.31Z"/>
      <path class="cls-3" d="M329.24,458a3.34,3.34,0,1,0-3.34-3.34A3.34,3.34,0,0,0,329.24,458Z"/>
      <path class="cls-3" d="M351.66,458.25v-1a30.57,30.57,0,0,0-49.8-23.58l0,0,19.06,19.81v13.86Zm-22.42-8.73a5.17,5.17,0,0,1,2.8.83l3.41-3.41,1.3,1.29-3.38,3.37a5.11,5.11,0,0,1,1,3.09,5.17,5.17,0,1,1-5.17-5.17Z"/>
      <path class="cls-3" d="M332.94,481.76c7.68,0,14.71,4.53,18.74,11.81h0s0-11.2,0-21.16l-49.31,13.93c-1.71,2.59-3,5.19-4.6,7.23H314.2c4.11-7.39,11.11-11.81,18.74-11.81Z"/>
      <path class="cls-3" d="M332.94,484.27c-6.28,0-12.1,3.45-15.82,9.3h31.65C345.1,487.81,339.26,484.27,332.94,484.27Z"/>
    </g>
  </g>
  <g>
    <path d="M361.69,463.26c1,0-7-23-7-23l-5,6.79-2,9.21,1,9,5,7,9-3Z"/>
    <g>
      <path class="cls-3" d="M372.44,454.48l-8.77-9.11a11.06,11.06,0,0,0-2.81,5c-.25,1.08-.53,3.91-.53,3.91l-3.41,6.81a.91.91,0,0,0-.08.41,1,1,0,0,0,1,1h2.45v3.62c0,2.75,1.09,4.14,2.69,4.73l9.42-2.79v-13.6Zm-8,2.21a1.52,1.52,0,1,1,1.52-1.52A1.53,1.53,0,0,1,364.45,456.69Z"/>
      <path class="cls-3" d="M405.66,460.79l-52.45,15.52,2.46,7.7,50-14.14c0-3.53,0-6.77,0-9.08Z"/>
      <path class="cls-3" d="M356.21,472.88a21.48,21.48,0,0,1,1.65-33.55l-1.83-1.9a24.09,24.09,0,0,0-2.72,36.31Z"/>
      <path class="cls-3" d="M383.24,458a3.34,3.34,0,1,0-3.34-3.34A3.34,3.34,0,0,0,383.24,458Z"/>
      <path class="cls-3" d="M405.66,458.25v-1a30.57,30.57,0,0,0-49.8-23.58l0,0,19.06,19.81v13.86Zm-22.42-8.73a5.17,5.17,0,0,1,2.8.83l3.41-3.41,1.3,1.29-3.38,3.37a5.11,5.11,0,0,1,1,3.09,5.17,5.17,0,1,1-5.17-5.17Z"/>
      <path class="cls-3" d="M386.94,481.76c7.68,0,14.71,4.53,18.74,11.81h0s0-11.2,0-21.16l-49.31,13.93c-1.71,2.59-3,5.19-4.6,7.23H368.2c4.11-7.39,11.11-11.81,18.74-11.81Z"/>
      <path class="cls-3" d="M386.94,484.27c-6.28,0-12.1,3.45-15.82,9.3h31.65C399.1,487.81,393.26,484.27,386.94,484.27Z"/>
    </g>
  </g>
  <g>
    <path class="cls-3" d="M55.6,591.48l-8.78-9.11a10.94,10.94,0,0,0-2.8,5c-.25,1.08-.54,3.91-.54,3.91l-3.41,6.81a1.07,1.07,0,0,0-.08.41,1,1,0,0,0,1,1h2.45v3.62c0,2.75,1.09,4.14,2.69,4.73l9.42-2.79v-13.6Zm-8,2.21a1.52,1.52,0,1,1,1.52-1.52A1.52,1.52,0,0,1,47.6,593.69Z"/>
    <path class="cls-3" d="M88.81,597.79,36.37,613.31l2.46,7.7,50-14.14c0-3.53,0-6.77,0-9.08Z"/>
    <path class="cls-3" d="M39.37,609.88A21.47,21.47,0,0,1,41,576.33l-1.83-1.9a24.09,24.09,0,0,0-2.72,36.31Z"/>
    <path class="cls-3" d="M66.39,595a3.34,3.34,0,1,0-3.34-3.34A3.33,3.33,0,0,0,66.39,595Z"/>
    <path class="cls-3" d="M88.81,595.25v-1A30.56,30.56,0,0,0,39,570.65l-.05,0L58,590.5v13.86Zm-22.42-8.73a5.15,5.15,0,0,1,2.8.83l3.42-3.41,1.29,1.29-3.37,3.37a5.17,5.17,0,1,1-4.14-2.08Z"/>
    <path class="cls-3" d="M70.1,618.76c7.67,0,14.7,4.53,18.74,11.81h0s0-11.2,0-21.16L39.51,623.34c-1.7,2.59-3,5.19-4.6,7.23H51.36c4.11-7.39,11.11-11.81,18.74-11.81Z"/>
    <path class="cls-3" d="M70.1,621.27c-6.29,0-12.11,3.45-15.83,9.3H85.92C82.25,624.81,76.41,621.27,70.1,621.27Z"/>
  </g>
  <text class="cls-4" transform="translate(32.78 648.64)">Apolo 12</text>
  <g>
    <path d="M98.84,600.26c1,0-7-23-7-23l-5,6.79-2,9.21,1,9,5,7,9-3Z"/>
    <g>
      <path class="cls-3" d="M109.6,591.48l-8.78-9.11a10.94,10.94,0,0,0-2.8,5c-.25,1.08-.54,3.91-.54,3.91l-3.41,6.81a1.07,1.07,0,0,0-.08.41,1,1,0,0,0,1,1h2.45v3.62c0,2.75,1.09,4.14,2.69,4.73l9.42-2.79v-13.6Zm-8,2.21a1.52,1.52,0,1,1,1.52-1.52A1.52,1.52,0,0,1,101.6,593.69Z"/>
      <path class="cls-3" d="M142.81,597.79,90.37,613.31l2.46,7.7,50-14.14c0-3.53,0-6.77,0-9.08Z"/>
      <path class="cls-3" d="M93.37,609.88A21.47,21.47,0,0,1,95,576.33l-1.83-1.9a24.09,24.09,0,0,0-2.72,36.31Z"/>
      <path class="cls-3" d="M120.39,595a3.34,3.34,0,1,0-3.34-3.34A3.33,3.33,0,0,0,120.39,595Z"/>
      <path class="cls-3" d="M142.81,595.25v-1A30.56,30.56,0,0,0,93,570.65l0,0L112,590.5v13.86Zm-22.42-8.73a5.15,5.15,0,0,1,2.8.83l3.42-3.41,1.29,1.29-3.37,3.37a5.17,5.17,0,1,1-4.14-2.08Z"/>
      <path class="cls-3" d="M124.1,618.76c7.67,0,14.7,4.53,18.74,11.81h0s0-11.2,0-21.16L93.51,623.34c-1.7,2.59-3,5.19-4.6,7.23h16.45c4.11-7.39,11.11-11.81,18.74-11.81Z"/>
      <path class="cls-3" d="M124.1,621.27c-6.29,0-12.11,3.45-15.83,9.3h31.65C136.25,624.81,130.41,621.27,124.1,621.27Z"/>
    </g>
  </g>
  <g>
    <path d="M152.84,600.26c1,0-7-23-7-23l-5,6.79-2,9.21,1,9,5,7,9-3Z"/>
    <g>
      <path class="cls-3" d="M163.6,591.48l-8.78-9.11a10.94,10.94,0,0,0-2.8,5c-.25,1.08-.54,3.91-.54,3.91l-3.41,6.81a1.07,1.07,0,0,0-.08.41,1,1,0,0,0,1,1h2.45v3.62c0,2.75,1.09,4.14,2.69,4.73l9.42-2.79v-13.6Zm-8,2.21a1.52,1.52,0,1,1,1.52-1.52A1.52,1.52,0,0,1,155.6,593.69Z"/>
      <path class="cls-3" d="M196.81,597.79l-52.44,15.52,2.46,7.7,50-14.14c0-3.53,0-6.77,0-9.08Z"/>
      <path class="cls-3" d="M147.37,609.88A21.47,21.47,0,0,1,149,576.33l-1.83-1.9a24.09,24.09,0,0,0-2.72,36.31Z"/>
      <path class="cls-3" d="M174.39,595a3.34,3.34,0,1,0-3.34-3.34A3.33,3.33,0,0,0,174.39,595Z"/>
      <path class="cls-3" d="M196.81,595.25v-1A30.56,30.56,0,0,0,147,570.65l-.05,0L166,590.5v13.86Zm-22.42-8.73a5.15,5.15,0,0,1,2.8.83l3.42-3.41,1.29,1.29-3.37,3.37a5.17,5.17,0,1,1-4.14-2.08Z"/>
      <path class="cls-3" d="M178.1,618.76c7.67,0,14.7,4.53,18.74,11.81h0s0-11.2,0-21.16l-49.32,13.93c-1.7,2.59-3,5.19-4.6,7.23h16.45c4.11-7.39,11.11-11.81,18.74-11.81Z"/>
      <path class="cls-3" d="M178.1,621.27c-6.29,0-12.11,3.45-15.83,9.3h31.65C190.25,624.81,184.41,621.27,178.1,621.27Z"/>
    </g>
  </g>
  <g>
    <path class="cls-6" d="M264.44,591.48l-8.77-9.11a11.06,11.06,0,0,0-2.81,5c-.25,1.08-.53,3.91-.53,3.91l-3.41,6.81a.91.91,0,0,0-.08.41,1,1,0,0,0,1,1h2.45v3.62c0,2.75,1.09,4.14,2.69,4.73l9.42-2.79v-13.6Zm-8,2.21a1.52,1.52,0,1,1,1.52-1.52A1.53,1.53,0,0,1,256.45,593.69Z"/>
    <path class="cls-6" d="M297.66,597.79l-52.45,15.52,2.46,7.7,50-14.14c0-3.53,0-6.77,0-9.08Z"/>
    <path class="cls-6" d="M248.21,609.88a21.48,21.48,0,0,1,1.65-33.55l-1.83-1.9a24.09,24.09,0,0,0-2.72,36.31Z"/>
    <path class="cls-6" d="M275.24,595a3.34,3.34,0,1,0-3.34-3.34A3.34,3.34,0,0,0,275.24,595Z"/>
    <path class="cls-6" d="M297.66,595.25v-1a30.57,30.57,0,0,0-49.8-23.58l0,0,19.06,19.81v13.86Zm-22.42-8.73a5.17,5.17,0,0,1,2.8.83l3.41-3.41,1.3,1.29-3.38,3.37a5.11,5.11,0,0,1,1,3.09,5.17,5.17,0,1,1-5.17-5.17Z"/>
    <path class="cls-6" d="M278.94,618.76c7.68,0,14.71,4.53,18.74,11.81h0s0-11.2,0-21.16l-49.31,13.93c-1.71,2.59-3,5.19-4.6,7.23H260.2c4.11-7.39,11.11-11.81,18.74-11.81Z"/>
    <path class="cls-6" d="M278.94,621.27c-6.28,0-12.1,3.45-15.82,9.3h31.65C291.1,624.81,285.26,621.27,278.94,621.27Z"/>
  </g>
  <text class="cls-4" transform="translate(242.98 648.64)">Apolo 13</text>
  <g>
    <path d="M307.69,600.26c1,0-7-23-7-23l-5,6.79-2,9.21,1,9,5,7,9-3Z"/>
    <g>
      <path class="cls-3" d="M318.44,591.48l-8.77-9.11a11.06,11.06,0,0,0-2.81,5c-.25,1.08-.53,3.91-.53,3.91l-3.41,6.81a.91.91,0,0,0-.08.41,1,1,0,0,0,1,1h2.45v3.62c0,2.75,1.09,4.14,2.69,4.73l9.42-2.79v-13.6Zm-8,2.21a1.52,1.52,0,1,1,1.52-1.52A1.53,1.53,0,0,1,310.45,593.69Z"/>
      <path class="cls-3" d="M351.66,597.79l-52.45,15.52,2.46,7.7,50-14.14c0-3.53,0-6.77,0-9.08Z"/>
      <path class="cls-3" d="M302.21,609.88a21.48,21.48,0,0,1,1.65-33.55l-1.83-1.9a24.09,24.09,0,0,0-2.72,36.31Z"/>
      <path class="cls-3" d="M329.24,595a3.34,3.34,0,1,0-3.34-3.34A3.34,3.34,0,0,0,329.24,595Z"/>
      <path class="cls-3" d="M351.66,595.25v-1a30.57,30.57,0,0,0-49.8-23.58l0,0,19.06,19.81v13.86Zm-22.42-8.73a5.17,5.17,0,0,1,2.8.83l3.41-3.41,1.3,1.29-3.38,3.37a5.11,5.11,0,0,1,1,3.09,5.17,5.17,0,1,1-5.17-5.17Z"/>
      <path class="cls-3" d="M332.94,618.76c7.68,0,14.71,4.53,18.74,11.81h0s0-11.2,0-21.16l-49.31,13.93c-1.71,2.59-3,5.19-4.6,7.23H314.2c4.11-7.39,11.11-11.81,18.74-11.81Z"/>
      <path class="cls-3" d="M332.94,621.27c-6.28,0-12.1,3.45-15.82,9.3h31.65C345.1,624.81,339.26,621.27,332.94,621.27Z"/>
    </g>
  </g>
  <g>
    <path d="M361.69,600.26c1,0-7-23-7-23l-5,6.79-2,9.21,1,9,5,7,9-3Z"/>
    <g>
      <path class="cls-3" d="M372.44,591.48l-8.77-9.11a11.06,11.06,0,0,0-2.81,5c-.25,1.08-.53,3.91-.53,3.91l-3.41,6.81a.91.91,0,0,0-.08.41,1,1,0,0,0,1,1h2.45v3.62c0,2.75,1.09,4.14,2.69,4.73l9.42-2.79v-13.6Zm-8,2.21a1.52,1.52,0,1,1,1.52-1.52A1.53,1.53,0,0,1,364.45,593.69Z"/>
      <path class="cls-3" d="M405.66,597.79l-52.45,15.52,2.46,7.7,50-14.14c0-3.53,0-6.77,0-9.08Z"/>
      <path class="cls-3" d="M356.21,609.88a21.48,21.48,0,0,1,1.65-33.55l-1.83-1.9a24.09,24.09,0,0,0-2.72,36.31Z"/>
      <path class="cls-3" d="M383.24,595a3.34,3.34,0,1,0-3.34-3.34A3.34,3.34,0,0,0,383.24,595Z"/>
      <path class="cls-3" d="M405.66,595.25v-1a30.57,30.57,0,0,0-49.8-23.58l0,0,19.06,19.81v13.86Zm-22.42-8.73a5.17,5.17,0,0,1,2.8.83l3.41-3.41,1.3,1.29-3.38,3.37a5.11,5.11,0,0,1,1,3.09,5.17,5.17,0,1,1-5.17-5.17Z"/>
      <path class="cls-3" d="M386.94,618.76c7.68,0,14.71,4.53,18.74,11.81h0s0-11.2,0-21.16l-49.31,13.93c-1.71,2.59-3,5.19-4.6,7.23H368.2c4.11-7.39,11.11-11.81,18.74-11.81Z"/>
      <path class="cls-3" d="M386.94,621.27c-6.28,0-12.1,3.45-15.82,9.3h31.65C399.1,624.81,393.26,621.27,386.94,621.27Z"/>
    </g>
  </g>
  <g>
    <path class="cls-6" d="M264.44,728.48l-8.77-9.11a11.06,11.06,0,0,0-2.81,5c-.25,1.08-.53,3.91-.53,3.91l-3.41,6.81a.91.91,0,0,0-.08.41,1,1,0,0,0,1,1h2.45v3.62c0,2.75,1.09,4.14,2.69,4.73l9.42-2.79v-13.6Zm-8,2.21a1.52,1.52,0,1,1,1.52-1.52A1.53,1.53,0,0,1,256.45,730.69Z"/>
    <path class="cls-6" d="M297.66,734.79l-52.45,15.52,2.46,7.7,50-14.14c0-3.53,0-6.77,0-9.08Z"/>
    <path class="cls-6" d="M248.21,746.88a21.48,21.48,0,0,1,1.65-33.55l-1.83-1.9a24.09,24.09,0,0,0-2.72,36.31Z"/>
    <path class="cls-6" d="M275.24,732a3.34,3.34,0,1,0-3.34-3.34A3.34,3.34,0,0,0,275.24,732Z"/>
    <path class="cls-6" d="M297.66,732.25v-1a30.57,30.57,0,0,0-49.8-23.58l0,0,19.06,19.81v13.86Zm-22.42-8.73a5.17,5.17,0,0,1,2.8.83l3.41-3.41,1.3,1.29-3.38,3.37a5.11,5.11,0,0,1,1,3.09,5.17,5.17,0,1,1-5.17-5.17Z"/>
    <path class="cls-6" d="M278.94,755.76c7.68,0,14.71,4.53,18.74,11.81h0s0-11.2,0-21.16l-49.31,13.93c-1.71,2.59-3,5.19-4.6,7.23H260.2c4.11-7.39,11.11-11.81,18.74-11.81Z"/>
    <path class="cls-6" d="M278.94,758.27c-6.28,0-12.1,3.45-15.82,9.3h31.65C291.1,761.81,285.26,758.27,278.94,758.27Z"/>
  </g>
  <text class="cls-4" transform="translate(241.63 785.64)">Apolo 15</text>
  <g>
    <path d="M307.69,736.26c1,0-7-23-7-23l-5,6.79-2,9.21,1,9,5,7,9-3Z"/>
    <g>
      <path class="cls-3" d="M318.44,728.48l-8.77-9.11a11.06,11.06,0,0,0-2.81,5c-.25,1.08-.53,3.91-.53,3.91l-3.41,6.81a.91.91,0,0,0-.08.41,1,1,0,0,0,1,1h2.45v3.62c0,2.75,1.09,4.14,2.69,4.73l9.42-2.79v-13.6Zm-8,2.21a1.52,1.52,0,1,1,1.52-1.52A1.53,1.53,0,0,1,310.45,730.69Z"/>
      <path class="cls-3" d="M351.66,734.79l-52.45,15.52,2.46,7.7,50-14.14c0-3.53,0-6.77,0-9.08Z"/>
      <path class="cls-3" d="M302.21,746.88a21.48,21.48,0,0,1,1.65-33.55l-1.83-1.9a24.09,24.09,0,0,0-2.72,36.31Z"/>
      <path class="cls-3" d="M329.24,732a3.34,3.34,0,1,0-3.34-3.34A3.34,3.34,0,0,0,329.24,732Z"/>
      <path class="cls-3" d="M351.66,732.25v-1a30.57,30.57,0,0,0-49.8-23.58l0,0,19.06,19.81v13.86Zm-22.42-8.73a5.17,5.17,0,0,1,2.8.83l3.41-3.41,1.3,1.29-3.38,3.37a5.11,5.11,0,0,1,1,3.09,5.17,5.17,0,1,1-5.17-5.17Z"/>
      <path class="cls-3" d="M332.94,755.76c7.68,0,14.71,4.53,18.74,11.81h0s0-11.2,0-21.16l-49.31,13.93c-1.71,2.59-3,5.19-4.6,7.23H314.2c4.11-7.39,11.11-11.81,18.74-11.81Z"/>
      <path class="cls-3" d="M332.94,758.27c-6.28,0-12.1,3.45-15.82,9.3h31.65C345.1,761.81,339.26,758.27,332.94,758.27Z"/>
    </g>
  </g>
  <g>
    <path d="M361.69,736.26c1,0-7-23-7-23l-5,6.79-2,9.21,1,9,5,7,9-3Z"/>
    <g>
      <path class="cls-3" d="M372.44,728.48l-8.77-9.11a11.06,11.06,0,0,0-2.81,5c-.25,1.08-.53,3.91-.53,3.91l-3.41,6.81a.91.91,0,0,0-.08.41,1,1,0,0,0,1,1h2.45v3.62c0,2.75,1.09,4.14,2.69,4.73l9.42-2.79v-13.6Zm-8,2.21a1.52,1.52,0,1,1,1.52-1.52A1.53,1.53,0,0,1,364.45,730.69Z"/>
      <path class="cls-3" d="M405.66,734.79l-52.45,15.52,2.46,7.7,50-14.14c0-3.53,0-6.77,0-9.08Z"/>
      <path class="cls-3" d="M356.21,746.88a21.48,21.48,0,0,1,1.65-33.55l-1.83-1.9a24.09,24.09,0,0,0-2.72,36.31Z"/>
      <path class="cls-3" d="M383.24,732a3.34,3.34,0,1,0-3.34-3.34A3.34,3.34,0,0,0,383.24,732Z"/>
      <path class="cls-3" d="M405.66,732.25v-1a30.57,30.57,0,0,0-49.8-23.58l0,0,19.06,19.81v13.86Zm-22.42-8.73a5.17,5.17,0,0,1,2.8.83l3.41-3.41,1.3,1.29-3.38,3.37a5.11,5.11,0,0,1,1,3.09,5.17,5.17,0,1,1-5.17-5.17Z"/>
      <path class="cls-3" d="M386.94,755.76c7.68,0,14.71,4.53,18.74,11.81h0s0-11.2,0-21.16l-49.31,13.93c-1.71,2.59-3,5.19-4.6,7.23H368.2c4.11-7.39,11.11-11.81,18.74-11.81Z"/>
      <path class="cls-3" d="M386.94,758.27c-6.28,0-12.1,3.45-15.82,9.3h31.65C399.1,761.81,393.26,758.27,386.94,758.27Z"/>
    </g>
  </g>
  <g>
    <path class="cls-3" d="M55.6,728.48l-8.78-9.11a10.94,10.94,0,0,0-2.8,5c-.25,1.08-.54,3.91-.54,3.91l-3.41,6.81a1.07,1.07,0,0,0-.08.41,1,1,0,0,0,1,1h2.45v3.62c0,2.75,1.09,4.14,2.69,4.73l9.42-2.79v-13.6Zm-8,2.21a1.52,1.52,0,1,1,1.52-1.52A1.52,1.52,0,0,1,47.6,730.69Z"/>
    <path class="cls-3" d="M88.81,734.79,36.37,750.31l2.46,7.7,50-14.14c0-3.53,0-6.77,0-9.08Z"/>
    <path class="cls-3" d="M39.37,746.88A21.47,21.47,0,0,1,41,713.33l-1.83-1.9a24.09,24.09,0,0,0-2.72,36.31Z"/>
    <path class="cls-3" d="M66.39,732a3.34,3.34,0,1,0-3.34-3.34A3.33,3.33,0,0,0,66.39,732Z"/>
    <path class="cls-3" d="M88.81,732.25v-1A30.56,30.56,0,0,0,39,707.65l-.05,0L58,727.5v13.86Zm-22.42-8.73a5.15,5.15,0,0,1,2.8.83l3.42-3.41,1.29,1.29-3.37,3.37a5.17,5.17,0,1,1-4.14-2.08Z"/>
    <path class="cls-3" d="M70.1,755.76c7.67,0,14.7,4.53,18.74,11.81h0s0-11.2,0-21.16L39.51,760.34c-1.7,2.59-3,5.19-4.6,7.23H51.36c4.11-7.39,11.11-11.81,18.74-11.81Z"/>
    <path class="cls-3" d="M70.1,758.27c-6.29,0-12.11,3.45-15.83,9.3H85.92C82.25,761.81,76.41,758.27,70.1,758.27Z"/>
  </g>
  <text class="cls-4" transform="translate(32.78 785.64)">Apolo 14</text>
  <g>
    <path d="M98.84,737.26c1,0-7-23-7-23l-5,6.79-2,9.21,1,9,5,7,9-3Z"/>
    <g>
      <path class="cls-3" d="M109.6,728.48l-8.78-9.11a10.94,10.94,0,0,0-2.8,5c-.25,1.08-.54,3.91-.54,3.91l-3.41,6.81a1.07,1.07,0,0,0-.08.41,1,1,0,0,0,1,1h2.45v3.62c0,2.75,1.09,4.14,2.69,4.73l9.42-2.79v-13.6Zm-8,2.21a1.52,1.52,0,1,1,1.52-1.52A1.52,1.52,0,0,1,101.6,730.69Z"/>
      <path class="cls-3" d="M142.81,734.79,90.37,750.31l2.46,7.7,50-14.14c0-3.53,0-6.77,0-9.08Z"/>
      <path class="cls-3" d="M93.37,746.88A21.47,21.47,0,0,1,95,713.33l-1.83-1.9a24.09,24.09,0,0,0-2.72,36.31Z"/>
      <path class="cls-3" d="M120.39,732a3.34,3.34,0,1,0-3.34-3.34A3.33,3.33,0,0,0,120.39,732Z"/>
      <path class="cls-3" d="M142.81,732.25v-1A30.56,30.56,0,0,0,93,707.65l0,0L112,727.5v13.86Zm-22.42-8.73a5.15,5.15,0,0,1,2.8.83l3.42-3.41,1.29,1.29-3.37,3.37a5.17,5.17,0,1,1-4.14-2.08Z"/>
      <path class="cls-3" d="M124.1,755.76c7.67,0,14.7,4.53,18.74,11.81h0s0-11.2,0-21.16L93.51,760.34c-1.7,2.59-3,5.19-4.6,7.23h16.45c4.11-7.39,11.11-11.81,18.74-11.81Z"/>
      <path class="cls-3" d="M124.1,758.27c-6.29,0-12.11,3.45-15.83,9.3h31.65C136.25,761.81,130.41,758.27,124.1,758.27Z"/>
    </g>
  </g>
  <g>
    <path d="M152.84,737.26c1,0-7-23-7-23l-5,6.79-2,9.21,1,9,5,7,9-3Z"/>
    <g>
      <path class="cls-3" d="M163.6,728.48l-8.78-9.11a10.94,10.94,0,0,0-2.8,5c-.25,1.08-.54,3.91-.54,3.91l-3.41,6.81a1.07,1.07,0,0,0-.08.41,1,1,0,0,0,1,1h2.45v3.62c0,2.75,1.09,4.14,2.69,4.73l9.42-2.79v-13.6Zm-8,2.21a1.52,1.52,0,1,1,1.52-1.52A1.52,1.52,0,0,1,155.6,730.69Z"/>
      <path class="cls-3" d="M196.81,734.79l-52.44,15.52,2.46,7.7,50-14.14c0-3.53,0-6.77,0-9.08Z"/>
      <path class="cls-3" d="M147.37,746.88A21.47,21.47,0,0,1,149,713.33l-1.83-1.9a24.09,24.09,0,0,0-2.72,36.31Z"/>
      <path class="cls-3" d="M174.39,732a3.34,3.34,0,1,0-3.34-3.34A3.33,3.33,0,0,0,174.39,732Z"/>
      <path class="cls-3" d="M196.81,732.25v-1A30.56,30.56,0,0,0,147,707.65l-.05,0L166,727.5v13.86Zm-22.42-8.73a5.15,5.15,0,0,1,2.8.83l3.42-3.41,1.29,1.29-3.37,3.37a5.17,5.17,0,1,1-4.14-2.08Z"/>
      <path class="cls-3" d="M178.1,755.76c7.67,0,14.7,4.53,18.74,11.81h0s0-11.2,0-21.16l-49.32,13.93c-1.7,2.59-3,5.19-4.6,7.23h16.45c4.11-7.39,11.11-11.81,18.74-11.81Z"/>
      <path class="cls-3" d="M178.1,758.27c-6.29,0-12.11,3.45-15.83,9.3h31.65C190.25,761.81,184.41,758.27,178.1,758.27Z"/>
    </g>
  </g>
  <g>
    <path class="cls-6" d="M55.6,865.48l-8.78-9.11a10.94,10.94,0,0,0-2.8,5c-.25,1.08-.54,3.91-.54,3.91l-3.41,6.81a1.07,1.07,0,0,0-.08.41,1,1,0,0,0,1,1h2.45v3.62c0,2.75,1.09,4.14,2.69,4.73l9.42-2.79v-13.6Zm-8,2.21a1.52,1.52,0,1,1,1.52-1.52A1.52,1.52,0,0,1,47.6,867.69Z"/>
    <path class="cls-6" d="M88.81,871.79,36.37,887.31l2.46,7.7,50-14.14c0-3.53,0-6.77,0-9.08Z"/>
    <path class="cls-6" d="M39.37,883.88A21.47,21.47,0,0,1,41,850.33l-1.83-1.9a24.09,24.09,0,0,0-2.72,36.31Z"/>
    <path class="cls-6" d="M66.39,869a3.34,3.34,0,1,0-3.34-3.34A3.33,3.33,0,0,0,66.39,869Z"/>
    <path class="cls-6" d="M88.81,869.25v-1A30.56,30.56,0,0,0,39,844.65l-.05,0L58,864.5v13.86Zm-22.42-8.73a5.15,5.15,0,0,1,2.8.83l3.42-3.41,1.29,1.29-3.37,3.37a5.17,5.17,0,1,1-4.14-2.08Z"/>
    <path class="cls-6" d="M70.1,892.76c7.67,0,14.7,4.53,18.74,11.81h0s0-11.2,0-21.16L39.51,897.34c-1.7,2.59-3,5.19-4.6,7.23H51.36c4.11-7.39,11.11-11.81,18.74-11.81Z"/>
    <path class="cls-6" d="M70.1,895.27c-6.29,0-12.11,3.45-15.83,9.3H85.92C82.25,898.81,76.41,895.27,70.1,895.27Z"/>
  </g>
  <text class="cls-4" transform="translate(33.97 922.64)">Apolo 16</text>
  <g>
    <path d="M98.84,874.26c1,0-7-23-7-23l-5,6.79-2,9.21,1,9,5,7,9-3Z"/>
    <g>
      <path class="cls-3" d="M109.6,865.48l-8.78-9.11a10.94,10.94,0,0,0-2.8,5c-.25,1.08-.54,3.91-.54,3.91l-3.41,6.81a1.07,1.07,0,0,0-.08.41,1,1,0,0,0,1,1h2.45v3.62c0,2.75,1.09,4.14,2.69,4.73l9.42-2.79v-13.6Zm-8,2.21a1.52,1.52,0,1,1,1.52-1.52A1.52,1.52,0,0,1,101.6,867.69Z"/>
      <path class="cls-3" d="M142.81,871.79,90.37,887.31l2.46,7.7,50-14.14c0-3.53,0-6.77,0-9.08Z"/>
      <path class="cls-3" d="M93.37,883.88A21.47,21.47,0,0,1,95,850.33l-1.83-1.9a24.09,24.09,0,0,0-2.72,36.31Z"/>
      <path class="cls-3" d="M120.39,869a3.34,3.34,0,1,0-3.34-3.34A3.33,3.33,0,0,0,120.39,869Z"/>
      <path class="cls-3" d="M142.81,869.25v-1A30.56,30.56,0,0,0,93,844.65l0,0L112,864.5v13.86Zm-22.42-8.73a5.15,5.15,0,0,1,2.8.83l3.42-3.41,1.29,1.29-3.37,3.37a5.17,5.17,0,1,1-4.14-2.08Z"/>
      <path class="cls-3" d="M124.1,892.76c7.67,0,14.7,4.53,18.74,11.81h0s0-11.2,0-21.16L93.51,897.34c-1.7,2.59-3,5.19-4.6,7.23h16.45c4.11-7.39,11.11-11.81,18.74-11.81Z"/>
      <path class="cls-3" d="M124.1,895.27c-6.29,0-12.11,3.45-15.83,9.3h31.65C136.25,898.81,130.41,895.27,124.1,895.27Z"/>
    </g>
  </g>
  <g>
    <path d="M152.84,874.26c1,0-7-23-7-23l-5,6.79-2,9.21,1,9,5,7,9-3Z"/>
    <g>
      <path class="cls-3" d="M163.6,865.48l-8.78-9.11a10.94,10.94,0,0,0-2.8,5c-.25,1.08-.54,3.91-.54,3.91l-3.41,6.81a1.07,1.07,0,0,0-.08.41,1,1,0,0,0,1,1h2.45v3.62c0,2.75,1.09,4.14,2.69,4.73l9.42-2.79v-13.6Zm-8,2.21a1.52,1.52,0,1,1,1.52-1.52A1.52,1.52,0,0,1,155.6,867.69Z"/>
      <path class="cls-3" d="M196.81,871.79l-52.44,15.52,2.46,7.7,50-14.14c0-3.53,0-6.77,0-9.08Z"/>
      <path class="cls-3" d="M147.37,883.88A21.47,21.47,0,0,1,149,850.33l-1.83-1.9a24.09,24.09,0,0,0-2.72,36.31Z"/>
      <path class="cls-3" d="M174.39,869a3.34,3.34,0,1,0-3.34-3.34A3.33,3.33,0,0,0,174.39,869Z"/>
      <path class="cls-3" d="M196.81,869.25v-1A30.56,30.56,0,0,0,147,844.65l-.05,0L166,864.5v13.86Zm-22.42-8.73a5.15,5.15,0,0,1,2.8.83l3.42-3.41,1.29,1.29-3.37,3.37a5.17,5.17,0,1,1-4.14-2.08Z"/>
      <path class="cls-3" d="M178.1,892.76c7.67,0,14.7,4.53,18.74,11.81h0s0-11.2,0-21.16l-49.32,13.93c-1.7,2.59-3,5.19-4.6,7.23h16.45c4.11-7.39,11.11-11.81,18.74-11.81Z"/>
      <path class="cls-3" d="M178.1,895.27c-6.29,0-12.11,3.45-15.83,9.3h31.65C190.25,898.81,184.41,895.27,178.1,895.27Z"/>
    </g>
  </g>
  <g>
    <path class="cls-6" d="M264.44,865.48l-8.77-9.11a11.06,11.06,0,0,0-2.81,5c-.25,1.08-.53,3.91-.53,3.91l-3.41,6.81a.91.91,0,0,0-.08.41,1,1,0,0,0,1,1h2.45v3.62c0,2.75,1.09,4.14,2.69,4.73l9.42-2.79v-13.6Zm-8,2.21a1.52,1.52,0,1,1,1.52-1.52A1.53,1.53,0,0,1,256.45,867.69Z"/>
    <path class="cls-6" d="M297.66,871.79l-52.45,15.52,2.46,7.7,50-14.14c0-3.53,0-6.77,0-9.08Z"/>
    <path class="cls-6" d="M248.21,883.88a21.48,21.48,0,0,1,1.65-33.55l-1.83-1.9a24.09,24.09,0,0,0-2.72,36.31Z"/>
    <path class="cls-6" d="M275.24,869a3.34,3.34,0,1,0-3.34-3.34A3.34,3.34,0,0,0,275.24,869Z"/>
    <path class="cls-6" d="M297.66,869.25v-1a30.57,30.57,0,0,0-49.8-23.58l0,0,19.06,19.81v13.86Zm-22.42-8.73a5.17,5.17,0,0,1,2.8.83l3.41-3.41,1.3,1.29-3.38,3.37a5.11,5.11,0,0,1,1,3.09,5.17,5.17,0,1,1-5.17-5.17Z"/>
    <path class="cls-6" d="M278.94,892.76c7.68,0,14.71,4.53,18.74,11.81h0s0-11.2,0-21.16l-49.31,13.93c-1.71,2.59-3,5.19-4.6,7.23H260.2c4.11-7.39,11.11-11.81,18.74-11.81Z"/>
    <path class="cls-6" d="M278.94,895.27c-6.28,0-12.1,3.45-15.82,9.3h31.65C291.1,898.81,285.26,895.27,278.94,895.27Z"/>
  </g>
  <text class="cls-4" transform="translate(241.63 922.64)">Apolo 17</text>
  <g>
    <path d="M307.69,874.26c1,0-7-23-7-23l-5,6.79-2,9.21,1,9,5,7,9-3Z"/>
    <g>
      <path class="cls-3" d="M318.44,865.48l-8.77-9.11a11.06,11.06,0,0,0-2.81,5c-.25,1.08-.53,3.91-.53,3.91l-3.41,6.81a.91.91,0,0,0-.08.41,1,1,0,0,0,1,1h2.45v3.62c0,2.75,1.09,4.14,2.69,4.73l9.42-2.79v-13.6Zm-8,2.21a1.52,1.52,0,1,1,1.52-1.52A1.53,1.53,0,0,1,310.45,867.69Z"/>
      <path class="cls-3" d="M351.66,871.79l-52.45,15.52,2.46,7.7,50-14.14c0-3.53,0-6.77,0-9.08Z"/>
      <path class="cls-3" d="M302.21,883.88a21.48,21.48,0,0,1,1.65-33.55l-1.83-1.9a24.09,24.09,0,0,0-2.72,36.31Z"/>
      <path class="cls-3" d="M329.24,869a3.34,3.34,0,1,0-3.34-3.34A3.34,3.34,0,0,0,329.24,869Z"/>
      <path class="cls-3" d="M351.66,869.25v-1a30.57,30.57,0,0,0-49.8-23.58l0,0,19.06,19.81v13.86Zm-22.42-8.73a5.17,5.17,0,0,1,2.8.83l3.41-3.41,1.3,1.29-3.38,3.37a5.11,5.11,0,0,1,1,3.09,5.17,5.17,0,1,1-5.17-5.17Z"/>
      <path class="cls-3" d="M332.94,892.76c7.68,0,14.71,4.53,18.74,11.81h0s0-11.2,0-21.16l-49.31,13.93c-1.71,2.59-3,5.19-4.6,7.23H314.2c4.11-7.39,11.11-11.81,18.74-11.81Z"/>
      <path class="cls-3" d="M332.94,895.27c-6.28,0-12.1,3.45-15.82,9.3h31.65C345.1,898.81,339.26,895.27,332.94,895.27Z"/>
    </g>
  </g>
  <g>
    <path d="M361.69,874.26c1,0-7-23-7-23l-5,6.79-2,9.21,1,9,5,7,9-3Z"/>
    <g>
      <path class="cls-3" d="M372.44,865.48l-8.77-9.11a11.06,11.06,0,0,0-2.81,5c-.25,1.08-.53,3.91-.53,3.91l-3.41,6.81a.91.91,0,0,0-.08.41,1,1,0,0,0,1,1h2.45v3.62c0,2.75,1.09,4.14,2.69,4.73l9.42-2.79v-13.6Zm-8,2.21a1.52,1.52,0,1,1,1.52-1.52A1.53,1.53,0,0,1,364.45,867.69Z"/>
      <path class="cls-3" d="M405.66,871.79l-52.45,15.52,2.46,7.7,50-14.14c0-3.53,0-6.77,0-9.08Z"/>
      <path class="cls-3" d="M356.21,883.88a21.48,21.48,0,0,1,1.65-33.55l-1.83-1.9a24.09,24.09,0,0,0-2.72,36.31Z"/>
      <path class="cls-3" d="M383.24,869a3.34,3.34,0,1,0-3.34-3.34A3.34,3.34,0,0,0,383.24,869Z"/>
      <path class="cls-3" d="M405.66,869.25v-1a30.57,30.57,0,0,0-49.8-23.58l0,0,19.06,19.81v13.86Zm-22.42-8.73a5.17,5.17,0,0,1,2.8.83l3.41-3.41,1.3,1.29-3.38,3.37a5.11,5.11,0,0,1,1,3.09,5.17,5.17,0,1,1-5.17-5.17Z"/>
      <path class="cls-3" d="M386.94,892.76c7.68,0,14.71,4.53,18.74,11.81h0s0-11.2,0-21.16l-49.31,13.93c-1.71,2.59-3,5.19-4.6,7.23H368.2c4.11-7.39,11.11-11.81,18.74-11.81Z"/>
      <path class="cls-3" d="M386.94,895.27c-6.28,0-12.1,3.45-15.82,9.3h31.65C399.1,898.81,393.26,895.27,386.94,895.27Z"/>
    </g>
  </g>
  <text class="cls-4" transform="translate(82.82 24.38)">No sob<tspan class="cls-7" x="44.49" y="0">r</tspan><tspan class="cls-8" x="49.1" y="0">e</tspan><tspan x="56.42" y="0">vivie</tspan><tspan class="cls-9" x="84.2" y="0">r</tspan><tspan x="88.8" y="0">on</tspan></text>
  <rect class="cls-1" x="47" y="8" width="23" height="23"/>
  <text class="cls-4" transform="translate(82.82 66.21)">Sob<tspan class="cls-7" x="24.14" y="0">r</tspan><tspan class="cls-8" x="28.75" y="0">e</tspan><tspan x="36.08" y="0">vivie</tspan><tspan class="cls-9" x="63.85" y="0">r</tspan><tspan x="68.46" y="0">on</tspan></text>
  <rect class="cls-3" x="47" y="49" width="23" height="23"/>
  <text class="cls-4" transform="translate(291.41 24.38)"><tspan class="cls-10">V</tspan><tspan x="8.59" y="0">olvie</tspan><tspan class="cls-9" x="37.57" y="0">r</tspan><tspan x="42.17" y="0">on a viajar</tspan></text>
  <rect class="cls-5" x="255.59" y="8" width="23" height="23"/>
  <text class="cls-4" transform="translate(290.85 57.88)">Dónde <tspan class="cls-11" x="43.67" y="0">v</tspan><tspan x="50.35" y="0">olvie</tspan><tspan class="cls-9" x="79.32" y="0">r</tspan><tspan x="83.92" y="0">on </tspan><tspan x="0" y="16.8">a viajar</tspan></text>
  <rect class="cls-6" x="255.53" y="49.5" width="23" height="23"/>
</svg>
