<svg id="Capa_1" data-name="Capa 1" xmlns="http://www.w3.org/2000/svg" viewBox="0 0 437 1034">
  <defs>
    <style>
      .cls-1, .cls-2 {
        fill: #6b6b6b;
      }

      .cls-2, .cls-4 {
        font-size: 14px;
        font-family: Roboto-Regular, Roboto;
      }

      .cls-3, .cls-4 {
        fill: #fff;
      }

      .cls-5 {
        fill: #ff8327;
      }

      .cls-6 {
        fill: none;
        stroke: #ff8327;
        stroke-miterlimit: 10;
      }

      .cls-7 {
        letter-spacing: -0.01em;
      }

      .cls-8 {
        letter-spacing: -0.01em;
      }

      .cls-9 {
        letter-spacing: -0.01em;
      }

      .cls-10 {
        letter-spacing: -0.02em;
      }

      .cls-11 {
        letter-spacing: -0.01em;
      }
    </style>
  </defs>
  <title>tp_m</title>
  <g>
    <path class="cls-1" d="M88.81,247.79,36.37,263.31l2.46,7.7,50-14.14c0-3.53,0-6.77,0-9.08Z"/>
    <path class="cls-1" d="M39.37,259.88A21.47,21.47,0,0,1,41,226.33l-1.83-1.9a24.09,24.09,0,0,0-2.72,36.31Z"/>
    <path class="cls-1" d="M66.39,245a3.34,3.34,0,1,0-3.34-3.34A3.33,3.33,0,0,0,66.39,245Z"/>
    <path class="cls-1" d="M88.81,245.25v-1A30.56,30.56,0,0,0,39,220.65l-.05,0L58,240.5v13.86Zm-22.42-8.73a5.15,5.15,0,0,1,2.8.83l3.42-3.41,1.29,1.29-3.37,3.37a5.17,5.17,0,1,1-4.14-2.08Z"/>
    <path class="cls-1" d="M70.1,268.76c7.67,0,14.7,4.53,18.74,11.81h0s0-11.2,0-21.16L39.51,273.34c-1.7,2.59-3,5.19-4.6,7.23H51.36c4.11-7.39,11.11-11.81,18.74-11.81Z"/>
    <path class="cls-1" d="M70.1,271.27c-6.29,0-12.11,3.45-15.83,9.3H85.92C82.25,274.81,76.41,271.27,70.1,271.27Z"/>
  </g>
  <text class="cls-2" transform="translate(32.78 298.64)">Apolo 1</text>
  <g>
    <path d="M98.84,250.26c1,0-7-23-7-23l-5,6.79-2,9.21,1,9,5,7,9-3Z"/>
    <path class="cls-1" d="M142.81,247.79,90.37,263.31l2.46,7.7,50-14.14c0-3.53,0-6.77,0-9.08Z"/>
    <path class="cls-1" d="M93.37,259.88A21.47,21.47,0,0,1,95,226.33l-1.83-1.9a24.09,24.09,0,0,0-2.72,36.31Z"/>
    <path class="cls-1" d="M120.39,245a3.34,3.34,0,1,0-3.34-3.34A3.33,3.33,0,0,0,120.39,245Z"/>
    <path class="cls-1" d="M142.81,245.25v-1A30.56,30.56,0,0,0,93,220.65l0,0L112,240.5v13.86Zm-22.42-8.73a5.15,5.15,0,0,1,2.8.83l3.42-3.41,1.29,1.29-3.37,3.37a5.17,5.17,0,1,1-4.14-2.08Z"/>
    <path class="cls-1" d="M124.1,268.76c7.67,0,14.7,4.53,18.74,11.81h0s0-11.2,0-21.16L93.51,273.34c-1.7,2.59-3,5.19-4.6,7.23h16.45c4.11-7.39,11.11-11.81,18.74-11.81Z"/>
    <path class="cls-1" d="M124.1,271.27c-6.29,0-12.11,3.45-15.83,9.3h31.65C136.25,274.81,130.41,271.27,124.1,271.27Z"/>
  </g>
  <g>
    <path d="M152.84,250.26c1,0-7-23-7-23l-5,6.79-2,9.21,1,9,5,7,9-3Z"/>
    <g>
      <path class="cls-1" d="M196.81,247.79l-52.44,15.52,2.46,7.7,50-14.14c0-3.53,0-6.77,0-9.08Z"/>
      <path class="cls-1" d="M147.37,259.88A21.47,21.47,0,0,1,149,226.33l-1.83-1.9a24.09,24.09,0,0,0-2.72,36.31Z"/>
      <path class="cls-1" d="M174.39,245a3.34,3.34,0,1,0-3.34-3.34A3.33,3.33,0,0,0,174.39,245Z"/>
      <path class="cls-1" d="M196.81,245.25v-1A30.56,30.56,0,0,0,147,220.65l-.05,0L166,240.5v13.86Zm-22.42-8.73a5.15,5.15,0,0,1,2.8.83l3.42-3.41,1.29,1.29-3.37,3.37a5.17,5.17,0,1,1-4.14-2.08Z"/>
      <path class="cls-1" d="M178.1,268.76c7.67,0,14.7,4.53,18.74,11.81h0s0-11.2,0-21.16l-49.32,13.93c-1.7,2.59-3,5.19-4.6,7.23h16.45c4.11-7.39,11.11-11.81,18.74-11.81Z"/>
      <path class="cls-1" d="M178.1,271.27c-6.29,0-12.11,3.45-15.83,9.3h31.65C190.25,274.81,184.41,271.27,178.1,271.27Z"/>
    </g>
  </g>
  <g>
    <path class="cls-3" d="M264.44,241.48l-8.77-9.11a11.06,11.06,0,0,0-2.81,5c-.25,1.08-.53,3.91-.53,3.91l-3.41,6.81a.91.91,0,0,0-.08.41,1,1,0,0,0,1,1h2.45v3.62c0,2.75,1.09,4.14,2.69,4.73l9.42-2.79v-13.6Zm-8,2.21a1.52,1.52,0,1,1,1.52-1.52A1.53,1.53,0,0,1,256.45,243.69Z"/>
    <path class="cls-3" d="M297.66,247.79l-52.45,15.52,2.46,7.7,50-14.14c0-3.53,0-6.77,0-9.08Z"/>
    <path class="cls-3" d="M248.21,259.88a21.48,21.48,0,0,1,1.65-33.55l-1.83-1.9a24.09,24.09,0,0,0-2.72,36.31Z"/>
    <path class="cls-3" d="M275.24,245a3.34,3.34,0,1,0-3.34-3.34A3.34,3.34,0,0,0,275.24,245Z"/>
    <path class="cls-3" d="M297.66,245.25v-1a30.57,30.57,0,0,0-49.8-23.58l0,0,19.06,19.81v13.86Zm-22.42-8.73a5.17,5.17,0,0,1,2.8.83l3.41-3.41,1.3,1.29-3.38,3.37a5.11,5.11,0,0,1,1,3.09,5.17,5.17,0,1,1-5.17-5.17Z"/>
    <path class="cls-3" d="M278.94,268.76c7.68,0,14.71,4.53,18.74,11.81h0s0-11.2,0-21.16l-49.31,13.93c-1.71,2.59-3,5.19-4.6,7.23H260.2c4.11-7.39,11.11-11.81,18.74-11.81Z"/>
    <path class="cls-3" d="M278.94,271.27c-6.28,0-12.1,3.45-15.82,9.3h31.65C291.1,274.81,285.26,271.27,278.94,271.27Z"/>
  </g>
  <text class="cls-4" transform="translate(242.63 298.64)">Apolo 7</text>
  <g>
    <path d="M307.69,250.26c1,0-7-23-7-23l-5,6.79-2,9.21,1,9,5,7,9-3Z"/>
    <g>
      <path class="cls-3" d="M318.44,241.48l-8.77-9.11a11.06,11.06,0,0,0-2.81,5c-.25,1.08-.53,3.91-.53,3.91l-3.41,6.81a.91.91,0,0,0-.08.41,1,1,0,0,0,1,1h2.45v3.62c0,2.75,1.09,4.14,2.69,4.73l9.42-2.79v-13.6Zm-8,2.21a1.52,1.52,0,1,1,1.52-1.52A1.53,1.53,0,0,1,310.45,243.69Z"/>
      <path class="cls-3" d="M351.66,247.79l-52.45,15.52,2.46,7.7,50-14.14c0-3.53,0-6.77,0-9.08Z"/>
      <path class="cls-3" d="M302.21,259.88a21.48,21.48,0,0,1,1.65-33.55l-1.83-1.9a24.09,24.09,0,0,0-2.72,36.31Z"/>
      <path class="cls-3" d="M329.24,245a3.34,3.34,0,1,0-3.34-3.34A3.34,3.34,0,0,0,329.24,245Z"/>
      <path class="cls-3" d="M351.66,245.25v-1a30.57,30.57,0,0,0-49.8-23.58l0,0,19.06,19.81v13.86Zm-22.42-8.73a5.17,5.17,0,0,1,2.8.83l3.41-3.41,1.3,1.29-3.38,3.37a5.11,5.11,0,0,1,1,3.09,5.17,5.17,0,1,1-5.17-5.17Z"/>
      <path class="cls-3" d="M332.94,268.76c7.68,0,14.71,4.53,18.74,11.81h0s0-11.2,0-21.16l-49.31,13.93c-1.71,2.59-3,5.19-4.6,7.23H314.2c4.11-7.39,11.11-11.81,18.74-11.81Z"/>
      <path class="cls-3" d="M332.94,271.27c-6.28,0-12.1,3.45-15.82,9.3h31.65C345.1,274.81,339.26,271.27,332.94,271.27Z"/>
    </g>
  </g>
  <g>
    <path d="M361.69,250.26c1,0-7-23-7-23l-5,6.79-2,9.21,1,9,5,7,9-3Z"/>
    <g>
      <path class="cls-3" d="M372.44,241.48l-8.77-9.11a11.06,11.06,0,0,0-2.81,5c-.25,1.08-.53,3.91-.53,3.91l-3.41,6.81a.91.91,0,0,0-.08.41,1,1,0,0,0,1,1h2.45v3.62c0,2.75,1.09,4.14,2.69,4.73l9.42-2.79v-13.6Zm-8,2.21a1.52,1.52,0,1,1,1.52-1.52A1.53,1.53,0,0,1,364.45,243.69Z"/>
      <path class="cls-3" d="M405.66,247.79l-52.45,15.52,2.46,7.7,50-14.14c0-3.53,0-6.77,0-9.08Z"/>
      <path class="cls-3" d="M356.21,259.88a21.48,21.48,0,0,1,1.65-33.55l-1.83-1.9a24.09,24.09,0,0,0-2.72,36.31Z"/>
      <path class="cls-3" d="M383.24,245a3.34,3.34,0,1,0-3.34-3.34A3.34,3.34,0,0,0,383.24,245Z"/>
      <path class="cls-3" d="M405.66,245.25v-1a30.57,30.57,0,0,0-49.8-23.58l0,0,19.06,19.81v13.86Zm-22.42-8.73a5.17,5.17,0,0,1,2.8.83l3.41-3.41,1.3,1.29-3.38,3.37a5.11,5.11,0,0,1,1,3.09,5.17,5.17,0,1,1-5.17-5.17Z"/>
      <path class="cls-3" d="M386.94,268.76c7.68,0,14.71,4.53,18.74,11.81h0s0-11.2,0-21.16l-49.31,13.93c-1.71,2.59-3,5.19-4.6,7.23H368.2c4.11-7.39,11.11-11.81,18.74-11.81Z"/>
      <path class="cls-3" d="M386.94,271.27c-6.28,0-12.1,3.45-15.82,9.3h31.65C399.1,274.81,393.26,271.27,386.94,271.27Z"/>
    </g>
  </g>
  <g>
    <path class="cls-3" d="M264.44,378.48l-8.77-9.11a11.06,11.06,0,0,0-2.81,5c-.25,1.08-.53,3.91-.53,3.91l-3.41,6.81a.91.91,0,0,0-.08.41,1,1,0,0,0,1,1h2.45v3.62c0,2.75,1.09,4.14,2.69,4.73l9.42-2.79v-13.6Zm-8,2.21a1.52,1.52,0,1,1,1.52-1.52A1.53,1.53,0,0,1,256.45,380.69Z"/>
    <path class="cls-3" d="M297.66,384.79l-52.45,15.52,2.46,7.7,50-14.14c0-3.53,0-6.77,0-9.08Z"/>
    <path class="cls-3" d="M248.21,396.88a21.48,21.48,0,0,1,1.65-33.55l-1.83-1.9a24.09,24.09,0,0,0-2.72,36.31Z"/>
    <path class="cls-3" d="M275.24,382a3.34,3.34,0,1,0-3.34-3.34A3.34,3.34,0,0,0,275.24,382Z"/>
    <path class="cls-3" d="M297.66,382.25v-1a30.57,30.57,0,0,0-49.8-23.58l0,0,19.06,19.81v13.86Zm-22.42-8.73a5.17,5.17,0,0,1,2.8.83l3.41-3.41,1.3,1.29-3.38,3.37a5.11,5.11,0,0,1,1,3.09,5.17,5.17,0,1,1-5.17-5.17Z"/>
    <path class="cls-3" d="M278.94,405.76c7.68,0,14.71,4.53,18.74,11.81h0s0-11.2,0-21.16l-49.31,13.93c-1.71,2.59-3,5.19-4.6,7.23H260.2c4.11-7.39,11.11-11.81,18.74-11.81Z"/>
    <path class="cls-3" d="M278.94,408.27c-6.28,0-12.1,3.45-15.82,9.3h31.65C291.1,411.81,285.26,408.27,278.94,408.27Z"/>
  </g>
  <text class="cls-4" transform="translate(241.63 435.64)">Apolo 9</text>
  <g>
    <path d="M307.69,386.26c1,0-7-23-7-23l-5,6.79-2,9.21,1,9,5,7,9-3Z"/>
    <g>
      <path class="cls-5" d="M318.44,378.48l-8.77-9.11a11.06,11.06,0,0,0-2.81,5c-.25,1.08-.53,3.91-.53,3.91l-3.41,6.81a.91.91,0,0,0-.08.41,1,1,0,0,0,1,1h2.45v3.62c0,2.75,1.09,4.14,2.69,4.73l9.42-2.79v-13.6Zm-8,2.21a1.52,1.52,0,1,1,1.52-1.52A1.53,1.53,0,0,1,310.45,380.69Z"/>
      <path class="cls-5" d="M351.66,384.79l-52.45,15.52,2.46,7.7,50-14.14c0-3.53,0-6.77,0-9.08Z"/>
      <path class="cls-5" d="M302.21,396.88a21.48,21.48,0,0,1,1.65-33.55l-1.83-1.9a24.09,24.09,0,0,0-2.72,36.31Z"/>
      <path class="cls-5" d="M329.24,382a3.34,3.34,0,1,0-3.34-3.34A3.34,3.34,0,0,0,329.24,382Z"/>
      <path class="cls-5" d="M351.66,382.25v-1a30.57,30.57,0,0,0-49.8-23.58l0,0,19.06,19.81v13.86Zm-22.42-8.73a5.17,5.17,0,0,1,2.8.83l3.41-3.41,1.3,1.29-3.38,3.37a5.11,5.11,0,0,1,1,3.09,5.17,5.17,0,1,1-5.17-5.17Z"/>
      <path class="cls-5" d="M332.94,405.76c7.68,0,14.71,4.53,18.74,11.81h0s0-11.2,0-21.16l-49.31,13.93c-1.71,2.59-3,5.19-4.6,7.23H314.2c4.11-7.39,11.11-11.81,18.74-11.81Z"/>
      <path class="cls-5" d="M332.94,408.27c-6.28,0-12.1,3.45-15.82,9.3h31.65C345.1,411.81,339.26,408.27,332.94,408.27Z"/>
    </g>
  </g>
  <g>
    <path d="M361.69,386.26c1,0-7-23-7-23l-5,6.79-2,9.21,1,9,5,7,9-3Z"/>
    <g>
      <path class="cls-3" d="M372.44,378.48l-8.77-9.11a11.06,11.06,0,0,0-2.81,5c-.25,1.08-.53,3.91-.53,3.91l-3.41,6.81a.91.91,0,0,0-.08.41,1,1,0,0,0,1,1h2.45v3.62c0,2.75,1.09,4.14,2.69,4.73l9.42-2.79v-13.6Zm-8,2.21a1.52,1.52,0,1,1,1.52-1.52A1.53,1.53,0,0,1,364.45,380.69Z"/>
      <path class="cls-3" d="M405.66,384.79l-52.45,15.52,2.46,7.7,50-14.14c0-3.53,0-6.77,0-9.08Z"/>
      <path class="cls-3" d="M356.21,396.88a21.48,21.48,0,0,1,1.65-33.55l-1.83-1.9a24.09,24.09,0,0,0-2.72,36.31Z"/>
      <path class="cls-3" d="M383.24,382a3.34,3.34,0,1,0-3.34-3.34A3.34,3.34,0,0,0,383.24,382Z"/>
      <path class="cls-3" d="M405.66,382.25v-1a30.57,30.57,0,0,0-49.8-23.58l0,0,19.06,19.81v13.86Zm-22.42-8.73a5.17,5.17,0,0,1,2.8.83l3.41-3.41,1.3,1.29-3.38,3.37a5.11,5.11,0,0,1,1,3.09,5.17,5.17,0,1,1-5.17-5.17Z"/>
      <path class="cls-3" d="M386.94,405.76c7.68,0,14.71,4.53,18.74,11.81h0s0-11.2,0-21.16l-49.31,13.93c-1.71,2.59-3,5.19-4.6,7.23H368.2c4.11-7.39,11.11-11.81,18.74-11.81Z"/>
      <path class="cls-3" d="M386.94,408.27c-6.28,0-12.1,3.45-15.82,9.3h31.65C399.1,411.81,393.26,408.27,386.94,408.27Z"/>
    </g>
  </g>
  <g>
    <path class="cls-3" d="M55.6,378.48l-8.78-9.11a10.94,10.94,0,0,0-2.8,5c-.25,1.08-.54,3.91-.54,3.91l-3.41,6.81a1.07,1.07,0,0,0-.08.41,1,1,0,0,0,1,1h2.45v3.62c0,2.75,1.09,4.14,2.69,4.73l9.42-2.79v-13.6Zm-8,2.21a1.52,1.52,0,1,1,1.52-1.52A1.52,1.52,0,0,1,47.6,380.69Z"/>
    <path class="cls-3" d="M88.81,384.79,36.37,400.31l2.46,7.7,50-14.14c0-3.53,0-6.77,0-9.08Z"/>
    <path class="cls-3" d="M39.37,396.88A21.47,21.47,0,0,1,41,363.33l-1.83-1.9a24.09,24.09,0,0,0-2.72,36.31Z"/>
    <path class="cls-3" d="M66.39,382a3.34,3.34,0,1,0-3.34-3.34A3.33,3.33,0,0,0,66.39,382Z"/>
    <path class="cls-3" d="M88.81,382.25v-1A30.56,30.56,0,0,0,39,357.65l-.05,0L58,377.5v13.86Zm-22.42-8.73a5.15,5.15,0,0,1,2.8.83l3.42-3.41,1.29,1.29-3.37,3.37a5.17,5.17,0,1,1-4.14-2.08Z"/>
    <path class="cls-3" d="M70.1,405.76c7.67,0,14.7,4.53,18.74,11.81h0s0-11.2,0-21.16L39.51,410.34c-1.7,2.59-3,5.19-4.6,7.23H51.36c4.11-7.39,11.11-11.81,18.74-11.81Z"/>
    <path class="cls-3" d="M70.1,408.27c-6.29,0-12.11,3.45-15.83,9.3H85.92C82.25,411.81,76.41,408.27,70.1,408.27Z"/>
  </g>
  <text class="cls-4" transform="translate(32.78 435.64)">Apolo 8</text>
  <g>
    <path d="M98.84,387.26c1,0-7-23-7-23l-5,6.79-2,9.21,1,9,5,7,9-3Z"/>
    <g>
      <path class="cls-5" d="M109.6,378.48l-8.78-9.11a10.94,10.94,0,0,0-2.8,5c-.25,1.08-.54,3.91-.54,3.91l-3.41,6.81a1.07,1.07,0,0,0-.08.41,1,1,0,0,0,1,1h2.45v3.62c0,2.75,1.09,4.14,2.69,4.73l9.42-2.79v-13.6Zm-8,2.21a1.52,1.52,0,1,1,1.52-1.52A1.52,1.52,0,0,1,101.6,380.69Z"/>
      <path class="cls-5" d="M142.81,384.79,90.37,400.31l2.46,7.7,50-14.14c0-3.53,0-6.77,0-9.08Z"/>
      <path class="cls-5" d="M93.37,396.88A21.47,21.47,0,0,1,95,363.33l-1.83-1.9a24.09,24.09,0,0,0-2.72,36.31Z"/>
      <path class="cls-5" d="M120.39,382a3.34,3.34,0,1,0-3.34-3.34A3.33,3.33,0,0,0,120.39,382Z"/>
      <path class="cls-5" d="M142.81,382.25v-1A30.56,30.56,0,0,0,93,357.65l0,0L112,377.5v13.86Zm-22.42-8.73a5.15,5.15,0,0,1,2.8.83l3.42-3.41,1.29,1.29-3.37,3.37a5.17,5.17,0,1,1-4.14-2.08Z"/>
      <path class="cls-5" d="M124.1,405.76c7.67,0,14.7,4.53,18.74,11.81h0s0-11.2,0-21.16L93.51,410.34c-1.7,2.59-3,5.19-4.6,7.23h16.45c4.11-7.39,11.11-11.81,18.74-11.81Z"/>
      <path class="cls-5" d="M124.1,408.27c-6.29,0-12.11,3.45-15.83,9.3h31.65C136.25,411.81,130.41,408.27,124.1,408.27Z"/>
    </g>
  </g>
  <g>
    <path d="M152.84,387.26c1,0-7-23-7-23l-5,6.79-2,9.21,1,9,5,7,9-3Z"/>
    <g>
      <path class="cls-3" d="M163.6,378.48l-8.78-9.11a10.94,10.94,0,0,0-2.8,5c-.25,1.08-.54,3.91-.54,3.91l-3.41,6.81a1.07,1.07,0,0,0-.08.41,1,1,0,0,0,1,1h2.45v3.62c0,2.75,1.09,4.14,2.69,4.73l9.42-2.79v-13.6Zm-8,2.21a1.52,1.52,0,1,1,1.52-1.52A1.52,1.52,0,0,1,155.6,380.69Z"/>
      <path class="cls-3" d="M196.81,384.79l-52.44,15.52,2.46,7.7,50-14.14c0-3.53,0-6.77,0-9.08Z"/>
      <path class="cls-3" d="M147.37,396.88A21.47,21.47,0,0,1,149,363.33l-1.83-1.9a24.09,24.09,0,0,0-2.72,36.31Z"/>
      <path class="cls-3" d="M174.39,382a3.34,3.34,0,1,0-3.34-3.34A3.33,3.33,0,0,0,174.39,382Z"/>
      <path class="cls-3" d="M196.81,382.25v-1A30.56,30.56,0,0,0,147,357.65l-.05,0L166,377.5v13.86Zm-22.42-8.73a5.15,5.15,0,0,1,2.8.83l3.42-3.41,1.29,1.29-3.37,3.37a5.17,5.17,0,1,1-4.14-2.08Z"/>
      <path class="cls-3" d="M178.1,405.76c7.67,0,14.7,4.53,18.74,11.81h0s0-11.2,0-21.16l-49.32,13.93c-1.7,2.59-3,5.19-4.6,7.23h16.45c4.11-7.39,11.11-11.81,18.74-11.81Z"/>
      <path class="cls-3" d="M178.1,408.27c-6.29,0-12.11,3.45-15.83,9.3h31.65C190.25,411.81,184.41,408.27,178.1,408.27Z"/>
    </g>
  </g>
  <g>
    <path class="cls-3" d="M55.6,515.48l-8.78-9.11a10.94,10.94,0,0,0-2.8,5c-.25,1.08-.54,3.91-.54,3.91l-3.41,6.81a1.07,1.07,0,0,0-.08.41,1,1,0,0,0,1,1h2.45v3.62c0,2.75,1.09,4.14,2.69,4.73l9.42-2.79v-13.6Zm-8,2.21a1.52,1.52,0,1,1,1.52-1.52A1.52,1.52,0,0,1,47.6,517.69Z"/>
    <path class="cls-3" d="M88.81,521.79,36.37,537.31l2.46,7.7,50-14.14c0-3.53,0-6.77,0-9.08Z"/>
    <path class="cls-3" d="M39.37,533.88A21.47,21.47,0,0,1,41,500.33l-1.83-1.9a24.09,24.09,0,0,0-2.72,36.31Z"/>
    <path class="cls-3" d="M66.39,519a3.34,3.34,0,1,0-3.34-3.34A3.33,3.33,0,0,0,66.39,519Z"/>
    <path class="cls-3" d="M88.81,519.25v-1A30.56,30.56,0,0,0,39,494.65l-.05,0L58,514.5v13.86Zm-22.42-8.73a5.15,5.15,0,0,1,2.8.83l3.42-3.41,1.29,1.29-3.37,3.37a5.17,5.17,0,1,1-4.14-2.08Z"/>
    <path class="cls-3" d="M70.1,542.76c7.67,0,14.7,4.53,18.74,11.81h0s0-11.2,0-21.16L39.51,547.34c-1.7,2.59-3,5.19-4.6,7.23H51.36c4.11-7.39,11.11-11.81,18.74-11.81Z"/>
    <path class="cls-3" d="M70.1,545.27c-6.29,0-12.11,3.45-15.83,9.3H85.92C82.25,548.81,76.41,545.27,70.1,545.27Z"/>
  </g>
  <text class="cls-4" transform="translate(33.97 572.64)">Apolo 10</text>
  <g>
    <path d="M98.84,523.26c1,0-7-23-7-23l-5,6.79-2,9.21,1,9,5,7,9-3Z"/>
    <g>
      <path class="cls-5" d="M109.6,515.48l-8.78-9.11a10.94,10.94,0,0,0-2.8,5c-.25,1.08-.54,3.91-.54,3.91l-3.41,6.81a1.07,1.07,0,0,0-.08.41,1,1,0,0,0,1,1h2.45v3.62c0,2.75,1.09,4.14,2.69,4.73l9.42-2.79v-13.6Zm-8,2.21a1.52,1.52,0,1,1,1.52-1.52A1.52,1.52,0,0,1,101.6,517.69Z"/>
      <path class="cls-5" d="M142.81,521.79,90.37,537.31l2.46,7.7,50-14.14c0-3.53,0-6.77,0-9.08Z"/>
      <path class="cls-5" d="M93.37,533.88A21.47,21.47,0,0,1,95,500.33l-1.83-1.9a24.09,24.09,0,0,0-2.72,36.31Z"/>
      <path class="cls-5" d="M120.39,519a3.34,3.34,0,1,0-3.34-3.34A3.33,3.33,0,0,0,120.39,519Z"/>
      <path class="cls-5" d="M142.81,519.25v-1A30.56,30.56,0,0,0,93,494.65l0,0L112,514.5v13.86Zm-22.42-8.73a5.15,5.15,0,0,1,2.8.83l3.42-3.41,1.29,1.29-3.37,3.37a5.17,5.17,0,1,1-4.14-2.08Z"/>
      <path class="cls-5" d="M124.1,542.76c7.67,0,14.7,4.53,18.74,11.81h0s0-11.2,0-21.16L93.51,547.34c-1.7,2.59-3,5.19-4.6,7.23h16.45c4.11-7.39,11.11-11.81,18.74-11.81Z"/>
      <path class="cls-5" d="M124.1,545.27c-6.29,0-12.11,3.45-15.83,9.3h31.65C136.25,548.81,130.41,545.27,124.1,545.27Z"/>
    </g>
  </g>
  <g>
    <path d="M152.84,523.26c1,0-7-23-7-23l-5,6.79-2,9.21,1,9,5,7,9-3Z"/>
    <g>
      <path class="cls-5" d="M163.6,515.48l-8.78-9.11a10.94,10.94,0,0,0-2.8,5c-.25,1.08-.54,3.91-.54,3.91l-3.41,6.81a1.07,1.07,0,0,0-.08.41,1,1,0,0,0,1,1h2.45v3.62c0,2.75,1.09,4.14,2.69,4.73l9.42-2.79v-13.6Zm-8,2.21a1.52,1.52,0,1,1,1.52-1.52A1.52,1.52,0,0,1,155.6,517.69Z"/>
      <path class="cls-5" d="M196.81,521.79l-52.44,15.52,2.46,7.7,50-14.14c0-3.53,0-6.77,0-9.08Z"/>
      <path class="cls-5" d="M147.37,533.88A21.47,21.47,0,0,1,149,500.33l-1.83-1.9a24.09,24.09,0,0,0-2.72,36.31Z"/>
      <path class="cls-5" d="M174.39,519a3.34,3.34,0,1,0-3.34-3.34A3.33,3.33,0,0,0,174.39,519Z"/>
      <path class="cls-5" d="M196.81,519.25v-1A30.56,30.56,0,0,0,147,494.65l-.05,0L166,514.5v13.86Zm-22.42-8.73a5.15,5.15,0,0,1,2.8.83l3.42-3.41,1.29,1.29-3.37,3.37a5.17,5.17,0,1,1-4.14-2.08Z"/>
      <path class="cls-5" d="M178.1,542.76c7.67,0,14.7,4.53,18.74,11.81h0s0-11.2,0-21.16l-49.32,13.93c-1.7,2.59-3,5.19-4.6,7.23h16.45c4.11-7.39,11.11-11.81,18.74-11.81Z"/>
      <path class="cls-5" d="M178.1,545.27c-6.29,0-12.11,3.45-15.83,9.3h31.65C190.25,548.81,184.41,545.27,178.1,545.27Z"/>
    </g>
  </g>
  <g>
    <path class="cls-3" d="M264.44,515.48l-8.77-9.11a11.06,11.06,0,0,0-2.81,5c-.25,1.08-.53,3.91-.53,3.91l-3.41,6.81a.91.91,0,0,0-.08.41,1,1,0,0,0,1,1h2.45v3.62c0,2.75,1.09,4.14,2.69,4.73l9.42-2.79v-13.6Zm-8,2.21a1.52,1.52,0,1,1,1.52-1.52A1.53,1.53,0,0,1,256.45,517.69Z"/>
    <path class="cls-3" d="M297.66,521.79l-52.45,15.52,2.46,7.7,50-14.14c0-3.53,0-6.77,0-9.08Z"/>
    <path class="cls-3" d="M248.21,533.88a21.48,21.48,0,0,1,1.65-33.55l-1.83-1.9a24.09,24.09,0,0,0-2.72,36.31Z"/>
    <path class="cls-3" d="M275.24,519a3.34,3.34,0,1,0-3.34-3.34A3.34,3.34,0,0,0,275.24,519Z"/>
    <path class="cls-3" d="M297.66,519.25v-1a30.57,30.57,0,0,0-49.8-23.58l0,0,19.06,19.81v13.86Zm-22.42-8.73a5.17,5.17,0,0,1,2.8.83l3.41-3.41,1.3,1.29-3.38,3.37a5.11,5.11,0,0,1,1,3.09,5.17,5.17,0,1,1-5.17-5.17Z"/>
    <path class="cls-3" d="M278.94,542.76c7.68,0,14.71,4.53,18.74,11.81h0s0-11.2,0-21.16l-49.31,13.93c-1.71,2.59-3,5.19-4.6,7.23H260.2c4.11-7.39,11.11-11.81,18.74-11.81Z"/>
    <path class="cls-3" d="M278.94,545.27c-6.28,0-12.1,3.45-15.82,9.3h31.65C291.1,548.81,285.26,545.27,278.94,545.27Z"/>
  </g>
  <text class="cls-4" transform="translate(241.63 572.64)">Apolo 11</text>
  <g>
    <path d="M307.69,524.26c1,0-7-23-7-23l-5,6.79-2,9.21,1,9,5,7,9-3Z"/>
    <g>
      <path class="cls-3" d="M318.44,515.48l-8.77-9.11a11.06,11.06,0,0,0-2.81,5c-.25,1.08-.53,3.91-.53,3.91l-3.41,6.81a.91.91,0,0,0-.08.41,1,1,0,0,0,1,1h2.45v3.62c0,2.75,1.09,4.14,2.69,4.73l9.42-2.79v-13.6Zm-8,2.21a1.52,1.52,0,1,1,1.52-1.52A1.53,1.53,0,0,1,310.45,517.69Z"/>
      <path class="cls-3" d="M351.66,521.79l-52.45,15.52,2.46,7.7,50-14.14c0-3.53,0-6.77,0-9.08Z"/>
      <path class="cls-3" d="M302.21,533.88a21.48,21.48,0,0,1,1.65-33.55l-1.83-1.9a24.09,24.09,0,0,0-2.72,36.31Z"/>
      <path class="cls-3" d="M329.24,519a3.34,3.34,0,1,0-3.34-3.34A3.34,3.34,0,0,0,329.24,519Z"/>
      <path class="cls-3" d="M351.66,519.25v-1a30.57,30.57,0,0,0-49.8-23.58l0,0,19.06,19.81v13.86Zm-22.42-8.73a5.17,5.17,0,0,1,2.8.83l3.41-3.41,1.3,1.29-3.38,3.37a5.11,5.11,0,0,1,1,3.09,5.17,5.17,0,1,1-5.17-5.17Z"/>
      <path class="cls-3" d="M332.94,542.76c7.68,0,14.71,4.53,18.74,11.81h0s0-11.2,0-21.16l-49.31,13.93c-1.71,2.59-3,5.19-4.6,7.23H314.2c4.11-7.39,11.11-11.81,18.74-11.81Z"/>
      <path class="cls-3" d="M332.94,545.27c-6.28,0-12.1,3.45-15.82,9.3h31.65C345.1,548.81,339.26,545.27,332.94,545.27Z"/>
    </g>
  </g>
  <g>
    <path d="M361.69,524.26c1,0-7-23-7-23l-5,6.79-2,9.21,1,9,5,7,9-3Z"/>
    <g>
      <path class="cls-3" d="M372.44,515.48l-8.77-9.11a11.06,11.06,0,0,0-2.81,5c-.25,1.08-.53,3.91-.53,3.91l-3.41,6.81a.91.91,0,0,0-.08.41,1,1,0,0,0,1,1h2.45v3.62c0,2.75,1.09,4.14,2.69,4.73l9.42-2.79v-13.6Zm-8,2.21a1.52,1.52,0,1,1,1.52-1.52A1.53,1.53,0,0,1,364.45,517.69Z"/>
      <path class="cls-3" d="M405.66,521.79l-52.45,15.52,2.46,7.7,50-14.14c0-3.53,0-6.77,0-9.08Z"/>
      <path class="cls-3" d="M356.21,533.88a21.48,21.48,0,0,1,1.65-33.55l-1.83-1.9a24.09,24.09,0,0,0-2.72,36.31Z"/>
      <path class="cls-3" d="M383.24,519a3.34,3.34,0,1,0-3.34-3.34A3.34,3.34,0,0,0,383.24,519Z"/>
      <path class="cls-3" d="M405.66,519.25v-1a30.57,30.57,0,0,0-49.8-23.58l0,0,19.06,19.81v13.86Zm-22.42-8.73a5.17,5.17,0,0,1,2.8.83l3.41-3.41,1.3,1.29-3.38,3.37a5.11,5.11,0,0,1,1,3.09,5.17,5.17,0,1,1-5.17-5.17Z"/>
      <path class="cls-3" d="M386.94,542.76c7.68,0,14.71,4.53,18.74,11.81h0s0-11.2,0-21.16l-49.31,13.93c-1.71,2.59-3,5.19-4.6,7.23H368.2c4.11-7.39,11.11-11.81,18.74-11.81Z"/>
      <path class="cls-3" d="M386.94,545.27c-6.28,0-12.1,3.45-15.82,9.3h31.65C399.1,548.81,393.26,545.27,386.94,545.27Z"/>
    </g>
  </g>
  <g>
    <path class="cls-3" d="M55.6,652.48l-8.78-9.11a10.94,10.94,0,0,0-2.8,5c-.25,1.08-.54,3.91-.54,3.91l-3.41,6.81a1.07,1.07,0,0,0-.08.41,1,1,0,0,0,1,1h2.45v3.62c0,2.75,1.09,4.14,2.69,4.73l9.42-2.79v-13.6Zm-8,2.21a1.52,1.52,0,1,1,1.52-1.52A1.52,1.52,0,0,1,47.6,654.69Z"/>
    <path class="cls-3" d="M88.81,658.79,36.37,674.31l2.46,7.7,50-14.14c0-3.53,0-6.77,0-9.08Z"/>
    <path class="cls-3" d="M39.37,670.88A21.47,21.47,0,0,1,41,637.33l-1.83-1.9a24.09,24.09,0,0,0-2.72,36.31Z"/>
    <path class="cls-3" d="M66.39,656a3.34,3.34,0,1,0-3.34-3.34A3.33,3.33,0,0,0,66.39,656Z"/>
    <path class="cls-3" d="M88.81,656.25v-1A30.56,30.56,0,0,0,39,631.65l-.05,0L58,651.5v13.86Zm-22.42-8.73a5.15,5.15,0,0,1,2.8.83l3.42-3.41,1.29,1.29-3.37,3.37a5.17,5.17,0,1,1-4.14-2.08Z"/>
    <path class="cls-3" d="M70.1,679.76c7.67,0,14.7,4.53,18.74,11.81h0s0-11.2,0-21.16L39.51,684.34c-1.7,2.59-3,5.19-4.6,7.23H51.36c4.11-7.39,11.11-11.81,18.74-11.81Z"/>
    <path class="cls-3" d="M70.1,682.27c-6.29,0-12.11,3.45-15.83,9.3H85.92C82.25,685.81,76.41,682.27,70.1,682.27Z"/>
  </g>
  <text class="cls-4" transform="translate(32.78 709.64)">Apolo 12</text>
  <g>
    <path d="M98.84,661.26c1,0-7-23-7-23l-5,6.79-2,9.21,1,9,5,7,9-3Z"/>
    <g>
      <path class="cls-3" d="M109.6,652.48l-8.78-9.11a10.94,10.94,0,0,0-2.8,5c-.25,1.08-.54,3.91-.54,3.91l-3.41,6.81a1.07,1.07,0,0,0-.08.41,1,1,0,0,0,1,1h2.45v3.62c0,2.75,1.09,4.14,2.69,4.73l9.42-2.79v-13.6Zm-8,2.21a1.52,1.52,0,1,1,1.52-1.52A1.52,1.52,0,0,1,101.6,654.69Z"/>
      <path class="cls-3" d="M142.81,658.79,90.37,674.31l2.46,7.7,50-14.14c0-3.53,0-6.77,0-9.08Z"/>
      <path class="cls-3" d="M93.37,670.88A21.47,21.47,0,0,1,95,637.33l-1.83-1.9a24.09,24.09,0,0,0-2.72,36.31Z"/>
      <path class="cls-3" d="M120.39,656a3.34,3.34,0,1,0-3.34-3.34A3.33,3.33,0,0,0,120.39,656Z"/>
      <path class="cls-3" d="M142.81,656.25v-1A30.56,30.56,0,0,0,93,631.65l0,0L112,651.5v13.86Zm-22.42-8.73a5.15,5.15,0,0,1,2.8.83l3.42-3.41,1.29,1.29-3.37,3.37a5.17,5.17,0,1,1-4.14-2.08Z"/>
      <path class="cls-3" d="M124.1,679.76c7.67,0,14.7,4.53,18.74,11.81h0s0-11.2,0-21.16L93.51,684.34c-1.7,2.59-3,5.19-4.6,7.23h16.45c4.11-7.39,11.11-11.81,18.74-11.81Z"/>
      <path class="cls-3" d="M124.1,682.27c-6.29,0-12.11,3.45-15.83,9.3h31.65C136.25,685.81,130.41,682.27,124.1,682.27Z"/>
    </g>
  </g>
  <g>
    <path d="M152.84,661.26c1,0-7-23-7-23l-5,6.79-2,9.21,1,9,5,7,9-3Z"/>
    <g>
      <path class="cls-3" d="M163.6,652.48l-8.78-9.11a10.94,10.94,0,0,0-2.8,5c-.25,1.08-.54,3.91-.54,3.91l-3.41,6.81a1.07,1.07,0,0,0-.08.41,1,1,0,0,0,1,1h2.45v3.62c0,2.75,1.09,4.14,2.69,4.73l9.42-2.79v-13.6Zm-8,2.21a1.52,1.52,0,1,1,1.52-1.52A1.52,1.52,0,0,1,155.6,654.69Z"/>
      <path class="cls-3" d="M196.81,658.79l-52.44,15.52,2.46,7.7,50-14.14c0-3.53,0-6.77,0-9.08Z"/>
      <path class="cls-3" d="M147.37,670.88A21.47,21.47,0,0,1,149,637.33l-1.83-1.9a24.09,24.09,0,0,0-2.72,36.31Z"/>
      <path class="cls-3" d="M174.39,656a3.34,3.34,0,1,0-3.34-3.34A3.33,3.33,0,0,0,174.39,656Z"/>
      <path class="cls-3" d="M196.81,656.25v-1A30.56,30.56,0,0,0,147,631.65l-.05,0L166,651.5v13.86Zm-22.42-8.73a5.15,5.15,0,0,1,2.8.83l3.42-3.41,1.29,1.29-3.37,3.37a5.17,5.17,0,1,1-4.14-2.08Z"/>
      <path class="cls-3" d="M178.1,679.76c7.67,0,14.7,4.53,18.74,11.81h0s0-11.2,0-21.16l-49.32,13.93c-1.7,2.59-3,5.19-4.6,7.23h16.45c4.11-7.39,11.11-11.81,18.74-11.81Z"/>
      <path class="cls-3" d="M178.1,682.27c-6.29,0-12.11,3.45-15.83,9.3h31.65C190.25,685.81,184.41,682.27,178.1,682.27Z"/>
    </g>
  </g>
  <g>
    <path class="cls-6" d="M264.44,652.48l-8.77-9.11a11.06,11.06,0,0,0-2.81,5c-.25,1.08-.53,3.91-.53,3.91l-3.41,6.81a.91.91,0,0,0-.08.41,1,1,0,0,0,1,1h2.45v3.62c0,2.75,1.09,4.14,2.69,4.73l9.42-2.79v-13.6Zm-8,2.21a1.52,1.52,0,1,1,1.52-1.52A1.53,1.53,0,0,1,256.45,654.69Z"/>
    <path class="cls-6" d="M297.66,658.79l-52.45,15.52,2.46,7.7,50-14.14c0-3.53,0-6.77,0-9.08Z"/>
    <path class="cls-6" d="M248.21,670.88a21.48,21.48,0,0,1,1.65-33.55l-1.83-1.9a24.09,24.09,0,0,0-2.72,36.31Z"/>
    <path class="cls-6" d="M275.24,656a3.34,3.34,0,1,0-3.34-3.34A3.34,3.34,0,0,0,275.24,656Z"/>
    <path class="cls-6" d="M297.66,656.25v-1a30.57,30.57,0,0,0-49.8-23.58l0,0,19.06,19.81v13.86Zm-22.42-8.73a5.17,5.17,0,0,1,2.8.83l3.41-3.41,1.3,1.29-3.38,3.37a5.11,5.11,0,0,1,1,3.09,5.17,5.17,0,1,1-5.17-5.17Z"/>
    <path class="cls-6" d="M278.94,679.76c7.68,0,14.71,4.53,18.74,11.81h0s0-11.2,0-21.16l-49.31,13.93c-1.71,2.59-3,5.19-4.6,7.23H260.2c4.11-7.39,11.11-11.81,18.74-11.81Z"/>
    <path class="cls-6" d="M278.94,682.27c-6.28,0-12.1,3.45-15.82,9.3h31.65C291.1,685.81,285.26,682.27,278.94,682.27Z"/>
  </g>
  <text class="cls-4" transform="translate(242.98 709.64)">Apolo 13</text>
  <g>
    <path d="M307.69,661.26c1,0-7-23-7-23l-5,6.79-2,9.21,1,9,5,7,9-3Z"/>
    <g>
      <path class="cls-3" d="M318.44,652.48l-8.77-9.11a11.06,11.06,0,0,0-2.81,5c-.25,1.08-.53,3.91-.53,3.91l-3.41,6.81a.91.91,0,0,0-.08.41,1,1,0,0,0,1,1h2.45v3.62c0,2.75,1.09,4.14,2.69,4.73l9.42-2.79v-13.6Zm-8,2.21a1.52,1.52,0,1,1,1.52-1.52A1.53,1.53,0,0,1,310.45,654.69Z"/>
      <path class="cls-3" d="M351.66,658.79l-52.45,15.52,2.46,7.7,50-14.14c0-3.53,0-6.77,0-9.08Z"/>
      <path class="cls-3" d="M302.21,670.88a21.48,21.48,0,0,1,1.65-33.55l-1.83-1.9a24.09,24.09,0,0,0-2.72,36.31Z"/>
      <path class="cls-3" d="M329.24,656a3.34,3.34,0,1,0-3.34-3.34A3.34,3.34,0,0,0,329.24,656Z"/>
      <path class="cls-3" d="M351.66,656.25v-1a30.57,30.57,0,0,0-49.8-23.58l0,0,19.06,19.81v13.86Zm-22.42-8.73a5.17,5.17,0,0,1,2.8.83l3.41-3.41,1.3,1.29-3.38,3.37a5.11,5.11,0,0,1,1,3.09,5.17,5.17,0,1,1-5.17-5.17Z"/>
      <path class="cls-3" d="M332.94,679.76c7.68,0,14.71,4.53,18.74,11.81h0s0-11.2,0-21.16l-49.31,13.93c-1.71,2.59-3,5.19-4.6,7.23H314.2c4.11-7.39,11.11-11.81,18.74-11.81Z"/>
      <path class="cls-3" d="M332.94,682.27c-6.28,0-12.1,3.45-15.82,9.3h31.65C345.1,685.81,339.26,682.27,332.94,682.27Z"/>
    </g>
  </g>
  <g>
    <path d="M361.69,661.26c1,0-7-23-7-23l-5,6.79-2,9.21,1,9,5,7,9-3Z"/>
    <g>
      <path class="cls-3" d="M372.44,652.48l-8.77-9.11a11.06,11.06,0,0,0-2.81,5c-.25,1.08-.53,3.91-.53,3.91l-3.41,6.81a.91.91,0,0,0-.08.41,1,1,0,0,0,1,1h2.45v3.62c0,2.75,1.09,4.14,2.69,4.73l9.42-2.79v-13.6Zm-8,2.21a1.52,1.52,0,1,1,1.52-1.52A1.53,1.53,0,0,1,364.45,654.69Z"/>
      <path class="cls-3" d="M405.66,658.79l-52.45,15.52,2.46,7.7,50-14.14c0-3.53,0-6.77,0-9.08Z"/>
      <path class="cls-3" d="M356.21,670.88a21.48,21.48,0,0,1,1.65-33.55l-1.83-1.9a24.09,24.09,0,0,0-2.72,36.31Z"/>
      <path class="cls-3" d="M383.24,656a3.34,3.34,0,1,0-3.34-3.34A3.34,3.34,0,0,0,383.24,656Z"/>
      <path class="cls-3" d="M405.66,656.25v-1a30.57,30.57,0,0,0-49.8-23.58l0,0,19.06,19.81v13.86Zm-22.42-8.73a5.17,5.17,0,0,1,2.8.83l3.41-3.41,1.3,1.29-3.38,3.37a5.11,5.11,0,0,1,1,3.09,5.17,5.17,0,1,1-5.17-5.17Z"/>
      <path class="cls-3" d="M386.94,679.76c7.68,0,14.71,4.53,18.74,11.81h0s0-11.2,0-21.16l-49.31,13.93c-1.71,2.59-3,5.19-4.6,7.23H368.2c4.11-7.39,11.11-11.81,18.74-11.81Z"/>
      <path class="cls-3" d="M386.94,682.27c-6.28,0-12.1,3.45-15.82,9.3h31.65C399.1,685.81,393.26,682.27,386.94,682.27Z"/>
    </g>
  </g>
  <g>
    <path class="cls-6" d="M264.44,789.48l-8.77-9.11a11.06,11.06,0,0,0-2.81,5c-.25,1.08-.53,3.91-.53,3.91l-3.41,6.81a.91.91,0,0,0-.08.41,1,1,0,0,0,1,1h2.45v3.62c0,2.75,1.09,4.14,2.69,4.73l9.42-2.79v-13.6Zm-8,2.21a1.52,1.52,0,1,1,1.52-1.52A1.53,1.53,0,0,1,256.45,791.69Z"/>
    <path class="cls-6" d="M297.66,795.79l-52.45,15.52,2.46,7.7,50-14.14c0-3.53,0-6.77,0-9.08Z"/>
    <path class="cls-6" d="M248.21,807.88a21.48,21.48,0,0,1,1.65-33.55l-1.83-1.9a24.09,24.09,0,0,0-2.72,36.31Z"/>
    <path class="cls-6" d="M275.24,793a3.34,3.34,0,1,0-3.34-3.34A3.34,3.34,0,0,0,275.24,793Z"/>
    <path class="cls-6" d="M297.66,793.25v-1a30.57,30.57,0,0,0-49.8-23.58l0,0,19.06,19.81v13.86Zm-22.42-8.73a5.17,5.17,0,0,1,2.8.83l3.41-3.41,1.3,1.29-3.38,3.37a5.11,5.11,0,0,1,1,3.09,5.17,5.17,0,1,1-5.17-5.17Z"/>
    <path class="cls-6" d="M278.94,816.76c7.68,0,14.71,4.53,18.74,11.81h0s0-11.2,0-21.16l-49.31,13.93c-1.71,2.59-3,5.19-4.6,7.23H260.2c4.11-7.39,11.11-11.81,18.74-11.81Z"/>
    <path class="cls-6" d="M278.94,819.27c-6.28,0-12.1,3.45-15.82,9.3h31.65C291.1,822.81,285.26,819.27,278.94,819.27Z"/>
  </g>
  <text class="cls-4" transform="translate(241.63 846.64)">Apolo 15</text>
  <g>
    <path d="M307.69,797.26c1,0-7-23-7-23l-5,6.79-2,9.21,1,9,5,7,9-3Z"/>
    <g>
      <path class="cls-3" d="M318.44,789.48l-8.77-9.11a11.06,11.06,0,0,0-2.81,5c-.25,1.08-.53,3.91-.53,3.91l-3.41,6.81a.91.91,0,0,0-.08.41,1,1,0,0,0,1,1h2.45v3.62c0,2.75,1.09,4.14,2.69,4.73l9.42-2.79v-13.6Zm-8,2.21a1.52,1.52,0,1,1,1.52-1.52A1.53,1.53,0,0,1,310.45,791.69Z"/>
      <path class="cls-3" d="M351.66,795.79l-52.45,15.52,2.46,7.7,50-14.14c0-3.53,0-6.77,0-9.08Z"/>
      <path class="cls-3" d="M302.21,807.88a21.48,21.48,0,0,1,1.65-33.55l-1.83-1.9a24.09,24.09,0,0,0-2.72,36.31Z"/>
      <path class="cls-3" d="M329.24,793a3.34,3.34,0,1,0-3.34-3.34A3.34,3.34,0,0,0,329.24,793Z"/>
      <path class="cls-3" d="M351.66,793.25v-1a30.57,30.57,0,0,0-49.8-23.58l0,0,19.06,19.81v13.86Zm-22.42-8.73a5.17,5.17,0,0,1,2.8.83l3.41-3.41,1.3,1.29-3.38,3.37a5.11,5.11,0,0,1,1,3.09,5.17,5.17,0,1,1-5.17-5.17Z"/>
      <path class="cls-3" d="M332.94,816.76c7.68,0,14.71,4.53,18.74,11.81h0s0-11.2,0-21.16l-49.31,13.93c-1.71,2.59-3,5.19-4.6,7.23H314.2c4.11-7.39,11.11-11.81,18.74-11.81Z"/>
      <path class="cls-3" d="M332.94,819.27c-6.28,0-12.1,3.45-15.82,9.3h31.65C345.1,822.81,339.26,819.27,332.94,819.27Z"/>
    </g>
  </g>
  <g>
    <path d="M361.69,797.26c1,0-7-23-7-23l-5,6.79-2,9.21,1,9,5,7,9-3Z"/>
    <g>
      <path class="cls-3" d="M372.44,789.48l-8.77-9.11a11.06,11.06,0,0,0-2.81,5c-.25,1.08-.53,3.91-.53,3.91l-3.41,6.81a.91.91,0,0,0-.08.41,1,1,0,0,0,1,1h2.45v3.62c0,2.75,1.09,4.14,2.69,4.73l9.42-2.79v-13.6Zm-8,2.21a1.52,1.52,0,1,1,1.52-1.52A1.53,1.53,0,0,1,364.45,791.69Z"/>
      <path class="cls-3" d="M405.66,795.79l-52.45,15.52,2.46,7.7,50-14.14c0-3.53,0-6.77,0-9.08Z"/>
      <path class="cls-3" d="M356.21,807.88a21.48,21.48,0,0,1,1.65-33.55l-1.83-1.9a24.09,24.09,0,0,0-2.72,36.31Z"/>
      <path class="cls-3" d="M383.24,793a3.34,3.34,0,1,0-3.34-3.34A3.34,3.34,0,0,0,383.24,793Z"/>
      <path class="cls-3" d="M405.66,793.25v-1a30.57,30.57,0,0,0-49.8-23.58l0,0,19.06,19.81v13.86Zm-22.42-8.73a5.17,5.17,0,0,1,2.8.83l3.41-3.41,1.3,1.29-3.38,3.37a5.11,5.11,0,0,1,1,3.09,5.17,5.17,0,1,1-5.17-5.17Z"/>
      <path class="cls-3" d="M386.94,816.76c7.68,0,14.71,4.53,18.74,11.81h0s0-11.2,0-21.16l-49.31,13.93c-1.71,2.59-3,5.19-4.6,7.23H368.2c4.11-7.39,11.11-11.81,18.74-11.81Z"/>
      <path class="cls-3" d="M386.94,819.27c-6.28,0-12.1,3.45-15.82,9.3h31.65C399.1,822.81,393.26,819.27,386.94,819.27Z"/>
    </g>
  </g>
  <g>
    <path class="cls-3" d="M55.6,789.48l-8.78-9.11a10.94,10.94,0,0,0-2.8,5c-.25,1.08-.54,3.91-.54,3.91l-3.41,6.81a1.07,1.07,0,0,0-.08.41,1,1,0,0,0,1,1h2.45v3.62c0,2.75,1.09,4.14,2.69,4.73l9.42-2.79v-13.6Zm-8,2.21a1.52,1.52,0,1,1,1.52-1.52A1.52,1.52,0,0,1,47.6,791.69Z"/>
    <path class="cls-3" d="M88.81,795.79,36.37,811.31l2.46,7.7,50-14.14c0-3.53,0-6.77,0-9.08Z"/>
    <path class="cls-3" d="M39.37,807.88A21.47,21.47,0,0,1,41,774.33l-1.83-1.9a24.09,24.09,0,0,0-2.72,36.31Z"/>
    <path class="cls-3" d="M66.39,793a3.34,3.34,0,1,0-3.34-3.34A3.33,3.33,0,0,0,66.39,793Z"/>
    <path class="cls-3" d="M88.81,793.25v-1A30.56,30.56,0,0,0,39,768.65l-.05,0L58,788.5v13.86Zm-22.42-8.73a5.15,5.15,0,0,1,2.8.83l3.42-3.41,1.29,1.29-3.37,3.37a5.17,5.17,0,1,1-4.14-2.08Z"/>
    <path class="cls-3" d="M70.1,816.76c7.67,0,14.7,4.53,18.74,11.81h0s0-11.2,0-21.16L39.51,821.34c-1.7,2.59-3,5.19-4.6,7.23H51.36c4.11-7.39,11.11-11.81,18.74-11.81Z"/>
    <path class="cls-3" d="M70.1,819.27c-6.29,0-12.11,3.45-15.83,9.3H85.92C82.25,822.81,76.41,819.27,70.1,819.27Z"/>
  </g>
  <text class="cls-4" transform="translate(32.78 846.64)">Apolo 14</text>
  <g>
    <path d="M98.84,798.26c1,0-7-23-7-23l-5,6.79-2,9.21,1,9,5,7,9-3Z"/>
    <g>
      <path class="cls-3" d="M109.6,789.48l-8.78-9.11a10.94,10.94,0,0,0-2.8,5c-.25,1.08-.54,3.91-.54,3.91l-3.41,6.81a1.07,1.07,0,0,0-.08.41,1,1,0,0,0,1,1h2.45v3.62c0,2.75,1.09,4.14,2.69,4.73l9.42-2.79v-13.6Zm-8,2.21a1.52,1.52,0,1,1,1.52-1.52A1.52,1.52,0,0,1,101.6,791.69Z"/>
      <path class="cls-3" d="M142.81,795.79,90.37,811.31l2.46,7.7,50-14.14c0-3.53,0-6.77,0-9.08Z"/>
      <path class="cls-3" d="M93.37,807.88A21.47,21.47,0,0,1,95,774.33l-1.83-1.9a24.09,24.09,0,0,0-2.72,36.31Z"/>
      <path class="cls-3" d="M120.39,793a3.34,3.34,0,1,0-3.34-3.34A3.33,3.33,0,0,0,120.39,793Z"/>
      <path class="cls-3" d="M142.81,793.25v-1A30.56,30.56,0,0,0,93,768.65l0,0L112,788.5v13.86Zm-22.42-8.73a5.15,5.15,0,0,1,2.8.83l3.42-3.41,1.29,1.29-3.37,3.37a5.17,5.17,0,1,1-4.14-2.08Z"/>
      <path class="cls-3" d="M124.1,816.76c7.67,0,14.7,4.53,18.74,11.81h0s0-11.2,0-21.16L93.51,821.34c-1.7,2.59-3,5.19-4.6,7.23h16.45c4.11-7.39,11.11-11.81,18.74-11.81Z"/>
      <path class="cls-3" d="M124.1,819.27c-6.29,0-12.11,3.45-15.83,9.3h31.65C136.25,822.81,130.41,819.27,124.1,819.27Z"/>
    </g>
  </g>
  <g>
    <path d="M152.84,798.26c1,0-7-23-7-23l-5,6.79-2,9.21,1,9,5,7,9-3Z"/>
    <g>
      <path class="cls-3" d="M163.6,789.48l-8.78-9.11a10.94,10.94,0,0,0-2.8,5c-.25,1.08-.54,3.91-.54,3.91l-3.41,6.81a1.07,1.07,0,0,0-.08.41,1,1,0,0,0,1,1h2.45v3.62c0,2.75,1.09,4.14,2.69,4.73l9.42-2.79v-13.6Zm-8,2.21a1.52,1.52,0,1,1,1.52-1.52A1.52,1.52,0,0,1,155.6,791.69Z"/>
      <path class="cls-3" d="M196.81,795.79l-52.44,15.52,2.46,7.7,50-14.14c0-3.53,0-6.77,0-9.08Z"/>
      <path class="cls-3" d="M147.37,807.88A21.47,21.47,0,0,1,149,774.33l-1.83-1.9a24.09,24.09,0,0,0-2.72,36.31Z"/>
      <path class="cls-3" d="M174.39,793a3.34,3.34,0,1,0-3.34-3.34A3.33,3.33,0,0,0,174.39,793Z"/>
      <path class="cls-3" d="M196.81,793.25v-1A30.56,30.56,0,0,0,147,768.65l-.05,0L166,788.5v13.86Zm-22.42-8.73a5.15,5.15,0,0,1,2.8.83l3.42-3.41,1.29,1.29-3.37,3.37a5.17,5.17,0,1,1-4.14-2.08Z"/>
      <path class="cls-3" d="M178.1,816.76c7.67,0,14.7,4.53,18.74,11.81h0s0-11.2,0-21.16l-49.32,13.93c-1.7,2.59-3,5.19-4.6,7.23h16.45c4.11-7.39,11.11-11.81,18.74-11.81Z"/>
      <path class="cls-3" d="M178.1,819.27c-6.29,0-12.11,3.45-15.83,9.3h31.65C190.25,822.81,184.41,819.27,178.1,819.27Z"/>
    </g>
  </g>
  <g>
    <path class="cls-6" d="M55.6,926.48l-8.78-9.11a10.94,10.94,0,0,0-2.8,5c-.25,1.08-.54,3.91-.54,3.91l-3.41,6.81a1.07,1.07,0,0,0-.08.41,1,1,0,0,0,1,1h2.45v3.62c0,2.75,1.09,4.14,2.69,4.73l9.42-2.79v-13.6Zm-8,2.21a1.52,1.52,0,1,1,1.52-1.52A1.52,1.52,0,0,1,47.6,928.69Z"/>
    <path class="cls-6" d="M88.81,932.79,36.37,948.31l2.46,7.7,50-14.14c0-3.53,0-6.77,0-9.08Z"/>
    <path class="cls-6" d="M39.37,944.88A21.47,21.47,0,0,1,41,911.33l-1.83-1.9a24.09,24.09,0,0,0-2.72,36.31Z"/>
    <path class="cls-6" d="M66.39,930a3.34,3.34,0,1,0-3.34-3.34A3.33,3.33,0,0,0,66.39,930Z"/>
    <path class="cls-6" d="M88.81,930.25v-1A30.56,30.56,0,0,0,39,905.65l-.05,0L58,925.5v13.86Zm-22.42-8.73a5.15,5.15,0,0,1,2.8.83l3.42-3.41,1.29,1.29-3.37,3.37a5.17,5.17,0,1,1-4.14-2.08Z"/>
    <path class="cls-6" d="M70.1,953.76c7.67,0,14.7,4.53,18.74,11.81h0s0-11.2,0-21.16L39.51,958.34c-1.7,2.59-3,5.19-4.6,7.23H51.36c4.11-7.39,11.11-11.81,18.74-11.81Z"/>
    <path class="cls-6" d="M70.1,956.27c-6.29,0-12.11,3.45-15.83,9.3H85.92C82.25,959.81,76.41,956.27,70.1,956.27Z"/>
  </g>
  <text class="cls-4" transform="translate(33.97 983.64)">Apolo 16</text>
  <g>
    <path d="M98.84,935.26c1,0-7-23-7-23l-5,6.79-2,9.21,1,9,5,7,9-3Z"/>
    <g>
      <path class="cls-3" d="M109.6,926.48l-8.78-9.11a10.94,10.94,0,0,0-2.8,5c-.25,1.08-.54,3.91-.54,3.91l-3.41,6.81a1.07,1.07,0,0,0-.08.41,1,1,0,0,0,1,1h2.45v3.62c0,2.75,1.09,4.14,2.69,4.73l9.42-2.79v-13.6Zm-8,2.21a1.52,1.52,0,1,1,1.52-1.52A1.52,1.52,0,0,1,101.6,928.69Z"/>
      <path class="cls-3" d="M142.81,932.79,90.37,948.31l2.46,7.7,50-14.14c0-3.53,0-6.77,0-9.08Z"/>
      <path class="cls-3" d="M93.37,944.88A21.47,21.47,0,0,1,95,911.33l-1.83-1.9a24.09,24.09,0,0,0-2.72,36.31Z"/>
      <path class="cls-3" d="M120.39,930a3.34,3.34,0,1,0-3.34-3.34A3.33,3.33,0,0,0,120.39,930Z"/>
      <path class="cls-3" d="M142.81,930.25v-1A30.56,30.56,0,0,0,93,905.65l0,0L112,925.5v13.86Zm-22.42-8.73a5.15,5.15,0,0,1,2.8.83l3.42-3.41,1.29,1.29-3.37,3.37a5.17,5.17,0,1,1-4.14-2.08Z"/>
      <path class="cls-3" d="M124.1,953.76c7.67,0,14.7,4.53,18.74,11.81h0s0-11.2,0-21.16L93.51,958.34c-1.7,2.59-3,5.19-4.6,7.23h16.45c4.11-7.39,11.11-11.81,18.74-11.81Z"/>
      <path class="cls-3" d="M124.1,956.27c-6.29,0-12.11,3.45-15.83,9.3h31.65C136.25,959.81,130.41,956.27,124.1,956.27Z"/>
    </g>
  </g>
  <g>
    <path d="M152.84,935.26c1,0-7-23-7-23l-5,6.79-2,9.21,1,9,5,7,9-3Z"/>
    <g>
      <path class="cls-3" d="M163.6,926.48l-8.78-9.11a10.94,10.94,0,0,0-2.8,5c-.25,1.08-.54,3.91-.54,3.91l-3.41,6.81a1.07,1.07,0,0,0-.08.41,1,1,0,0,0,1,1h2.45v3.62c0,2.75,1.09,4.14,2.69,4.73l9.42-2.79v-13.6Zm-8,2.21a1.52,1.52,0,1,1,1.52-1.52A1.52,1.52,0,0,1,155.6,928.69Z"/>
      <path class="cls-3" d="M196.81,932.79l-52.44,15.52,2.46,7.7,50-14.14c0-3.53,0-6.77,0-9.08Z"/>
      <path class="cls-3" d="M147.37,944.88A21.47,21.47,0,0,1,149,911.33l-1.83-1.9a24.09,24.09,0,0,0-2.72,36.31Z"/>
      <path class="cls-3" d="M174.39,930a3.34,3.34,0,1,0-3.34-3.34A3.33,3.33,0,0,0,174.39,930Z"/>
      <path class="cls-3" d="M196.81,930.25v-1A30.56,30.56,0,0,0,147,905.65l-.05,0L166,925.5v13.86Zm-22.42-8.73a5.15,5.15,0,0,1,2.8.83l3.42-3.41,1.29,1.29-3.37,3.37a5.17,5.17,0,1,1-4.14-2.08Z"/>
      <path class="cls-3" d="M178.1,953.76c7.67,0,14.7,4.53,18.74,11.81h0s0-11.2,0-21.16l-49.32,13.93c-1.7,2.59-3,5.19-4.6,7.23h16.45c4.11-7.39,11.11-11.81,18.74-11.81Z"/>
      <path class="cls-3" d="M178.1,956.27c-6.29,0-12.11,3.45-15.83,9.3h31.65C190.25,959.81,184.41,956.27,178.1,956.27Z"/>
    </g>
  </g>
  <g>
    <path class="cls-6" d="M264.44,926.48l-8.77-9.11a11.06,11.06,0,0,0-2.81,5c-.25,1.08-.53,3.91-.53,3.91l-3.41,6.81a.91.91,0,0,0-.08.41,1,1,0,0,0,1,1h2.45v3.62c0,2.75,1.09,4.14,2.69,4.73l9.42-2.79v-13.6Zm-8,2.21a1.52,1.52,0,1,1,1.52-1.52A1.53,1.53,0,0,1,256.45,928.69Z"/>
    <path class="cls-6" d="M297.66,932.79l-52.45,15.52,2.46,7.7,50-14.14c0-3.53,0-6.77,0-9.08Z"/>
    <path class="cls-6" d="M248.21,944.88a21.48,21.48,0,0,1,1.65-33.55l-1.83-1.9a24.09,24.09,0,0,0-2.72,36.31Z"/>
    <path class="cls-6" d="M275.24,930a3.34,3.34,0,1,0-3.34-3.34A3.34,3.34,0,0,0,275.24,930Z"/>
    <path class="cls-6" d="M297.66,930.25v-1a30.57,30.57,0,0,0-49.8-23.58l0,0,19.06,19.81v13.86Zm-22.42-8.73a5.17,5.17,0,0,1,2.8.83l3.41-3.41,1.3,1.29-3.38,3.37a5.11,5.11,0,0,1,1,3.09,5.17,5.17,0,1,1-5.17-5.17Z"/>
    <path class="cls-6" d="M278.94,953.76c7.68,0,14.71,4.53,18.74,11.81h0s0-11.2,0-21.16l-49.31,13.93c-1.71,2.59-3,5.19-4.6,7.23H260.2c4.11-7.39,11.11-11.81,18.74-11.81Z"/>
    <path class="cls-6" d="M278.94,956.27c-6.28,0-12.1,3.45-15.82,9.3h31.65C291.1,959.81,285.26,956.27,278.94,956.27Z"/>
  </g>
  <text class="cls-4" transform="translate(241.63 983.64)">Apolo 17</text>
  <g>
    <path d="M307.69,935.26c1,0-7-23-7-23l-5,6.79-2,9.21,1,9,5,7,9-3Z"/>
    <g>
      <path class="cls-3" d="M318.44,926.48l-8.77-9.11a11.06,11.06,0,0,0-2.81,5c-.25,1.08-.53,3.91-.53,3.91l-3.41,6.81a.91.91,0,0,0-.08.41,1,1,0,0,0,1,1h2.45v3.62c0,2.75,1.09,4.14,2.69,4.73l9.42-2.79v-13.6Zm-8,2.21a1.52,1.52,0,1,1,1.52-1.52A1.53,1.53,0,0,1,310.45,928.69Z"/>
      <path class="cls-3" d="M351.66,932.79l-52.45,15.52,2.46,7.7,50-14.14c0-3.53,0-6.77,0-9.08Z"/>
      <path class="cls-3" d="M302.21,944.88a21.48,21.48,0,0,1,1.65-33.55l-1.83-1.9a24.09,24.09,0,0,0-2.72,36.31Z"/>
      <path class="cls-3" d="M329.24,930a3.34,3.34,0,1,0-3.34-3.34A3.34,3.34,0,0,0,329.24,930Z"/>
      <path class="cls-3" d="M351.66,930.25v-1a30.57,30.57,0,0,0-49.8-23.58l0,0,19.06,19.81v13.86Zm-22.42-8.73a5.17,5.17,0,0,1,2.8.83l3.41-3.41,1.3,1.29-3.38,3.37a5.11,5.11,0,0,1,1,3.09,5.17,5.17,0,1,1-5.17-5.17Z"/>
      <path class="cls-3" d="M332.94,953.76c7.68,0,14.71,4.53,18.74,11.81h0s0-11.2,0-21.16l-49.31,13.93c-1.71,2.59-3,5.19-4.6,7.23H314.2c4.11-7.39,11.11-11.81,18.74-11.81Z"/>
      <path class="cls-3" d="M332.94,956.27c-6.28,0-12.1,3.45-15.82,9.3h31.65C345.1,959.81,339.26,956.27,332.94,956.27Z"/>
    </g>
  </g>
  <g>
    <path d="M361.69,935.26c1,0-7-23-7-23l-5,6.79-2,9.21,1,9,5,7,9-3Z"/>
    <g>
      <path class="cls-3" d="M372.44,926.48l-8.77-9.11a11.06,11.06,0,0,0-2.81,5c-.25,1.08-.53,3.91-.53,3.91l-3.41,6.81a.91.91,0,0,0-.08.41,1,1,0,0,0,1,1h2.45v3.62c0,2.75,1.09,4.14,2.69,4.73l9.42-2.79v-13.6Zm-8,2.21a1.52,1.52,0,1,1,1.52-1.52A1.53,1.53,0,0,1,364.45,928.69Z"/>
      <path class="cls-3" d="M405.66,932.79l-52.45,15.52,2.46,7.7,50-14.14c0-3.53,0-6.77,0-9.08Z"/>
      <path class="cls-3" d="M356.21,944.88a21.48,21.48,0,0,1,1.65-33.55l-1.83-1.9a24.09,24.09,0,0,0-2.72,36.31Z"/>
      <path class="cls-3" d="M383.24,930a3.34,3.34,0,1,0-3.34-3.34A3.34,3.34,0,0,0,383.24,930Z"/>
      <path class="cls-3" d="M405.66,930.25v-1a30.57,30.57,0,0,0-49.8-23.58l0,0,19.06,19.81v13.86Zm-22.42-8.73a5.17,5.17,0,0,1,2.8.83l3.41-3.41,1.3,1.29-3.38,3.37a5.11,5.11,0,0,1,1,3.09,5.17,5.17,0,1,1-5.17-5.17Z"/>
      <path class="cls-3" d="M386.94,953.76c7.68,0,14.71,4.53,18.74,11.81h0s0-11.2,0-21.16l-49.31,13.93c-1.71,2.59-3,5.19-4.6,7.23H368.2c4.11-7.39,11.11-11.81,18.74-11.81Z"/>
      <path class="cls-3" d="M386.94,956.27c-6.28,0-12.1,3.45-15.82,9.3h31.65C399.1,959.81,393.26,956.27,386.94,956.27Z"/>
    </g>
  </g>
  <text class="cls-4" transform="translate(82.82 85.38)">No sob<tspan class="cls-7" x="44.49" y="0">r</tspan><tspan class="cls-8" x="49.1" y="0">e</tspan><tspan x="56.42" y="0">vivie</tspan><tspan class="cls-9" x="84.2" y="0">r</tspan><tspan x="88.8" y="0">on</tspan></text>
  <rect class="cls-1" x="47" y="69" width="23" height="23"/>
  <text class="cls-4" transform="translate(82.82 127.21)">Sob<tspan class="cls-7" x="24.14" y="0">r</tspan><tspan class="cls-8" x="28.75" y="0">e</tspan><tspan x="36.08" y="0">vivie</tspan><tspan class="cls-9" x="63.85" y="0">r</tspan><tspan x="68.46" y="0">on</tspan></text>
  <rect class="cls-3" x="47" y="110" width="23" height="23"/>
  <text class="cls-4" transform="translate(291.41 85.38)"><tspan class="cls-10">V</tspan><tspan x="8.59" y="0">olvie</tspan><tspan class="cls-9" x="37.57" y="0">r</tspan><tspan x="42.17" y="0">on a viajar</tspan></text>
  <rect class="cls-5" x="255.59" y="69" width="23" height="23"/>
  <text class="cls-4" transform="translate(290.85 118.88)">Dónde <tspan class="cls-11" x="43.67" y="0">v</tspan><tspan x="50.35" y="0">olvie</tspan><tspan class="cls-9" x="79.32" y="0">r</tspan><tspan x="83.92" y="0">on </tspan><tspan x="0" y="16.8">a viajar</tspan></text>
  <rect class="cls-6" x="255.53" y="110.5" width="23" height="23"/>
</svg>
