<svg id="Capa_1" data-name="Capa 1" xmlns="http://www.w3.org/2000/svg" viewBox="0 0 640 768">
  <defs>
    <style>
      .cls-1, .cls-2 {
        fill: #6b6b6b;
      }

      .cls-2, .cls-4 {
        font-size: 14px;
      }

      .cls-2, .cls-4, .cls-7 {
        font-family: Roboto-Regular, Roboto;
      }

      .cls-3, .cls-4, .cls-7 {
        fill: #fff;
      }

      .cls-5 {
        fill: #ff8327;
      }

      .cls-6 {
        fill: none;
        stroke: #ff8327;
        stroke-miterlimit: 10;
      }

      .cls-7 {
        font-size: 12px;
      }

      .cls-8 {
        letter-spacing: -0.01em;
      }

      .cls-9 {
        letter-spacing: -0.01em;
      }

      .cls-10 {
        letter-spacing: -0.01em;
      }

      .cls-11 {
        letter-spacing: -0.02em;
      }

      .cls-12 {
        letter-spacing: -0.01em;
      }
    </style>
  </defs>
  <title>tp_w</title>
  <g>
    <path class="cls-1" d="M85.66,239.54,33.21,255.06l2.46,7.69,50-14.13c0-3.54,0-6.77,0-9.08Z"/>
    <path class="cls-1" d="M36.21,251.63a21.49,21.49,0,0,1,1.65-33.56L36,216.17a24.1,24.1,0,0,0-2.72,36.32Z"/>
    <path class="cls-1" d="M63.24,236.78a3.35,3.35,0,1,0-3.34-3.34A3.35,3.35,0,0,0,63.24,236.78Z"/>
    <path class="cls-1" d="M85.66,237v-1a30.56,30.56,0,0,0-49.8-23.58l0,0,19.06,19.8v13.87Zm-22.42-8.73a5.17,5.17,0,0,1,2.8.83l3.41-3.42,1.3,1.29-3.38,3.38a5.11,5.11,0,0,1,1,3.09,5.17,5.17,0,1,1-5.17-5.17Z"/>
    <path class="cls-1" d="M66.94,260.51c7.68,0,14.71,4.53,18.74,11.81h0s0-11.2,0-21.17L36.36,265.09c-1.71,2.58-3,5.19-4.6,7.23H48.2c4.11-7.4,11.11-11.81,18.74-11.81Z"/>
    <path class="cls-1" d="M66.94,263c-6.28,0-12.1,3.45-15.82,9.3H82.77C79.1,266.55,73.26,263,66.94,263Z"/>
  </g>
  <text class="cls-2" transform="translate(29.63 290.38)">Apolo 1</text>
  <g>
    <path d="M95.69,242c1,0-7-23-7-23l-5,6.79-2,9.21,1,9,5,7,9-3Z"/>
    <path class="cls-1" d="M139.66,239.54,87.21,255.06l2.46,7.69,50-14.13c0-3.54,0-6.77,0-9.08Z"/>
    <path class="cls-1" d="M90.21,251.63a21.49,21.49,0,0,1,1.65-33.56L90,216.17a24.1,24.1,0,0,0-2.72,36.32Z"/>
    <path class="cls-1" d="M117.24,236.78a3.35,3.35,0,1,0-3.34-3.34A3.35,3.35,0,0,0,117.24,236.78Z"/>
    <path class="cls-1" d="M139.66,237v-1a30.56,30.56,0,0,0-49.8-23.58l0,0,19.06,19.8v13.87Zm-22.42-8.73a5.17,5.17,0,0,1,2.8.83l3.41-3.42,1.3,1.29-3.38,3.38a5.11,5.11,0,0,1,1,3.09,5.17,5.17,0,1,1-5.17-5.17Z"/>
    <path class="cls-1" d="M120.94,260.51c7.68,0,14.71,4.53,18.74,11.81h0s0-11.2,0-21.17L90.36,265.09c-1.71,2.58-3,5.19-4.6,7.23H102.2c4.11-7.4,11.11-11.81,18.74-11.81Z"/>
    <path class="cls-1" d="M120.94,263c-6.28,0-12.1,3.45-15.82,9.3h31.65C133.1,266.55,127.26,263,120.94,263Z"/>
  </g>
  <g>
    <path d="M149.69,242c1,0-7-23-7-23l-5,6.79-2,9.21,1,9,5,7,9-3Z"/>
    <g>
      <path class="cls-1" d="M193.66,239.54l-52.45,15.52,2.46,7.69,50-14.13c0-3.54,0-6.77,0-9.08Z"/>
      <path class="cls-1" d="M144.21,251.63a21.49,21.49,0,0,1,1.65-33.56l-1.83-1.9a24.1,24.1,0,0,0-2.72,36.32Z"/>
      <path class="cls-1" d="M171.24,236.78a3.35,3.35,0,1,0-3.34-3.34A3.35,3.35,0,0,0,171.24,236.78Z"/>
      <path class="cls-1" d="M193.66,237v-1a30.56,30.56,0,0,0-49.8-23.58l0,0,19.06,19.8v13.87Zm-22.42-8.73a5.17,5.17,0,0,1,2.8.83l3.41-3.42,1.3,1.29-3.38,3.38a5.11,5.11,0,0,1,1,3.09,5.17,5.17,0,1,1-5.17-5.17Z"/>
      <path class="cls-1" d="M174.94,260.51c7.68,0,14.71,4.53,18.74,11.81h0s0-11.2,0-21.17l-49.31,13.94c-1.71,2.58-3,5.19-4.6,7.23H156.2c4.11-7.4,11.11-11.81,18.74-11.81Z"/>
      <path class="cls-1" d="M174.94,263c-6.28,0-12.1,3.45-15.82,9.3h31.65C187.1,266.55,181.26,263,174.94,263Z"/>
    </g>
  </g>
  <g>
    <path class="cls-3" d="M52.44,370.22l-8.77-9.11a11.09,11.09,0,0,0-2.81,5c-.25,1.08-.53,3.9-.53,3.9l-3.41,6.81a1,1,0,0,0-.08.41,1,1,0,0,0,1,1h2.45v3.62c0,2.76,1.09,4.14,2.69,4.74l9.42-2.79V370.22Zm-8,2.22A1.53,1.53,0,1,1,46,370.92,1.53,1.53,0,0,1,44.45,372.44Z"/>
    <path class="cls-3" d="M85.66,376.54,33.21,392.06l2.46,7.69,50-14.13c0-3.54,0-6.77,0-9.08Z"/>
    <path class="cls-3" d="M36.21,388.63a21.49,21.49,0,0,1,1.65-33.56L36,353.17a24.1,24.1,0,0,0-2.72,36.32Z"/>
    <path class="cls-3" d="M63.24,373.78a3.35,3.35,0,1,0-3.34-3.34A3.35,3.35,0,0,0,63.24,373.78Z"/>
    <path class="cls-3" d="M85.66,374v-1a30.56,30.56,0,0,0-49.8-23.58l0,0,19.06,19.8v13.87Zm-22.42-8.73a5.17,5.17,0,0,1,2.8.83l3.41-3.42,1.3,1.29-3.38,3.38a5.11,5.11,0,0,1,1,3.09,5.17,5.17,0,1,1-5.17-5.17Z"/>
    <path class="cls-3" d="M66.94,397.51c7.68,0,14.71,4.53,18.74,11.81h0s0-11.2,0-21.17L36.36,402.09c-1.71,2.58-3,5.19-4.6,7.23H48.2c4.11-7.4,11.11-11.81,18.74-11.81Z"/>
    <path class="cls-3" d="M66.94,400c-6.28,0-12.1,3.45-15.82,9.3H82.77C79.1,403.55,73.26,400,66.94,400Z"/>
  </g>
  <text class="cls-4" transform="translate(29.63 427.38)">Apolo 9</text>
  <g>
    <path d="M95.69,378c1,0-7-23-7-23l-5,6.79-2,9.21,1,9,5,7,9-3Z"/>
    <g>
      <path class="cls-5" d="M106.44,370.22l-8.77-9.11a11.09,11.09,0,0,0-2.81,5c-.25,1.08-.53,3.9-.53,3.9l-3.41,6.81a1,1,0,0,0-.08.41,1,1,0,0,0,1,1h2.45v3.62c0,2.76,1.09,4.14,2.69,4.74l9.42-2.79V370.22Zm-8,2.22a1.53,1.53,0,1,1,1.52-1.52A1.53,1.53,0,0,1,98.45,372.44Z"/>
      <path class="cls-5" d="M139.66,376.54,87.21,392.06l2.46,7.69,50-14.13c0-3.54,0-6.77,0-9.08Z"/>
      <path class="cls-5" d="M90.21,388.63a21.49,21.49,0,0,1,1.65-33.56L90,353.17a24.1,24.1,0,0,0-2.72,36.32Z"/>
      <path class="cls-5" d="M117.24,373.78a3.35,3.35,0,1,0-3.34-3.34A3.35,3.35,0,0,0,117.24,373.78Z"/>
      <path class="cls-5" d="M139.66,374v-1a30.56,30.56,0,0,0-49.8-23.58l0,0,19.06,19.8v13.87Zm-22.42-8.73a5.17,5.17,0,0,1,2.8.83l3.41-3.42,1.3,1.29-3.38,3.38a5.11,5.11,0,0,1,1,3.09,5.17,5.17,0,1,1-5.17-5.17Z"/>
      <path class="cls-5" d="M120.94,397.51c7.68,0,14.71,4.53,18.74,11.81h0s0-11.2,0-21.17L90.36,402.09c-1.71,2.58-3,5.19-4.6,7.23H102.2c4.11-7.4,11.11-11.81,18.74-11.81Z"/>
      <path class="cls-5" d="M120.94,400c-6.28,0-12.1,3.45-15.82,9.3h31.65C133.1,403.55,127.26,400,120.94,400Z"/>
    </g>
  </g>
  <g>
    <path d="M149.69,378c1,0-7-23-7-23l-5,6.79-2,9.21,1,9,5,7,9-3Z"/>
    <g>
      <path class="cls-3" d="M160.44,370.22l-8.77-9.11a11.09,11.09,0,0,0-2.81,5c-.25,1.08-.53,3.9-.53,3.9l-3.41,6.81a1,1,0,0,0-.08.41,1,1,0,0,0,1,1h2.45v3.62c0,2.76,1.09,4.14,2.69,4.74l9.42-2.79V370.22Zm-8,2.22a1.53,1.53,0,1,1,1.52-1.52A1.53,1.53,0,0,1,152.45,372.44Z"/>
      <path class="cls-3" d="M193.66,376.54l-52.45,15.52,2.46,7.69,50-14.13c0-3.54,0-6.77,0-9.08Z"/>
      <path class="cls-3" d="M144.21,388.63a21.49,21.49,0,0,1,1.65-33.56l-1.83-1.9a24.1,24.1,0,0,0-2.72,36.32Z"/>
      <path class="cls-3" d="M171.24,373.78a3.35,3.35,0,1,0-3.34-3.34A3.35,3.35,0,0,0,171.24,373.78Z"/>
      <path class="cls-3" d="M193.66,374v-1a30.56,30.56,0,0,0-49.8-23.58l0,0,19.06,19.8v13.87Zm-22.42-8.73a5.17,5.17,0,0,1,2.8.83l3.41-3.42,1.3,1.29-3.38,3.38a5.11,5.11,0,0,1,1,3.09,5.17,5.17,0,1,1-5.17-5.17Z"/>
      <path class="cls-3" d="M174.94,397.51c7.68,0,14.71,4.53,18.74,11.81h0s0-11.2,0-21.17l-49.31,13.94c-1.71,2.58-3,5.19-4.6,7.23H156.2c4.11-7.4,11.11-11.81,18.74-11.81Z"/>
      <path class="cls-3" d="M174.94,400c-6.28,0-12.1,3.45-15.82,9.3h31.65C187.1,403.55,181.26,400,174.94,400Z"/>
    </g>
  </g>
  <g>
    <path class="cls-3" d="M52.44,507.22l-8.77-9.11a11.09,11.09,0,0,0-2.81,5c-.25,1.08-.53,3.9-.53,3.9l-3.41,6.81a1,1,0,0,0-.08.41,1,1,0,0,0,1,1h2.45v3.62c0,2.76,1.09,4.14,2.69,4.74l9.42-2.79V507.22Zm-8,2.22A1.53,1.53,0,1,1,46,507.92,1.53,1.53,0,0,1,44.45,509.44Z"/>
    <path class="cls-3" d="M85.66,513.54,33.21,529.06l2.46,7.69,50-14.13c0-3.54,0-6.77,0-9.08Z"/>
    <path class="cls-3" d="M36.21,525.63a21.49,21.49,0,0,1,1.65-33.56L36,490.17a24.1,24.1,0,0,0-2.72,36.32Z"/>
    <path class="cls-3" d="M63.24,510.78a3.35,3.35,0,1,0-3.34-3.34A3.35,3.35,0,0,0,63.24,510.78Z"/>
    <path class="cls-3" d="M85.66,511v-1a30.56,30.56,0,0,0-49.8-23.58l0,0,19.06,19.8v13.87Zm-22.42-8.73a5.17,5.17,0,0,1,2.8.83l3.41-3.42,1.3,1.29-3.38,3.38a5.11,5.11,0,0,1,1,3.09,5.17,5.17,0,1,1-5.17-5.17Z"/>
    <path class="cls-3" d="M66.94,534.51c7.68,0,14.71,4.53,18.74,11.81h0s0-11.2,0-21.17L36.36,539.09c-1.71,2.58-3,5.19-4.6,7.23H48.2c4.11-7.4,11.11-11.81,18.74-11.81Z"/>
    <path class="cls-3" d="M66.94,537c-6.28,0-12.1,3.45-15.82,9.3H82.77C79.1,540.55,73.26,537,66.94,537Z"/>
  </g>
  <text class="cls-4" transform="translate(29.63 564.38)">Apolo 12</text>
  <g>
    <path d="M95.69,516c1,0-7-23-7-23l-5,6.79-2,9.21,1,9,5,7,9-3Z"/>
    <g>
      <path class="cls-3" d="M106.44,507.22l-8.77-9.11a11.09,11.09,0,0,0-2.81,5c-.25,1.08-.53,3.9-.53,3.9l-3.41,6.81a1,1,0,0,0-.08.41,1,1,0,0,0,1,1h2.45v3.62c0,2.76,1.09,4.14,2.69,4.74l9.42-2.79V507.22Zm-8,2.22a1.53,1.53,0,1,1,1.52-1.52A1.53,1.53,0,0,1,98.45,509.44Z"/>
      <path class="cls-3" d="M139.66,513.54,87.21,529.06l2.46,7.69,50-14.13c0-3.54,0-6.77,0-9.08Z"/>
      <path class="cls-3" d="M90.21,525.63a21.49,21.49,0,0,1,1.65-33.56L90,490.17a24.1,24.1,0,0,0-2.72,36.32Z"/>
      <path class="cls-3" d="M117.24,510.78a3.35,3.35,0,1,0-3.34-3.34A3.35,3.35,0,0,0,117.24,510.78Z"/>
      <path class="cls-3" d="M139.66,511v-1a30.56,30.56,0,0,0-49.8-23.58l0,0,19.06,19.8v13.87Zm-22.42-8.73a5.17,5.17,0,0,1,2.8.83l3.41-3.42,1.3,1.29-3.38,3.38a5.11,5.11,0,0,1,1,3.09,5.17,5.17,0,1,1-5.17-5.17Z"/>
      <path class="cls-3" d="M120.94,534.51c7.68,0,14.71,4.53,18.74,11.81h0s0-11.2,0-21.17L90.36,539.09c-1.71,2.58-3,5.19-4.6,7.23H102.2c4.11-7.4,11.11-11.81,18.74-11.81Z"/>
      <path class="cls-3" d="M120.94,537c-6.28,0-12.1,3.45-15.82,9.3h31.65C133.1,540.55,127.26,537,120.94,537Z"/>
    </g>
  </g>
  <g>
    <path d="M149.69,516c1,0-7-23-7-23l-5,6.79-2,9.21,1,9,5,7,9-3Z"/>
    <g>
      <path class="cls-3" d="M160.44,507.22l-8.77-9.11a11.09,11.09,0,0,0-2.81,5c-.25,1.08-.53,3.9-.53,3.9l-3.41,6.81a1,1,0,0,0-.08.41,1,1,0,0,0,1,1h2.45v3.62c0,2.76,1.09,4.14,2.69,4.74l9.42-2.79V507.22Zm-8,2.22a1.53,1.53,0,1,1,1.52-1.52A1.53,1.53,0,0,1,152.45,509.44Z"/>
      <path class="cls-3" d="M193.66,513.54l-52.45,15.52,2.46,7.69,50-14.13c0-3.54,0-6.77,0-9.08Z"/>
      <path class="cls-3" d="M144.21,525.63a21.49,21.49,0,0,1,1.65-33.56l-1.83-1.9a24.1,24.1,0,0,0-2.72,36.32Z"/>
      <path class="cls-3" d="M171.24,510.78a3.35,3.35,0,1,0-3.34-3.34A3.35,3.35,0,0,0,171.24,510.78Z"/>
      <path class="cls-3" d="M193.66,511v-1a30.56,30.56,0,0,0-49.8-23.58l0,0,19.06,19.8v13.87Zm-22.42-8.73a5.17,5.17,0,0,1,2.8.83l3.41-3.42,1.3,1.29-3.38,3.38a5.11,5.11,0,0,1,1,3.09,5.17,5.17,0,1,1-5.17-5.17Z"/>
      <path class="cls-3" d="M174.94,534.51c7.68,0,14.71,4.53,18.74,11.81h0s0-11.2,0-21.17l-49.31,13.94c-1.71,2.58-3,5.19-4.6,7.23H156.2c4.11-7.4,11.11-11.81,18.74-11.81Z"/>
      <path class="cls-3" d="M174.94,537c-6.28,0-12.1,3.45-15.82,9.3h31.65C187.1,540.55,181.26,537,174.94,537Z"/>
    </g>
  </g>
  <g>
    <path class="cls-6" d="M52.44,644.22l-8.77-9.11a11.09,11.09,0,0,0-2.81,5c-.25,1.08-.53,3.9-.53,3.9l-3.41,6.81a1,1,0,0,0-.08.41,1,1,0,0,0,1,1h2.45v3.62c0,2.76,1.09,4.14,2.69,4.74l9.42-2.79V644.22Zm-8,2.22A1.53,1.53,0,1,1,46,644.92,1.53,1.53,0,0,1,44.45,646.44Z"/>
    <path class="cls-6" d="M85.66,650.54,33.21,666.06l2.46,7.69,50-14.13c0-3.54,0-6.77,0-9.08Z"/>
    <path class="cls-6" d="M36.21,662.63a21.49,21.49,0,0,1,1.65-33.56L36,627.17a24.1,24.1,0,0,0-2.72,36.32Z"/>
    <path class="cls-6" d="M63.24,647.78a3.35,3.35,0,1,0-3.34-3.34A3.35,3.35,0,0,0,63.24,647.78Z"/>
    <path class="cls-6" d="M85.66,648v-1a30.56,30.56,0,0,0-49.8-23.58l0,0,19.06,19.8v13.87Zm-22.42-8.73a5.17,5.17,0,0,1,2.8.83l3.41-3.42,1.3,1.29-3.38,3.38a5.11,5.11,0,0,1,1,3.09,5.17,5.17,0,1,1-5.17-5.17Z"/>
    <path class="cls-6" d="M66.94,671.51c7.68,0,14.71,4.53,18.74,11.81h0s0-11.2,0-21.17L36.36,676.09c-1.71,2.58-3,5.19-4.6,7.23H48.2c4.11-7.4,11.11-11.81,18.74-11.81Z"/>
    <path class="cls-6" d="M66.94,674c-6.28,0-12.1,3.45-15.82,9.3H82.77C79.1,677.55,73.26,674,66.94,674Z"/>
  </g>
  <text class="cls-4" transform="translate(29.63 701.38)">Apolo 15</text>
  <g>
    <path d="M95.69,652c1,0-7-23-7-23l-5,6.79-2,9.21,1,9,5,7,9-3Z"/>
    <g>
      <path class="cls-3" d="M106.44,644.22l-8.77-9.11a11.09,11.09,0,0,0-2.81,5c-.25,1.08-.53,3.9-.53,3.9l-3.41,6.81a1,1,0,0,0-.08.41,1,1,0,0,0,1,1h2.45v3.62c0,2.76,1.09,4.14,2.69,4.74l9.42-2.79V644.22Zm-8,2.22a1.53,1.53,0,1,1,1.52-1.52A1.53,1.53,0,0,1,98.45,646.44Z"/>
      <path class="cls-3" d="M139.66,650.54,87.21,666.06l2.46,7.69,50-14.13c0-3.54,0-6.77,0-9.08Z"/>
      <path class="cls-3" d="M90.21,662.63a21.49,21.49,0,0,1,1.65-33.56L90,627.17a24.1,24.1,0,0,0-2.72,36.32Z"/>
      <path class="cls-3" d="M117.24,647.78a3.35,3.35,0,1,0-3.34-3.34A3.35,3.35,0,0,0,117.24,647.78Z"/>
      <path class="cls-3" d="M139.66,648v-1a30.56,30.56,0,0,0-49.8-23.58l0,0,19.06,19.8v13.87Zm-22.42-8.73a5.17,5.17,0,0,1,2.8.83l3.41-3.42,1.3,1.29-3.38,3.38a5.11,5.11,0,0,1,1,3.09,5.17,5.17,0,1,1-5.17-5.17Z"/>
      <path class="cls-3" d="M120.94,671.51c7.68,0,14.71,4.53,18.74,11.81h0s0-11.2,0-21.17L90.36,676.09c-1.71,2.58-3,5.19-4.6,7.23H102.2c4.11-7.4,11.11-11.81,18.74-11.81Z"/>
      <path class="cls-3" d="M120.94,674c-6.28,0-12.1,3.45-15.82,9.3h31.65C133.1,677.55,127.26,674,120.94,674Z"/>
    </g>
  </g>
  <g>
    <path d="M149.69,652c1,0-7-23-7-23l-5,6.79-2,9.21,1,9,5,7,9-3Z"/>
    <g>
      <path class="cls-3" d="M160.44,644.22l-8.77-9.11a11.09,11.09,0,0,0-2.81,5c-.25,1.08-.53,3.9-.53,3.9l-3.41,6.81a1,1,0,0,0-.08.41,1,1,0,0,0,1,1h2.45v3.62c0,2.76,1.09,4.14,2.69,4.74l9.42-2.79V644.22Zm-8,2.22a1.53,1.53,0,1,1,1.52-1.52A1.53,1.53,0,0,1,152.45,646.44Z"/>
      <path class="cls-3" d="M193.66,650.54l-52.45,15.52,2.46,7.69,50-14.13c0-3.54,0-6.77,0-9.08Z"/>
      <path class="cls-3" d="M144.21,662.63a21.49,21.49,0,0,1,1.65-33.56l-1.83-1.9a24.1,24.1,0,0,0-2.72,36.32Z"/>
      <path class="cls-3" d="M171.24,647.78a3.35,3.35,0,1,0-3.34-3.34A3.35,3.35,0,0,0,171.24,647.78Z"/>
      <path class="cls-3" d="M193.66,648v-1a30.56,30.56,0,0,0-49.8-23.58l0,0,19.06,19.8v13.87Zm-22.42-8.73a5.17,5.17,0,0,1,2.8.83l3.41-3.42,1.3,1.29-3.38,3.38a5.11,5.11,0,0,1,1,3.09,5.17,5.17,0,1,1-5.17-5.17Z"/>
      <path class="cls-3" d="M174.94,671.51c7.68,0,14.71,4.53,18.74,11.81h0s0-11.2,0-21.17l-49.31,13.94c-1.71,2.58-3,5.19-4.6,7.23H156.2c4.11-7.4,11.11-11.81,18.74-11.81Z"/>
      <path class="cls-3" d="M174.94,674c-6.28,0-12.1,3.45-15.82,9.3h31.65C187.1,677.55,181.26,674,174.94,674Z"/>
    </g>
  </g>
  <g>
    <path class="cls-3" d="M262.44,233.22l-8.77-9.11a11.09,11.09,0,0,0-2.81,5c-.25,1.08-.53,3.9-.53,3.9l-3.41,6.81a1,1,0,0,0-.08.41,1,1,0,0,0,1,1h2.45v3.62c0,2.76,1.09,4.14,2.69,4.74l9.42-2.79V233.22Zm-8,2.22a1.53,1.53,0,1,1,1.52-1.52A1.53,1.53,0,0,1,254.45,235.44Z"/>
    <path class="cls-3" d="M295.66,239.54l-52.45,15.52,2.46,7.69,50-14.13c0-3.54,0-6.77,0-9.08Z"/>
    <path class="cls-3" d="M246.21,251.63a21.49,21.49,0,0,1,1.65-33.56l-1.83-1.9a24.1,24.1,0,0,0-2.72,36.32Z"/>
    <path class="cls-3" d="M273.24,236.78a3.35,3.35,0,1,0-3.34-3.34A3.35,3.35,0,0,0,273.24,236.78Z"/>
    <path class="cls-3" d="M295.66,237v-1a30.56,30.56,0,0,0-49.8-23.58l0,0,19.06,19.8v13.87Zm-22.42-8.73a5.17,5.17,0,0,1,2.8.83l3.41-3.42,1.3,1.29-3.38,3.38a5.11,5.11,0,0,1,1,3.09,5.17,5.17,0,1,1-5.17-5.17Z"/>
    <path class="cls-3" d="M276.94,260.51c7.68,0,14.71,4.53,18.74,11.81h0s0-11.2,0-21.17l-49.31,13.94c-1.71,2.58-3,5.19-4.6,7.23H258.2c4.11-7.4,11.11-11.81,18.74-11.81Z"/>
    <path class="cls-3" d="M276.94,263c-6.28,0-12.1,3.45-15.82,9.3h31.65C289.1,266.55,283.26,263,276.94,263Z"/>
  </g>
  <text class="cls-4" transform="translate(240.63 290.38)">Apolo 7</text>
  <g>
    <path d="M305.69,242c1,0-7-23-7-23l-5,6.79-2,9.21,1,9,5,7,9-3Z"/>
    <g>
      <path class="cls-3" d="M316.44,233.22l-8.77-9.11a11.09,11.09,0,0,0-2.81,5c-.25,1.08-.53,3.9-.53,3.9l-3.41,6.81a1,1,0,0,0-.08.41,1,1,0,0,0,1,1h2.45v3.62c0,2.76,1.09,4.14,2.69,4.74l9.42-2.79V233.22Zm-8,2.22a1.53,1.53,0,1,1,1.52-1.52A1.53,1.53,0,0,1,308.45,235.44Z"/>
      <path class="cls-3" d="M349.66,239.54l-52.45,15.52,2.46,7.69,50-14.13c0-3.54,0-6.77,0-9.08Z"/>
      <path class="cls-3" d="M300.21,251.63a21.49,21.49,0,0,1,1.65-33.56l-1.83-1.9a24.1,24.1,0,0,0-2.72,36.32Z"/>
      <path class="cls-3" d="M327.24,236.78a3.35,3.35,0,1,0-3.34-3.34A3.35,3.35,0,0,0,327.24,236.78Z"/>
      <path class="cls-3" d="M349.66,237v-1a30.56,30.56,0,0,0-49.8-23.58l0,0,19.06,19.8v13.87Zm-22.42-8.73a5.17,5.17,0,0,1,2.8.83l3.41-3.42,1.3,1.29-3.38,3.38a5.11,5.11,0,0,1,1,3.09,5.17,5.17,0,1,1-5.17-5.17Z"/>
      <path class="cls-3" d="M330.94,260.51c7.68,0,14.71,4.53,18.74,11.81h0s0-11.2,0-21.17l-49.31,13.94c-1.71,2.58-3,5.19-4.6,7.23H312.2c4.11-7.4,11.11-11.81,18.74-11.81Z"/>
      <path class="cls-3" d="M330.94,263c-6.28,0-12.1,3.45-15.82,9.3h31.65C343.1,266.55,337.26,263,330.94,263Z"/>
    </g>
  </g>
  <g>
    <path d="M359.69,242c1,0-7-23-7-23l-5,6.79-2,9.21,1,9,5,7,9-3Z"/>
    <g>
      <path class="cls-3" d="M370.44,233.22l-8.77-9.11a11.09,11.09,0,0,0-2.81,5c-.25,1.08-.53,3.9-.53,3.9l-3.41,6.81a1,1,0,0,0-.08.41,1,1,0,0,0,1,1h2.45v3.62c0,2.76,1.09,4.14,2.69,4.74l9.42-2.79V233.22Zm-8,2.22a1.53,1.53,0,1,1,1.52-1.52A1.53,1.53,0,0,1,362.45,235.44Z"/>
      <path class="cls-3" d="M403.66,239.54l-52.45,15.52,2.46,7.69,50-14.13c0-3.54,0-6.77,0-9.08Z"/>
      <path class="cls-3" d="M354.21,251.63a21.49,21.49,0,0,1,1.65-33.56l-1.83-1.9a24.1,24.1,0,0,0-2.72,36.32Z"/>
      <path class="cls-3" d="M381.24,236.78a3.35,3.35,0,1,0-3.34-3.34A3.35,3.35,0,0,0,381.24,236.78Z"/>
      <path class="cls-3" d="M403.66,237v-1a30.56,30.56,0,0,0-49.8-23.58l0,0,19.06,19.8v13.87Zm-22.42-8.73a5.17,5.17,0,0,1,2.8.83l3.41-3.42,1.3,1.29-3.38,3.38a5.11,5.11,0,0,1,1,3.09,5.17,5.17,0,1,1-5.17-5.17Z"/>
      <path class="cls-3" d="M384.94,260.51c7.68,0,14.71,4.53,18.74,11.81h0s0-11.2,0-21.17l-49.31,13.94c-1.71,2.58-3,5.19-4.6,7.23H366.2c4.11-7.4,11.11-11.81,18.74-11.81Z"/>
      <path class="cls-3" d="M384.94,263c-6.28,0-12.1,3.45-15.82,9.3h31.65C397.1,266.55,391.26,263,384.94,263Z"/>
    </g>
  </g>
  <g>
    <path class="cls-3" d="M262.44,370.22l-8.77-9.11a11.09,11.09,0,0,0-2.81,5c-.25,1.08-.53,3.9-.53,3.9l-3.41,6.81a1,1,0,0,0-.08.41,1,1,0,0,0,1,1h2.45v3.62c0,2.76,1.09,4.14,2.69,4.74l9.42-2.79V370.22Zm-8,2.22a1.53,1.53,0,1,1,1.52-1.52A1.53,1.53,0,0,1,254.45,372.44Z"/>
    <path class="cls-3" d="M295.66,376.54l-52.45,15.52,2.46,7.69,50-14.13c0-3.54,0-6.77,0-9.08Z"/>
    <path class="cls-3" d="M246.21,388.63a21.49,21.49,0,0,1,1.65-33.56l-1.83-1.9a24.1,24.1,0,0,0-2.72,36.32Z"/>
    <path class="cls-3" d="M273.24,373.78a3.35,3.35,0,1,0-3.34-3.34A3.35,3.35,0,0,0,273.24,373.78Z"/>
    <path class="cls-3" d="M295.66,374v-1a30.56,30.56,0,0,0-49.8-23.58l0,0,19.06,19.8v13.87Zm-22.42-8.73a5.17,5.17,0,0,1,2.8.83l3.41-3.42,1.3,1.29-3.38,3.38a5.11,5.11,0,0,1,1,3.09,5.17,5.17,0,1,1-5.17-5.17Z"/>
    <path class="cls-3" d="M276.94,397.51c7.68,0,14.71,4.53,18.74,11.81h0s0-11.2,0-21.17l-49.31,13.94c-1.71,2.58-3,5.19-4.6,7.23H258.2c4.11-7.4,11.11-11.81,18.74-11.81Z"/>
    <path class="cls-3" d="M276.94,400c-6.28,0-12.1,3.45-15.82,9.3h31.65C289.1,403.55,283.26,400,276.94,400Z"/>
  </g>
  <text class="cls-4" transform="translate(240.63 427.38)">Apolo 10</text>
  <g>
    <path d="M305.69,378c1,0-7-23-7-23l-5,6.79-2,9.21,1,9,5,7,9-3Z"/>
    <g>
      <path class="cls-5" d="M316.44,370.22l-8.77-9.11a11.09,11.09,0,0,0-2.81,5c-.25,1.08-.53,3.9-.53,3.9l-3.41,6.81a1,1,0,0,0-.08.41,1,1,0,0,0,1,1h2.45v3.62c0,2.76,1.09,4.14,2.69,4.74l9.42-2.79V370.22Zm-8,2.22a1.53,1.53,0,1,1,1.52-1.52A1.53,1.53,0,0,1,308.45,372.44Z"/>
      <path class="cls-5" d="M349.66,376.54l-52.45,15.52,2.46,7.69,50-14.13c0-3.54,0-6.77,0-9.08Z"/>
      <path class="cls-5" d="M300.21,388.63a21.49,21.49,0,0,1,1.65-33.56l-1.83-1.9a24.1,24.1,0,0,0-2.72,36.32Z"/>
      <path class="cls-5" d="M327.24,373.78a3.35,3.35,0,1,0-3.34-3.34A3.35,3.35,0,0,0,327.24,373.78Z"/>
      <path class="cls-5" d="M349.66,374v-1a30.56,30.56,0,0,0-49.8-23.58l0,0,19.06,19.8v13.87Zm-22.42-8.73a5.17,5.17,0,0,1,2.8.83l3.41-3.42,1.3,1.29-3.38,3.38a5.11,5.11,0,0,1,1,3.09,5.17,5.17,0,1,1-5.17-5.17Z"/>
      <path class="cls-5" d="M330.94,397.51c7.68,0,14.71,4.53,18.74,11.81h0s0-11.2,0-21.17l-49.31,13.94c-1.71,2.58-3,5.19-4.6,7.23H312.2c4.11-7.4,11.11-11.81,18.74-11.81Z"/>
      <path class="cls-5" d="M330.94,400c-6.28,0-12.1,3.45-15.82,9.3h31.65C343.1,403.55,337.26,400,330.94,400Z"/>
    </g>
  </g>
  <g>
    <path d="M359.69,378c1,0-7-23-7-23l-5,6.79-2,9.21,1,9,5,7,9-3Z"/>
    <g>
      <path class="cls-5" d="M370.44,370.22l-8.77-9.11a11.09,11.09,0,0,0-2.81,5c-.25,1.08-.53,3.9-.53,3.9l-3.41,6.81a1,1,0,0,0-.08.41,1,1,0,0,0,1,1h2.45v3.62c0,2.76,1.09,4.14,2.69,4.74l9.42-2.79V370.22Zm-8,2.22a1.53,1.53,0,1,1,1.52-1.52A1.53,1.53,0,0,1,362.45,372.44Z"/>
      <path class="cls-5" d="M403.66,376.54l-52.45,15.52,2.46,7.69,50-14.13c0-3.54,0-6.77,0-9.08Z"/>
      <path class="cls-5" d="M354.21,388.63a21.49,21.49,0,0,1,1.65-33.56l-1.83-1.9a24.1,24.1,0,0,0-2.72,36.32Z"/>
      <path class="cls-5" d="M381.24,373.78a3.35,3.35,0,1,0-3.34-3.34A3.35,3.35,0,0,0,381.24,373.78Z"/>
      <path class="cls-5" d="M403.66,374v-1a30.56,30.56,0,0,0-49.8-23.58l0,0,19.06,19.8v13.87Zm-22.42-8.73a5.17,5.17,0,0,1,2.8.83l3.41-3.42,1.3,1.29-3.38,3.38a5.11,5.11,0,0,1,1,3.09,5.17,5.17,0,1,1-5.17-5.17Z"/>
      <path class="cls-5" d="M384.94,397.51c7.68,0,14.71,4.53,18.74,11.81h0s0-11.2,0-21.17l-49.31,13.94c-1.71,2.58-3,5.19-4.6,7.23H366.2c4.11-7.4,11.11-11.81,18.74-11.81Z"/>
      <path class="cls-5" d="M384.94,400c-6.28,0-12.1,3.45-15.82,9.3h31.65C397.1,403.55,391.26,400,384.94,400Z"/>
    </g>
  </g>
  <g>
    <g>
      <path class="cls-3" d="M472.44,233.22l-8.77-9.11a11.09,11.09,0,0,0-2.81,5c-.25,1.08-.53,3.9-.53,3.9l-3.41,6.81a1,1,0,0,0-.08.41,1,1,0,0,0,1,1h2.45v3.62c0,2.76,1.09,4.14,2.69,4.74l9.42-2.79V233.22Zm-8,2.22a1.53,1.53,0,1,1,1.52-1.52A1.53,1.53,0,0,1,464.45,235.44Z"/>
      <path class="cls-3" d="M505.66,239.54l-52.45,15.52,2.46,7.69,50-14.13c0-3.54,0-6.77,0-9.08Z"/>
      <path class="cls-3" d="M456.21,251.63a21.49,21.49,0,0,1,1.65-33.56l-1.83-1.9a24.1,24.1,0,0,0-2.72,36.32Z"/>
      <path class="cls-3" d="M483.24,236.78a3.35,3.35,0,1,0-3.34-3.34A3.35,3.35,0,0,0,483.24,236.78Z"/>
      <path class="cls-3" d="M505.66,237v-1a30.56,30.56,0,0,0-49.8-23.58l0,0,19.06,19.8v13.87Zm-22.42-8.73a5.17,5.17,0,0,1,2.8.83l3.41-3.42,1.3,1.29-3.38,3.38a5.11,5.11,0,0,1,1,3.09,5.17,5.17,0,1,1-5.17-5.17Z"/>
      <path class="cls-3" d="M486.94,260.51c7.68,0,14.71,4.53,18.74,11.81h0s0-11.2,0-21.17l-49.31,13.94c-1.71,2.58-3,5.19-4.6,7.23H468.2c4.11-7.4,11.11-11.81,18.74-11.81Z"/>
      <path class="cls-3" d="M486.94,263c-6.28,0-12.1,3.45-15.82,9.3h31.65C499.1,266.55,493.26,263,486.94,263Z"/>
    </g>
    <text class="cls-7" transform="translate(449.63 288.88)">Apolo 8</text>
    <g>
      <path d="M515.69,242c1,0-7-23-7-23l-5,6.79-2,9.21,1,9,5,7,9-3Z"/>
      <g>
        <path class="cls-5" d="M526.44,233.22l-8.77-9.11a11.09,11.09,0,0,0-2.81,5c-.25,1.08-.53,3.9-.53,3.9l-3.41,6.81a1,1,0,0,0-.08.41,1,1,0,0,0,1,1h2.45v3.62c0,2.76,1.09,4.14,2.69,4.74l9.42-2.79V233.22Zm-8,2.22a1.53,1.53,0,1,1,1.52-1.52A1.53,1.53,0,0,1,518.45,235.44Z"/>
        <path class="cls-5" d="M559.66,239.54l-52.45,15.52,2.46,7.69,50-14.13c0-3.54,0-6.77,0-9.08Z"/>
        <path class="cls-5" d="M510.21,251.63a21.49,21.49,0,0,1,1.65-33.56l-1.83-1.9a24.1,24.1,0,0,0-2.72,36.32Z"/>
        <path class="cls-5" d="M537.24,236.78a3.35,3.35,0,1,0-3.34-3.34A3.35,3.35,0,0,0,537.24,236.78Z"/>
        <path class="cls-5" d="M559.66,237v-1a30.56,30.56,0,0,0-49.8-23.58l0,0,19.06,19.8v13.87Zm-22.42-8.73a5.17,5.17,0,0,1,2.8.83l3.41-3.42,1.3,1.29-3.38,3.38a5.11,5.11,0,0,1,1,3.09,5.17,5.17,0,1,1-5.17-5.17Z"/>
        <path class="cls-5" d="M540.94,260.51c7.68,0,14.71,4.53,18.74,11.81h0s0-11.2,0-21.17l-49.31,13.94c-1.71,2.58-3,5.19-4.6,7.23H522.2c4.11-7.4,11.11-11.81,18.74-11.81Z"/>
        <path class="cls-5" d="M540.94,263c-6.28,0-12.1,3.45-15.82,9.3h31.65C553.1,266.55,547.26,263,540.94,263Z"/>
      </g>
    </g>
    <g>
      <path d="M569.69,242c1,0-7-23-7-23l-5,6.79-2,9.21,1,9,5,7,9-3Z"/>
      <g>
        <path class="cls-3" d="M580.44,233.22l-8.77-9.11a11.09,11.09,0,0,0-2.81,5c-.25,1.08-.53,3.9-.53,3.9l-3.41,6.81a1,1,0,0,0-.08.41,1,1,0,0,0,1,1h2.45v3.62c0,2.76,1.09,4.14,2.69,4.74l9.42-2.79V233.22Zm-8,2.22a1.53,1.53,0,1,1,1.52-1.52A1.53,1.53,0,0,1,572.45,235.44Z"/>
        <path class="cls-3" d="M613.66,239.54l-52.45,15.52,2.46,7.69,50-14.13c0-3.54,0-6.77,0-9.08Z"/>
        <path class="cls-3" d="M564.21,251.63a21.49,21.49,0,0,1,1.65-33.56l-1.83-1.9a24.1,24.1,0,0,0-2.72,36.32Z"/>
        <path class="cls-3" d="M591.24,236.78a3.35,3.35,0,1,0-3.34-3.34A3.35,3.35,0,0,0,591.24,236.78Z"/>
        <path class="cls-3" d="M613.66,237v-1a30.56,30.56,0,0,0-49.8-23.58l0,0,19.06,19.8v13.87Zm-22.42-8.73a5.17,5.17,0,0,1,2.8.83l3.41-3.42,1.3,1.29-3.38,3.38a5.11,5.11,0,0,1,1,3.09,5.17,5.17,0,1,1-5.17-5.17Z"/>
        <path class="cls-3" d="M594.94,260.51c7.68,0,14.71,4.53,18.74,11.81h0s0-11.2,0-21.17l-49.31,13.94c-1.71,2.58-3,5.19-4.6,7.23H576.2c4.11-7.4,11.11-11.81,18.74-11.81Z"/>
        <path class="cls-3" d="M594.94,263c-6.28,0-12.1,3.45-15.82,9.3h31.65C607.1,266.55,601.26,263,594.94,263Z"/>
      </g>
    </g>
  </g>
  <g>
    <path class="cls-3" d="M472.44,370.22l-8.77-9.11a11.09,11.09,0,0,0-2.81,5c-.25,1.08-.53,3.9-.53,3.9l-3.41,6.81a1,1,0,0,0-.08.41,1,1,0,0,0,1,1h2.45v3.62c0,2.76,1.09,4.14,2.69,4.74l9.42-2.79V370.22Zm-8,2.22a1.53,1.53,0,1,1,1.52-1.52A1.53,1.53,0,0,1,464.45,372.44Z"/>
    <path class="cls-3" d="M505.66,376.54l-52.45,15.52,2.46,7.69,50-14.13c0-3.54,0-6.77,0-9.08Z"/>
    <path class="cls-3" d="M456.21,388.63a21.49,21.49,0,0,1,1.65-33.56l-1.83-1.9a24.1,24.1,0,0,0-2.72,36.32Z"/>
    <path class="cls-3" d="M483.24,373.78a3.35,3.35,0,1,0-3.34-3.34A3.35,3.35,0,0,0,483.24,373.78Z"/>
    <path class="cls-3" d="M505.66,374v-1a30.56,30.56,0,0,0-49.8-23.58l0,0,19.06,19.8v13.87Zm-22.42-8.73a5.17,5.17,0,0,1,2.8.83l3.41-3.42,1.3,1.29-3.38,3.38a5.11,5.11,0,0,1,1,3.09,5.17,5.17,0,1,1-5.17-5.17Z"/>
    <path class="cls-3" d="M486.94,397.51c7.68,0,14.71,4.53,18.74,11.81h0s0-11.2,0-21.17l-49.31,13.94c-1.71,2.58-3,5.19-4.6,7.23H468.2c4.11-7.4,11.11-11.81,18.74-11.81Z"/>
    <path class="cls-3" d="M486.94,400c-6.28,0-12.1,3.45-15.82,9.3h31.65C499.1,403.55,493.26,400,486.94,400Z"/>
  </g>
  <text class="cls-4" transform="translate(449.63 427.38)">Apolo 11</text>
  <g>
    <path d="M515.69,379c1,0-7-23-7-23l-5,6.79-2,9.21,1,9,5,7,9-3Z"/>
    <g>
      <path class="cls-3" d="M526.44,370.22l-8.77-9.11a11.09,11.09,0,0,0-2.81,5c-.25,1.08-.53,3.9-.53,3.9l-3.41,6.81a1,1,0,0,0-.08.41,1,1,0,0,0,1,1h2.45v3.62c0,2.76,1.09,4.14,2.69,4.74l9.42-2.79V370.22Zm-8,2.22a1.53,1.53,0,1,1,1.52-1.52A1.53,1.53,0,0,1,518.45,372.44Z"/>
      <path class="cls-3" d="M559.66,376.54l-52.45,15.52,2.46,7.69,50-14.13c0-3.54,0-6.77,0-9.08Z"/>
      <path class="cls-3" d="M510.21,388.63a21.49,21.49,0,0,1,1.65-33.56l-1.83-1.9a24.1,24.1,0,0,0-2.72,36.32Z"/>
      <path class="cls-3" d="M537.24,373.78a3.35,3.35,0,1,0-3.34-3.34A3.35,3.35,0,0,0,537.24,373.78Z"/>
      <path class="cls-3" d="M559.66,374v-1a30.56,30.56,0,0,0-49.8-23.58l0,0,19.06,19.8v13.87Zm-22.42-8.73a5.17,5.17,0,0,1,2.8.83l3.41-3.42,1.3,1.29-3.38,3.38a5.11,5.11,0,0,1,1,3.09,5.17,5.17,0,1,1-5.17-5.17Z"/>
      <path class="cls-3" d="M540.94,397.51c7.68,0,14.71,4.53,18.74,11.81h0s0-11.2,0-21.17l-49.31,13.94c-1.71,2.58-3,5.19-4.6,7.23H522.2c4.11-7.4,11.11-11.81,18.74-11.81Z"/>
      <path class="cls-3" d="M540.94,400c-6.28,0-12.1,3.45-15.82,9.3h31.65C553.1,403.55,547.26,400,540.94,400Z"/>
    </g>
  </g>
  <g>
    <path d="M569.69,379c1,0-7-23-7-23l-5,6.79-2,9.21,1,9,5,7,9-3Z"/>
    <g>
      <path class="cls-3" d="M580.44,370.22l-8.77-9.11a11.09,11.09,0,0,0-2.81,5c-.25,1.08-.53,3.9-.53,3.9l-3.41,6.81a1,1,0,0,0-.08.41,1,1,0,0,0,1,1h2.45v3.62c0,2.76,1.09,4.14,2.69,4.74l9.42-2.79V370.22Zm-8,2.22a1.53,1.53,0,1,1,1.52-1.52A1.53,1.53,0,0,1,572.45,372.44Z"/>
      <path class="cls-3" d="M613.66,376.54l-52.45,15.52,2.46,7.69,50-14.13c0-3.54,0-6.77,0-9.08Z"/>
      <path class="cls-3" d="M564.21,388.63a21.49,21.49,0,0,1,1.65-33.56l-1.83-1.9a24.1,24.1,0,0,0-2.72,36.32Z"/>
      <path class="cls-3" d="M591.24,373.78a3.35,3.35,0,1,0-3.34-3.34A3.35,3.35,0,0,0,591.24,373.78Z"/>
      <path class="cls-3" d="M613.66,374v-1a30.56,30.56,0,0,0-49.8-23.58l0,0,19.06,19.8v13.87Zm-22.42-8.73a5.17,5.17,0,0,1,2.8.83l3.41-3.42,1.3,1.29-3.38,3.38a5.11,5.11,0,0,1,1,3.09,5.17,5.17,0,1,1-5.17-5.17Z"/>
      <path class="cls-3" d="M594.94,397.51c7.68,0,14.71,4.53,18.74,11.81h0s0-11.2,0-21.17l-49.31,13.94c-1.71,2.58-3,5.19-4.6,7.23H576.2c4.11-7.4,11.11-11.81,18.74-11.81Z"/>
      <path class="cls-3" d="M594.94,400c-6.28,0-12.1,3.45-15.82,9.3h31.65C607.1,403.55,601.26,400,594.94,400Z"/>
    </g>
  </g>
  <g>
    <path class="cls-6" d="M262.44,507.22l-8.77-9.11a11.09,11.09,0,0,0-2.81,5c-.25,1.08-.53,3.9-.53,3.9l-3.41,6.81a1,1,0,0,0-.08.41,1,1,0,0,0,1,1h2.45v3.62c0,2.76,1.09,4.14,2.69,4.74l9.42-2.79V507.22Zm-8,2.22a1.53,1.53,0,1,1,1.52-1.52A1.53,1.53,0,0,1,254.45,509.44Z"/>
    <path class="cls-6" d="M295.66,513.54l-52.45,15.52,2.46,7.69,50-14.13c0-3.54,0-6.77,0-9.08Z"/>
    <path class="cls-6" d="M246.21,525.63a21.49,21.49,0,0,1,1.65-33.56l-1.83-1.9a24.1,24.1,0,0,0-2.72,36.32Z"/>
    <path class="cls-6" d="M273.24,510.78a3.35,3.35,0,1,0-3.34-3.34A3.35,3.35,0,0,0,273.24,510.78Z"/>
    <path class="cls-6" d="M295.66,511v-1a30.56,30.56,0,0,0-49.8-23.58l0,0,19.06,19.8v13.87Zm-22.42-8.73a5.17,5.17,0,0,1,2.8.83l3.41-3.42,1.3,1.29-3.38,3.38a5.11,5.11,0,0,1,1,3.09,5.17,5.17,0,1,1-5.17-5.17Z"/>
    <path class="cls-6" d="M276.94,534.51c7.68,0,14.71,4.53,18.74,11.81h0s0-11.2,0-21.17l-49.31,13.94c-1.71,2.58-3,5.19-4.6,7.23H258.2c4.11-7.4,11.11-11.81,18.74-11.81Z"/>
    <path class="cls-6" d="M276.94,537c-6.28,0-12.1,3.45-15.82,9.3h31.65C289.1,540.55,283.26,537,276.94,537Z"/>
  </g>
  <text class="cls-4" transform="translate(240.63 564.38)">Apolo 13</text>
  <g>
    <path d="M305.69,516c1,0-7-23-7-23l-5,6.79-2,9.21,1,9,5,7,9-3Z"/>
    <g>
      <path class="cls-3" d="M316.44,507.22l-8.77-9.11a11.09,11.09,0,0,0-2.81,5c-.25,1.08-.53,3.9-.53,3.9l-3.41,6.81a1,1,0,0,0-.08.41,1,1,0,0,0,1,1h2.45v3.62c0,2.76,1.09,4.14,2.69,4.74l9.42-2.79V507.22Zm-8,2.22a1.53,1.53,0,1,1,1.52-1.52A1.53,1.53,0,0,1,308.45,509.44Z"/>
      <path class="cls-3" d="M349.66,513.54l-52.45,15.52,2.46,7.69,50-14.13c0-3.54,0-6.77,0-9.08Z"/>
      <path class="cls-3" d="M300.21,525.63a21.49,21.49,0,0,1,1.65-33.56l-1.83-1.9a24.1,24.1,0,0,0-2.72,36.32Z"/>
      <path class="cls-3" d="M327.24,510.78a3.35,3.35,0,1,0-3.34-3.34A3.35,3.35,0,0,0,327.24,510.78Z"/>
      <path class="cls-3" d="M349.66,511v-1a30.56,30.56,0,0,0-49.8-23.58l0,0,19.06,19.8v13.87Zm-22.42-8.73a5.17,5.17,0,0,1,2.8.83l3.41-3.42,1.3,1.29-3.38,3.38a5.11,5.11,0,0,1,1,3.09,5.17,5.17,0,1,1-5.17-5.17Z"/>
      <path class="cls-3" d="M330.94,534.51c7.68,0,14.71,4.53,18.74,11.81h0s0-11.2,0-21.17l-49.31,13.94c-1.71,2.58-3,5.19-4.6,7.23H312.2c4.11-7.4,11.11-11.81,18.74-11.81Z"/>
      <path class="cls-3" d="M330.94,537c-6.28,0-12.1,3.45-15.82,9.3h31.65C343.1,540.55,337.26,537,330.94,537Z"/>
    </g>
  </g>
  <g>
    <path d="M359.69,516c1,0-7-23-7-23l-5,6.79-2,9.21,1,9,5,7,9-3Z"/>
    <g>
      <path class="cls-3" d="M370.44,507.22l-8.77-9.11a11.09,11.09,0,0,0-2.81,5c-.25,1.08-.53,3.9-.53,3.9l-3.41,6.81a1,1,0,0,0-.08.41,1,1,0,0,0,1,1h2.45v3.62c0,2.76,1.09,4.14,2.69,4.74l9.42-2.79V507.22Zm-8,2.22a1.53,1.53,0,1,1,1.52-1.52A1.53,1.53,0,0,1,362.45,509.44Z"/>
      <path class="cls-3" d="M403.66,513.54l-52.45,15.52,2.46,7.69,50-14.13c0-3.54,0-6.77,0-9.08Z"/>
      <path class="cls-3" d="M354.21,525.63a21.49,21.49,0,0,1,1.65-33.56l-1.83-1.9a24.1,24.1,0,0,0-2.72,36.32Z"/>
      <path class="cls-3" d="M381.24,510.78a3.35,3.35,0,1,0-3.34-3.34A3.35,3.35,0,0,0,381.24,510.78Z"/>
      <path class="cls-3" d="M403.66,511v-1a30.56,30.56,0,0,0-49.8-23.58l0,0,19.06,19.8v13.87Zm-22.42-8.73a5.17,5.17,0,0,1,2.8.83l3.41-3.42,1.3,1.29-3.38,3.38a5.11,5.11,0,0,1,1,3.09,5.17,5.17,0,1,1-5.17-5.17Z"/>
      <path class="cls-3" d="M384.94,534.51c7.68,0,14.71,4.53,18.74,11.81h0s0-11.2,0-21.17l-49.31,13.94c-1.71,2.58-3,5.19-4.6,7.23H366.2c4.11-7.4,11.11-11.81,18.74-11.81Z"/>
      <path class="cls-3" d="M384.94,537c-6.28,0-12.1,3.45-15.82,9.3h31.65C397.1,540.55,391.26,537,384.94,537Z"/>
    </g>
  </g>
  <g>
    <path class="cls-3" d="M472.44,507.22l-8.77-9.11a11.09,11.09,0,0,0-2.81,5c-.25,1.08-.53,3.9-.53,3.9l-3.41,6.81a1,1,0,0,0-.08.41,1,1,0,0,0,1,1h2.45v3.62c0,2.76,1.09,4.14,2.69,4.74l9.42-2.79V507.22Zm-8,2.22a1.53,1.53,0,1,1,1.52-1.52A1.53,1.53,0,0,1,464.45,509.44Z"/>
    <path class="cls-3" d="M505.66,513.54l-52.45,15.52,2.46,7.69,50-14.13c0-3.54,0-6.77,0-9.08Z"/>
    <path class="cls-3" d="M456.21,525.63a21.49,21.49,0,0,1,1.65-33.56l-1.83-1.9a24.1,24.1,0,0,0-2.72,36.32Z"/>
    <path class="cls-3" d="M483.24,510.78a3.35,3.35,0,1,0-3.34-3.34A3.35,3.35,0,0,0,483.24,510.78Z"/>
    <path class="cls-3" d="M505.66,511v-1a30.56,30.56,0,0,0-49.8-23.58l0,0,19.06,19.8v13.87Zm-22.42-8.73a5.17,5.17,0,0,1,2.8.83l3.41-3.42,1.3,1.29-3.38,3.38a5.11,5.11,0,0,1,1,3.09,5.17,5.17,0,1,1-5.17-5.17Z"/>
    <path class="cls-3" d="M486.94,534.51c7.68,0,14.71,4.53,18.74,11.81h0s0-11.2,0-21.17l-49.31,13.94c-1.71,2.58-3,5.19-4.6,7.23H468.2c4.11-7.4,11.11-11.81,18.74-11.81Z"/>
    <path class="cls-3" d="M486.94,537c-6.28,0-12.1,3.45-15.82,9.3h31.65C499.1,540.55,493.26,537,486.94,537Z"/>
  </g>
  <text class="cls-4" transform="translate(449.63 564.38)">Apolo 14</text>
  <g>
    <path d="M515.69,516c1,0-7-23-7-23l-5,6.79-2,9.21,1,9,5,7,9-3Z"/>
    <g>
      <path class="cls-3" d="M526.44,507.22l-8.77-9.11a11.09,11.09,0,0,0-2.81,5c-.25,1.08-.53,3.9-.53,3.9l-3.41,6.81a1,1,0,0,0-.08.41,1,1,0,0,0,1,1h2.45v3.62c0,2.76,1.09,4.14,2.69,4.74l9.42-2.79V507.22Zm-8,2.22a1.53,1.53,0,1,1,1.52-1.52A1.53,1.53,0,0,1,518.45,509.44Z"/>
      <path class="cls-3" d="M559.66,513.54l-52.45,15.52,2.46,7.69,50-14.13c0-3.54,0-6.77,0-9.08Z"/>
      <path class="cls-3" d="M510.21,525.63a21.49,21.49,0,0,1,1.65-33.56l-1.83-1.9a24.1,24.1,0,0,0-2.72,36.32Z"/>
      <path class="cls-3" d="M537.24,510.78a3.35,3.35,0,1,0-3.34-3.34A3.35,3.35,0,0,0,537.24,510.78Z"/>
      <path class="cls-3" d="M559.66,511v-1a30.56,30.56,0,0,0-49.8-23.58l0,0,19.06,19.8v13.87Zm-22.42-8.73a5.17,5.17,0,0,1,2.8.83l3.41-3.42,1.3,1.29-3.38,3.38a5.11,5.11,0,0,1,1,3.09,5.17,5.17,0,1,1-5.17-5.17Z"/>
      <path class="cls-3" d="M540.94,534.51c7.68,0,14.71,4.53,18.74,11.81h0s0-11.2,0-21.17l-49.31,13.94c-1.71,2.58-3,5.19-4.6,7.23H522.2c4.11-7.4,11.11-11.81,18.74-11.81Z"/>
      <path class="cls-3" d="M540.94,537c-6.28,0-12.1,3.45-15.82,9.3h31.65C553.1,540.55,547.26,537,540.94,537Z"/>
    </g>
  </g>
  <g>
    <path d="M569.69,516c1,0-7-23-7-23l-5,6.79-2,9.21,1,9,5,7,9-3Z"/>
    <g>
      <path class="cls-3" d="M580.44,507.22l-8.77-9.11a11.09,11.09,0,0,0-2.81,5c-.25,1.08-.53,3.9-.53,3.9l-3.41,6.81a1,1,0,0,0-.08.41,1,1,0,0,0,1,1h2.45v3.62c0,2.76,1.09,4.14,2.69,4.74l9.42-2.79V507.22Zm-8,2.22a1.53,1.53,0,1,1,1.52-1.52A1.53,1.53,0,0,1,572.45,509.44Z"/>
      <path class="cls-3" d="M613.66,513.54l-52.45,15.52,2.46,7.69,50-14.13c0-3.54,0-6.77,0-9.08Z"/>
      <path class="cls-3" d="M564.21,525.63a21.49,21.49,0,0,1,1.65-33.56l-1.83-1.9a24.1,24.1,0,0,0-2.72,36.32Z"/>
      <path class="cls-3" d="M591.24,510.78a3.35,3.35,0,1,0-3.34-3.34A3.35,3.35,0,0,0,591.24,510.78Z"/>
      <path class="cls-3" d="M613.66,511v-1a30.56,30.56,0,0,0-49.8-23.58l0,0,19.06,19.8v13.87Zm-22.42-8.73a5.17,5.17,0,0,1,2.8.83l3.41-3.42,1.3,1.29-3.38,3.38a5.11,5.11,0,0,1,1,3.09,5.17,5.17,0,1,1-5.17-5.17Z"/>
      <path class="cls-3" d="M594.94,534.51c7.68,0,14.71,4.53,18.74,11.81h0s0-11.2,0-21.17l-49.31,13.94c-1.71,2.58-3,5.19-4.6,7.23H576.2c4.11-7.4,11.11-11.81,18.74-11.81Z"/>
      <path class="cls-3" d="M594.94,537c-6.28,0-12.1,3.45-15.82,9.3h31.65C607.1,540.55,601.26,537,594.94,537Z"/>
    </g>
  </g>
  <g>
    <path class="cls-6" d="M262.44,644.22l-8.77-9.11a11.09,11.09,0,0,0-2.81,5c-.25,1.08-.53,3.9-.53,3.9l-3.41,6.81a1,1,0,0,0-.08.41,1,1,0,0,0,1,1h2.45v3.62c0,2.76,1.09,4.14,2.69,4.74l9.42-2.79V644.22Zm-8,2.22a1.53,1.53,0,1,1,1.52-1.52A1.53,1.53,0,0,1,254.45,646.44Z"/>
    <path class="cls-6" d="M295.66,650.54l-52.45,15.52,2.46,7.69,50-14.13c0-3.54,0-6.77,0-9.08Z"/>
    <path class="cls-6" d="M246.21,662.63a21.49,21.49,0,0,1,1.65-33.56l-1.83-1.9a24.1,24.1,0,0,0-2.72,36.32Z"/>
    <path class="cls-6" d="M273.24,647.78a3.35,3.35,0,1,0-3.34-3.34A3.35,3.35,0,0,0,273.24,647.78Z"/>
    <path class="cls-6" d="M295.66,648v-1a30.56,30.56,0,0,0-49.8-23.58l0,0,19.06,19.8v13.87Zm-22.42-8.73a5.17,5.17,0,0,1,2.8.83l3.41-3.42,1.3,1.29-3.38,3.38a5.11,5.11,0,0,1,1,3.09,5.17,5.17,0,1,1-5.17-5.17Z"/>
    <path class="cls-6" d="M276.94,671.51c7.68,0,14.71,4.53,18.74,11.81h0s0-11.2,0-21.17l-49.31,13.94c-1.71,2.58-3,5.19-4.6,7.23H258.2c4.11-7.4,11.11-11.81,18.74-11.81Z"/>
    <path class="cls-6" d="M276.94,674c-6.28,0-12.1,3.45-15.82,9.3h31.65C289.1,677.55,283.26,674,276.94,674Z"/>
  </g>
  <text class="cls-4" transform="translate(240.63 701.38)">Apolo 16</text>
  <g>
    <path d="M305.69,653c1,0-7-23-7-23l-5,6.79-2,9.21,1,9,5,7,9-3Z"/>
    <g>
      <path class="cls-3" d="M316.44,644.22l-8.77-9.11a11.09,11.09,0,0,0-2.81,5c-.25,1.08-.53,3.9-.53,3.9l-3.41,6.81a1,1,0,0,0-.08.41,1,1,0,0,0,1,1h2.45v3.62c0,2.76,1.09,4.14,2.69,4.74l9.42-2.79V644.22Zm-8,2.22a1.53,1.53,0,1,1,1.52-1.52A1.53,1.53,0,0,1,308.45,646.44Z"/>
      <path class="cls-3" d="M349.66,650.54l-52.45,15.52,2.46,7.69,50-14.13c0-3.54,0-6.77,0-9.08Z"/>
      <path class="cls-3" d="M300.21,662.63a21.49,21.49,0,0,1,1.65-33.56l-1.83-1.9a24.1,24.1,0,0,0-2.72,36.32Z"/>
      <path class="cls-3" d="M327.24,647.78a3.35,3.35,0,1,0-3.34-3.34A3.35,3.35,0,0,0,327.24,647.78Z"/>
      <path class="cls-3" d="M349.66,648v-1a30.56,30.56,0,0,0-49.8-23.58l0,0,19.06,19.8v13.87Zm-22.42-8.73a5.17,5.17,0,0,1,2.8.83l3.41-3.42,1.3,1.29-3.38,3.38a5.11,5.11,0,0,1,1,3.09,5.17,5.17,0,1,1-5.17-5.17Z"/>
      <path class="cls-3" d="M330.94,671.51c7.68,0,14.71,4.53,18.74,11.81h0s0-11.2,0-21.17l-49.31,13.94c-1.71,2.58-3,5.19-4.6,7.23H312.2c4.11-7.4,11.11-11.81,18.74-11.81Z"/>
      <path class="cls-3" d="M330.94,674c-6.28,0-12.1,3.45-15.82,9.3h31.65C343.1,677.55,337.26,674,330.94,674Z"/>
    </g>
  </g>
  <g>
    <path d="M359.69,653c1,0-7-23-7-23l-5,6.79-2,9.21,1,9,5,7,9-3Z"/>
    <g>
      <path class="cls-3" d="M370.44,644.22l-8.77-9.11a11.09,11.09,0,0,0-2.81,5c-.25,1.08-.53,3.9-.53,3.9l-3.41,6.81a1,1,0,0,0-.08.41,1,1,0,0,0,1,1h2.45v3.62c0,2.76,1.09,4.14,2.69,4.74l9.42-2.79V644.22Zm-8,2.22a1.53,1.53,0,1,1,1.52-1.52A1.53,1.53,0,0,1,362.45,646.44Z"/>
      <path class="cls-3" d="M403.66,650.54l-52.45,15.52,2.46,7.69,50-14.13c0-3.54,0-6.77,0-9.08Z"/>
      <path class="cls-3" d="M354.21,662.63a21.49,21.49,0,0,1,1.65-33.56l-1.83-1.9a24.1,24.1,0,0,0-2.72,36.32Z"/>
      <path class="cls-3" d="M381.24,647.78a3.35,3.35,0,1,0-3.34-3.34A3.35,3.35,0,0,0,381.24,647.78Z"/>
      <path class="cls-3" d="M403.66,648v-1a30.56,30.56,0,0,0-49.8-23.58l0,0,19.06,19.8v13.87Zm-22.42-8.73a5.17,5.17,0,0,1,2.8.83l3.41-3.42,1.3,1.29-3.38,3.38a5.11,5.11,0,0,1,1,3.09,5.17,5.17,0,1,1-5.17-5.17Z"/>
      <path class="cls-3" d="M384.94,671.51c7.68,0,14.71,4.53,18.74,11.81h0s0-11.2,0-21.17l-49.31,13.94c-1.71,2.58-3,5.19-4.6,7.23H366.2c4.11-7.4,11.11-11.81,18.74-11.81Z"/>
      <path class="cls-3" d="M384.94,674c-6.28,0-12.1,3.45-15.82,9.3h31.65C397.1,677.55,391.26,674,384.94,674Z"/>
    </g>
  </g>
  <g>
    <path class="cls-6" d="M472.44,644.22l-8.77-9.11a11.09,11.09,0,0,0-2.81,5c-.25,1.08-.53,3.9-.53,3.9l-3.41,6.81a1,1,0,0,0-.08.41,1,1,0,0,0,1,1h2.45v3.62c0,2.76,1.09,4.14,2.69,4.74l9.42-2.79V644.22Zm-8,2.22a1.53,1.53,0,1,1,1.52-1.52A1.53,1.53,0,0,1,464.45,646.44Z"/>
    <path class="cls-6" d="M505.66,650.54l-52.45,15.52,2.46,7.69,50-14.13c0-3.54,0-6.77,0-9.08Z"/>
    <path class="cls-6" d="M456.21,662.63a21.49,21.49,0,0,1,1.65-33.56l-1.83-1.9a24.1,24.1,0,0,0-2.72,36.32Z"/>
    <path class="cls-6" d="M483.24,647.78a3.35,3.35,0,1,0-3.34-3.34A3.35,3.35,0,0,0,483.24,647.78Z"/>
    <path class="cls-6" d="M505.66,648v-1a30.56,30.56,0,0,0-49.8-23.58l0,0,19.06,19.8v13.87Zm-22.42-8.73a5.17,5.17,0,0,1,2.8.83l3.41-3.42,1.3,1.29-3.38,3.38a5.11,5.11,0,0,1,1,3.09,5.17,5.17,0,1,1-5.17-5.17Z"/>
    <path class="cls-6" d="M486.94,671.51c7.68,0,14.71,4.53,18.74,11.81h0s0-11.2,0-21.17l-49.31,13.94c-1.71,2.58-3,5.19-4.6,7.23H468.2c4.11-7.4,11.11-11.81,18.74-11.81Z"/>
    <path class="cls-6" d="M486.94,674c-6.28,0-12.1,3.45-15.82,9.3h31.65C499.1,677.55,493.26,674,486.94,674Z"/>
  </g>
  <text class="cls-4" transform="translate(449.63 701.38)">Apolo 17</text>
  <g>
    <path d="M515.69,653c1,0-7-23-7-23l-5,6.79-2,9.21,1,9,5,7,9-3Z"/>
    <g>
      <path class="cls-3" d="M526.44,644.22l-8.77-9.11a11.09,11.09,0,0,0-2.81,5c-.25,1.08-.53,3.9-.53,3.9l-3.41,6.81a1,1,0,0,0-.08.41,1,1,0,0,0,1,1h2.45v3.62c0,2.76,1.09,4.14,2.69,4.74l9.42-2.79V644.22Zm-8,2.22a1.53,1.53,0,1,1,1.52-1.52A1.53,1.53,0,0,1,518.45,646.44Z"/>
      <path class="cls-3" d="M559.66,650.54l-52.45,15.52,2.46,7.69,50-14.13c0-3.54,0-6.77,0-9.08Z"/>
      <path class="cls-3" d="M510.21,662.63a21.49,21.49,0,0,1,1.65-33.56l-1.83-1.9a24.1,24.1,0,0,0-2.72,36.32Z"/>
      <path class="cls-3" d="M537.24,647.78a3.35,3.35,0,1,0-3.34-3.34A3.35,3.35,0,0,0,537.24,647.78Z"/>
      <path class="cls-3" d="M559.66,648v-1a30.56,30.56,0,0,0-49.8-23.58l0,0,19.06,19.8v13.87Zm-22.42-8.73a5.17,5.17,0,0,1,2.8.83l3.41-3.42,1.3,1.29-3.38,3.38a5.11,5.11,0,0,1,1,3.09,5.17,5.17,0,1,1-5.17-5.17Z"/>
      <path class="cls-3" d="M540.94,671.51c7.68,0,14.71,4.53,18.74,11.81h0s0-11.2,0-21.17l-49.31,13.94c-1.71,2.58-3,5.19-4.6,7.23H522.2c4.11-7.4,11.11-11.81,18.74-11.81Z"/>
      <path class="cls-3" d="M540.94,674c-6.28,0-12.1,3.45-15.82,9.3h31.65C553.1,677.55,547.26,674,540.94,674Z"/>
    </g>
  </g>
  <g>
    <path d="M569.69,653c1,0-7-23-7-23l-5,6.79-2,9.21,1,9,5,7,9-3Z"/>
    <g>
      <path class="cls-3" d="M580.44,644.22l-8.77-9.11a11.09,11.09,0,0,0-2.81,5c-.25,1.08-.53,3.9-.53,3.9l-3.41,6.81a1,1,0,0,0-.08.41,1,1,0,0,0,1,1h2.45v3.62c0,2.76,1.09,4.14,2.69,4.74l9.42-2.79V644.22Zm-8,2.22a1.53,1.53,0,1,1,1.52-1.52A1.53,1.53,0,0,1,572.45,646.44Z"/>
      <path class="cls-3" d="M613.66,650.54l-52.45,15.52,2.46,7.69,50-14.13c0-3.54,0-6.77,0-9.08Z"/>
      <path class="cls-3" d="M564.21,662.63a21.49,21.49,0,0,1,1.65-33.56l-1.83-1.9a24.1,24.1,0,0,0-2.72,36.32Z"/>
      <path class="cls-3" d="M591.24,647.78a3.35,3.35,0,1,0-3.34-3.34A3.35,3.35,0,0,0,591.24,647.78Z"/>
      <path class="cls-3" d="M613.66,648v-1a30.56,30.56,0,0,0-49.8-23.58l0,0,19.06,19.8v13.87Zm-22.42-8.73a5.17,5.17,0,0,1,2.8.83l3.41-3.42,1.3,1.29-3.38,3.38a5.11,5.11,0,0,1,1,3.09,5.17,5.17,0,1,1-5.17-5.17Z"/>
      <path class="cls-3" d="M594.94,671.51c7.68,0,14.71,4.53,18.74,11.81h0s0-11.2,0-21.17l-49.31,13.94c-1.71,2.58-3,5.19-4.6,7.23H576.2c4.11-7.4,11.11-11.81,18.74-11.81Z"/>
      <path class="cls-3" d="M594.94,674c-6.28,0-12.1,3.45-15.82,9.3h31.65C607.1,677.55,601.26,674,594.94,674Z"/>
    </g>
  </g>
  <text class="cls-4" transform="translate(78.82 84.38)">No sob<tspan class="cls-8" x="44.49" y="0">r</tspan><tspan class="cls-9" x="49.1" y="0">e</tspan><tspan x="56.42" y="0">vivie</tspan><tspan class="cls-10" x="84.2" y="0">r</tspan><tspan x="88.8" y="0">on</tspan></text>
  <rect class="cls-1" x="43" y="68" width="23" height="23"/>
  <text class="cls-4" transform="translate(288.82 85.21)">Sob<tspan class="cls-8" x="24.14" y="0">r</tspan><tspan class="cls-9" x="28.75" y="0">e</tspan><tspan x="36.08" y="0">vivie</tspan><tspan class="cls-10" x="63.85" y="0">r</tspan><tspan x="68.46" y="0">on</tspan></text>
  <rect class="cls-3" x="253" y="68" width="23" height="23"/>
  <text class="cls-4" transform="translate(499.38 86.38)"><tspan class="cls-11">V</tspan><tspan x="8.59" y="0">olvie</tspan><tspan class="cls-10" x="37.57" y="0">r</tspan><tspan x="42.17" y="0">on a viajar</tspan></text>
  <rect class="cls-5" x="463.56" y="70" width="23" height="23"/>
  <text class="cls-4" transform="translate(498.82 119.88)">Dónde <tspan class="cls-12" x="43.67" y="0">v</tspan><tspan x="50.35" y="0">olvie</tspan><tspan class="cls-10" x="79.32" y="0">r</tspan><tspan x="83.92" y="0">on </tspan><tspan x="0" y="16.8">a viajar</tspan></text>
  <rect class="cls-6" x="463.5" y="111.5" width="23" height="23"/>
</svg>
