<svg id="Capa_1" data-name="Capa 1" xmlns="http://www.w3.org/2000/svg" viewBox="0 0 640 649">
  <defs>
    <style>
      .cls-1, .cls-2 {
        fill: #6b6b6b;
      }

      .cls-2, .cls-4 {
        font-size: 14px;
      }

      .cls-2, .cls-4, .cls-7 {
        font-family: Roboto-Regular, Roboto;
      }

      .cls-3, .cls-4, .cls-7 {
        fill: #fff;
      }

      .cls-5 {
        fill: #ff8327;
      }

      .cls-6 {
        fill: none;
        stroke: #ff8327;
        stroke-miterlimit: 10;
      }

      .cls-7 {
        font-size: 12px;
      }

      .cls-8 {
        letter-spacing: -0.01em;
      }

      .cls-9 {
        letter-spacing: -0.01em;
      }

      .cls-10 {
        letter-spacing: -0.01em;
      }

      .cls-11 {
        letter-spacing: -0.02em;
      }

      .cls-12 {
        letter-spacing: -0.01em;
      }
    </style>
  </defs>
  <title>tp_w</title>
  <g>
    <path class="cls-1" d="M85.66,177.54,33.21,193.06l2.46,7.69,50-14.13c0-3.54,0-6.77,0-9.08Z"/>
    <path class="cls-1" d="M36.21,189.63a21.49,21.49,0,0,1,1.65-33.56L36,154.17a24.1,24.1,0,0,0-2.72,36.32Z"/>
    <path class="cls-1" d="M63.24,174.78a3.35,3.35,0,1,0-3.34-3.34A3.35,3.35,0,0,0,63.24,174.78Z"/>
    <path class="cls-1" d="M85.66,175v-1a30.56,30.56,0,0,0-49.8-23.58l0,0,19.06,19.8v13.87Zm-22.42-8.73a5.17,5.17,0,0,1,2.8.83l3.41-3.42,1.3,1.29-3.38,3.38a5.11,5.11,0,0,1,1,3.09,5.17,5.17,0,1,1-5.17-5.17Z"/>
    <path class="cls-1" d="M66.94,198.51c7.68,0,14.71,4.53,18.74,11.81h0s0-11.2,0-21.17L36.36,203.09c-1.71,2.58-3,5.19-4.6,7.23H48.2c4.11-7.4,11.11-11.81,18.74-11.81Z"/>
    <path class="cls-1" d="M66.94,201c-6.28,0-12.1,3.45-15.82,9.3H82.77C79.1,204.55,73.26,201,66.94,201Z"/>
  </g>
  <text class="cls-2" transform="translate(29.63 228.38)">Apolo 1</text>
  <g>
    <path d="M95.69,180c1,0-7-23-7-23l-5,6.79-2,9.21,1,9,5,7,9-3Z"/>
    <path class="cls-1" d="M139.66,177.54,87.21,193.06l2.46,7.69,50-14.13c0-3.54,0-6.77,0-9.08Z"/>
    <path class="cls-1" d="M90.21,189.63a21.49,21.49,0,0,1,1.65-33.56L90,154.17a24.1,24.1,0,0,0-2.72,36.32Z"/>
    <path class="cls-1" d="M117.24,174.78a3.35,3.35,0,1,0-3.34-3.34A3.35,3.35,0,0,0,117.24,174.78Z"/>
    <path class="cls-1" d="M139.66,175v-1a30.56,30.56,0,0,0-49.8-23.58l0,0,19.06,19.8v13.87Zm-22.42-8.73a5.17,5.17,0,0,1,2.8.83l3.41-3.42,1.3,1.29-3.38,3.38a5.11,5.11,0,0,1,1,3.09,5.17,5.17,0,1,1-5.17-5.17Z"/>
    <path class="cls-1" d="M120.94,198.51c7.68,0,14.71,4.53,18.74,11.81h0s0-11.2,0-21.17L90.36,203.09c-1.71,2.58-3,5.19-4.6,7.23H102.2c4.11-7.4,11.11-11.81,18.74-11.81Z"/>
    <path class="cls-1" d="M120.94,201c-6.28,0-12.1,3.45-15.82,9.3h31.65C133.1,204.55,127.26,201,120.94,201Z"/>
  </g>
  <g>
    <path d="M149.69,180c1,0-7-23-7-23l-5,6.79-2,9.21,1,9,5,7,9-3Z"/>
    <g>
      <path class="cls-1" d="M193.66,177.54l-52.45,15.52,2.46,7.69,50-14.13c0-3.54,0-6.77,0-9.08Z"/>
      <path class="cls-1" d="M144.21,189.63a21.49,21.49,0,0,1,1.65-33.56l-1.83-1.9a24.1,24.1,0,0,0-2.72,36.32Z"/>
      <path class="cls-1" d="M171.24,174.78a3.35,3.35,0,1,0-3.34-3.34A3.35,3.35,0,0,0,171.24,174.78Z"/>
      <path class="cls-1" d="M193.66,175v-1a30.56,30.56,0,0,0-49.8-23.58l0,0,19.06,19.8v13.87Zm-22.42-8.73a5.17,5.17,0,0,1,2.8.83l3.41-3.42,1.3,1.29-3.38,3.38a5.11,5.11,0,0,1,1,3.09,5.17,5.17,0,1,1-5.17-5.17Z"/>
      <path class="cls-1" d="M174.94,198.51c7.68,0,14.71,4.53,18.74,11.81h0s0-11.2,0-21.17l-49.31,13.94c-1.71,2.58-3,5.19-4.6,7.23H156.2c4.11-7.4,11.11-11.81,18.74-11.81Z"/>
      <path class="cls-1" d="M174.94,201c-6.28,0-12.1,3.45-15.82,9.3h31.65C187.1,204.55,181.26,201,174.94,201Z"/>
    </g>
  </g>
  <g>
    <path class="cls-3" d="M52.44,308.22l-8.77-9.11a11.09,11.09,0,0,0-2.81,5c-.25,1.08-.53,3.9-.53,3.9l-3.41,6.81a1,1,0,0,0-.08.41,1,1,0,0,0,1,1h2.45v3.62c0,2.76,1.09,4.14,2.69,4.74l9.42-2.79V308.22Zm-8,2.22A1.53,1.53,0,1,1,46,308.92,1.53,1.53,0,0,1,44.45,310.44Z"/>
    <path class="cls-3" d="M85.66,314.54,33.21,330.06l2.46,7.69,50-14.13c0-3.54,0-6.77,0-9.08Z"/>
    <path class="cls-3" d="M36.21,326.63a21.49,21.49,0,0,1,1.65-33.56L36,291.17a24.1,24.1,0,0,0-2.72,36.32Z"/>
    <path class="cls-3" d="M63.24,311.78a3.35,3.35,0,1,0-3.34-3.34A3.35,3.35,0,0,0,63.24,311.78Z"/>
    <path class="cls-3" d="M85.66,312v-1a30.56,30.56,0,0,0-49.8-23.58l0,0,19.06,19.8v13.87Zm-22.42-8.73a5.17,5.17,0,0,1,2.8.83l3.41-3.42,1.3,1.29-3.38,3.38a5.11,5.11,0,0,1,1,3.09,5.17,5.17,0,1,1-5.17-5.17Z"/>
    <path class="cls-3" d="M66.94,335.51c7.68,0,14.71,4.53,18.74,11.81h0s0-11.2,0-21.17L36.36,340.09c-1.71,2.58-3,5.19-4.6,7.23H48.2c4.11-7.4,11.11-11.81,18.74-11.81Z"/>
    <path class="cls-3" d="M66.94,338c-6.28,0-12.1,3.45-15.82,9.3H82.77C79.1,341.55,73.26,338,66.94,338Z"/>
  </g>
  <text class="cls-4" transform="translate(29.63 365.38)">Apolo 9</text>
  <g>
    <path d="M95.69,316c1,0-7-23-7-23l-5,6.79-2,9.21,1,9,5,7,9-3Z"/>
    <g>
      <path class="cls-5" d="M106.44,308.22l-8.77-9.11a11.09,11.09,0,0,0-2.81,5c-.25,1.08-.53,3.9-.53,3.9l-3.41,6.81a1,1,0,0,0-.08.41,1,1,0,0,0,1,1h2.45v3.62c0,2.76,1.09,4.14,2.69,4.74l9.42-2.79V308.22Zm-8,2.22a1.53,1.53,0,1,1,1.52-1.52A1.53,1.53,0,0,1,98.45,310.44Z"/>
      <path class="cls-5" d="M139.66,314.54,87.21,330.06l2.46,7.69,50-14.13c0-3.54,0-6.77,0-9.08Z"/>
      <path class="cls-5" d="M90.21,326.63a21.49,21.49,0,0,1,1.65-33.56L90,291.17a24.1,24.1,0,0,0-2.72,36.32Z"/>
      <path class="cls-5" d="M117.24,311.78a3.35,3.35,0,1,0-3.34-3.34A3.35,3.35,0,0,0,117.24,311.78Z"/>
      <path class="cls-5" d="M139.66,312v-1a30.56,30.56,0,0,0-49.8-23.58l0,0,19.06,19.8v13.87Zm-22.42-8.73a5.17,5.17,0,0,1,2.8.83l3.41-3.42,1.3,1.29-3.38,3.38a5.11,5.11,0,0,1,1,3.09,5.17,5.17,0,1,1-5.17-5.17Z"/>
      <path class="cls-5" d="M120.94,335.51c7.68,0,14.71,4.53,18.74,11.81h0s0-11.2,0-21.17L90.36,340.09c-1.71,2.58-3,5.19-4.6,7.23H102.2c4.11-7.4,11.11-11.81,18.74-11.81Z"/>
      <path class="cls-5" d="M120.94,338c-6.28,0-12.1,3.45-15.82,9.3h31.65C133.1,341.55,127.26,338,120.94,338Z"/>
    </g>
  </g>
  <g>
    <path d="M149.69,316c1,0-7-23-7-23l-5,6.79-2,9.21,1,9,5,7,9-3Z"/>
    <g>
      <path class="cls-3" d="M160.44,308.22l-8.77-9.11a11.09,11.09,0,0,0-2.81,5c-.25,1.08-.53,3.9-.53,3.9l-3.41,6.81a1,1,0,0,0-.08.41,1,1,0,0,0,1,1h2.45v3.62c0,2.76,1.09,4.14,2.69,4.74l9.42-2.79V308.22Zm-8,2.22a1.53,1.53,0,1,1,1.52-1.52A1.53,1.53,0,0,1,152.45,310.44Z"/>
      <path class="cls-3" d="M193.66,314.54l-52.45,15.52,2.46,7.69,50-14.13c0-3.54,0-6.77,0-9.08Z"/>
      <path class="cls-3" d="M144.21,326.63a21.49,21.49,0,0,1,1.65-33.56l-1.83-1.9a24.1,24.1,0,0,0-2.72,36.32Z"/>
      <path class="cls-3" d="M171.24,311.78a3.35,3.35,0,1,0-3.34-3.34A3.35,3.35,0,0,0,171.24,311.78Z"/>
      <path class="cls-3" d="M193.66,312v-1a30.56,30.56,0,0,0-49.8-23.58l0,0,19.06,19.8v13.87Zm-22.42-8.73a5.17,5.17,0,0,1,2.8.83l3.41-3.42,1.3,1.29-3.38,3.38a5.11,5.11,0,0,1,1,3.09,5.17,5.17,0,1,1-5.17-5.17Z"/>
      <path class="cls-3" d="M174.94,335.51c7.68,0,14.71,4.53,18.74,11.81h0s0-11.2,0-21.17l-49.31,13.94c-1.71,2.58-3,5.19-4.6,7.23H156.2c4.11-7.4,11.11-11.81,18.74-11.81Z"/>
      <path class="cls-3" d="M174.94,338c-6.28,0-12.1,3.45-15.82,9.3h31.65C187.1,341.55,181.26,338,174.94,338Z"/>
    </g>
  </g>
  <g>
    <path class="cls-3" d="M52.44,445.22l-8.77-9.11a11.09,11.09,0,0,0-2.81,5c-.25,1.08-.53,3.9-.53,3.9l-3.41,6.81a1,1,0,0,0-.08.41,1,1,0,0,0,1,1h2.45v3.62c0,2.76,1.09,4.14,2.69,4.74l9.42-2.79V445.22Zm-8,2.22A1.53,1.53,0,1,1,46,445.92,1.53,1.53,0,0,1,44.45,447.44Z"/>
    <path class="cls-3" d="M85.66,451.54,33.21,467.06l2.46,7.69,50-14.13c0-3.54,0-6.77,0-9.08Z"/>
    <path class="cls-3" d="M36.21,463.63a21.49,21.49,0,0,1,1.65-33.56L36,428.17a24.1,24.1,0,0,0-2.72,36.32Z"/>
    <path class="cls-3" d="M63.24,448.78a3.35,3.35,0,1,0-3.34-3.34A3.35,3.35,0,0,0,63.24,448.78Z"/>
    <path class="cls-3" d="M85.66,449v-1a30.56,30.56,0,0,0-49.8-23.58l0,0,19.06,19.8v13.87Zm-22.42-8.73a5.17,5.17,0,0,1,2.8.83l3.41-3.42,1.3,1.29-3.38,3.38a5.11,5.11,0,0,1,1,3.09,5.17,5.17,0,1,1-5.17-5.17Z"/>
    <path class="cls-3" d="M66.94,472.51c7.68,0,14.71,4.53,18.74,11.81h0s0-11.2,0-21.17L36.36,477.09c-1.71,2.58-3,5.19-4.6,7.23H48.2c4.11-7.4,11.11-11.81,18.74-11.81Z"/>
    <path class="cls-3" d="M66.94,475c-6.28,0-12.1,3.45-15.82,9.3H82.77C79.1,478.55,73.26,475,66.94,475Z"/>
  </g>
  <text class="cls-4" transform="translate(29.63 502.38)">Apolo 12</text>
  <g>
    <path d="M95.69,454c1,0-7-23-7-23l-5,6.79-2,9.21,1,9,5,7,9-3Z"/>
    <g>
      <path class="cls-3" d="M106.44,445.22l-8.77-9.11a11.09,11.09,0,0,0-2.81,5c-.25,1.08-.53,3.9-.53,3.9l-3.41,6.81a1,1,0,0,0-.08.41,1,1,0,0,0,1,1h2.45v3.62c0,2.76,1.09,4.14,2.69,4.74l9.42-2.79V445.22Zm-8,2.22a1.53,1.53,0,1,1,1.52-1.52A1.53,1.53,0,0,1,98.45,447.44Z"/>
      <path class="cls-3" d="M139.66,451.54,87.21,467.06l2.46,7.69,50-14.13c0-3.54,0-6.77,0-9.08Z"/>
      <path class="cls-3" d="M90.21,463.63a21.49,21.49,0,0,1,1.65-33.56L90,428.17a24.1,24.1,0,0,0-2.72,36.32Z"/>
      <path class="cls-3" d="M117.24,448.78a3.35,3.35,0,1,0-3.34-3.34A3.35,3.35,0,0,0,117.24,448.78Z"/>
      <path class="cls-3" d="M139.66,449v-1a30.56,30.56,0,0,0-49.8-23.58l0,0,19.06,19.8v13.87Zm-22.42-8.73a5.17,5.17,0,0,1,2.8.83l3.41-3.42,1.3,1.29-3.38,3.38a5.11,5.11,0,0,1,1,3.09,5.17,5.17,0,1,1-5.17-5.17Z"/>
      <path class="cls-3" d="M120.94,472.51c7.68,0,14.71,4.53,18.74,11.81h0s0-11.2,0-21.17L90.36,477.09c-1.71,2.58-3,5.19-4.6,7.23H102.2c4.11-7.4,11.11-11.81,18.74-11.81Z"/>
      <path class="cls-3" d="M120.94,475c-6.28,0-12.1,3.45-15.82,9.3h31.65C133.1,478.55,127.26,475,120.94,475Z"/>
    </g>
  </g>
  <g>
    <path d="M149.69,454c1,0-7-23-7-23l-5,6.79-2,9.21,1,9,5,7,9-3Z"/>
    <g>
      <path class="cls-3" d="M160.44,445.22l-8.77-9.11a11.09,11.09,0,0,0-2.81,5c-.25,1.08-.53,3.9-.53,3.9l-3.41,6.81a1,1,0,0,0-.08.41,1,1,0,0,0,1,1h2.45v3.62c0,2.76,1.09,4.14,2.69,4.74l9.42-2.79V445.22Zm-8,2.22a1.53,1.53,0,1,1,1.52-1.52A1.53,1.53,0,0,1,152.45,447.44Z"/>
      <path class="cls-3" d="M193.66,451.54l-52.45,15.52,2.46,7.69,50-14.13c0-3.54,0-6.77,0-9.08Z"/>
      <path class="cls-3" d="M144.21,463.63a21.49,21.49,0,0,1,1.65-33.56l-1.83-1.9a24.1,24.1,0,0,0-2.72,36.32Z"/>
      <path class="cls-3" d="M171.24,448.78a3.35,3.35,0,1,0-3.34-3.34A3.35,3.35,0,0,0,171.24,448.78Z"/>
      <path class="cls-3" d="M193.66,449v-1a30.56,30.56,0,0,0-49.8-23.58l0,0,19.06,19.8v13.87Zm-22.42-8.73a5.17,5.17,0,0,1,2.8.83l3.41-3.42,1.3,1.29-3.38,3.38a5.11,5.11,0,0,1,1,3.09,5.17,5.17,0,1,1-5.17-5.17Z"/>
      <path class="cls-3" d="M174.94,472.51c7.68,0,14.71,4.53,18.74,11.81h0s0-11.2,0-21.17l-49.31,13.94c-1.71,2.58-3,5.19-4.6,7.23H156.2c4.11-7.4,11.11-11.81,18.74-11.81Z"/>
      <path class="cls-3" d="M174.94,475c-6.28,0-12.1,3.45-15.82,9.3h31.65C187.1,478.55,181.26,475,174.94,475Z"/>
    </g>
  </g>
  <g>
    <path class="cls-6" d="M52.44,582.22l-8.77-9.11a11.09,11.09,0,0,0-2.81,5c-.25,1.08-.53,3.9-.53,3.9l-3.41,6.81a1,1,0,0,0-.08.41,1,1,0,0,0,1,1h2.45v3.62c0,2.76,1.09,4.14,2.69,4.74l9.42-2.79V582.22Zm-8,2.22A1.53,1.53,0,1,1,46,582.92,1.53,1.53,0,0,1,44.45,584.44Z"/>
    <path class="cls-6" d="M85.66,588.54,33.21,604.06l2.46,7.69,50-14.13c0-3.54,0-6.77,0-9.08Z"/>
    <path class="cls-6" d="M36.21,600.63a21.49,21.49,0,0,1,1.65-33.56L36,565.17a24.1,24.1,0,0,0-2.72,36.32Z"/>
    <path class="cls-6" d="M63.24,585.78a3.35,3.35,0,1,0-3.34-3.34A3.35,3.35,0,0,0,63.24,585.78Z"/>
    <path class="cls-6" d="M85.66,586v-1a30.56,30.56,0,0,0-49.8-23.58l0,0,19.06,19.8v13.87Zm-22.42-8.73a5.17,5.17,0,0,1,2.8.83l3.41-3.42,1.3,1.29-3.38,3.38a5.11,5.11,0,0,1,1,3.09,5.17,5.17,0,1,1-5.17-5.17Z"/>
    <path class="cls-6" d="M66.94,609.51c7.68,0,14.71,4.53,18.74,11.81h0s0-11.2,0-21.17L36.36,614.09c-1.71,2.58-3,5.19-4.6,7.23H48.2c4.11-7.4,11.11-11.81,18.74-11.81Z"/>
    <path class="cls-6" d="M66.94,612c-6.28,0-12.1,3.45-15.82,9.3H82.77C79.1,615.55,73.26,612,66.94,612Z"/>
  </g>
  <text class="cls-4" transform="translate(29.63 639.38)">Apolo 15</text>
  <g>
    <path d="M95.69,590c1,0-7-23-7-23l-5,6.79-2,9.21,1,9,5,7,9-3Z"/>
    <g>
      <path class="cls-3" d="M106.44,582.22l-8.77-9.11a11.09,11.09,0,0,0-2.81,5c-.25,1.08-.53,3.9-.53,3.9l-3.41,6.81a1,1,0,0,0-.08.41,1,1,0,0,0,1,1h2.45v3.62c0,2.76,1.09,4.14,2.69,4.74l9.42-2.79V582.22Zm-8,2.22a1.53,1.53,0,1,1,1.52-1.52A1.53,1.53,0,0,1,98.45,584.44Z"/>
      <path class="cls-3" d="M139.66,588.54,87.21,604.06l2.46,7.69,50-14.13c0-3.54,0-6.77,0-9.08Z"/>
      <path class="cls-3" d="M90.21,600.63a21.49,21.49,0,0,1,1.65-33.56L90,565.17a24.1,24.1,0,0,0-2.72,36.32Z"/>
      <path class="cls-3" d="M117.24,585.78a3.35,3.35,0,1,0-3.34-3.34A3.35,3.35,0,0,0,117.24,585.78Z"/>
      <path class="cls-3" d="M139.66,586v-1a30.56,30.56,0,0,0-49.8-23.58l0,0,19.06,19.8v13.87Zm-22.42-8.73a5.17,5.17,0,0,1,2.8.83l3.41-3.42,1.3,1.29-3.38,3.38a5.11,5.11,0,0,1,1,3.09,5.17,5.17,0,1,1-5.17-5.17Z"/>
      <path class="cls-3" d="M120.94,609.51c7.68,0,14.71,4.53,18.74,11.81h0s0-11.2,0-21.17L90.36,614.09c-1.71,2.58-3,5.19-4.6,7.23H102.2c4.11-7.4,11.11-11.81,18.74-11.81Z"/>
      <path class="cls-3" d="M120.94,612c-6.28,0-12.1,3.45-15.82,9.3h31.65C133.1,615.55,127.26,612,120.94,612Z"/>
    </g>
  </g>
  <g>
    <path d="M149.69,590c1,0-7-23-7-23l-5,6.79-2,9.21,1,9,5,7,9-3Z"/>
    <g>
      <path class="cls-3" d="M160.44,582.22l-8.77-9.11a11.09,11.09,0,0,0-2.81,5c-.25,1.08-.53,3.9-.53,3.9l-3.41,6.81a1,1,0,0,0-.08.41,1,1,0,0,0,1,1h2.45v3.62c0,2.76,1.09,4.14,2.69,4.74l9.42-2.79V582.22Zm-8,2.22a1.53,1.53,0,1,1,1.52-1.52A1.53,1.53,0,0,1,152.45,584.44Z"/>
      <path class="cls-3" d="M193.66,588.54l-52.45,15.52,2.46,7.69,50-14.13c0-3.54,0-6.77,0-9.08Z"/>
      <path class="cls-3" d="M144.21,600.63a21.49,21.49,0,0,1,1.65-33.56l-1.83-1.9a24.1,24.1,0,0,0-2.72,36.32Z"/>
      <path class="cls-3" d="M171.24,585.78a3.35,3.35,0,1,0-3.34-3.34A3.35,3.35,0,0,0,171.24,585.78Z"/>
      <path class="cls-3" d="M193.66,586v-1a30.56,30.56,0,0,0-49.8-23.58l0,0,19.06,19.8v13.87Zm-22.42-8.73a5.17,5.17,0,0,1,2.8.83l3.41-3.42,1.3,1.29-3.38,3.38a5.11,5.11,0,0,1,1,3.09,5.17,5.17,0,1,1-5.17-5.17Z"/>
      <path class="cls-3" d="M174.94,609.51c7.68,0,14.71,4.53,18.74,11.81h0s0-11.2,0-21.17l-49.31,13.94c-1.71,2.58-3,5.19-4.6,7.23H156.2c4.11-7.4,11.11-11.81,18.74-11.81Z"/>
      <path class="cls-3" d="M174.94,612c-6.28,0-12.1,3.45-15.82,9.3h31.65C187.1,615.55,181.26,612,174.94,612Z"/>
    </g>
  </g>
  <g>
    <path class="cls-3" d="M262.44,171.22l-8.77-9.11a11.09,11.09,0,0,0-2.81,5c-.25,1.08-.53,3.9-.53,3.9l-3.41,6.81a1,1,0,0,0-.08.41,1,1,0,0,0,1,1h2.45v3.62c0,2.76,1.09,4.14,2.69,4.74l9.42-2.79V171.22Zm-8,2.22a1.53,1.53,0,1,1,1.52-1.52A1.53,1.53,0,0,1,254.45,173.44Z"/>
    <path class="cls-3" d="M295.66,177.54l-52.45,15.52,2.46,7.69,50-14.13c0-3.54,0-6.77,0-9.08Z"/>
    <path class="cls-3" d="M246.21,189.63a21.49,21.49,0,0,1,1.65-33.56l-1.83-1.9a24.1,24.1,0,0,0-2.72,36.32Z"/>
    <path class="cls-3" d="M273.24,174.78a3.35,3.35,0,1,0-3.34-3.34A3.35,3.35,0,0,0,273.24,174.78Z"/>
    <path class="cls-3" d="M295.66,175v-1a30.56,30.56,0,0,0-49.8-23.58l0,0,19.06,19.8v13.87Zm-22.42-8.73a5.17,5.17,0,0,1,2.8.83l3.41-3.42,1.3,1.29-3.38,3.38a5.11,5.11,0,0,1,1,3.09,5.17,5.17,0,1,1-5.17-5.17Z"/>
    <path class="cls-3" d="M276.94,198.51c7.68,0,14.71,4.53,18.74,11.81h0s0-11.2,0-21.17l-49.31,13.94c-1.71,2.58-3,5.19-4.6,7.23H258.2c4.11-7.4,11.11-11.81,18.74-11.81Z"/>
    <path class="cls-3" d="M276.94,201c-6.28,0-12.1,3.45-15.82,9.3h31.65C289.1,204.55,283.26,201,276.94,201Z"/>
  </g>
  <text class="cls-4" transform="translate(240.63 228.38)">Apolo 7</text>
  <g>
    <path d="M305.69,180c1,0-7-23-7-23l-5,6.79-2,9.21,1,9,5,7,9-3Z"/>
    <g>
      <path class="cls-3" d="M316.44,171.22l-8.77-9.11a11.09,11.09,0,0,0-2.81,5c-.25,1.08-.53,3.9-.53,3.9l-3.41,6.81a1,1,0,0,0-.08.41,1,1,0,0,0,1,1h2.45v3.62c0,2.76,1.09,4.14,2.69,4.74l9.42-2.79V171.22Zm-8,2.22a1.53,1.53,0,1,1,1.52-1.52A1.53,1.53,0,0,1,308.45,173.44Z"/>
      <path class="cls-3" d="M349.66,177.54l-52.45,15.52,2.46,7.69,50-14.13c0-3.54,0-6.77,0-9.08Z"/>
      <path class="cls-3" d="M300.21,189.63a21.49,21.49,0,0,1,1.65-33.56l-1.83-1.9a24.1,24.1,0,0,0-2.72,36.32Z"/>
      <path class="cls-3" d="M327.24,174.78a3.35,3.35,0,1,0-3.34-3.34A3.35,3.35,0,0,0,327.24,174.78Z"/>
      <path class="cls-3" d="M349.66,175v-1a30.56,30.56,0,0,0-49.8-23.58l0,0,19.06,19.8v13.87Zm-22.42-8.73a5.17,5.17,0,0,1,2.8.83l3.41-3.42,1.3,1.29-3.38,3.38a5.11,5.11,0,0,1,1,3.09,5.17,5.17,0,1,1-5.17-5.17Z"/>
      <path class="cls-3" d="M330.94,198.51c7.68,0,14.71,4.53,18.74,11.81h0s0-11.2,0-21.17l-49.31,13.94c-1.71,2.58-3,5.19-4.6,7.23H312.2c4.11-7.4,11.11-11.81,18.74-11.81Z"/>
      <path class="cls-3" d="M330.94,201c-6.28,0-12.1,3.45-15.82,9.3h31.65C343.1,204.55,337.26,201,330.94,201Z"/>
    </g>
  </g>
  <g>
    <path d="M359.69,180c1,0-7-23-7-23l-5,6.79-2,9.21,1,9,5,7,9-3Z"/>
    <g>
      <path class="cls-3" d="M370.44,171.22l-8.77-9.11a11.09,11.09,0,0,0-2.81,5c-.25,1.08-.53,3.9-.53,3.9l-3.41,6.81a1,1,0,0,0-.08.41,1,1,0,0,0,1,1h2.45v3.62c0,2.76,1.09,4.14,2.69,4.74l9.42-2.79V171.22Zm-8,2.22a1.53,1.53,0,1,1,1.52-1.52A1.53,1.53,0,0,1,362.45,173.44Z"/>
      <path class="cls-3" d="M403.66,177.54l-52.45,15.52,2.46,7.69,50-14.13c0-3.54,0-6.77,0-9.08Z"/>
      <path class="cls-3" d="M354.21,189.63a21.49,21.49,0,0,1,1.65-33.56l-1.83-1.9a24.1,24.1,0,0,0-2.72,36.32Z"/>
      <path class="cls-3" d="M381.24,174.78a3.35,3.35,0,1,0-3.34-3.34A3.35,3.35,0,0,0,381.24,174.78Z"/>
      <path class="cls-3" d="M403.66,175v-1a30.56,30.56,0,0,0-49.8-23.58l0,0,19.06,19.8v13.87Zm-22.42-8.73a5.17,5.17,0,0,1,2.8.83l3.41-3.42,1.3,1.29-3.38,3.38a5.11,5.11,0,0,1,1,3.09,5.17,5.17,0,1,1-5.17-5.17Z"/>
      <path class="cls-3" d="M384.94,198.51c7.68,0,14.71,4.53,18.74,11.81h0s0-11.2,0-21.17l-49.31,13.94c-1.71,2.58-3,5.19-4.6,7.23H366.2c4.11-7.4,11.11-11.81,18.74-11.81Z"/>
      <path class="cls-3" d="M384.94,201c-6.28,0-12.1,3.45-15.82,9.3h31.65C397.1,204.55,391.26,201,384.94,201Z"/>
    </g>
  </g>
  <g>
    <path class="cls-3" d="M262.44,308.22l-8.77-9.11a11.09,11.09,0,0,0-2.81,5c-.25,1.08-.53,3.9-.53,3.9l-3.41,6.81a1,1,0,0,0-.08.41,1,1,0,0,0,1,1h2.45v3.62c0,2.76,1.09,4.14,2.69,4.74l9.42-2.79V308.22Zm-8,2.22a1.53,1.53,0,1,1,1.52-1.52A1.53,1.53,0,0,1,254.45,310.44Z"/>
    <path class="cls-3" d="M295.66,314.54l-52.45,15.52,2.46,7.69,50-14.13c0-3.54,0-6.77,0-9.08Z"/>
    <path class="cls-3" d="M246.21,326.63a21.49,21.49,0,0,1,1.65-33.56l-1.83-1.9a24.1,24.1,0,0,0-2.72,36.32Z"/>
    <path class="cls-3" d="M273.24,311.78a3.35,3.35,0,1,0-3.34-3.34A3.35,3.35,0,0,0,273.24,311.78Z"/>
    <path class="cls-3" d="M295.66,312v-1a30.56,30.56,0,0,0-49.8-23.58l0,0,19.06,19.8v13.87Zm-22.42-8.73a5.17,5.17,0,0,1,2.8.83l3.41-3.42,1.3,1.29-3.38,3.38a5.11,5.11,0,0,1,1,3.09,5.17,5.17,0,1,1-5.17-5.17Z"/>
    <path class="cls-3" d="M276.94,335.51c7.68,0,14.71,4.53,18.74,11.81h0s0-11.2,0-21.17l-49.31,13.94c-1.71,2.58-3,5.19-4.6,7.23H258.2c4.11-7.4,11.11-11.81,18.74-11.81Z"/>
    <path class="cls-3" d="M276.94,338c-6.28,0-12.1,3.45-15.82,9.3h31.65C289.1,341.55,283.26,338,276.94,338Z"/>
  </g>
  <text class="cls-4" transform="translate(240.63 365.38)">Apolo 10</text>
  <g>
    <path d="M305.69,316c1,0-7-23-7-23l-5,6.79-2,9.21,1,9,5,7,9-3Z"/>
    <g>
      <path class="cls-5" d="M316.44,308.22l-8.77-9.11a11.09,11.09,0,0,0-2.81,5c-.25,1.08-.53,3.9-.53,3.9l-3.41,6.81a1,1,0,0,0-.08.41,1,1,0,0,0,1,1h2.45v3.62c0,2.76,1.09,4.14,2.69,4.74l9.42-2.79V308.22Zm-8,2.22a1.53,1.53,0,1,1,1.52-1.52A1.53,1.53,0,0,1,308.45,310.44Z"/>
      <path class="cls-5" d="M349.66,314.54l-52.45,15.52,2.46,7.69,50-14.13c0-3.54,0-6.77,0-9.08Z"/>
      <path class="cls-5" d="M300.21,326.63a21.49,21.49,0,0,1,1.65-33.56l-1.83-1.9a24.1,24.1,0,0,0-2.72,36.32Z"/>
      <path class="cls-5" d="M327.24,311.78a3.35,3.35,0,1,0-3.34-3.34A3.35,3.35,0,0,0,327.24,311.78Z"/>
      <path class="cls-5" d="M349.66,312v-1a30.56,30.56,0,0,0-49.8-23.58l0,0,19.06,19.8v13.87Zm-22.42-8.73a5.17,5.17,0,0,1,2.8.83l3.41-3.42,1.3,1.29-3.38,3.38a5.11,5.11,0,0,1,1,3.09,5.17,5.17,0,1,1-5.17-5.17Z"/>
      <path class="cls-5" d="M330.94,335.51c7.68,0,14.71,4.53,18.74,11.81h0s0-11.2,0-21.17l-49.31,13.94c-1.71,2.58-3,5.19-4.6,7.23H312.2c4.11-7.4,11.11-11.81,18.74-11.81Z"/>
      <path class="cls-5" d="M330.94,338c-6.28,0-12.1,3.45-15.82,9.3h31.65C343.1,341.55,337.26,338,330.94,338Z"/>
    </g>
  </g>
  <g>
    <path d="M359.69,316c1,0-7-23-7-23l-5,6.79-2,9.21,1,9,5,7,9-3Z"/>
    <g>
      <path class="cls-5" d="M370.44,308.22l-8.77-9.11a11.09,11.09,0,0,0-2.81,5c-.25,1.08-.53,3.9-.53,3.9l-3.41,6.81a1,1,0,0,0-.08.41,1,1,0,0,0,1,1h2.45v3.62c0,2.76,1.09,4.14,2.69,4.74l9.42-2.79V308.22Zm-8,2.22a1.53,1.53,0,1,1,1.52-1.52A1.53,1.53,0,0,1,362.45,310.44Z"/>
      <path class="cls-5" d="M403.66,314.54l-52.45,15.52,2.46,7.69,50-14.13c0-3.54,0-6.77,0-9.08Z"/>
      <path class="cls-5" d="M354.21,326.63a21.49,21.49,0,0,1,1.65-33.56l-1.83-1.9a24.1,24.1,0,0,0-2.72,36.32Z"/>
      <path class="cls-5" d="M381.24,311.78a3.35,3.35,0,1,0-3.34-3.34A3.35,3.35,0,0,0,381.24,311.78Z"/>
      <path class="cls-5" d="M403.66,312v-1a30.56,30.56,0,0,0-49.8-23.58l0,0,19.06,19.8v13.87Zm-22.42-8.73a5.17,5.17,0,0,1,2.8.83l3.41-3.42,1.3,1.29-3.38,3.38a5.11,5.11,0,0,1,1,3.09,5.17,5.17,0,1,1-5.17-5.17Z"/>
      <path class="cls-5" d="M384.94,335.51c7.68,0,14.71,4.53,18.74,11.81h0s0-11.2,0-21.17l-49.31,13.94c-1.71,2.58-3,5.19-4.6,7.23H366.2c4.11-7.4,11.11-11.81,18.74-11.81Z"/>
      <path class="cls-5" d="M384.94,338c-6.28,0-12.1,3.45-15.82,9.3h31.65C397.1,341.55,391.26,338,384.94,338Z"/>
    </g>
  </g>
  <g>
    <g>
      <path class="cls-3" d="M472.44,171.22l-8.77-9.11a11.09,11.09,0,0,0-2.81,5c-.25,1.08-.53,3.9-.53,3.9l-3.41,6.81a1,1,0,0,0-.08.41,1,1,0,0,0,1,1h2.45v3.62c0,2.76,1.09,4.14,2.69,4.74l9.42-2.79V171.22Zm-8,2.22a1.53,1.53,0,1,1,1.52-1.52A1.53,1.53,0,0,1,464.45,173.44Z"/>
      <path class="cls-3" d="M505.66,177.54l-52.45,15.52,2.46,7.69,50-14.13c0-3.54,0-6.77,0-9.08Z"/>
      <path class="cls-3" d="M456.21,189.63a21.49,21.49,0,0,1,1.65-33.56l-1.83-1.9a24.1,24.1,0,0,0-2.72,36.32Z"/>
      <path class="cls-3" d="M483.24,174.78a3.35,3.35,0,1,0-3.34-3.34A3.35,3.35,0,0,0,483.24,174.78Z"/>
      <path class="cls-3" d="M505.66,175v-1a30.56,30.56,0,0,0-49.8-23.58l0,0,19.06,19.8v13.87Zm-22.42-8.73a5.17,5.17,0,0,1,2.8.83l3.41-3.42,1.3,1.29-3.38,3.38a5.11,5.11,0,0,1,1,3.09,5.17,5.17,0,1,1-5.17-5.17Z"/>
      <path class="cls-3" d="M486.94,198.51c7.68,0,14.71,4.53,18.74,11.81h0s0-11.2,0-21.17l-49.31,13.94c-1.71,2.58-3,5.19-4.6,7.23H468.2c4.11-7.4,11.11-11.81,18.74-11.81Z"/>
      <path class="cls-3" d="M486.94,201c-6.28,0-12.1,3.45-15.82,9.3h31.65C499.1,204.55,493.26,201,486.94,201Z"/>
    </g>
    <text class="cls-7" transform="translate(449.63 226.88)">Apolo 8</text>
    <g>
      <path d="M515.69,180c1,0-7-23-7-23l-5,6.79-2,9.21,1,9,5,7,9-3Z"/>
      <g>
        <path class="cls-5" d="M526.44,171.22l-8.77-9.11a11.09,11.09,0,0,0-2.81,5c-.25,1.08-.53,3.9-.53,3.9l-3.41,6.81a1,1,0,0,0-.08.41,1,1,0,0,0,1,1h2.45v3.62c0,2.76,1.09,4.14,2.69,4.74l9.42-2.79V171.22Zm-8,2.22a1.53,1.53,0,1,1,1.52-1.52A1.53,1.53,0,0,1,518.45,173.44Z"/>
        <path class="cls-5" d="M559.66,177.54l-52.45,15.52,2.46,7.69,50-14.13c0-3.54,0-6.77,0-9.08Z"/>
        <path class="cls-5" d="M510.21,189.63a21.49,21.49,0,0,1,1.65-33.56l-1.83-1.9a24.1,24.1,0,0,0-2.72,36.32Z"/>
        <path class="cls-5" d="M537.24,174.78a3.35,3.35,0,1,0-3.34-3.34A3.35,3.35,0,0,0,537.24,174.78Z"/>
        <path class="cls-5" d="M559.66,175v-1a30.56,30.56,0,0,0-49.8-23.58l0,0,19.06,19.8v13.87Zm-22.42-8.73a5.17,5.17,0,0,1,2.8.83l3.41-3.42,1.3,1.29-3.38,3.38a5.11,5.11,0,0,1,1,3.09,5.17,5.17,0,1,1-5.17-5.17Z"/>
        <path class="cls-5" d="M540.94,198.51c7.68,0,14.71,4.53,18.74,11.81h0s0-11.2,0-21.17l-49.31,13.94c-1.71,2.58-3,5.19-4.6,7.23H522.2c4.11-7.4,11.11-11.81,18.74-11.81Z"/>
        <path class="cls-5" d="M540.94,201c-6.28,0-12.1,3.45-15.82,9.3h31.65C553.1,204.55,547.26,201,540.94,201Z"/>
      </g>
    </g>
    <g>
      <path d="M569.69,180c1,0-7-23-7-23l-5,6.79-2,9.21,1,9,5,7,9-3Z"/>
      <g>
        <path class="cls-3" d="M580.44,171.22l-8.77-9.11a11.09,11.09,0,0,0-2.81,5c-.25,1.08-.53,3.9-.53,3.9l-3.41,6.81a1,1,0,0,0-.08.41,1,1,0,0,0,1,1h2.45v3.62c0,2.76,1.09,4.14,2.69,4.74l9.42-2.79V171.22Zm-8,2.22a1.53,1.53,0,1,1,1.52-1.52A1.53,1.53,0,0,1,572.45,173.44Z"/>
        <path class="cls-3" d="M613.66,177.54l-52.45,15.52,2.46,7.69,50-14.13c0-3.54,0-6.77,0-9.08Z"/>
        <path class="cls-3" d="M564.21,189.63a21.49,21.49,0,0,1,1.65-33.56l-1.83-1.9a24.1,24.1,0,0,0-2.72,36.32Z"/>
        <path class="cls-3" d="M591.24,174.78a3.35,3.35,0,1,0-3.34-3.34A3.35,3.35,0,0,0,591.24,174.78Z"/>
        <path class="cls-3" d="M613.66,175v-1a30.56,30.56,0,0,0-49.8-23.58l0,0,19.06,19.8v13.87Zm-22.42-8.73a5.17,5.17,0,0,1,2.8.83l3.41-3.42,1.3,1.29-3.38,3.38a5.11,5.11,0,0,1,1,3.09,5.17,5.17,0,1,1-5.17-5.17Z"/>
        <path class="cls-3" d="M594.94,198.51c7.68,0,14.71,4.53,18.74,11.81h0s0-11.2,0-21.17l-49.31,13.94c-1.71,2.58-3,5.19-4.6,7.23H576.2c4.11-7.4,11.11-11.81,18.74-11.81Z"/>
        <path class="cls-3" d="M594.94,201c-6.28,0-12.1,3.45-15.82,9.3h31.65C607.1,204.55,601.26,201,594.94,201Z"/>
      </g>
    </g>
  </g>
  <g>
    <path class="cls-3" d="M472.44,308.22l-8.77-9.11a11.09,11.09,0,0,0-2.81,5c-.25,1.08-.53,3.9-.53,3.9l-3.41,6.81a1,1,0,0,0-.08.41,1,1,0,0,0,1,1h2.45v3.62c0,2.76,1.09,4.14,2.69,4.74l9.42-2.79V308.22Zm-8,2.22a1.53,1.53,0,1,1,1.52-1.52A1.53,1.53,0,0,1,464.45,310.44Z"/>
    <path class="cls-3" d="M505.66,314.54l-52.45,15.52,2.46,7.69,50-14.13c0-3.54,0-6.77,0-9.08Z"/>
    <path class="cls-3" d="M456.21,326.63a21.49,21.49,0,0,1,1.65-33.56l-1.83-1.9a24.1,24.1,0,0,0-2.72,36.32Z"/>
    <path class="cls-3" d="M483.24,311.78a3.35,3.35,0,1,0-3.34-3.34A3.35,3.35,0,0,0,483.24,311.78Z"/>
    <path class="cls-3" d="M505.66,312v-1a30.56,30.56,0,0,0-49.8-23.58l0,0,19.06,19.8v13.87Zm-22.42-8.73a5.17,5.17,0,0,1,2.8.83l3.41-3.42,1.3,1.29-3.38,3.38a5.11,5.11,0,0,1,1,3.09,5.17,5.17,0,1,1-5.17-5.17Z"/>
    <path class="cls-3" d="M486.94,335.51c7.68,0,14.71,4.53,18.74,11.81h0s0-11.2,0-21.17l-49.31,13.94c-1.71,2.58-3,5.19-4.6,7.23H468.2c4.11-7.4,11.11-11.81,18.74-11.81Z"/>
    <path class="cls-3" d="M486.94,338c-6.28,0-12.1,3.45-15.82,9.3h31.65C499.1,341.55,493.26,338,486.94,338Z"/>
  </g>
  <text class="cls-4" transform="translate(449.63 365.38)">Apolo 11</text>
  <g>
    <path d="M515.69,317c1,0-7-23-7-23l-5,6.79-2,9.21,1,9,5,7,9-3Z"/>
    <g>
      <path class="cls-3" d="M526.44,308.22l-8.77-9.11a11.09,11.09,0,0,0-2.81,5c-.25,1.08-.53,3.9-.53,3.9l-3.41,6.81a1,1,0,0,0-.08.41,1,1,0,0,0,1,1h2.45v3.62c0,2.76,1.09,4.14,2.69,4.74l9.42-2.79V308.22Zm-8,2.22a1.53,1.53,0,1,1,1.52-1.52A1.53,1.53,0,0,1,518.45,310.44Z"/>
      <path class="cls-3" d="M559.66,314.54l-52.45,15.52,2.46,7.69,50-14.13c0-3.54,0-6.77,0-9.08Z"/>
      <path class="cls-3" d="M510.21,326.63a21.49,21.49,0,0,1,1.65-33.56l-1.83-1.9a24.1,24.1,0,0,0-2.72,36.32Z"/>
      <path class="cls-3" d="M537.24,311.78a3.35,3.35,0,1,0-3.34-3.34A3.35,3.35,0,0,0,537.24,311.78Z"/>
      <path class="cls-3" d="M559.66,312v-1a30.56,30.56,0,0,0-49.8-23.58l0,0,19.06,19.8v13.87Zm-22.42-8.73a5.17,5.17,0,0,1,2.8.83l3.41-3.42,1.3,1.29-3.38,3.38a5.11,5.11,0,0,1,1,3.09,5.17,5.17,0,1,1-5.17-5.17Z"/>
      <path class="cls-3" d="M540.94,335.51c7.68,0,14.71,4.53,18.74,11.81h0s0-11.2,0-21.17l-49.31,13.94c-1.71,2.58-3,5.19-4.6,7.23H522.2c4.11-7.4,11.11-11.81,18.74-11.81Z"/>
      <path class="cls-3" d="M540.94,338c-6.28,0-12.1,3.45-15.82,9.3h31.65C553.1,341.55,547.26,338,540.94,338Z"/>
    </g>
  </g>
  <g>
    <path d="M569.69,317c1,0-7-23-7-23l-5,6.79-2,9.21,1,9,5,7,9-3Z"/>
    <g>
      <path class="cls-3" d="M580.44,308.22l-8.77-9.11a11.09,11.09,0,0,0-2.81,5c-.25,1.08-.53,3.9-.53,3.9l-3.41,6.81a1,1,0,0,0-.08.41,1,1,0,0,0,1,1h2.45v3.62c0,2.76,1.09,4.14,2.69,4.74l9.42-2.79V308.22Zm-8,2.22a1.53,1.53,0,1,1,1.52-1.52A1.53,1.53,0,0,1,572.45,310.44Z"/>
      <path class="cls-3" d="M613.66,314.54l-52.45,15.52,2.46,7.69,50-14.13c0-3.54,0-6.77,0-9.08Z"/>
      <path class="cls-3" d="M564.21,326.63a21.49,21.49,0,0,1,1.65-33.56l-1.83-1.9a24.1,24.1,0,0,0-2.72,36.32Z"/>
      <path class="cls-3" d="M591.24,311.78a3.35,3.35,0,1,0-3.34-3.34A3.35,3.35,0,0,0,591.24,311.78Z"/>
      <path class="cls-3" d="M613.66,312v-1a30.56,30.56,0,0,0-49.8-23.58l0,0,19.06,19.8v13.87Zm-22.42-8.73a5.17,5.17,0,0,1,2.8.83l3.41-3.42,1.3,1.29-3.38,3.38a5.11,5.11,0,0,1,1,3.09,5.17,5.17,0,1,1-5.17-5.17Z"/>
      <path class="cls-3" d="M594.94,335.51c7.68,0,14.71,4.53,18.74,11.81h0s0-11.2,0-21.17l-49.31,13.94c-1.71,2.58-3,5.19-4.6,7.23H576.2c4.11-7.4,11.11-11.81,18.74-11.81Z"/>
      <path class="cls-3" d="M594.94,338c-6.28,0-12.1,3.45-15.82,9.3h31.65C607.1,341.55,601.26,338,594.94,338Z"/>
    </g>
  </g>
  <g>
    <path class="cls-6" d="M262.44,445.22l-8.77-9.11a11.09,11.09,0,0,0-2.81,5c-.25,1.08-.53,3.9-.53,3.9l-3.41,6.81a1,1,0,0,0-.08.41,1,1,0,0,0,1,1h2.45v3.62c0,2.76,1.09,4.14,2.69,4.74l9.42-2.79V445.22Zm-8,2.22a1.53,1.53,0,1,1,1.52-1.52A1.53,1.53,0,0,1,254.45,447.44Z"/>
    <path class="cls-6" d="M295.66,451.54l-52.45,15.52,2.46,7.69,50-14.13c0-3.54,0-6.77,0-9.08Z"/>
    <path class="cls-6" d="M246.21,463.63a21.49,21.49,0,0,1,1.65-33.56l-1.83-1.9a24.1,24.1,0,0,0-2.72,36.32Z"/>
    <path class="cls-6" d="M273.24,448.78a3.35,3.35,0,1,0-3.34-3.34A3.35,3.35,0,0,0,273.24,448.78Z"/>
    <path class="cls-6" d="M295.66,449v-1a30.56,30.56,0,0,0-49.8-23.58l0,0,19.06,19.8v13.87Zm-22.42-8.73a5.17,5.17,0,0,1,2.8.83l3.41-3.42,1.3,1.29-3.38,3.38a5.11,5.11,0,0,1,1,3.09,5.17,5.17,0,1,1-5.17-5.17Z"/>
    <path class="cls-6" d="M276.94,472.51c7.68,0,14.71,4.53,18.74,11.81h0s0-11.2,0-21.17l-49.31,13.94c-1.71,2.58-3,5.19-4.6,7.23H258.2c4.11-7.4,11.11-11.81,18.74-11.81Z"/>
    <path class="cls-6" d="M276.94,475c-6.28,0-12.1,3.45-15.82,9.3h31.65C289.1,478.55,283.26,475,276.94,475Z"/>
  </g>
  <text class="cls-4" transform="translate(240.63 502.38)">Apolo 13</text>
  <g>
    <path d="M305.69,454c1,0-7-23-7-23l-5,6.79-2,9.21,1,9,5,7,9-3Z"/>
    <g>
      <path class="cls-3" d="M316.44,445.22l-8.77-9.11a11.09,11.09,0,0,0-2.81,5c-.25,1.08-.53,3.9-.53,3.9l-3.41,6.81a1,1,0,0,0-.08.41,1,1,0,0,0,1,1h2.45v3.62c0,2.76,1.09,4.14,2.69,4.74l9.42-2.79V445.22Zm-8,2.22a1.53,1.53,0,1,1,1.52-1.52A1.53,1.53,0,0,1,308.45,447.44Z"/>
      <path class="cls-3" d="M349.66,451.54l-52.45,15.52,2.46,7.69,50-14.13c0-3.54,0-6.77,0-9.08Z"/>
      <path class="cls-3" d="M300.21,463.63a21.49,21.49,0,0,1,1.65-33.56l-1.83-1.9a24.1,24.1,0,0,0-2.72,36.32Z"/>
      <path class="cls-3" d="M327.24,448.78a3.35,3.35,0,1,0-3.34-3.34A3.35,3.35,0,0,0,327.24,448.78Z"/>
      <path class="cls-3" d="M349.66,449v-1a30.56,30.56,0,0,0-49.8-23.58l0,0,19.06,19.8v13.87Zm-22.42-8.73a5.17,5.17,0,0,1,2.8.83l3.41-3.42,1.3,1.29-3.38,3.38a5.11,5.11,0,0,1,1,3.09,5.17,5.17,0,1,1-5.17-5.17Z"/>
      <path class="cls-3" d="M330.94,472.51c7.68,0,14.71,4.53,18.74,11.81h0s0-11.2,0-21.17l-49.31,13.94c-1.71,2.58-3,5.19-4.6,7.23H312.2c4.11-7.4,11.11-11.81,18.74-11.81Z"/>
      <path class="cls-3" d="M330.94,475c-6.28,0-12.1,3.45-15.82,9.3h31.65C343.1,478.55,337.26,475,330.94,475Z"/>
    </g>
  </g>
  <g>
    <path d="M359.69,454c1,0-7-23-7-23l-5,6.79-2,9.21,1,9,5,7,9-3Z"/>
    <g>
      <path class="cls-3" d="M370.44,445.22l-8.77-9.11a11.09,11.09,0,0,0-2.81,5c-.25,1.08-.53,3.9-.53,3.9l-3.41,6.81a1,1,0,0,0-.08.41,1,1,0,0,0,1,1h2.45v3.62c0,2.76,1.09,4.14,2.69,4.74l9.42-2.79V445.22Zm-8,2.22a1.53,1.53,0,1,1,1.52-1.52A1.53,1.53,0,0,1,362.45,447.44Z"/>
      <path class="cls-3" d="M403.66,451.54l-52.45,15.52,2.46,7.69,50-14.13c0-3.54,0-6.77,0-9.08Z"/>
      <path class="cls-3" d="M354.21,463.63a21.49,21.49,0,0,1,1.65-33.56l-1.83-1.9a24.1,24.1,0,0,0-2.72,36.32Z"/>
      <path class="cls-3" d="M381.24,448.78a3.35,3.35,0,1,0-3.34-3.34A3.35,3.35,0,0,0,381.24,448.78Z"/>
      <path class="cls-3" d="M403.66,449v-1a30.56,30.56,0,0,0-49.8-23.58l0,0,19.06,19.8v13.87Zm-22.42-8.73a5.17,5.17,0,0,1,2.8.83l3.41-3.42,1.3,1.29-3.38,3.38a5.11,5.11,0,0,1,1,3.09,5.17,5.17,0,1,1-5.17-5.17Z"/>
      <path class="cls-3" d="M384.94,472.51c7.68,0,14.71,4.53,18.74,11.81h0s0-11.2,0-21.17l-49.31,13.94c-1.71,2.58-3,5.19-4.6,7.23H366.2c4.11-7.4,11.11-11.81,18.74-11.81Z"/>
      <path class="cls-3" d="M384.94,475c-6.28,0-12.1,3.45-15.82,9.3h31.65C397.1,478.55,391.26,475,384.94,475Z"/>
    </g>
  </g>
  <g>
    <path class="cls-3" d="M472.44,445.22l-8.77-9.11a11.09,11.09,0,0,0-2.81,5c-.25,1.08-.53,3.9-.53,3.9l-3.41,6.81a1,1,0,0,0-.08.41,1,1,0,0,0,1,1h2.45v3.62c0,2.76,1.09,4.14,2.69,4.74l9.42-2.79V445.22Zm-8,2.22a1.53,1.53,0,1,1,1.52-1.52A1.53,1.53,0,0,1,464.45,447.44Z"/>
    <path class="cls-3" d="M505.66,451.54l-52.45,15.52,2.46,7.69,50-14.13c0-3.54,0-6.77,0-9.08Z"/>
    <path class="cls-3" d="M456.21,463.63a21.49,21.49,0,0,1,1.65-33.56l-1.83-1.9a24.1,24.1,0,0,0-2.72,36.32Z"/>
    <path class="cls-3" d="M483.24,448.78a3.35,3.35,0,1,0-3.34-3.34A3.35,3.35,0,0,0,483.24,448.78Z"/>
    <path class="cls-3" d="M505.66,449v-1a30.56,30.56,0,0,0-49.8-23.58l0,0,19.06,19.8v13.87Zm-22.42-8.73a5.17,5.17,0,0,1,2.8.83l3.41-3.42,1.3,1.29-3.38,3.38a5.11,5.11,0,0,1,1,3.09,5.17,5.17,0,1,1-5.17-5.17Z"/>
    <path class="cls-3" d="M486.94,472.51c7.68,0,14.71,4.53,18.74,11.81h0s0-11.2,0-21.17l-49.31,13.94c-1.71,2.58-3,5.19-4.6,7.23H468.2c4.11-7.4,11.11-11.81,18.74-11.81Z"/>
    <path class="cls-3" d="M486.94,475c-6.28,0-12.1,3.45-15.82,9.3h31.65C499.1,478.55,493.26,475,486.94,475Z"/>
  </g>
  <text class="cls-4" transform="translate(449.63 502.38)">Apolo 14</text>
  <g>
    <path d="M515.69,454c1,0-7-23-7-23l-5,6.79-2,9.21,1,9,5,7,9-3Z"/>
    <g>
      <path class="cls-3" d="M526.44,445.22l-8.77-9.11a11.09,11.09,0,0,0-2.81,5c-.25,1.08-.53,3.9-.53,3.9l-3.41,6.81a1,1,0,0,0-.08.41,1,1,0,0,0,1,1h2.45v3.62c0,2.76,1.09,4.14,2.69,4.74l9.42-2.79V445.22Zm-8,2.22a1.53,1.53,0,1,1,1.52-1.52A1.53,1.53,0,0,1,518.45,447.44Z"/>
      <path class="cls-3" d="M559.66,451.54l-52.45,15.52,2.46,7.69,50-14.13c0-3.54,0-6.77,0-9.08Z"/>
      <path class="cls-3" d="M510.21,463.63a21.49,21.49,0,0,1,1.65-33.56l-1.83-1.9a24.1,24.1,0,0,0-2.72,36.32Z"/>
      <path class="cls-3" d="M537.24,448.78a3.35,3.35,0,1,0-3.34-3.34A3.35,3.35,0,0,0,537.24,448.78Z"/>
      <path class="cls-3" d="M559.66,449v-1a30.56,30.56,0,0,0-49.8-23.58l0,0,19.06,19.8v13.87Zm-22.42-8.73a5.17,5.17,0,0,1,2.8.83l3.41-3.42,1.3,1.29-3.38,3.38a5.11,5.11,0,0,1,1,3.09,5.17,5.17,0,1,1-5.17-5.17Z"/>
      <path class="cls-3" d="M540.94,472.51c7.68,0,14.71,4.53,18.74,11.81h0s0-11.2,0-21.17l-49.31,13.94c-1.71,2.58-3,5.19-4.6,7.23H522.2c4.11-7.4,11.11-11.81,18.74-11.81Z"/>
      <path class="cls-3" d="M540.94,475c-6.28,0-12.1,3.45-15.82,9.3h31.65C553.1,478.55,547.26,475,540.94,475Z"/>
    </g>
  </g>
  <g>
    <path d="M569.69,454c1,0-7-23-7-23l-5,6.79-2,9.21,1,9,5,7,9-3Z"/>
    <g>
      <path class="cls-3" d="M580.44,445.22l-8.77-9.11a11.09,11.09,0,0,0-2.81,5c-.25,1.08-.53,3.9-.53,3.9l-3.41,6.81a1,1,0,0,0-.08.41,1,1,0,0,0,1,1h2.45v3.62c0,2.76,1.09,4.14,2.69,4.74l9.42-2.79V445.22Zm-8,2.22a1.53,1.53,0,1,1,1.52-1.52A1.53,1.53,0,0,1,572.45,447.44Z"/>
      <path class="cls-3" d="M613.66,451.54l-52.45,15.52,2.46,7.69,50-14.13c0-3.54,0-6.77,0-9.08Z"/>
      <path class="cls-3" d="M564.21,463.63a21.49,21.49,0,0,1,1.65-33.56l-1.83-1.9a24.1,24.1,0,0,0-2.72,36.32Z"/>
      <path class="cls-3" d="M591.24,448.78a3.35,3.35,0,1,0-3.34-3.34A3.35,3.35,0,0,0,591.24,448.78Z"/>
      <path class="cls-3" d="M613.66,449v-1a30.56,30.56,0,0,0-49.8-23.58l0,0,19.06,19.8v13.87Zm-22.42-8.73a5.17,5.17,0,0,1,2.8.83l3.41-3.42,1.3,1.29-3.38,3.38a5.11,5.11,0,0,1,1,3.09,5.17,5.17,0,1,1-5.17-5.17Z"/>
      <path class="cls-3" d="M594.94,472.51c7.68,0,14.71,4.53,18.74,11.81h0s0-11.2,0-21.17l-49.31,13.94c-1.71,2.58-3,5.19-4.6,7.23H576.2c4.11-7.4,11.11-11.81,18.74-11.81Z"/>
      <path class="cls-3" d="M594.94,475c-6.28,0-12.1,3.45-15.82,9.3h31.65C607.1,478.55,601.26,475,594.94,475Z"/>
    </g>
  </g>
  <g>
    <path class="cls-6" d="M262.44,582.22l-8.77-9.11a11.09,11.09,0,0,0-2.81,5c-.25,1.08-.53,3.9-.53,3.9l-3.41,6.81a1,1,0,0,0-.08.41,1,1,0,0,0,1,1h2.45v3.62c0,2.76,1.09,4.14,2.69,4.74l9.42-2.79V582.22Zm-8,2.22a1.53,1.53,0,1,1,1.52-1.52A1.53,1.53,0,0,1,254.45,584.44Z"/>
    <path class="cls-6" d="M295.66,588.54l-52.45,15.52,2.46,7.69,50-14.13c0-3.54,0-6.77,0-9.08Z"/>
    <path class="cls-6" d="M246.21,600.63a21.49,21.49,0,0,1,1.65-33.56l-1.83-1.9a24.1,24.1,0,0,0-2.72,36.32Z"/>
    <path class="cls-6" d="M273.24,585.78a3.35,3.35,0,1,0-3.34-3.34A3.35,3.35,0,0,0,273.24,585.78Z"/>
    <path class="cls-6" d="M295.66,586v-1a30.56,30.56,0,0,0-49.8-23.58l0,0,19.06,19.8v13.87Zm-22.42-8.73a5.17,5.17,0,0,1,2.8.83l3.41-3.42,1.3,1.29-3.38,3.38a5.11,5.11,0,0,1,1,3.09,5.17,5.17,0,1,1-5.17-5.17Z"/>
    <path class="cls-6" d="M276.94,609.51c7.68,0,14.71,4.53,18.74,11.81h0s0-11.2,0-21.17l-49.31,13.94c-1.71,2.58-3,5.19-4.6,7.23H258.2c4.11-7.4,11.11-11.81,18.74-11.81Z"/>
    <path class="cls-6" d="M276.94,612c-6.28,0-12.1,3.45-15.82,9.3h31.65C289.1,615.55,283.26,612,276.94,612Z"/>
  </g>
  <text class="cls-4" transform="translate(240.63 639.38)">Apolo 16</text>
  <g>
    <path d="M305.69,591c1,0-7-23-7-23l-5,6.79-2,9.21,1,9,5,7,9-3Z"/>
    <g>
      <path class="cls-3" d="M316.44,582.22l-8.77-9.11a11.09,11.09,0,0,0-2.81,5c-.25,1.08-.53,3.9-.53,3.9l-3.41,6.81a1,1,0,0,0-.08.41,1,1,0,0,0,1,1h2.45v3.62c0,2.76,1.09,4.14,2.69,4.74l9.42-2.79V582.22Zm-8,2.22a1.53,1.53,0,1,1,1.52-1.52A1.53,1.53,0,0,1,308.45,584.44Z"/>
      <path class="cls-3" d="M349.66,588.54l-52.45,15.52,2.46,7.69,50-14.13c0-3.54,0-6.77,0-9.08Z"/>
      <path class="cls-3" d="M300.21,600.63a21.49,21.49,0,0,1,1.65-33.56l-1.83-1.9a24.1,24.1,0,0,0-2.72,36.32Z"/>
      <path class="cls-3" d="M327.24,585.78a3.35,3.35,0,1,0-3.34-3.34A3.35,3.35,0,0,0,327.24,585.78Z"/>
      <path class="cls-3" d="M349.66,586v-1a30.56,30.56,0,0,0-49.8-23.58l0,0,19.06,19.8v13.87Zm-22.42-8.73a5.17,5.17,0,0,1,2.8.83l3.41-3.42,1.3,1.29-3.38,3.38a5.11,5.11,0,0,1,1,3.09,5.17,5.17,0,1,1-5.17-5.17Z"/>
      <path class="cls-3" d="M330.94,609.51c7.68,0,14.71,4.53,18.74,11.81h0s0-11.2,0-21.17l-49.31,13.94c-1.71,2.58-3,5.19-4.6,7.23H312.2c4.11-7.4,11.11-11.81,18.74-11.81Z"/>
      <path class="cls-3" d="M330.94,612c-6.28,0-12.1,3.45-15.82,9.3h31.65C343.1,615.55,337.26,612,330.94,612Z"/>
    </g>
  </g>
  <g>
    <path d="M359.69,591c1,0-7-23-7-23l-5,6.79-2,9.21,1,9,5,7,9-3Z"/>
    <g>
      <path class="cls-3" d="M370.44,582.22l-8.77-9.11a11.09,11.09,0,0,0-2.81,5c-.25,1.08-.53,3.9-.53,3.9l-3.41,6.81a1,1,0,0,0-.08.41,1,1,0,0,0,1,1h2.45v3.62c0,2.76,1.09,4.14,2.69,4.74l9.42-2.79V582.22Zm-8,2.22a1.53,1.53,0,1,1,1.52-1.52A1.53,1.53,0,0,1,362.45,584.44Z"/>
      <path class="cls-3" d="M403.66,588.54l-52.45,15.52,2.46,7.69,50-14.13c0-3.54,0-6.77,0-9.08Z"/>
      <path class="cls-3" d="M354.21,600.63a21.49,21.49,0,0,1,1.65-33.56l-1.83-1.9a24.1,24.1,0,0,0-2.72,36.32Z"/>
      <path class="cls-3" d="M381.24,585.78a3.35,3.35,0,1,0-3.34-3.34A3.35,3.35,0,0,0,381.24,585.78Z"/>
      <path class="cls-3" d="M403.66,586v-1a30.56,30.56,0,0,0-49.8-23.58l0,0,19.06,19.8v13.87Zm-22.42-8.73a5.17,5.17,0,0,1,2.8.83l3.41-3.42,1.3,1.29-3.38,3.38a5.11,5.11,0,0,1,1,3.09,5.17,5.17,0,1,1-5.17-5.17Z"/>
      <path class="cls-3" d="M384.94,609.51c7.68,0,14.71,4.53,18.74,11.81h0s0-11.2,0-21.17l-49.31,13.94c-1.71,2.58-3,5.19-4.6,7.23H366.2c4.11-7.4,11.11-11.81,18.74-11.81Z"/>
      <path class="cls-3" d="M384.94,612c-6.28,0-12.1,3.45-15.82,9.3h31.65C397.1,615.55,391.26,612,384.94,612Z"/>
    </g>
  </g>
  <g>
    <path class="cls-6" d="M472.44,582.22l-8.77-9.11a11.09,11.09,0,0,0-2.81,5c-.25,1.08-.53,3.9-.53,3.9l-3.41,6.81a1,1,0,0,0-.08.41,1,1,0,0,0,1,1h2.45v3.62c0,2.76,1.09,4.14,2.69,4.74l9.42-2.79V582.22Zm-8,2.22a1.53,1.53,0,1,1,1.52-1.52A1.53,1.53,0,0,1,464.45,584.44Z"/>
    <path class="cls-6" d="M505.66,588.54l-52.45,15.52,2.46,7.69,50-14.13c0-3.54,0-6.77,0-9.08Z"/>
    <path class="cls-6" d="M456.21,600.63a21.49,21.49,0,0,1,1.65-33.56l-1.83-1.9a24.1,24.1,0,0,0-2.72,36.32Z"/>
    <path class="cls-6" d="M483.24,585.78a3.35,3.35,0,1,0-3.34-3.34A3.35,3.35,0,0,0,483.24,585.78Z"/>
    <path class="cls-6" d="M505.66,586v-1a30.56,30.56,0,0,0-49.8-23.58l0,0,19.06,19.8v13.87Zm-22.42-8.73a5.17,5.17,0,0,1,2.8.83l3.41-3.42,1.3,1.29-3.38,3.38a5.11,5.11,0,0,1,1,3.09,5.17,5.17,0,1,1-5.17-5.17Z"/>
    <path class="cls-6" d="M486.94,609.51c7.68,0,14.71,4.53,18.74,11.81h0s0-11.2,0-21.17l-49.31,13.94c-1.71,2.58-3,5.19-4.6,7.23H468.2c4.11-7.4,11.11-11.81,18.74-11.81Z"/>
    <path class="cls-6" d="M486.94,612c-6.28,0-12.1,3.45-15.82,9.3h31.65C499.1,615.55,493.26,612,486.94,612Z"/>
  </g>
  <text class="cls-4" transform="translate(449.63 639.38)">Apolo 17</text>
  <g>
    <path d="M515.69,591c1,0-7-23-7-23l-5,6.79-2,9.21,1,9,5,7,9-3Z"/>
    <g>
      <path class="cls-3" d="M526.44,582.22l-8.77-9.11a11.09,11.09,0,0,0-2.81,5c-.25,1.08-.53,3.9-.53,3.9l-3.41,6.81a1,1,0,0,0-.08.41,1,1,0,0,0,1,1h2.45v3.62c0,2.76,1.09,4.14,2.69,4.74l9.42-2.79V582.22Zm-8,2.22a1.53,1.53,0,1,1,1.52-1.52A1.53,1.53,0,0,1,518.45,584.44Z"/>
      <path class="cls-3" d="M559.66,588.54l-52.45,15.52,2.46,7.69,50-14.13c0-3.54,0-6.77,0-9.08Z"/>
      <path class="cls-3" d="M510.21,600.63a21.49,21.49,0,0,1,1.65-33.56l-1.83-1.9a24.1,24.1,0,0,0-2.72,36.32Z"/>
      <path class="cls-3" d="M537.24,585.78a3.35,3.35,0,1,0-3.34-3.34A3.35,3.35,0,0,0,537.24,585.78Z"/>
      <path class="cls-3" d="M559.66,586v-1a30.56,30.56,0,0,0-49.8-23.58l0,0,19.06,19.8v13.87Zm-22.42-8.73a5.17,5.17,0,0,1,2.8.83l3.41-3.42,1.3,1.29-3.38,3.38a5.11,5.11,0,0,1,1,3.09,5.17,5.17,0,1,1-5.17-5.17Z"/>
      <path class="cls-3" d="M540.94,609.51c7.68,0,14.71,4.53,18.74,11.81h0s0-11.2,0-21.17l-49.31,13.94c-1.71,2.58-3,5.19-4.6,7.23H522.2c4.11-7.4,11.11-11.81,18.74-11.81Z"/>
      <path class="cls-3" d="M540.94,612c-6.28,0-12.1,3.45-15.82,9.3h31.65C553.1,615.55,547.26,612,540.94,612Z"/>
    </g>
  </g>
  <g>
    <path d="M569.69,591c1,0-7-23-7-23l-5,6.79-2,9.21,1,9,5,7,9-3Z"/>
    <g>
      <path class="cls-3" d="M580.44,582.22l-8.77-9.11a11.09,11.09,0,0,0-2.81,5c-.25,1.08-.53,3.9-.53,3.9l-3.41,6.81a1,1,0,0,0-.08.41,1,1,0,0,0,1,1h2.45v3.62c0,2.76,1.09,4.14,2.69,4.74l9.42-2.79V582.22Zm-8,2.22a1.53,1.53,0,1,1,1.52-1.52A1.53,1.53,0,0,1,572.45,584.44Z"/>
      <path class="cls-3" d="M613.66,588.54l-52.45,15.52,2.46,7.69,50-14.13c0-3.54,0-6.77,0-9.08Z"/>
      <path class="cls-3" d="M564.21,600.63a21.49,21.49,0,0,1,1.65-33.56l-1.83-1.9a24.1,24.1,0,0,0-2.72,36.32Z"/>
      <path class="cls-3" d="M591.24,585.78a3.35,3.35,0,1,0-3.34-3.34A3.35,3.35,0,0,0,591.24,585.78Z"/>
      <path class="cls-3" d="M613.66,586v-1a30.56,30.56,0,0,0-49.8-23.58l0,0,19.06,19.8v13.87Zm-22.42-8.73a5.17,5.17,0,0,1,2.8.83l3.41-3.42,1.3,1.29-3.38,3.38a5.11,5.11,0,0,1,1,3.09,5.17,5.17,0,1,1-5.17-5.17Z"/>
      <path class="cls-3" d="M594.94,609.51c7.68,0,14.71,4.53,18.74,11.81h0s0-11.2,0-21.17l-49.31,13.94c-1.71,2.58-3,5.19-4.6,7.23H576.2c4.11-7.4,11.11-11.81,18.74-11.81Z"/>
      <path class="cls-3" d="M594.94,612c-6.28,0-12.1,3.45-15.82,9.3h31.65C607.1,615.55,601.26,612,594.94,612Z"/>
    </g>
  </g>
  <text class="cls-4" transform="translate(78.82 22.38)">No sob<tspan class="cls-8" x="44.49" y="0">r</tspan><tspan class="cls-9" x="49.1" y="0">e</tspan><tspan x="56.42" y="0">vivie</tspan><tspan class="cls-10" x="84.2" y="0">r</tspan><tspan x="88.8" y="0">on</tspan></text>
  <rect class="cls-1" x="43" y="6" width="23" height="23"/>
  <text class="cls-4" transform="translate(288.82 23.21)">Sob<tspan class="cls-8" x="24.14" y="0">r</tspan><tspan class="cls-9" x="28.75" y="0">e</tspan><tspan x="36.08" y="0">vivie</tspan><tspan class="cls-10" x="63.85" y="0">r</tspan><tspan x="68.46" y="0">on</tspan></text>
  <rect class="cls-3" x="253" y="6" width="23" height="23"/>
  <text class="cls-4" transform="translate(499.38 24.38)"><tspan class="cls-11">V</tspan><tspan x="8.59" y="0">olvie</tspan><tspan class="cls-10" x="37.57" y="0">r</tspan><tspan x="42.17" y="0">on a viajar</tspan></text>
  <rect class="cls-5" x="463.56" y="8" width="23" height="23"/>
  <text class="cls-4" transform="translate(498.82 57.88)">Dónde <tspan class="cls-12" x="43.67" y="0">v</tspan><tspan x="50.35" y="0">olvie</tspan><tspan class="cls-10" x="79.32" y="0">r</tspan><tspan x="83.92" y="0">on </tspan><tspan x="0" y="16.8">a viajar</tspan></text>
  <rect class="cls-6" x="463.5" y="49.5" width="23" height="23"/>
</svg>
